%TF.GenerationSoftware,KiCad,Pcbnew,5.1.10*%
%TF.CreationDate,2021-12-10T15:57:17+01:00*%
%TF.ProjectId,PCB_PEE30 zonder mountingholes,5043425f-5045-4453-9330-207a6f6e6465,rev?*%
%TF.SameCoordinates,Original*%
%TF.FileFunction,Copper,L1,Top*%
%TF.FilePolarity,Positive*%
%FSLAX46Y46*%
G04 Gerber Fmt 4.6, Leading zero omitted, Abs format (unit mm)*
G04 Created by KiCad (PCBNEW 5.1.10) date 2021-12-10 15:57:17*
%MOMM*%
%LPD*%
G01*
G04 APERTURE LIST*
%TA.AperFunction,ComponentPad*%
%ADD10C,2.300000*%
%TD*%
%TA.AperFunction,ComponentPad*%
%ADD11O,1.600000X1.600000*%
%TD*%
%TA.AperFunction,ComponentPad*%
%ADD12R,1.600000X1.600000*%
%TD*%
%TA.AperFunction,Conductor*%
%ADD13C,0.250000*%
%TD*%
%TA.AperFunction,Conductor*%
%ADD14C,0.254000*%
%TD*%
%TA.AperFunction,Conductor*%
%ADD15C,0.150000*%
%TD*%
G04 APERTURE END LIST*
D10*
%TO.P,J1,2*%
%TO.N,GND1*%
X138700000Y-166150000D03*
%TO.P,J1,1*%
%TO.N,+3V3*%
%TA.AperFunction,ComponentPad*%
G36*
G01*
X144650000Y-165250000D02*
X144650000Y-167050000D01*
G75*
G02*
X144400000Y-167300000I-250000J0D01*
G01*
X142600000Y-167300000D01*
G75*
G02*
X142350000Y-167050000I0J250000D01*
G01*
X142350000Y-165250000D01*
G75*
G02*
X142600000Y-165000000I250000J0D01*
G01*
X144400000Y-165000000D01*
G75*
G02*
X144650000Y-165250000I0J-250000D01*
G01*
G37*
%TD.AperFunction*%
%TD*%
D11*
%TO.P,U8,4*%
%TO.N,Net-(R4-Pad2)*%
X152350000Y-140830000D03*
%TO.P,U8,2*%
%TO.N,GND1*%
X154890000Y-148450000D03*
%TO.P,U8,3*%
%TO.N,GNDS*%
X154890000Y-140830000D03*
D12*
%TO.P,U8,1*%
%TO.N,Net-(R3-Pad2)*%
X152350000Y-148450000D03*
%TD*%
D11*
%TO.P,U7,4*%
%TO.N,Net-(R2-Pad2)*%
X143650000Y-140830000D03*
%TO.P,U7,2*%
%TO.N,GND1*%
X146190000Y-148450000D03*
%TO.P,U7,3*%
%TO.N,GNDS*%
X146190000Y-140830000D03*
D12*
%TO.P,U7,1*%
%TO.N,Net-(R1-Pad2)*%
X143650000Y-148450000D03*
%TD*%
D11*
%TO.P,U4,4*%
%TO.N,In3*%
X137160000Y-148590000D03*
%TO.P,U4,2*%
%TO.N,GNDS*%
X134620000Y-140970000D03*
%TO.P,U4,3*%
%TO.N,GND1*%
X134620000Y-148590000D03*
D12*
%TO.P,U4,1*%
%TO.N,Net-(R10-Pad2)*%
X137160000Y-140970000D03*
%TD*%
D11*
%TO.P,U3,4*%
%TO.N,In1*%
X121770000Y-148590000D03*
%TO.P,U3,2*%
%TO.N,GNDS*%
X119230000Y-140970000D03*
%TO.P,U3,3*%
%TO.N,GND1*%
X119230000Y-148590000D03*
D12*
%TO.P,U3,1*%
%TO.N,Net-(R9-Pad2)*%
X121770000Y-140970000D03*
%TD*%
D11*
%TO.P,U2,4*%
%TO.N,In2*%
X129580000Y-148540000D03*
%TO.P,U2,2*%
%TO.N,GNDS*%
X127040000Y-140920000D03*
%TO.P,U2,3*%
%TO.N,GND1*%
X127040000Y-148540000D03*
D12*
%TO.P,U2,1*%
%TO.N,Net-(R8-Pad2)*%
X129580000Y-140920000D03*
%TD*%
%TO.P,U1,14*%
%TO.N,+3V3*%
%TA.AperFunction,SMDPad,CuDef*%
G36*
G01*
X123790000Y-156000000D02*
X123490000Y-156000000D01*
G75*
G02*
X123340000Y-155850000I0J150000D01*
G01*
X123340000Y-154200000D01*
G75*
G02*
X123490000Y-154050000I150000J0D01*
G01*
X123790000Y-154050000D01*
G75*
G02*
X123940000Y-154200000I0J-150000D01*
G01*
X123940000Y-155850000D01*
G75*
G02*
X123790000Y-156000000I-150000J0D01*
G01*
G37*
%TD.AperFunction*%
%TO.P,U1,13*%
%TO.N,Net-(U1-Pad13)*%
%TA.AperFunction,SMDPad,CuDef*%
G36*
G01*
X125060000Y-156000000D02*
X124760000Y-156000000D01*
G75*
G02*
X124610000Y-155850000I0J150000D01*
G01*
X124610000Y-154200000D01*
G75*
G02*
X124760000Y-154050000I150000J0D01*
G01*
X125060000Y-154050000D01*
G75*
G02*
X125210000Y-154200000I0J-150000D01*
G01*
X125210000Y-155850000D01*
G75*
G02*
X125060000Y-156000000I-150000J0D01*
G01*
G37*
%TD.AperFunction*%
%TO.P,U1,12*%
%TO.N,Net-(U1-Pad12)*%
%TA.AperFunction,SMDPad,CuDef*%
G36*
G01*
X126330000Y-156000000D02*
X126030000Y-156000000D01*
G75*
G02*
X125880000Y-155850000I0J150000D01*
G01*
X125880000Y-154200000D01*
G75*
G02*
X126030000Y-154050000I150000J0D01*
G01*
X126330000Y-154050000D01*
G75*
G02*
X126480000Y-154200000I0J-150000D01*
G01*
X126480000Y-155850000D01*
G75*
G02*
X126330000Y-156000000I-150000J0D01*
G01*
G37*
%TD.AperFunction*%
%TO.P,U1,11*%
%TO.N,Net-(U1-Pad11)*%
%TA.AperFunction,SMDPad,CuDef*%
G36*
G01*
X127600000Y-156000000D02*
X127300000Y-156000000D01*
G75*
G02*
X127150000Y-155850000I0J150000D01*
G01*
X127150000Y-154200000D01*
G75*
G02*
X127300000Y-154050000I150000J0D01*
G01*
X127600000Y-154050000D01*
G75*
G02*
X127750000Y-154200000I0J-150000D01*
G01*
X127750000Y-155850000D01*
G75*
G02*
X127600000Y-156000000I-150000J0D01*
G01*
G37*
%TD.AperFunction*%
%TO.P,U1,10*%
%TO.N,Net-(U1-Pad10)*%
%TA.AperFunction,SMDPad,CuDef*%
G36*
G01*
X128870000Y-156000000D02*
X128570000Y-156000000D01*
G75*
G02*
X128420000Y-155850000I0J150000D01*
G01*
X128420000Y-154200000D01*
G75*
G02*
X128570000Y-154050000I150000J0D01*
G01*
X128870000Y-154050000D01*
G75*
G02*
X129020000Y-154200000I0J-150000D01*
G01*
X129020000Y-155850000D01*
G75*
G02*
X128870000Y-156000000I-150000J0D01*
G01*
G37*
%TD.AperFunction*%
%TO.P,U1,9*%
%TO.N,In3*%
%TA.AperFunction,SMDPad,CuDef*%
G36*
G01*
X130140000Y-156000000D02*
X129840000Y-156000000D01*
G75*
G02*
X129690000Y-155850000I0J150000D01*
G01*
X129690000Y-154200000D01*
G75*
G02*
X129840000Y-154050000I150000J0D01*
G01*
X130140000Y-154050000D01*
G75*
G02*
X130290000Y-154200000I0J-150000D01*
G01*
X130290000Y-155850000D01*
G75*
G02*
X130140000Y-156000000I-150000J0D01*
G01*
G37*
%TD.AperFunction*%
%TO.P,U1,8*%
%TO.N,Out3*%
%TA.AperFunction,SMDPad,CuDef*%
G36*
G01*
X131410000Y-156000000D02*
X131110000Y-156000000D01*
G75*
G02*
X130960000Y-155850000I0J150000D01*
G01*
X130960000Y-154200000D01*
G75*
G02*
X131110000Y-154050000I150000J0D01*
G01*
X131410000Y-154050000D01*
G75*
G02*
X131560000Y-154200000I0J-150000D01*
G01*
X131560000Y-155850000D01*
G75*
G02*
X131410000Y-156000000I-150000J0D01*
G01*
G37*
%TD.AperFunction*%
%TO.P,U1,7*%
%TO.N,GND1*%
%TA.AperFunction,SMDPad,CuDef*%
G36*
G01*
X131410000Y-160950000D02*
X131110000Y-160950000D01*
G75*
G02*
X130960000Y-160800000I0J150000D01*
G01*
X130960000Y-159150000D01*
G75*
G02*
X131110000Y-159000000I150000J0D01*
G01*
X131410000Y-159000000D01*
G75*
G02*
X131560000Y-159150000I0J-150000D01*
G01*
X131560000Y-160800000D01*
G75*
G02*
X131410000Y-160950000I-150000J0D01*
G01*
G37*
%TD.AperFunction*%
%TO.P,U1,6*%
%TO.N,Out2*%
%TA.AperFunction,SMDPad,CuDef*%
G36*
G01*
X130140000Y-160950000D02*
X129840000Y-160950000D01*
G75*
G02*
X129690000Y-160800000I0J150000D01*
G01*
X129690000Y-159150000D01*
G75*
G02*
X129840000Y-159000000I150000J0D01*
G01*
X130140000Y-159000000D01*
G75*
G02*
X130290000Y-159150000I0J-150000D01*
G01*
X130290000Y-160800000D01*
G75*
G02*
X130140000Y-160950000I-150000J0D01*
G01*
G37*
%TD.AperFunction*%
%TO.P,U1,5*%
%TO.N,In2*%
%TA.AperFunction,SMDPad,CuDef*%
G36*
G01*
X128870000Y-160950000D02*
X128570000Y-160950000D01*
G75*
G02*
X128420000Y-160800000I0J150000D01*
G01*
X128420000Y-159150000D01*
G75*
G02*
X128570000Y-159000000I150000J0D01*
G01*
X128870000Y-159000000D01*
G75*
G02*
X129020000Y-159150000I0J-150000D01*
G01*
X129020000Y-160800000D01*
G75*
G02*
X128870000Y-160950000I-150000J0D01*
G01*
G37*
%TD.AperFunction*%
%TO.P,U1,4*%
%TO.N,Net-(U1-Pad4)*%
%TA.AperFunction,SMDPad,CuDef*%
G36*
G01*
X127600000Y-160950000D02*
X127300000Y-160950000D01*
G75*
G02*
X127150000Y-160800000I0J150000D01*
G01*
X127150000Y-159150000D01*
G75*
G02*
X127300000Y-159000000I150000J0D01*
G01*
X127600000Y-159000000D01*
G75*
G02*
X127750000Y-159150000I0J-150000D01*
G01*
X127750000Y-160800000D01*
G75*
G02*
X127600000Y-160950000I-150000J0D01*
G01*
G37*
%TD.AperFunction*%
%TO.P,U1,3*%
%TO.N,Net-(U1-Pad3)*%
%TA.AperFunction,SMDPad,CuDef*%
G36*
G01*
X126330000Y-160950000D02*
X126030000Y-160950000D01*
G75*
G02*
X125880000Y-160800000I0J150000D01*
G01*
X125880000Y-159150000D01*
G75*
G02*
X126030000Y-159000000I150000J0D01*
G01*
X126330000Y-159000000D01*
G75*
G02*
X126480000Y-159150000I0J-150000D01*
G01*
X126480000Y-160800000D01*
G75*
G02*
X126330000Y-160950000I-150000J0D01*
G01*
G37*
%TD.AperFunction*%
%TO.P,U1,2*%
%TO.N,Out1*%
%TA.AperFunction,SMDPad,CuDef*%
G36*
G01*
X125060000Y-160950000D02*
X124760000Y-160950000D01*
G75*
G02*
X124610000Y-160800000I0J150000D01*
G01*
X124610000Y-159150000D01*
G75*
G02*
X124760000Y-159000000I150000J0D01*
G01*
X125060000Y-159000000D01*
G75*
G02*
X125210000Y-159150000I0J-150000D01*
G01*
X125210000Y-160800000D01*
G75*
G02*
X125060000Y-160950000I-150000J0D01*
G01*
G37*
%TD.AperFunction*%
%TO.P,U1,1*%
%TO.N,In1*%
%TA.AperFunction,SMDPad,CuDef*%
G36*
G01*
X123790000Y-160950000D02*
X123490000Y-160950000D01*
G75*
G02*
X123340000Y-160800000I0J150000D01*
G01*
X123340000Y-159150000D01*
G75*
G02*
X123490000Y-159000000I150000J0D01*
G01*
X123790000Y-159000000D01*
G75*
G02*
X123940000Y-159150000I0J-150000D01*
G01*
X123940000Y-160800000D01*
G75*
G02*
X123790000Y-160950000I-150000J0D01*
G01*
G37*
%TD.AperFunction*%
%TD*%
D10*
%TO.P,TTL_Output1,2*%
%TO.N,Net-(R4-Pad2)*%
X149900000Y-134700000D03*
%TO.P,TTL_Output1,1*%
%TO.N,Net-(R2-Pad2)*%
%TA.AperFunction,ComponentPad*%
G36*
G01*
X143950000Y-135600000D02*
X143950000Y-133800000D01*
G75*
G02*
X144200000Y-133550000I250000J0D01*
G01*
X146000000Y-133550000D01*
G75*
G02*
X146250000Y-133800000I0J-250000D01*
G01*
X146250000Y-135600000D01*
G75*
G02*
X146000000Y-135850000I-250000J0D01*
G01*
X144200000Y-135850000D01*
G75*
G02*
X143950000Y-135600000I0J250000D01*
G01*
G37*
%TD.AperFunction*%
%TD*%
%TO.P,TTL_MSP-kant_2,2*%
%TO.N,Net-(R1-Pad1)*%
X150500000Y-166000000D03*
%TO.P,TTL_MSP-kant_2,1*%
%TO.N,Net-(R3-Pad1)*%
%TA.AperFunction,ComponentPad*%
G36*
G01*
X156450000Y-165100000D02*
X156450000Y-166900000D01*
G75*
G02*
X156200000Y-167150000I-250000J0D01*
G01*
X154400000Y-167150000D01*
G75*
G02*
X154150000Y-166900000I0J250000D01*
G01*
X154150000Y-165100000D01*
G75*
G02*
X154400000Y-164850000I250000J0D01*
G01*
X156200000Y-164850000D01*
G75*
G02*
X156450000Y-165100000I0J-250000D01*
G01*
G37*
%TD.AperFunction*%
%TD*%
%TO.P,TTL_MSP-kant_1,3*%
%TO.N,Out1*%
X122050000Y-166150000D03*
%TO.P,TTL_MSP-kant_1,2*%
%TO.N,Out2*%
X126850000Y-166150000D03*
%TO.P,TTL_MSP-kant_1,1*%
%TO.N,Out3*%
%TA.AperFunction,ComponentPad*%
G36*
G01*
X132800000Y-165250000D02*
X132800000Y-167050000D01*
G75*
G02*
X132550000Y-167300000I-250000J0D01*
G01*
X130750000Y-167300000D01*
G75*
G02*
X130500000Y-167050000I0J250000D01*
G01*
X130500000Y-165250000D01*
G75*
G02*
X130750000Y-165000000I250000J0D01*
G01*
X132550000Y-165000000D01*
G75*
G02*
X132800000Y-165250000I0J-250000D01*
G01*
G37*
%TD.AperFunction*%
%TD*%
%TO.P,R10,2*%
%TO.N,Net-(R10-Pad2)*%
%TA.AperFunction,SMDPad,CuDef*%
G36*
G01*
X136962500Y-138408500D02*
X137437500Y-138408500D01*
G75*
G02*
X137675000Y-138646000I0J-237500D01*
G01*
X137675000Y-139146000D01*
G75*
G02*
X137437500Y-139383500I-237500J0D01*
G01*
X136962500Y-139383500D01*
G75*
G02*
X136725000Y-139146000I0J237500D01*
G01*
X136725000Y-138646000D01*
G75*
G02*
X136962500Y-138408500I237500J0D01*
G01*
G37*
%TD.AperFunction*%
%TO.P,R10,1*%
%TO.N,Net-(R10-Pad1)*%
%TA.AperFunction,SMDPad,CuDef*%
G36*
G01*
X136962500Y-136583500D02*
X137437500Y-136583500D01*
G75*
G02*
X137675000Y-136821000I0J-237500D01*
G01*
X137675000Y-137321000D01*
G75*
G02*
X137437500Y-137558500I-237500J0D01*
G01*
X136962500Y-137558500D01*
G75*
G02*
X136725000Y-137321000I0J237500D01*
G01*
X136725000Y-136821000D01*
G75*
G02*
X136962500Y-136583500I237500J0D01*
G01*
G37*
%TD.AperFunction*%
%TD*%
%TO.P,R9,2*%
%TO.N,Net-(R9-Pad2)*%
%TA.AperFunction,SMDPad,CuDef*%
G36*
G01*
X121562500Y-138450500D02*
X122037500Y-138450500D01*
G75*
G02*
X122275000Y-138688000I0J-237500D01*
G01*
X122275000Y-139188000D01*
G75*
G02*
X122037500Y-139425500I-237500J0D01*
G01*
X121562500Y-139425500D01*
G75*
G02*
X121325000Y-139188000I0J237500D01*
G01*
X121325000Y-138688000D01*
G75*
G02*
X121562500Y-138450500I237500J0D01*
G01*
G37*
%TD.AperFunction*%
%TO.P,R9,1*%
%TO.N,Net-(R9-Pad1)*%
%TA.AperFunction,SMDPad,CuDef*%
G36*
G01*
X121562500Y-136625500D02*
X122037500Y-136625500D01*
G75*
G02*
X122275000Y-136863000I0J-237500D01*
G01*
X122275000Y-137363000D01*
G75*
G02*
X122037500Y-137600500I-237500J0D01*
G01*
X121562500Y-137600500D01*
G75*
G02*
X121325000Y-137363000I0J237500D01*
G01*
X121325000Y-136863000D01*
G75*
G02*
X121562500Y-136625500I237500J0D01*
G01*
G37*
%TD.AperFunction*%
%TD*%
%TO.P,R8,2*%
%TO.N,Net-(R8-Pad2)*%
%TA.AperFunction,SMDPad,CuDef*%
G36*
G01*
X129362500Y-138450500D02*
X129837500Y-138450500D01*
G75*
G02*
X130075000Y-138688000I0J-237500D01*
G01*
X130075000Y-139188000D01*
G75*
G02*
X129837500Y-139425500I-237500J0D01*
G01*
X129362500Y-139425500D01*
G75*
G02*
X129125000Y-139188000I0J237500D01*
G01*
X129125000Y-138688000D01*
G75*
G02*
X129362500Y-138450500I237500J0D01*
G01*
G37*
%TD.AperFunction*%
%TO.P,R8,1*%
%TO.N,Net-(R8-Pad1)*%
%TA.AperFunction,SMDPad,CuDef*%
G36*
G01*
X129362500Y-136625500D02*
X129837500Y-136625500D01*
G75*
G02*
X130075000Y-136863000I0J-237500D01*
G01*
X130075000Y-137363000D01*
G75*
G02*
X129837500Y-137600500I-237500J0D01*
G01*
X129362500Y-137600500D01*
G75*
G02*
X129125000Y-137363000I0J237500D01*
G01*
X129125000Y-136863000D01*
G75*
G02*
X129362500Y-136625500I237500J0D01*
G01*
G37*
%TD.AperFunction*%
%TD*%
%TO.P,R7,2*%
%TO.N,In3*%
%TA.AperFunction,SMDPad,CuDef*%
G36*
G01*
X137587500Y-151213000D02*
X137112500Y-151213000D01*
G75*
G02*
X136875000Y-150975500I0J237500D01*
G01*
X136875000Y-150475500D01*
G75*
G02*
X137112500Y-150238000I237500J0D01*
G01*
X137587500Y-150238000D01*
G75*
G02*
X137825000Y-150475500I0J-237500D01*
G01*
X137825000Y-150975500D01*
G75*
G02*
X137587500Y-151213000I-237500J0D01*
G01*
G37*
%TD.AperFunction*%
%TO.P,R7,1*%
%TO.N,+3V3*%
%TA.AperFunction,SMDPad,CuDef*%
G36*
G01*
X137587500Y-153038000D02*
X137112500Y-153038000D01*
G75*
G02*
X136875000Y-152800500I0J237500D01*
G01*
X136875000Y-152300500D01*
G75*
G02*
X137112500Y-152063000I237500J0D01*
G01*
X137587500Y-152063000D01*
G75*
G02*
X137825000Y-152300500I0J-237500D01*
G01*
X137825000Y-152800500D01*
G75*
G02*
X137587500Y-153038000I-237500J0D01*
G01*
G37*
%TD.AperFunction*%
%TD*%
%TO.P,R6,2*%
%TO.N,In1*%
%TA.AperFunction,SMDPad,CuDef*%
G36*
G01*
X121987500Y-151062500D02*
X121512500Y-151062500D01*
G75*
G02*
X121275000Y-150825000I0J237500D01*
G01*
X121275000Y-150325000D01*
G75*
G02*
X121512500Y-150087500I237500J0D01*
G01*
X121987500Y-150087500D01*
G75*
G02*
X122225000Y-150325000I0J-237500D01*
G01*
X122225000Y-150825000D01*
G75*
G02*
X121987500Y-151062500I-237500J0D01*
G01*
G37*
%TD.AperFunction*%
%TO.P,R6,1*%
%TO.N,+3V3*%
%TA.AperFunction,SMDPad,CuDef*%
G36*
G01*
X121987500Y-152887500D02*
X121512500Y-152887500D01*
G75*
G02*
X121275000Y-152650000I0J237500D01*
G01*
X121275000Y-152150000D01*
G75*
G02*
X121512500Y-151912500I237500J0D01*
G01*
X121987500Y-151912500D01*
G75*
G02*
X122225000Y-152150000I0J-237500D01*
G01*
X122225000Y-152650000D01*
G75*
G02*
X121987500Y-152887500I-237500J0D01*
G01*
G37*
%TD.AperFunction*%
%TD*%
%TO.P,R5,2*%
%TO.N,In2*%
%TA.AperFunction,SMDPad,CuDef*%
G36*
G01*
X128025000Y-150912500D02*
X128025000Y-151387500D01*
G75*
G02*
X127787500Y-151625000I-237500J0D01*
G01*
X127287500Y-151625000D01*
G75*
G02*
X127050000Y-151387500I0J237500D01*
G01*
X127050000Y-150912500D01*
G75*
G02*
X127287500Y-150675000I237500J0D01*
G01*
X127787500Y-150675000D01*
G75*
G02*
X128025000Y-150912500I0J-237500D01*
G01*
G37*
%TD.AperFunction*%
%TO.P,R5,1*%
%TO.N,+3V3*%
%TA.AperFunction,SMDPad,CuDef*%
G36*
G01*
X129850000Y-150912500D02*
X129850000Y-151387500D01*
G75*
G02*
X129612500Y-151625000I-237500J0D01*
G01*
X129112500Y-151625000D01*
G75*
G02*
X128875000Y-151387500I0J237500D01*
G01*
X128875000Y-150912500D01*
G75*
G02*
X129112500Y-150675000I237500J0D01*
G01*
X129612500Y-150675000D01*
G75*
G02*
X129850000Y-150912500I0J-237500D01*
G01*
G37*
%TD.AperFunction*%
%TD*%
%TO.P,R4,2*%
%TO.N,Net-(R4-Pad2)*%
%TA.AperFunction,SMDPad,CuDef*%
G36*
G01*
X151812500Y-139175500D02*
X151812500Y-138700500D01*
G75*
G02*
X152050000Y-138463000I237500J0D01*
G01*
X152550000Y-138463000D01*
G75*
G02*
X152787500Y-138700500I0J-237500D01*
G01*
X152787500Y-139175500D01*
G75*
G02*
X152550000Y-139413000I-237500J0D01*
G01*
X152050000Y-139413000D01*
G75*
G02*
X151812500Y-139175500I0J237500D01*
G01*
G37*
%TD.AperFunction*%
%TO.P,R4,1*%
%TO.N,+3.3VP*%
%TA.AperFunction,SMDPad,CuDef*%
G36*
G01*
X149987500Y-139175500D02*
X149987500Y-138700500D01*
G75*
G02*
X150225000Y-138463000I237500J0D01*
G01*
X150725000Y-138463000D01*
G75*
G02*
X150962500Y-138700500I0J-237500D01*
G01*
X150962500Y-139175500D01*
G75*
G02*
X150725000Y-139413000I-237500J0D01*
G01*
X150225000Y-139413000D01*
G75*
G02*
X149987500Y-139175500I0J237500D01*
G01*
G37*
%TD.AperFunction*%
%TD*%
%TO.P,R3,2*%
%TO.N,Net-(R3-Pad2)*%
%TA.AperFunction,SMDPad,CuDef*%
G36*
G01*
X152537500Y-151316500D02*
X152062500Y-151316500D01*
G75*
G02*
X151825000Y-151079000I0J237500D01*
G01*
X151825000Y-150579000D01*
G75*
G02*
X152062500Y-150341500I237500J0D01*
G01*
X152537500Y-150341500D01*
G75*
G02*
X152775000Y-150579000I0J-237500D01*
G01*
X152775000Y-151079000D01*
G75*
G02*
X152537500Y-151316500I-237500J0D01*
G01*
G37*
%TD.AperFunction*%
%TO.P,R3,1*%
%TO.N,Net-(R3-Pad1)*%
%TA.AperFunction,SMDPad,CuDef*%
G36*
G01*
X152537500Y-153141500D02*
X152062500Y-153141500D01*
G75*
G02*
X151825000Y-152904000I0J237500D01*
G01*
X151825000Y-152404000D01*
G75*
G02*
X152062500Y-152166500I237500J0D01*
G01*
X152537500Y-152166500D01*
G75*
G02*
X152775000Y-152404000I0J-237500D01*
G01*
X152775000Y-152904000D01*
G75*
G02*
X152537500Y-153141500I-237500J0D01*
G01*
G37*
%TD.AperFunction*%
%TD*%
%TO.P,R2,2*%
%TO.N,Net-(R2-Pad2)*%
%TA.AperFunction,SMDPad,CuDef*%
G36*
G01*
X143162500Y-139175500D02*
X143162500Y-138700500D01*
G75*
G02*
X143400000Y-138463000I237500J0D01*
G01*
X143900000Y-138463000D01*
G75*
G02*
X144137500Y-138700500I0J-237500D01*
G01*
X144137500Y-139175500D01*
G75*
G02*
X143900000Y-139413000I-237500J0D01*
G01*
X143400000Y-139413000D01*
G75*
G02*
X143162500Y-139175500I0J237500D01*
G01*
G37*
%TD.AperFunction*%
%TO.P,R2,1*%
%TO.N,+3.3VP*%
%TA.AperFunction,SMDPad,CuDef*%
G36*
G01*
X141337500Y-139175500D02*
X141337500Y-138700500D01*
G75*
G02*
X141575000Y-138463000I237500J0D01*
G01*
X142075000Y-138463000D01*
G75*
G02*
X142312500Y-138700500I0J-237500D01*
G01*
X142312500Y-139175500D01*
G75*
G02*
X142075000Y-139413000I-237500J0D01*
G01*
X141575000Y-139413000D01*
G75*
G02*
X141337500Y-139175500I0J237500D01*
G01*
G37*
%TD.AperFunction*%
%TD*%
%TO.P,R1,2*%
%TO.N,Net-(R1-Pad2)*%
%TA.AperFunction,SMDPad,CuDef*%
G36*
G01*
X143937500Y-151109500D02*
X143462500Y-151109500D01*
G75*
G02*
X143225000Y-150872000I0J237500D01*
G01*
X143225000Y-150372000D01*
G75*
G02*
X143462500Y-150134500I237500J0D01*
G01*
X143937500Y-150134500D01*
G75*
G02*
X144175000Y-150372000I0J-237500D01*
G01*
X144175000Y-150872000D01*
G75*
G02*
X143937500Y-151109500I-237500J0D01*
G01*
G37*
%TD.AperFunction*%
%TO.P,R1,1*%
%TO.N,Net-(R1-Pad1)*%
%TA.AperFunction,SMDPad,CuDef*%
G36*
G01*
X143937500Y-152934500D02*
X143462500Y-152934500D01*
G75*
G02*
X143225000Y-152697000I0J237500D01*
G01*
X143225000Y-152197000D01*
G75*
G02*
X143462500Y-151959500I237500J0D01*
G01*
X143937500Y-151959500D01*
G75*
G02*
X144175000Y-152197000I0J-237500D01*
G01*
X144175000Y-152697000D01*
G75*
G02*
X143937500Y-152934500I-237500J0D01*
G01*
G37*
%TD.AperFunction*%
%TD*%
%TO.P,J2,2*%
%TO.N,GNDS*%
X115316000Y-140944000D03*
%TO.P,J2,1*%
%TO.N,+3.3VP*%
%TA.AperFunction,ComponentPad*%
G36*
G01*
X114416000Y-134994000D02*
X116216000Y-134994000D01*
G75*
G02*
X116466000Y-135244000I0J-250000D01*
G01*
X116466000Y-137044000D01*
G75*
G02*
X116216000Y-137294000I-250000J0D01*
G01*
X114416000Y-137294000D01*
G75*
G02*
X114166000Y-137044000I0J250000D01*
G01*
X114166000Y-135244000D01*
G75*
G02*
X114416000Y-134994000I250000J0D01*
G01*
G37*
%TD.AperFunction*%
%TD*%
%TO.P,input_TTL1,3*%
%TO.N,Net-(R10-Pad1)*%
X134300000Y-134350000D03*
%TO.P,input_TTL1,2*%
%TO.N,Net-(R9-Pad1)*%
X129500000Y-134350000D03*
%TO.P,input_TTL1,1*%
%TO.N,Net-(R8-Pad1)*%
%TA.AperFunction,ComponentPad*%
G36*
G01*
X123550000Y-135250000D02*
X123550000Y-133450000D01*
G75*
G02*
X123800000Y-133200000I250000J0D01*
G01*
X125600000Y-133200000D01*
G75*
G02*
X125850000Y-133450000I0J-250000D01*
G01*
X125850000Y-135250000D01*
G75*
G02*
X125600000Y-135500000I-250000J0D01*
G01*
X123800000Y-135500000D01*
G75*
G02*
X123550000Y-135250000I0J250000D01*
G01*
G37*
%TD.AperFunction*%
%TD*%
D13*
%TO.N,Net-(R10-Pad1)*%
X137200000Y-137325000D02*
X137200000Y-137250000D01*
X137021000Y-137071000D02*
X134300000Y-134350000D01*
X137200000Y-137071000D02*
X137021000Y-137071000D01*
%TO.N,Net-(R9-Pad1)*%
X121850000Y-137275000D02*
X121800000Y-137325000D01*
X128024990Y-132874990D02*
X129500000Y-134350000D01*
X123561820Y-132874990D02*
X128024990Y-132874990D01*
X121800000Y-134636810D02*
X123561820Y-132874990D01*
X121800000Y-137113000D02*
X121800000Y-134636810D01*
%TO.N,Net-(R8-Pad1)*%
X126837000Y-134350000D02*
X129600000Y-137113000D01*
X124700000Y-134350000D02*
X126837000Y-134350000D01*
%TO.N,Net-(R1-Pad2)*%
X143700000Y-148500000D02*
X143650000Y-148450000D01*
X143650000Y-150572000D02*
X143700000Y-150622000D01*
X143650000Y-148450000D02*
X143650000Y-150572000D01*
%TO.N,Net-(R1-Pad1)*%
X143700000Y-159200000D02*
X150500000Y-166000000D01*
X143700000Y-152447000D02*
X143700000Y-159200000D01*
%TO.N,Net-(R2-Pad2)*%
X143650000Y-136150000D02*
X145100000Y-134700000D01*
X143650000Y-138938000D02*
X143650000Y-136150000D01*
X143650000Y-140830000D02*
X143650000Y-138938000D01*
%TO.N,+3.3VP*%
X119035020Y-132424980D02*
X135311980Y-132424980D01*
X135311980Y-132424980D02*
X141825000Y-138938000D01*
X115316000Y-136144000D02*
X119035020Y-132424980D01*
X150475000Y-138938000D02*
X149860000Y-138938000D01*
X149860000Y-138938000D02*
X147574000Y-136652000D01*
X141825000Y-135361810D02*
X141825000Y-138938000D01*
X143961820Y-133224990D02*
X141825000Y-135361810D01*
X146238180Y-133224990D02*
X143961820Y-133224990D01*
X147574000Y-134560810D02*
X146238180Y-133224990D01*
X147574000Y-136652000D02*
X147574000Y-134560810D01*
%TO.N,Net-(R3-Pad2)*%
X152300000Y-148500000D02*
X152350000Y-148450000D01*
X152350000Y-150779000D02*
X152300000Y-150829000D01*
X152350000Y-148450000D02*
X152350000Y-150779000D01*
%TO.N,Net-(R3-Pad1)*%
X155300000Y-166000000D02*
X155300000Y-155062500D01*
X152891500Y-152654000D02*
X155300000Y-155062500D01*
X152300000Y-152654000D02*
X152891500Y-152654000D01*
%TO.N,Net-(R4-Pad2)*%
X152300000Y-140780000D02*
X152350000Y-140830000D01*
X152300000Y-138938000D02*
X152300000Y-140780000D01*
X152300000Y-138938000D02*
X152300000Y-137100000D01*
X152300000Y-137100000D02*
X149900000Y-134700000D01*
%TO.N,In1*%
X121700000Y-150450000D02*
X121800000Y-150350000D01*
X121750000Y-148610000D02*
X121770000Y-148590000D01*
X124265010Y-159349990D02*
X123640000Y-159975000D01*
X124265010Y-152915010D02*
X124265010Y-159349990D01*
X121770000Y-150555000D02*
X121750000Y-150575000D01*
X121770000Y-148590000D02*
X121770000Y-150555000D01*
X121925000Y-150575000D02*
X124265010Y-152915010D01*
X121750000Y-150575000D02*
X121925000Y-150575000D01*
%TO.N,+3V3*%
X133125010Y-167288180D02*
X133125010Y-165311400D01*
X132788180Y-167625010D02*
X133125010Y-167288180D01*
X130511820Y-167625010D02*
X132788180Y-167625010D01*
X130174990Y-167288180D02*
X130511820Y-167625010D01*
X130174990Y-165011820D02*
X130174990Y-167288180D01*
X133125010Y-165311400D02*
X135036410Y-163400000D01*
X135036410Y-163400000D02*
X138650000Y-163400000D01*
X141400000Y-166150000D02*
X138650000Y-163400000D01*
X143500000Y-166150000D02*
X141400000Y-166150000D01*
X119300000Y-168400000D02*
X119300000Y-154675000D01*
X120450000Y-169550000D02*
X119300000Y-168400000D01*
X142250000Y-169550000D02*
X120450000Y-169550000D01*
X143500000Y-168300000D02*
X142250000Y-169550000D01*
X143500000Y-166150000D02*
X143500000Y-168300000D01*
X121750000Y-153135000D02*
X121750000Y-152400000D01*
X123640000Y-155025000D02*
X121750000Y-153135000D01*
X121575000Y-152400000D02*
X119300000Y-154675000D01*
X121750000Y-152400000D02*
X121575000Y-152400000D01*
X137350000Y-152550500D02*
X137350000Y-157836810D01*
X129362500Y-156044268D02*
X129643242Y-156325010D01*
X129362500Y-151150000D02*
X129362500Y-156044268D01*
X135528405Y-159658405D02*
X130174990Y-165011820D01*
X137350000Y-157836810D02*
X135528405Y-159658405D01*
X133575490Y-156325010D02*
X137350000Y-152550500D01*
X129643242Y-156325010D02*
X133575490Y-156325010D01*
%TO.N,In2*%
X129612500Y-148572500D02*
X129580000Y-148540000D01*
X129600000Y-148560000D02*
X129580000Y-148540000D01*
X127537500Y-150582500D02*
X129580000Y-148540000D01*
X127537500Y-151150000D02*
X127537500Y-150582500D01*
X125554990Y-153607510D02*
X125554990Y-157454990D01*
X127537500Y-151625000D02*
X125554990Y-153607510D01*
X127537500Y-151150000D02*
X127537500Y-151625000D01*
X125554990Y-157454990D02*
X125900000Y-157800000D01*
X128720000Y-159000000D02*
X128720000Y-159975000D01*
X127520000Y-157800000D02*
X128720000Y-159000000D01*
X125900000Y-157800000D02*
X127520000Y-157800000D01*
%TO.N,In3*%
X137200000Y-148630000D02*
X137160000Y-148590000D01*
X137250000Y-148680000D02*
X137160000Y-148590000D01*
X137350000Y-148780000D02*
X137160000Y-148590000D01*
X129990000Y-154648232D02*
X129990000Y-155025000D01*
X137160000Y-150535500D02*
X137350000Y-150725500D01*
X137160000Y-148590000D02*
X137160000Y-150535500D01*
X133314500Y-150725500D02*
X137350000Y-150725500D01*
X129990000Y-154050000D02*
X133314500Y-150725500D01*
X129990000Y-155025000D02*
X129990000Y-154050000D01*
%TO.N,Net-(R8-Pad2)*%
X129580000Y-139120000D02*
X129600000Y-139100000D01*
X129600000Y-140900000D02*
X129580000Y-140920000D01*
X129600000Y-138938000D02*
X129600000Y-140900000D01*
%TO.N,Net-(R9-Pad2)*%
X121770000Y-139180000D02*
X121800000Y-139150000D01*
X121800000Y-140940000D02*
X121770000Y-140970000D01*
X121800000Y-138938000D02*
X121800000Y-140940000D01*
%TO.N,Net-(R10-Pad2)*%
X137160000Y-138936000D02*
X137200000Y-138896000D01*
X137200000Y-140930000D02*
X137160000Y-140970000D01*
X137200000Y-138896000D02*
X137200000Y-140930000D01*
%TO.N,Out1*%
X124910000Y-163290000D02*
X124910000Y-159975000D01*
X122050000Y-166150000D02*
X124910000Y-163290000D01*
%TO.N,Out2*%
X129990000Y-163010000D02*
X129990000Y-159975000D01*
X126850000Y-166150000D02*
X129990000Y-163010000D01*
%TO.N,Out3*%
X131650000Y-166150000D02*
X138150010Y-159649990D01*
X134547010Y-151737990D02*
X131260000Y-155025000D01*
X137820500Y-151737990D02*
X134547010Y-151737990D01*
X138150010Y-152067500D02*
X137820500Y-151737990D01*
X138150010Y-159649990D02*
X138150010Y-152067500D01*
%TO.N,GND1*%
X130705001Y-150250001D02*
X128779509Y-150250001D01*
X128779509Y-150250001D02*
X128350010Y-150679500D01*
X126805010Y-154003242D02*
X126805010Y-156413242D01*
X128350010Y-150679500D02*
X128350010Y-152458242D01*
X128350010Y-152458242D02*
X126805010Y-154003242D01*
X126805010Y-156413242D02*
X126805010Y-156766850D01*
X126805010Y-156766850D02*
X127045720Y-157007560D01*
%TD*%
D14*
%TO.N,GND1*%
X159131000Y-169577795D02*
X159055000Y-169959872D01*
X159055000Y-170400128D01*
X159131000Y-170782205D01*
X159131000Y-171831000D01*
X111999767Y-171831000D01*
X112226038Y-171604729D01*
X112470631Y-171238669D01*
X112639110Y-170831925D01*
X112725000Y-170400128D01*
X112725000Y-169959872D01*
X112639110Y-169528075D01*
X112470631Y-169121331D01*
X112226038Y-168755271D01*
X111914729Y-168443962D01*
X111633000Y-168255717D01*
X111633000Y-154675000D01*
X118536324Y-154675000D01*
X118540001Y-154712332D01*
X118540000Y-168362678D01*
X118536324Y-168400000D01*
X118540000Y-168437322D01*
X118540000Y-168437332D01*
X118550997Y-168548985D01*
X118594454Y-168692246D01*
X118665026Y-168824276D01*
X118681586Y-168844454D01*
X118759999Y-168940001D01*
X118789003Y-168963804D01*
X119886201Y-170061003D01*
X119909999Y-170090001D01*
X119938997Y-170113799D01*
X120025724Y-170184974D01*
X120157753Y-170255546D01*
X120301014Y-170299003D01*
X120450000Y-170313677D01*
X120487333Y-170310000D01*
X142212678Y-170310000D01*
X142250000Y-170313676D01*
X142287322Y-170310000D01*
X142287333Y-170310000D01*
X142398986Y-170299003D01*
X142542247Y-170255546D01*
X142674276Y-170184974D01*
X142790001Y-170090001D01*
X142813804Y-170060997D01*
X144011003Y-168863799D01*
X144040001Y-168840001D01*
X144081036Y-168790000D01*
X144134974Y-168724277D01*
X144205546Y-168592247D01*
X144218669Y-168548985D01*
X144249003Y-168448986D01*
X144260000Y-168337333D01*
X144260000Y-168337323D01*
X144263676Y-168300000D01*
X144260000Y-168262677D01*
X144260000Y-167938072D01*
X144400000Y-167938072D01*
X144573254Y-167921008D01*
X144739850Y-167870472D01*
X144893386Y-167788405D01*
X145027962Y-167677962D01*
X145138405Y-167543386D01*
X145220472Y-167389850D01*
X145271008Y-167223254D01*
X145288072Y-167050000D01*
X145288072Y-165250000D01*
X145271008Y-165076746D01*
X145220472Y-164910150D01*
X145138405Y-164756614D01*
X145027962Y-164622038D01*
X144893386Y-164511595D01*
X144739850Y-164429528D01*
X144573254Y-164378992D01*
X144400000Y-164361928D01*
X142600000Y-164361928D01*
X142426746Y-164378992D01*
X142260150Y-164429528D01*
X142106614Y-164511595D01*
X141972038Y-164622038D01*
X141861595Y-164756614D01*
X141779528Y-164910150D01*
X141728992Y-165076746D01*
X141711928Y-165250000D01*
X141711928Y-165387126D01*
X139213804Y-162889003D01*
X139190001Y-162859999D01*
X139074276Y-162765026D01*
X138942247Y-162694454D01*
X138798986Y-162650997D01*
X138687333Y-162640000D01*
X138687322Y-162640000D01*
X138650000Y-162636324D01*
X138612678Y-162640000D01*
X136234802Y-162640000D01*
X138661014Y-160213788D01*
X138690011Y-160189991D01*
X138784984Y-160074266D01*
X138855556Y-159942237D01*
X138899013Y-159798976D01*
X138910010Y-159687323D01*
X138910010Y-159687314D01*
X138913686Y-159649991D01*
X138910010Y-159612668D01*
X138910010Y-152104833D01*
X138913687Y-152067500D01*
X138899013Y-151918514D01*
X138855556Y-151775253D01*
X138817209Y-151703512D01*
X138784984Y-151643224D01*
X138690011Y-151527499D01*
X138661007Y-151503696D01*
X138413054Y-151255743D01*
X138446248Y-151146316D01*
X138463072Y-150975500D01*
X138463072Y-150475500D01*
X138446248Y-150304684D01*
X138396423Y-150140433D01*
X138315512Y-149989058D01*
X138206623Y-149856377D01*
X138073942Y-149747488D01*
X138038766Y-149728686D01*
X138074759Y-149704637D01*
X138274637Y-149504759D01*
X138431680Y-149269727D01*
X138539853Y-149008574D01*
X138595000Y-148731335D01*
X138595000Y-148448665D01*
X138539853Y-148171426D01*
X138431680Y-147910273D01*
X138274637Y-147675241D01*
X138249396Y-147650000D01*
X142211928Y-147650000D01*
X142211928Y-149250000D01*
X142224188Y-149374482D01*
X142260498Y-149494180D01*
X142319463Y-149604494D01*
X142398815Y-149701185D01*
X142495506Y-149780537D01*
X142605820Y-149839502D01*
X142725518Y-149875812D01*
X142741217Y-149877358D01*
X142734488Y-149885558D01*
X142653577Y-150036933D01*
X142603752Y-150201184D01*
X142586928Y-150372000D01*
X142586928Y-150872000D01*
X142603752Y-151042816D01*
X142653577Y-151207067D01*
X142734488Y-151358442D01*
X142843377Y-151491123D01*
X142896232Y-151534500D01*
X142843377Y-151577877D01*
X142734488Y-151710558D01*
X142653577Y-151861933D01*
X142603752Y-152026184D01*
X142586928Y-152197000D01*
X142586928Y-152697000D01*
X142603752Y-152867816D01*
X142653577Y-153032067D01*
X142734488Y-153183442D01*
X142843377Y-153316123D01*
X142940000Y-153395420D01*
X142940001Y-159162668D01*
X142936324Y-159200000D01*
X142950998Y-159348985D01*
X142994454Y-159492246D01*
X143065026Y-159624276D01*
X143136201Y-159711002D01*
X143160000Y-159740001D01*
X143188998Y-159763799D01*
X148819018Y-165393819D01*
X148783596Y-165479335D01*
X148715000Y-165824193D01*
X148715000Y-166175807D01*
X148783596Y-166520665D01*
X148918153Y-166845515D01*
X149113500Y-167137871D01*
X149362129Y-167386500D01*
X149654485Y-167581847D01*
X149979335Y-167716404D01*
X150324193Y-167785000D01*
X150675807Y-167785000D01*
X151020665Y-167716404D01*
X151345515Y-167581847D01*
X151637871Y-167386500D01*
X151886500Y-167137871D01*
X152081847Y-166845515D01*
X152216404Y-166520665D01*
X152285000Y-166175807D01*
X152285000Y-165824193D01*
X152216404Y-165479335D01*
X152081847Y-165154485D01*
X151886500Y-164862129D01*
X151637871Y-164613500D01*
X151345515Y-164418153D01*
X151020665Y-164283596D01*
X150675807Y-164215000D01*
X150324193Y-164215000D01*
X149979335Y-164283596D01*
X149893819Y-164319018D01*
X144460000Y-158885199D01*
X144460000Y-153395420D01*
X144556623Y-153316123D01*
X144665512Y-153183442D01*
X144746423Y-153032067D01*
X144796248Y-152867816D01*
X144813072Y-152697000D01*
X144813072Y-152197000D01*
X144796248Y-152026184D01*
X144746423Y-151861933D01*
X144665512Y-151710558D01*
X144556623Y-151577877D01*
X144503768Y-151534500D01*
X144556623Y-151491123D01*
X144665512Y-151358442D01*
X144746423Y-151207067D01*
X144796248Y-151042816D01*
X144813072Y-150872000D01*
X144813072Y-150372000D01*
X144796248Y-150201184D01*
X144746423Y-150036933D01*
X144665512Y-149885558D01*
X144640963Y-149855645D01*
X144694180Y-149839502D01*
X144804494Y-149780537D01*
X144901185Y-149701185D01*
X144980537Y-149604494D01*
X145039502Y-149494180D01*
X145075812Y-149374482D01*
X145078231Y-149349920D01*
X145226586Y-149513519D01*
X145452580Y-149681037D01*
X145706913Y-149801246D01*
X145840961Y-149841904D01*
X146063000Y-149719915D01*
X146063000Y-148577000D01*
X146317000Y-148577000D01*
X146317000Y-149719915D01*
X146539039Y-149841904D01*
X146673087Y-149801246D01*
X146927420Y-149681037D01*
X147153414Y-149513519D01*
X147342385Y-149305131D01*
X147487070Y-149063881D01*
X147581909Y-148799040D01*
X147460624Y-148577000D01*
X146317000Y-148577000D01*
X146063000Y-148577000D01*
X146043000Y-148577000D01*
X146043000Y-148323000D01*
X146063000Y-148323000D01*
X146063000Y-147180085D01*
X146317000Y-147180085D01*
X146317000Y-148323000D01*
X147460624Y-148323000D01*
X147581909Y-148100960D01*
X147487070Y-147836119D01*
X147375449Y-147650000D01*
X150911928Y-147650000D01*
X150911928Y-149250000D01*
X150924188Y-149374482D01*
X150960498Y-149494180D01*
X151019463Y-149604494D01*
X151098815Y-149701185D01*
X151195506Y-149780537D01*
X151305820Y-149839502D01*
X151425518Y-149875812D01*
X151532921Y-149886390D01*
X151443377Y-149959877D01*
X151334488Y-150092558D01*
X151253577Y-150243933D01*
X151203752Y-150408184D01*
X151186928Y-150579000D01*
X151186928Y-151079000D01*
X151203752Y-151249816D01*
X151253577Y-151414067D01*
X151334488Y-151565442D01*
X151443377Y-151698123D01*
X151496232Y-151741500D01*
X151443377Y-151784877D01*
X151334488Y-151917558D01*
X151253577Y-152068933D01*
X151203752Y-152233184D01*
X151186928Y-152404000D01*
X151186928Y-152904000D01*
X151203752Y-153074816D01*
X151253577Y-153239067D01*
X151334488Y-153390442D01*
X151443377Y-153523123D01*
X151576058Y-153632012D01*
X151727433Y-153712923D01*
X151891684Y-153762748D01*
X152062500Y-153779572D01*
X152537500Y-153779572D01*
X152708316Y-153762748D01*
X152872567Y-153712923D01*
X152874558Y-153711859D01*
X154540001Y-155377303D01*
X154540000Y-164211928D01*
X154400000Y-164211928D01*
X154226746Y-164228992D01*
X154060150Y-164279528D01*
X153906614Y-164361595D01*
X153772038Y-164472038D01*
X153661595Y-164606614D01*
X153579528Y-164760150D01*
X153528992Y-164926746D01*
X153511928Y-165100000D01*
X153511928Y-166900000D01*
X153528992Y-167073254D01*
X153579528Y-167239850D01*
X153661595Y-167393386D01*
X153772038Y-167527962D01*
X153906614Y-167638405D01*
X154060150Y-167720472D01*
X154226746Y-167771008D01*
X154400000Y-167788072D01*
X156200000Y-167788072D01*
X156373254Y-167771008D01*
X156539850Y-167720472D01*
X156693386Y-167638405D01*
X156827962Y-167527962D01*
X156938405Y-167393386D01*
X157020472Y-167239850D01*
X157071008Y-167073254D01*
X157088072Y-166900000D01*
X157088072Y-165100000D01*
X157071008Y-164926746D01*
X157020472Y-164760150D01*
X156938405Y-164606614D01*
X156827962Y-164472038D01*
X156693386Y-164361595D01*
X156539850Y-164279528D01*
X156373254Y-164228992D01*
X156200000Y-164211928D01*
X156060000Y-164211928D01*
X156060000Y-155099822D01*
X156063676Y-155062499D01*
X156060000Y-155025176D01*
X156060000Y-155025167D01*
X156049003Y-154913514D01*
X156005546Y-154770253D01*
X155934974Y-154638224D01*
X155840001Y-154522499D01*
X155811003Y-154498701D01*
X153455304Y-152143003D01*
X153431501Y-152113999D01*
X153322851Y-152024832D01*
X153265512Y-151917558D01*
X153156623Y-151784877D01*
X153103768Y-151741500D01*
X153156623Y-151698123D01*
X153265512Y-151565442D01*
X153346423Y-151414067D01*
X153396248Y-151249816D01*
X153413072Y-151079000D01*
X153413072Y-150579000D01*
X153396248Y-150408184D01*
X153346423Y-150243933D01*
X153265512Y-150092558D01*
X153156623Y-149959877D01*
X153110000Y-149921614D01*
X153110000Y-149888072D01*
X153150000Y-149888072D01*
X153274482Y-149875812D01*
X153394180Y-149839502D01*
X153504494Y-149780537D01*
X153601185Y-149701185D01*
X153680537Y-149604494D01*
X153739502Y-149494180D01*
X153775812Y-149374482D01*
X153778231Y-149349920D01*
X153926586Y-149513519D01*
X154152580Y-149681037D01*
X154406913Y-149801246D01*
X154540961Y-149841904D01*
X154763000Y-149719915D01*
X154763000Y-148577000D01*
X155017000Y-148577000D01*
X155017000Y-149719915D01*
X155239039Y-149841904D01*
X155373087Y-149801246D01*
X155627420Y-149681037D01*
X155853414Y-149513519D01*
X156042385Y-149305131D01*
X156187070Y-149063881D01*
X156281909Y-148799040D01*
X156160624Y-148577000D01*
X155017000Y-148577000D01*
X154763000Y-148577000D01*
X154743000Y-148577000D01*
X154743000Y-148323000D01*
X154763000Y-148323000D01*
X154763000Y-147180085D01*
X155017000Y-147180085D01*
X155017000Y-148323000D01*
X156160624Y-148323000D01*
X156281909Y-148100960D01*
X156187070Y-147836119D01*
X156042385Y-147594869D01*
X155853414Y-147386481D01*
X155627420Y-147218963D01*
X155373087Y-147098754D01*
X155239039Y-147058096D01*
X155017000Y-147180085D01*
X154763000Y-147180085D01*
X154540961Y-147058096D01*
X154406913Y-147098754D01*
X154152580Y-147218963D01*
X153926586Y-147386481D01*
X153778231Y-147550080D01*
X153775812Y-147525518D01*
X153739502Y-147405820D01*
X153680537Y-147295506D01*
X153601185Y-147198815D01*
X153504494Y-147119463D01*
X153394180Y-147060498D01*
X153274482Y-147024188D01*
X153150000Y-147011928D01*
X151550000Y-147011928D01*
X151425518Y-147024188D01*
X151305820Y-147060498D01*
X151195506Y-147119463D01*
X151098815Y-147198815D01*
X151019463Y-147295506D01*
X150960498Y-147405820D01*
X150924188Y-147525518D01*
X150911928Y-147650000D01*
X147375449Y-147650000D01*
X147342385Y-147594869D01*
X147153414Y-147386481D01*
X146927420Y-147218963D01*
X146673087Y-147098754D01*
X146539039Y-147058096D01*
X146317000Y-147180085D01*
X146063000Y-147180085D01*
X145840961Y-147058096D01*
X145706913Y-147098754D01*
X145452580Y-147218963D01*
X145226586Y-147386481D01*
X145078231Y-147550080D01*
X145075812Y-147525518D01*
X145039502Y-147405820D01*
X144980537Y-147295506D01*
X144901185Y-147198815D01*
X144804494Y-147119463D01*
X144694180Y-147060498D01*
X144574482Y-147024188D01*
X144450000Y-147011928D01*
X142850000Y-147011928D01*
X142725518Y-147024188D01*
X142605820Y-147060498D01*
X142495506Y-147119463D01*
X142398815Y-147198815D01*
X142319463Y-147295506D01*
X142260498Y-147405820D01*
X142224188Y-147525518D01*
X142211928Y-147650000D01*
X138249396Y-147650000D01*
X138074759Y-147475363D01*
X137839727Y-147318320D01*
X137578574Y-147210147D01*
X137301335Y-147155000D01*
X137018665Y-147155000D01*
X136741426Y-147210147D01*
X136480273Y-147318320D01*
X136245241Y-147475363D01*
X136045363Y-147675241D01*
X135888320Y-147910273D01*
X135883933Y-147920865D01*
X135772385Y-147734869D01*
X135583414Y-147526481D01*
X135357420Y-147358963D01*
X135103087Y-147238754D01*
X134969039Y-147198096D01*
X134747000Y-147320085D01*
X134747000Y-148463000D01*
X134767000Y-148463000D01*
X134767000Y-148717000D01*
X134747000Y-148717000D01*
X134747000Y-148737000D01*
X134493000Y-148737000D01*
X134493000Y-148717000D01*
X133349376Y-148717000D01*
X133228091Y-148939040D01*
X133322930Y-149203881D01*
X133467615Y-149445131D01*
X133656586Y-149653519D01*
X133882580Y-149821037D01*
X134136913Y-149941246D01*
X134216878Y-149965500D01*
X133351822Y-149965500D01*
X133314500Y-149961824D01*
X133277177Y-149965500D01*
X133277167Y-149965500D01*
X133165514Y-149976497D01*
X133022253Y-150019954D01*
X132890223Y-150090526D01*
X132865003Y-150111224D01*
X132774499Y-150185499D01*
X132750701Y-150214497D01*
X130122500Y-152842699D01*
X130122500Y-152096178D01*
X130231623Y-152006623D01*
X130340512Y-151873942D01*
X130421423Y-151722567D01*
X130471248Y-151558316D01*
X130488072Y-151387500D01*
X130488072Y-150912500D01*
X130471248Y-150741684D01*
X130421423Y-150577433D01*
X130340512Y-150426058D01*
X130231623Y-150293377D01*
X130098942Y-150184488D01*
X129947567Y-150103577D01*
X129783316Y-150053752D01*
X129612500Y-150036928D01*
X129157874Y-150036928D01*
X129256114Y-149938688D01*
X129438665Y-149975000D01*
X129721335Y-149975000D01*
X129998574Y-149919853D01*
X130259727Y-149811680D01*
X130494759Y-149654637D01*
X130694637Y-149454759D01*
X130851680Y-149219727D01*
X130959853Y-148958574D01*
X131015000Y-148681335D01*
X131015000Y-148398665D01*
X130983631Y-148240960D01*
X133228091Y-148240960D01*
X133349376Y-148463000D01*
X134493000Y-148463000D01*
X134493000Y-147320085D01*
X134270961Y-147198096D01*
X134136913Y-147238754D01*
X133882580Y-147358963D01*
X133656586Y-147526481D01*
X133467615Y-147734869D01*
X133322930Y-147976119D01*
X133228091Y-148240960D01*
X130983631Y-148240960D01*
X130959853Y-148121426D01*
X130851680Y-147860273D01*
X130694637Y-147625241D01*
X130494759Y-147425363D01*
X130259727Y-147268320D01*
X129998574Y-147160147D01*
X129721335Y-147105000D01*
X129438665Y-147105000D01*
X129161426Y-147160147D01*
X128900273Y-147268320D01*
X128665241Y-147425363D01*
X128465363Y-147625241D01*
X128308320Y-147860273D01*
X128303933Y-147870865D01*
X128192385Y-147684869D01*
X128003414Y-147476481D01*
X127777420Y-147308963D01*
X127523087Y-147188754D01*
X127389039Y-147148096D01*
X127167000Y-147270085D01*
X127167000Y-148413000D01*
X127187000Y-148413000D01*
X127187000Y-148667000D01*
X127167000Y-148667000D01*
X127167000Y-149809915D01*
X127211071Y-149834128D01*
X127026498Y-150018701D01*
X126997500Y-150042499D01*
X126973702Y-150071497D01*
X126973701Y-150071498D01*
X126943421Y-150108394D01*
X126801058Y-150184488D01*
X126668377Y-150293377D01*
X126559488Y-150426058D01*
X126478577Y-150577433D01*
X126428752Y-150741684D01*
X126411928Y-150912500D01*
X126411928Y-151387500D01*
X126428752Y-151558316D01*
X126452173Y-151635525D01*
X125043993Y-153043706D01*
X125025010Y-153059285D01*
X125025010Y-152952333D01*
X125028686Y-152915010D01*
X125025010Y-152877687D01*
X125025010Y-152877677D01*
X125014013Y-152766024D01*
X124970556Y-152622763D01*
X124931121Y-152548986D01*
X124899984Y-152490733D01*
X124828809Y-152404007D01*
X124805011Y-152375009D01*
X124776014Y-152351212D01*
X122863072Y-150438271D01*
X122863072Y-150325000D01*
X122846248Y-150154184D01*
X122796423Y-149989933D01*
X122715512Y-149838558D01*
X122633638Y-149738795D01*
X122684759Y-149704637D01*
X122884637Y-149504759D01*
X123041680Y-149269727D01*
X123149853Y-149008574D01*
X123173630Y-148889040D01*
X125648091Y-148889040D01*
X125742930Y-149153881D01*
X125887615Y-149395131D01*
X126076586Y-149603519D01*
X126302580Y-149771037D01*
X126556913Y-149891246D01*
X126690961Y-149931904D01*
X126913000Y-149809915D01*
X126913000Y-148667000D01*
X125769376Y-148667000D01*
X125648091Y-148889040D01*
X123173630Y-148889040D01*
X123205000Y-148731335D01*
X123205000Y-148448665D01*
X123153739Y-148190960D01*
X125648091Y-148190960D01*
X125769376Y-148413000D01*
X126913000Y-148413000D01*
X126913000Y-147270085D01*
X126690961Y-147148096D01*
X126556913Y-147188754D01*
X126302580Y-147308963D01*
X126076586Y-147476481D01*
X125887615Y-147684869D01*
X125742930Y-147926119D01*
X125648091Y-148190960D01*
X123153739Y-148190960D01*
X123149853Y-148171426D01*
X123041680Y-147910273D01*
X122884637Y-147675241D01*
X122684759Y-147475363D01*
X122449727Y-147318320D01*
X122188574Y-147210147D01*
X121911335Y-147155000D01*
X121628665Y-147155000D01*
X121351426Y-147210147D01*
X121090273Y-147318320D01*
X120855241Y-147475363D01*
X120655363Y-147675241D01*
X120498320Y-147910273D01*
X120493933Y-147920865D01*
X120382385Y-147734869D01*
X120193414Y-147526481D01*
X119967420Y-147358963D01*
X119713087Y-147238754D01*
X119579039Y-147198096D01*
X119357000Y-147320085D01*
X119357000Y-148463000D01*
X119377000Y-148463000D01*
X119377000Y-148717000D01*
X119357000Y-148717000D01*
X119357000Y-149859915D01*
X119579039Y-149981904D01*
X119713087Y-149941246D01*
X119967420Y-149821037D01*
X120193414Y-149653519D01*
X120382385Y-149445131D01*
X120493933Y-149259135D01*
X120498320Y-149269727D01*
X120655363Y-149504759D01*
X120855241Y-149704637D01*
X120880528Y-149721533D01*
X120784488Y-149838558D01*
X120703577Y-149989933D01*
X120653752Y-150154184D01*
X120636928Y-150325000D01*
X120636928Y-150825000D01*
X120653752Y-150995816D01*
X120703577Y-151160067D01*
X120784488Y-151311442D01*
X120893377Y-151444123D01*
X120946232Y-151487500D01*
X120893377Y-151530877D01*
X120784488Y-151663558D01*
X120703577Y-151814933D01*
X120653752Y-151979184D01*
X120636928Y-152150000D01*
X120636928Y-152263270D01*
X118788998Y-154111201D01*
X118760000Y-154134999D01*
X118736202Y-154163997D01*
X118736201Y-154163998D01*
X118665026Y-154250724D01*
X118594454Y-154382754D01*
X118580873Y-154427526D01*
X118550998Y-154526014D01*
X118542637Y-154610900D01*
X118536324Y-154675000D01*
X111633000Y-154675000D01*
X111633000Y-148939040D01*
X117838091Y-148939040D01*
X117932930Y-149203881D01*
X118077615Y-149445131D01*
X118266586Y-149653519D01*
X118492580Y-149821037D01*
X118746913Y-149941246D01*
X118880961Y-149981904D01*
X119103000Y-149859915D01*
X119103000Y-148717000D01*
X117959376Y-148717000D01*
X117838091Y-148939040D01*
X111633000Y-148939040D01*
X111633000Y-148240960D01*
X117838091Y-148240960D01*
X117959376Y-148463000D01*
X119103000Y-148463000D01*
X119103000Y-147320085D01*
X118880961Y-147198096D01*
X118746913Y-147238754D01*
X118492580Y-147358963D01*
X118266586Y-147526481D01*
X118077615Y-147734869D01*
X117932930Y-147976119D01*
X117838091Y-148240960D01*
X111633000Y-148240960D01*
X111633000Y-146685000D01*
X159131000Y-146685000D01*
X159131000Y-169577795D01*
%TA.AperFunction,Conductor*%
D15*
G36*
X159131000Y-169577795D02*
G01*
X159055000Y-169959872D01*
X159055000Y-170400128D01*
X159131000Y-170782205D01*
X159131000Y-171831000D01*
X111999767Y-171831000D01*
X112226038Y-171604729D01*
X112470631Y-171238669D01*
X112639110Y-170831925D01*
X112725000Y-170400128D01*
X112725000Y-169959872D01*
X112639110Y-169528075D01*
X112470631Y-169121331D01*
X112226038Y-168755271D01*
X111914729Y-168443962D01*
X111633000Y-168255717D01*
X111633000Y-154675000D01*
X118536324Y-154675000D01*
X118540001Y-154712332D01*
X118540000Y-168362678D01*
X118536324Y-168400000D01*
X118540000Y-168437322D01*
X118540000Y-168437332D01*
X118550997Y-168548985D01*
X118594454Y-168692246D01*
X118665026Y-168824276D01*
X118681586Y-168844454D01*
X118759999Y-168940001D01*
X118789003Y-168963804D01*
X119886201Y-170061003D01*
X119909999Y-170090001D01*
X119938997Y-170113799D01*
X120025724Y-170184974D01*
X120157753Y-170255546D01*
X120301014Y-170299003D01*
X120450000Y-170313677D01*
X120487333Y-170310000D01*
X142212678Y-170310000D01*
X142250000Y-170313676D01*
X142287322Y-170310000D01*
X142287333Y-170310000D01*
X142398986Y-170299003D01*
X142542247Y-170255546D01*
X142674276Y-170184974D01*
X142790001Y-170090001D01*
X142813804Y-170060997D01*
X144011003Y-168863799D01*
X144040001Y-168840001D01*
X144081036Y-168790000D01*
X144134974Y-168724277D01*
X144205546Y-168592247D01*
X144218669Y-168548985D01*
X144249003Y-168448986D01*
X144260000Y-168337333D01*
X144260000Y-168337323D01*
X144263676Y-168300000D01*
X144260000Y-168262677D01*
X144260000Y-167938072D01*
X144400000Y-167938072D01*
X144573254Y-167921008D01*
X144739850Y-167870472D01*
X144893386Y-167788405D01*
X145027962Y-167677962D01*
X145138405Y-167543386D01*
X145220472Y-167389850D01*
X145271008Y-167223254D01*
X145288072Y-167050000D01*
X145288072Y-165250000D01*
X145271008Y-165076746D01*
X145220472Y-164910150D01*
X145138405Y-164756614D01*
X145027962Y-164622038D01*
X144893386Y-164511595D01*
X144739850Y-164429528D01*
X144573254Y-164378992D01*
X144400000Y-164361928D01*
X142600000Y-164361928D01*
X142426746Y-164378992D01*
X142260150Y-164429528D01*
X142106614Y-164511595D01*
X141972038Y-164622038D01*
X141861595Y-164756614D01*
X141779528Y-164910150D01*
X141728992Y-165076746D01*
X141711928Y-165250000D01*
X141711928Y-165387126D01*
X139213804Y-162889003D01*
X139190001Y-162859999D01*
X139074276Y-162765026D01*
X138942247Y-162694454D01*
X138798986Y-162650997D01*
X138687333Y-162640000D01*
X138687322Y-162640000D01*
X138650000Y-162636324D01*
X138612678Y-162640000D01*
X136234802Y-162640000D01*
X138661014Y-160213788D01*
X138690011Y-160189991D01*
X138784984Y-160074266D01*
X138855556Y-159942237D01*
X138899013Y-159798976D01*
X138910010Y-159687323D01*
X138910010Y-159687314D01*
X138913686Y-159649991D01*
X138910010Y-159612668D01*
X138910010Y-152104833D01*
X138913687Y-152067500D01*
X138899013Y-151918514D01*
X138855556Y-151775253D01*
X138817209Y-151703512D01*
X138784984Y-151643224D01*
X138690011Y-151527499D01*
X138661007Y-151503696D01*
X138413054Y-151255743D01*
X138446248Y-151146316D01*
X138463072Y-150975500D01*
X138463072Y-150475500D01*
X138446248Y-150304684D01*
X138396423Y-150140433D01*
X138315512Y-149989058D01*
X138206623Y-149856377D01*
X138073942Y-149747488D01*
X138038766Y-149728686D01*
X138074759Y-149704637D01*
X138274637Y-149504759D01*
X138431680Y-149269727D01*
X138539853Y-149008574D01*
X138595000Y-148731335D01*
X138595000Y-148448665D01*
X138539853Y-148171426D01*
X138431680Y-147910273D01*
X138274637Y-147675241D01*
X138249396Y-147650000D01*
X142211928Y-147650000D01*
X142211928Y-149250000D01*
X142224188Y-149374482D01*
X142260498Y-149494180D01*
X142319463Y-149604494D01*
X142398815Y-149701185D01*
X142495506Y-149780537D01*
X142605820Y-149839502D01*
X142725518Y-149875812D01*
X142741217Y-149877358D01*
X142734488Y-149885558D01*
X142653577Y-150036933D01*
X142603752Y-150201184D01*
X142586928Y-150372000D01*
X142586928Y-150872000D01*
X142603752Y-151042816D01*
X142653577Y-151207067D01*
X142734488Y-151358442D01*
X142843377Y-151491123D01*
X142896232Y-151534500D01*
X142843377Y-151577877D01*
X142734488Y-151710558D01*
X142653577Y-151861933D01*
X142603752Y-152026184D01*
X142586928Y-152197000D01*
X142586928Y-152697000D01*
X142603752Y-152867816D01*
X142653577Y-153032067D01*
X142734488Y-153183442D01*
X142843377Y-153316123D01*
X142940000Y-153395420D01*
X142940001Y-159162668D01*
X142936324Y-159200000D01*
X142950998Y-159348985D01*
X142994454Y-159492246D01*
X143065026Y-159624276D01*
X143136201Y-159711002D01*
X143160000Y-159740001D01*
X143188998Y-159763799D01*
X148819018Y-165393819D01*
X148783596Y-165479335D01*
X148715000Y-165824193D01*
X148715000Y-166175807D01*
X148783596Y-166520665D01*
X148918153Y-166845515D01*
X149113500Y-167137871D01*
X149362129Y-167386500D01*
X149654485Y-167581847D01*
X149979335Y-167716404D01*
X150324193Y-167785000D01*
X150675807Y-167785000D01*
X151020665Y-167716404D01*
X151345515Y-167581847D01*
X151637871Y-167386500D01*
X151886500Y-167137871D01*
X152081847Y-166845515D01*
X152216404Y-166520665D01*
X152285000Y-166175807D01*
X152285000Y-165824193D01*
X152216404Y-165479335D01*
X152081847Y-165154485D01*
X151886500Y-164862129D01*
X151637871Y-164613500D01*
X151345515Y-164418153D01*
X151020665Y-164283596D01*
X150675807Y-164215000D01*
X150324193Y-164215000D01*
X149979335Y-164283596D01*
X149893819Y-164319018D01*
X144460000Y-158885199D01*
X144460000Y-153395420D01*
X144556623Y-153316123D01*
X144665512Y-153183442D01*
X144746423Y-153032067D01*
X144796248Y-152867816D01*
X144813072Y-152697000D01*
X144813072Y-152197000D01*
X144796248Y-152026184D01*
X144746423Y-151861933D01*
X144665512Y-151710558D01*
X144556623Y-151577877D01*
X144503768Y-151534500D01*
X144556623Y-151491123D01*
X144665512Y-151358442D01*
X144746423Y-151207067D01*
X144796248Y-151042816D01*
X144813072Y-150872000D01*
X144813072Y-150372000D01*
X144796248Y-150201184D01*
X144746423Y-150036933D01*
X144665512Y-149885558D01*
X144640963Y-149855645D01*
X144694180Y-149839502D01*
X144804494Y-149780537D01*
X144901185Y-149701185D01*
X144980537Y-149604494D01*
X145039502Y-149494180D01*
X145075812Y-149374482D01*
X145078231Y-149349920D01*
X145226586Y-149513519D01*
X145452580Y-149681037D01*
X145706913Y-149801246D01*
X145840961Y-149841904D01*
X146063000Y-149719915D01*
X146063000Y-148577000D01*
X146317000Y-148577000D01*
X146317000Y-149719915D01*
X146539039Y-149841904D01*
X146673087Y-149801246D01*
X146927420Y-149681037D01*
X147153414Y-149513519D01*
X147342385Y-149305131D01*
X147487070Y-149063881D01*
X147581909Y-148799040D01*
X147460624Y-148577000D01*
X146317000Y-148577000D01*
X146063000Y-148577000D01*
X146043000Y-148577000D01*
X146043000Y-148323000D01*
X146063000Y-148323000D01*
X146063000Y-147180085D01*
X146317000Y-147180085D01*
X146317000Y-148323000D01*
X147460624Y-148323000D01*
X147581909Y-148100960D01*
X147487070Y-147836119D01*
X147375449Y-147650000D01*
X150911928Y-147650000D01*
X150911928Y-149250000D01*
X150924188Y-149374482D01*
X150960498Y-149494180D01*
X151019463Y-149604494D01*
X151098815Y-149701185D01*
X151195506Y-149780537D01*
X151305820Y-149839502D01*
X151425518Y-149875812D01*
X151532921Y-149886390D01*
X151443377Y-149959877D01*
X151334488Y-150092558D01*
X151253577Y-150243933D01*
X151203752Y-150408184D01*
X151186928Y-150579000D01*
X151186928Y-151079000D01*
X151203752Y-151249816D01*
X151253577Y-151414067D01*
X151334488Y-151565442D01*
X151443377Y-151698123D01*
X151496232Y-151741500D01*
X151443377Y-151784877D01*
X151334488Y-151917558D01*
X151253577Y-152068933D01*
X151203752Y-152233184D01*
X151186928Y-152404000D01*
X151186928Y-152904000D01*
X151203752Y-153074816D01*
X151253577Y-153239067D01*
X151334488Y-153390442D01*
X151443377Y-153523123D01*
X151576058Y-153632012D01*
X151727433Y-153712923D01*
X151891684Y-153762748D01*
X152062500Y-153779572D01*
X152537500Y-153779572D01*
X152708316Y-153762748D01*
X152872567Y-153712923D01*
X152874558Y-153711859D01*
X154540001Y-155377303D01*
X154540000Y-164211928D01*
X154400000Y-164211928D01*
X154226746Y-164228992D01*
X154060150Y-164279528D01*
X153906614Y-164361595D01*
X153772038Y-164472038D01*
X153661595Y-164606614D01*
X153579528Y-164760150D01*
X153528992Y-164926746D01*
X153511928Y-165100000D01*
X153511928Y-166900000D01*
X153528992Y-167073254D01*
X153579528Y-167239850D01*
X153661595Y-167393386D01*
X153772038Y-167527962D01*
X153906614Y-167638405D01*
X154060150Y-167720472D01*
X154226746Y-167771008D01*
X154400000Y-167788072D01*
X156200000Y-167788072D01*
X156373254Y-167771008D01*
X156539850Y-167720472D01*
X156693386Y-167638405D01*
X156827962Y-167527962D01*
X156938405Y-167393386D01*
X157020472Y-167239850D01*
X157071008Y-167073254D01*
X157088072Y-166900000D01*
X157088072Y-165100000D01*
X157071008Y-164926746D01*
X157020472Y-164760150D01*
X156938405Y-164606614D01*
X156827962Y-164472038D01*
X156693386Y-164361595D01*
X156539850Y-164279528D01*
X156373254Y-164228992D01*
X156200000Y-164211928D01*
X156060000Y-164211928D01*
X156060000Y-155099822D01*
X156063676Y-155062499D01*
X156060000Y-155025176D01*
X156060000Y-155025167D01*
X156049003Y-154913514D01*
X156005546Y-154770253D01*
X155934974Y-154638224D01*
X155840001Y-154522499D01*
X155811003Y-154498701D01*
X153455304Y-152143003D01*
X153431501Y-152113999D01*
X153322851Y-152024832D01*
X153265512Y-151917558D01*
X153156623Y-151784877D01*
X153103768Y-151741500D01*
X153156623Y-151698123D01*
X153265512Y-151565442D01*
X153346423Y-151414067D01*
X153396248Y-151249816D01*
X153413072Y-151079000D01*
X153413072Y-150579000D01*
X153396248Y-150408184D01*
X153346423Y-150243933D01*
X153265512Y-150092558D01*
X153156623Y-149959877D01*
X153110000Y-149921614D01*
X153110000Y-149888072D01*
X153150000Y-149888072D01*
X153274482Y-149875812D01*
X153394180Y-149839502D01*
X153504494Y-149780537D01*
X153601185Y-149701185D01*
X153680537Y-149604494D01*
X153739502Y-149494180D01*
X153775812Y-149374482D01*
X153778231Y-149349920D01*
X153926586Y-149513519D01*
X154152580Y-149681037D01*
X154406913Y-149801246D01*
X154540961Y-149841904D01*
X154763000Y-149719915D01*
X154763000Y-148577000D01*
X155017000Y-148577000D01*
X155017000Y-149719915D01*
X155239039Y-149841904D01*
X155373087Y-149801246D01*
X155627420Y-149681037D01*
X155853414Y-149513519D01*
X156042385Y-149305131D01*
X156187070Y-149063881D01*
X156281909Y-148799040D01*
X156160624Y-148577000D01*
X155017000Y-148577000D01*
X154763000Y-148577000D01*
X154743000Y-148577000D01*
X154743000Y-148323000D01*
X154763000Y-148323000D01*
X154763000Y-147180085D01*
X155017000Y-147180085D01*
X155017000Y-148323000D01*
X156160624Y-148323000D01*
X156281909Y-148100960D01*
X156187070Y-147836119D01*
X156042385Y-147594869D01*
X155853414Y-147386481D01*
X155627420Y-147218963D01*
X155373087Y-147098754D01*
X155239039Y-147058096D01*
X155017000Y-147180085D01*
X154763000Y-147180085D01*
X154540961Y-147058096D01*
X154406913Y-147098754D01*
X154152580Y-147218963D01*
X153926586Y-147386481D01*
X153778231Y-147550080D01*
X153775812Y-147525518D01*
X153739502Y-147405820D01*
X153680537Y-147295506D01*
X153601185Y-147198815D01*
X153504494Y-147119463D01*
X153394180Y-147060498D01*
X153274482Y-147024188D01*
X153150000Y-147011928D01*
X151550000Y-147011928D01*
X151425518Y-147024188D01*
X151305820Y-147060498D01*
X151195506Y-147119463D01*
X151098815Y-147198815D01*
X151019463Y-147295506D01*
X150960498Y-147405820D01*
X150924188Y-147525518D01*
X150911928Y-147650000D01*
X147375449Y-147650000D01*
X147342385Y-147594869D01*
X147153414Y-147386481D01*
X146927420Y-147218963D01*
X146673087Y-147098754D01*
X146539039Y-147058096D01*
X146317000Y-147180085D01*
X146063000Y-147180085D01*
X145840961Y-147058096D01*
X145706913Y-147098754D01*
X145452580Y-147218963D01*
X145226586Y-147386481D01*
X145078231Y-147550080D01*
X145075812Y-147525518D01*
X145039502Y-147405820D01*
X144980537Y-147295506D01*
X144901185Y-147198815D01*
X144804494Y-147119463D01*
X144694180Y-147060498D01*
X144574482Y-147024188D01*
X144450000Y-147011928D01*
X142850000Y-147011928D01*
X142725518Y-147024188D01*
X142605820Y-147060498D01*
X142495506Y-147119463D01*
X142398815Y-147198815D01*
X142319463Y-147295506D01*
X142260498Y-147405820D01*
X142224188Y-147525518D01*
X142211928Y-147650000D01*
X138249396Y-147650000D01*
X138074759Y-147475363D01*
X137839727Y-147318320D01*
X137578574Y-147210147D01*
X137301335Y-147155000D01*
X137018665Y-147155000D01*
X136741426Y-147210147D01*
X136480273Y-147318320D01*
X136245241Y-147475363D01*
X136045363Y-147675241D01*
X135888320Y-147910273D01*
X135883933Y-147920865D01*
X135772385Y-147734869D01*
X135583414Y-147526481D01*
X135357420Y-147358963D01*
X135103087Y-147238754D01*
X134969039Y-147198096D01*
X134747000Y-147320085D01*
X134747000Y-148463000D01*
X134767000Y-148463000D01*
X134767000Y-148717000D01*
X134747000Y-148717000D01*
X134747000Y-148737000D01*
X134493000Y-148737000D01*
X134493000Y-148717000D01*
X133349376Y-148717000D01*
X133228091Y-148939040D01*
X133322930Y-149203881D01*
X133467615Y-149445131D01*
X133656586Y-149653519D01*
X133882580Y-149821037D01*
X134136913Y-149941246D01*
X134216878Y-149965500D01*
X133351822Y-149965500D01*
X133314500Y-149961824D01*
X133277177Y-149965500D01*
X133277167Y-149965500D01*
X133165514Y-149976497D01*
X133022253Y-150019954D01*
X132890223Y-150090526D01*
X132865003Y-150111224D01*
X132774499Y-150185499D01*
X132750701Y-150214497D01*
X130122500Y-152842699D01*
X130122500Y-152096178D01*
X130231623Y-152006623D01*
X130340512Y-151873942D01*
X130421423Y-151722567D01*
X130471248Y-151558316D01*
X130488072Y-151387500D01*
X130488072Y-150912500D01*
X130471248Y-150741684D01*
X130421423Y-150577433D01*
X130340512Y-150426058D01*
X130231623Y-150293377D01*
X130098942Y-150184488D01*
X129947567Y-150103577D01*
X129783316Y-150053752D01*
X129612500Y-150036928D01*
X129157874Y-150036928D01*
X129256114Y-149938688D01*
X129438665Y-149975000D01*
X129721335Y-149975000D01*
X129998574Y-149919853D01*
X130259727Y-149811680D01*
X130494759Y-149654637D01*
X130694637Y-149454759D01*
X130851680Y-149219727D01*
X130959853Y-148958574D01*
X131015000Y-148681335D01*
X131015000Y-148398665D01*
X130983631Y-148240960D01*
X133228091Y-148240960D01*
X133349376Y-148463000D01*
X134493000Y-148463000D01*
X134493000Y-147320085D01*
X134270961Y-147198096D01*
X134136913Y-147238754D01*
X133882580Y-147358963D01*
X133656586Y-147526481D01*
X133467615Y-147734869D01*
X133322930Y-147976119D01*
X133228091Y-148240960D01*
X130983631Y-148240960D01*
X130959853Y-148121426D01*
X130851680Y-147860273D01*
X130694637Y-147625241D01*
X130494759Y-147425363D01*
X130259727Y-147268320D01*
X129998574Y-147160147D01*
X129721335Y-147105000D01*
X129438665Y-147105000D01*
X129161426Y-147160147D01*
X128900273Y-147268320D01*
X128665241Y-147425363D01*
X128465363Y-147625241D01*
X128308320Y-147860273D01*
X128303933Y-147870865D01*
X128192385Y-147684869D01*
X128003414Y-147476481D01*
X127777420Y-147308963D01*
X127523087Y-147188754D01*
X127389039Y-147148096D01*
X127167000Y-147270085D01*
X127167000Y-148413000D01*
X127187000Y-148413000D01*
X127187000Y-148667000D01*
X127167000Y-148667000D01*
X127167000Y-149809915D01*
X127211071Y-149834128D01*
X127026498Y-150018701D01*
X126997500Y-150042499D01*
X126973702Y-150071497D01*
X126973701Y-150071498D01*
X126943421Y-150108394D01*
X126801058Y-150184488D01*
X126668377Y-150293377D01*
X126559488Y-150426058D01*
X126478577Y-150577433D01*
X126428752Y-150741684D01*
X126411928Y-150912500D01*
X126411928Y-151387500D01*
X126428752Y-151558316D01*
X126452173Y-151635525D01*
X125043993Y-153043706D01*
X125025010Y-153059285D01*
X125025010Y-152952333D01*
X125028686Y-152915010D01*
X125025010Y-152877687D01*
X125025010Y-152877677D01*
X125014013Y-152766024D01*
X124970556Y-152622763D01*
X124931121Y-152548986D01*
X124899984Y-152490733D01*
X124828809Y-152404007D01*
X124805011Y-152375009D01*
X124776014Y-152351212D01*
X122863072Y-150438271D01*
X122863072Y-150325000D01*
X122846248Y-150154184D01*
X122796423Y-149989933D01*
X122715512Y-149838558D01*
X122633638Y-149738795D01*
X122684759Y-149704637D01*
X122884637Y-149504759D01*
X123041680Y-149269727D01*
X123149853Y-149008574D01*
X123173630Y-148889040D01*
X125648091Y-148889040D01*
X125742930Y-149153881D01*
X125887615Y-149395131D01*
X126076586Y-149603519D01*
X126302580Y-149771037D01*
X126556913Y-149891246D01*
X126690961Y-149931904D01*
X126913000Y-149809915D01*
X126913000Y-148667000D01*
X125769376Y-148667000D01*
X125648091Y-148889040D01*
X123173630Y-148889040D01*
X123205000Y-148731335D01*
X123205000Y-148448665D01*
X123153739Y-148190960D01*
X125648091Y-148190960D01*
X125769376Y-148413000D01*
X126913000Y-148413000D01*
X126913000Y-147270085D01*
X126690961Y-147148096D01*
X126556913Y-147188754D01*
X126302580Y-147308963D01*
X126076586Y-147476481D01*
X125887615Y-147684869D01*
X125742930Y-147926119D01*
X125648091Y-148190960D01*
X123153739Y-148190960D01*
X123149853Y-148171426D01*
X123041680Y-147910273D01*
X122884637Y-147675241D01*
X122684759Y-147475363D01*
X122449727Y-147318320D01*
X122188574Y-147210147D01*
X121911335Y-147155000D01*
X121628665Y-147155000D01*
X121351426Y-147210147D01*
X121090273Y-147318320D01*
X120855241Y-147475363D01*
X120655363Y-147675241D01*
X120498320Y-147910273D01*
X120493933Y-147920865D01*
X120382385Y-147734869D01*
X120193414Y-147526481D01*
X119967420Y-147358963D01*
X119713087Y-147238754D01*
X119579039Y-147198096D01*
X119357000Y-147320085D01*
X119357000Y-148463000D01*
X119377000Y-148463000D01*
X119377000Y-148717000D01*
X119357000Y-148717000D01*
X119357000Y-149859915D01*
X119579039Y-149981904D01*
X119713087Y-149941246D01*
X119967420Y-149821037D01*
X120193414Y-149653519D01*
X120382385Y-149445131D01*
X120493933Y-149259135D01*
X120498320Y-149269727D01*
X120655363Y-149504759D01*
X120855241Y-149704637D01*
X120880528Y-149721533D01*
X120784488Y-149838558D01*
X120703577Y-149989933D01*
X120653752Y-150154184D01*
X120636928Y-150325000D01*
X120636928Y-150825000D01*
X120653752Y-150995816D01*
X120703577Y-151160067D01*
X120784488Y-151311442D01*
X120893377Y-151444123D01*
X120946232Y-151487500D01*
X120893377Y-151530877D01*
X120784488Y-151663558D01*
X120703577Y-151814933D01*
X120653752Y-151979184D01*
X120636928Y-152150000D01*
X120636928Y-152263270D01*
X118788998Y-154111201D01*
X118760000Y-154134999D01*
X118736202Y-154163997D01*
X118736201Y-154163998D01*
X118665026Y-154250724D01*
X118594454Y-154382754D01*
X118580873Y-154427526D01*
X118550998Y-154526014D01*
X118542637Y-154610900D01*
X118536324Y-154675000D01*
X111633000Y-154675000D01*
X111633000Y-148939040D01*
X117838091Y-148939040D01*
X117932930Y-149203881D01*
X118077615Y-149445131D01*
X118266586Y-149653519D01*
X118492580Y-149821037D01*
X118746913Y-149941246D01*
X118880961Y-149981904D01*
X119103000Y-149859915D01*
X119103000Y-148717000D01*
X117959376Y-148717000D01*
X117838091Y-148939040D01*
X111633000Y-148939040D01*
X111633000Y-148240960D01*
X117838091Y-148240960D01*
X117959376Y-148463000D01*
X119103000Y-148463000D01*
X119103000Y-147320085D01*
X118880961Y-147198096D01*
X118746913Y-147238754D01*
X118492580Y-147358963D01*
X118266586Y-147526481D01*
X118077615Y-147734869D01*
X117932930Y-147976119D01*
X117838091Y-148240960D01*
X111633000Y-148240960D01*
X111633000Y-146685000D01*
X159131000Y-146685000D01*
X159131000Y-169577795D01*
G37*
%TD.AperFunction*%
D14*
X122701928Y-155161730D02*
X122701928Y-155850000D01*
X122717071Y-156003745D01*
X122761916Y-156151582D01*
X122834742Y-156287829D01*
X122932749Y-156407251D01*
X123052171Y-156505258D01*
X123188418Y-156578084D01*
X123336255Y-156622929D01*
X123490000Y-156638072D01*
X123505011Y-156638072D01*
X123505011Y-158361928D01*
X123490000Y-158361928D01*
X123336255Y-158377071D01*
X123188418Y-158421916D01*
X123052171Y-158494742D01*
X122932749Y-158592749D01*
X122834742Y-158712171D01*
X122761916Y-158848418D01*
X122717071Y-158996255D01*
X122701928Y-159150000D01*
X122701928Y-160800000D01*
X122717071Y-160953745D01*
X122761916Y-161101582D01*
X122834742Y-161237829D01*
X122932749Y-161357251D01*
X123052171Y-161455258D01*
X123188418Y-161528084D01*
X123336255Y-161572929D01*
X123490000Y-161588072D01*
X123790000Y-161588072D01*
X123943745Y-161572929D01*
X124091582Y-161528084D01*
X124150001Y-161496858D01*
X124150000Y-162975198D01*
X122656181Y-164469018D01*
X122570665Y-164433596D01*
X122225807Y-164365000D01*
X121874193Y-164365000D01*
X121529335Y-164433596D01*
X121204485Y-164568153D01*
X120912129Y-164763500D01*
X120663500Y-165012129D01*
X120468153Y-165304485D01*
X120333596Y-165629335D01*
X120265000Y-165974193D01*
X120265000Y-166325807D01*
X120333596Y-166670665D01*
X120468153Y-166995515D01*
X120663500Y-167287871D01*
X120912129Y-167536500D01*
X121204485Y-167731847D01*
X121529335Y-167866404D01*
X121874193Y-167935000D01*
X122225807Y-167935000D01*
X122570665Y-167866404D01*
X122895515Y-167731847D01*
X123187871Y-167536500D01*
X123436500Y-167287871D01*
X123631847Y-166995515D01*
X123766404Y-166670665D01*
X123835000Y-166325807D01*
X123835000Y-165974193D01*
X123766404Y-165629335D01*
X123730982Y-165543819D01*
X125421004Y-163853798D01*
X125450001Y-163830001D01*
X125544974Y-163714276D01*
X125615546Y-163582247D01*
X125659003Y-163438986D01*
X125670000Y-163327333D01*
X125670000Y-163327325D01*
X125673676Y-163290000D01*
X125670000Y-163252675D01*
X125670000Y-161496859D01*
X125728418Y-161528084D01*
X125876255Y-161572929D01*
X126030000Y-161588072D01*
X126330000Y-161588072D01*
X126483745Y-161572929D01*
X126631582Y-161528084D01*
X126767829Y-161455258D01*
X126815000Y-161416546D01*
X126862171Y-161455258D01*
X126998418Y-161528084D01*
X127146255Y-161572929D01*
X127300000Y-161588072D01*
X127600000Y-161588072D01*
X127753745Y-161572929D01*
X127901582Y-161528084D01*
X128037829Y-161455258D01*
X128085000Y-161416546D01*
X128132171Y-161455258D01*
X128268418Y-161528084D01*
X128416255Y-161572929D01*
X128570000Y-161588072D01*
X128870000Y-161588072D01*
X129023745Y-161572929D01*
X129171582Y-161528084D01*
X129230000Y-161496858D01*
X129230000Y-162695198D01*
X127456181Y-164469018D01*
X127370665Y-164433596D01*
X127025807Y-164365000D01*
X126674193Y-164365000D01*
X126329335Y-164433596D01*
X126004485Y-164568153D01*
X125712129Y-164763500D01*
X125463500Y-165012129D01*
X125268153Y-165304485D01*
X125133596Y-165629335D01*
X125065000Y-165974193D01*
X125065000Y-166325807D01*
X125133596Y-166670665D01*
X125268153Y-166995515D01*
X125463500Y-167287871D01*
X125712129Y-167536500D01*
X126004485Y-167731847D01*
X126329335Y-167866404D01*
X126674193Y-167935000D01*
X127025807Y-167935000D01*
X127370665Y-167866404D01*
X127695515Y-167731847D01*
X127987871Y-167536500D01*
X128236500Y-167287871D01*
X128431847Y-166995515D01*
X128566404Y-166670665D01*
X128635000Y-166325807D01*
X128635000Y-165974193D01*
X128566404Y-165629335D01*
X128530982Y-165543819D01*
X130501004Y-163573798D01*
X130530001Y-163550001D01*
X130624974Y-163434276D01*
X130695546Y-163302247D01*
X130739003Y-163158986D01*
X130750000Y-163047333D01*
X130750000Y-163047332D01*
X130753677Y-163010000D01*
X130750000Y-162972667D01*
X130750000Y-161549870D01*
X130835518Y-161575812D01*
X130960000Y-161588072D01*
X130974250Y-161585000D01*
X131133000Y-161426250D01*
X131133000Y-160102000D01*
X131387000Y-160102000D01*
X131387000Y-161426250D01*
X131545750Y-161585000D01*
X131560000Y-161588072D01*
X131684482Y-161575812D01*
X131804180Y-161539502D01*
X131914494Y-161480537D01*
X132011185Y-161401185D01*
X132090537Y-161304494D01*
X132149502Y-161194180D01*
X132185812Y-161074482D01*
X132198072Y-160950000D01*
X132195000Y-160260750D01*
X132036250Y-160102000D01*
X131387000Y-160102000D01*
X131133000Y-160102000D01*
X131113000Y-160102000D01*
X131113000Y-159848000D01*
X131133000Y-159848000D01*
X131133000Y-158523750D01*
X131387000Y-158523750D01*
X131387000Y-159848000D01*
X132036250Y-159848000D01*
X132195000Y-159689250D01*
X132198072Y-159000000D01*
X132185812Y-158875518D01*
X132149502Y-158755820D01*
X132090537Y-158645506D01*
X132011185Y-158548815D01*
X131914494Y-158469463D01*
X131804180Y-158410498D01*
X131684482Y-158374188D01*
X131560000Y-158361928D01*
X131545750Y-158365000D01*
X131387000Y-158523750D01*
X131133000Y-158523750D01*
X130974250Y-158365000D01*
X130960000Y-158361928D01*
X130835518Y-158374188D01*
X130715820Y-158410498D01*
X130605506Y-158469463D01*
X130575936Y-158493730D01*
X130441582Y-158421916D01*
X130293745Y-158377071D01*
X130140000Y-158361928D01*
X129840000Y-158361928D01*
X129686255Y-158377071D01*
X129538418Y-158421916D01*
X129402171Y-158494742D01*
X129355000Y-158533454D01*
X129307829Y-158494742D01*
X129273420Y-158476350D01*
X129260001Y-158459999D01*
X129231004Y-158436202D01*
X128083804Y-157289003D01*
X128060001Y-157259999D01*
X127944276Y-157165026D01*
X127812247Y-157094454D01*
X127668986Y-157050997D01*
X127557333Y-157040000D01*
X127557322Y-157040000D01*
X127520000Y-157036324D01*
X127482678Y-157040000D01*
X126314990Y-157040000D01*
X126314990Y-156638072D01*
X126330000Y-156638072D01*
X126483745Y-156622929D01*
X126631582Y-156578084D01*
X126767829Y-156505258D01*
X126815000Y-156466546D01*
X126862171Y-156505258D01*
X126998418Y-156578084D01*
X127146255Y-156622929D01*
X127300000Y-156638072D01*
X127600000Y-156638072D01*
X127753745Y-156622929D01*
X127901582Y-156578084D01*
X128037829Y-156505258D01*
X128085000Y-156466546D01*
X128132171Y-156505258D01*
X128268418Y-156578084D01*
X128416255Y-156622929D01*
X128570000Y-156638072D01*
X128870000Y-156638072D01*
X128880472Y-156637041D01*
X129079438Y-156836007D01*
X129103241Y-156865011D01*
X129218966Y-156959984D01*
X129350995Y-157030556D01*
X129494256Y-157074013D01*
X129605909Y-157085010D01*
X129605918Y-157085010D01*
X129643241Y-157088686D01*
X129680564Y-157085010D01*
X133538168Y-157085010D01*
X133575490Y-157088686D01*
X133612812Y-157085010D01*
X133612823Y-157085010D01*
X133724476Y-157074013D01*
X133867737Y-157030556D01*
X133999766Y-156959984D01*
X134115491Y-156865011D01*
X134139294Y-156836007D01*
X136590000Y-154385301D01*
X136590001Y-157522007D01*
X135017407Y-159094602D01*
X135017402Y-159094606D01*
X129663993Y-164448016D01*
X129634989Y-164471819D01*
X129579861Y-164538994D01*
X129540016Y-164587544D01*
X129518440Y-164627910D01*
X129469444Y-164719574D01*
X129425987Y-164862835D01*
X129414990Y-164974488D01*
X129414990Y-164974498D01*
X129411314Y-165011820D01*
X129414990Y-165049143D01*
X129414991Y-167250848D01*
X129411314Y-167288180D01*
X129425988Y-167437165D01*
X129469444Y-167580426D01*
X129540016Y-167712456D01*
X129611191Y-167799182D01*
X129634990Y-167828181D01*
X129663988Y-167851979D01*
X129948016Y-168136007D01*
X129971819Y-168165011D01*
X130087544Y-168259984D01*
X130162408Y-168300000D01*
X130219573Y-168330556D01*
X130362834Y-168374013D01*
X130511820Y-168388687D01*
X130549153Y-168385010D01*
X132750858Y-168385010D01*
X132788180Y-168388686D01*
X132825502Y-168385010D01*
X132825513Y-168385010D01*
X132937166Y-168374013D01*
X133080427Y-168330556D01*
X133212456Y-168259984D01*
X133328181Y-168165011D01*
X133351984Y-168136007D01*
X133636008Y-167851983D01*
X133665011Y-167828181D01*
X133759984Y-167712456D01*
X133830556Y-167580427D01*
X133874013Y-167437166D01*
X133878427Y-167392349D01*
X137637256Y-167392349D01*
X137751118Y-167672090D01*
X138066296Y-167827961D01*
X138405826Y-167919349D01*
X138756661Y-167942741D01*
X139105319Y-167897240D01*
X139438400Y-167784594D01*
X139648882Y-167672090D01*
X139762744Y-167392349D01*
X138700000Y-166329605D01*
X137637256Y-167392349D01*
X133878427Y-167392349D01*
X133885010Y-167325513D01*
X133885010Y-167325512D01*
X133888687Y-167288180D01*
X133885010Y-167250847D01*
X133885010Y-166206661D01*
X136907259Y-166206661D01*
X136952760Y-166555319D01*
X137065406Y-166888400D01*
X137177910Y-167098882D01*
X137457651Y-167212744D01*
X138520395Y-166150000D01*
X137457651Y-165087256D01*
X137177910Y-165201118D01*
X137022039Y-165516296D01*
X136930651Y-165855826D01*
X136907259Y-166206661D01*
X133885010Y-166206661D01*
X133885010Y-165626201D01*
X135351212Y-164160000D01*
X138335199Y-164160000D01*
X138545258Y-164370059D01*
X138294681Y-164402760D01*
X137961600Y-164515406D01*
X137751118Y-164627910D01*
X137637256Y-164907651D01*
X138700000Y-165970395D01*
X138714143Y-165956253D01*
X138893748Y-166135858D01*
X138879605Y-166150000D01*
X139942349Y-167212744D01*
X140222090Y-167098882D01*
X140377961Y-166783704D01*
X140469349Y-166444174D01*
X140478727Y-166303528D01*
X140836201Y-166661003D01*
X140859999Y-166690001D01*
X140975724Y-166784974D01*
X141107753Y-166855546D01*
X141251014Y-166899003D01*
X141362667Y-166910000D01*
X141362676Y-166910000D01*
X141399999Y-166913676D01*
X141437322Y-166910000D01*
X141711928Y-166910000D01*
X141711928Y-167050000D01*
X141728992Y-167223254D01*
X141779528Y-167389850D01*
X141861595Y-167543386D01*
X141972038Y-167677962D01*
X142106614Y-167788405D01*
X142260150Y-167870472D01*
X142426746Y-167921008D01*
X142600000Y-167938072D01*
X142740001Y-167938072D01*
X142740001Y-167985197D01*
X141935199Y-168790000D01*
X120764802Y-168790000D01*
X120060000Y-168085199D01*
X120060000Y-154989801D01*
X121295000Y-153754801D01*
X122701928Y-155161730D01*
%TA.AperFunction,Conductor*%
D15*
G36*
X122701928Y-155161730D02*
G01*
X122701928Y-155850000D01*
X122717071Y-156003745D01*
X122761916Y-156151582D01*
X122834742Y-156287829D01*
X122932749Y-156407251D01*
X123052171Y-156505258D01*
X123188418Y-156578084D01*
X123336255Y-156622929D01*
X123490000Y-156638072D01*
X123505011Y-156638072D01*
X123505011Y-158361928D01*
X123490000Y-158361928D01*
X123336255Y-158377071D01*
X123188418Y-158421916D01*
X123052171Y-158494742D01*
X122932749Y-158592749D01*
X122834742Y-158712171D01*
X122761916Y-158848418D01*
X122717071Y-158996255D01*
X122701928Y-159150000D01*
X122701928Y-160800000D01*
X122717071Y-160953745D01*
X122761916Y-161101582D01*
X122834742Y-161237829D01*
X122932749Y-161357251D01*
X123052171Y-161455258D01*
X123188418Y-161528084D01*
X123336255Y-161572929D01*
X123490000Y-161588072D01*
X123790000Y-161588072D01*
X123943745Y-161572929D01*
X124091582Y-161528084D01*
X124150001Y-161496858D01*
X124150000Y-162975198D01*
X122656181Y-164469018D01*
X122570665Y-164433596D01*
X122225807Y-164365000D01*
X121874193Y-164365000D01*
X121529335Y-164433596D01*
X121204485Y-164568153D01*
X120912129Y-164763500D01*
X120663500Y-165012129D01*
X120468153Y-165304485D01*
X120333596Y-165629335D01*
X120265000Y-165974193D01*
X120265000Y-166325807D01*
X120333596Y-166670665D01*
X120468153Y-166995515D01*
X120663500Y-167287871D01*
X120912129Y-167536500D01*
X121204485Y-167731847D01*
X121529335Y-167866404D01*
X121874193Y-167935000D01*
X122225807Y-167935000D01*
X122570665Y-167866404D01*
X122895515Y-167731847D01*
X123187871Y-167536500D01*
X123436500Y-167287871D01*
X123631847Y-166995515D01*
X123766404Y-166670665D01*
X123835000Y-166325807D01*
X123835000Y-165974193D01*
X123766404Y-165629335D01*
X123730982Y-165543819D01*
X125421004Y-163853798D01*
X125450001Y-163830001D01*
X125544974Y-163714276D01*
X125615546Y-163582247D01*
X125659003Y-163438986D01*
X125670000Y-163327333D01*
X125670000Y-163327325D01*
X125673676Y-163290000D01*
X125670000Y-163252675D01*
X125670000Y-161496859D01*
X125728418Y-161528084D01*
X125876255Y-161572929D01*
X126030000Y-161588072D01*
X126330000Y-161588072D01*
X126483745Y-161572929D01*
X126631582Y-161528084D01*
X126767829Y-161455258D01*
X126815000Y-161416546D01*
X126862171Y-161455258D01*
X126998418Y-161528084D01*
X127146255Y-161572929D01*
X127300000Y-161588072D01*
X127600000Y-161588072D01*
X127753745Y-161572929D01*
X127901582Y-161528084D01*
X128037829Y-161455258D01*
X128085000Y-161416546D01*
X128132171Y-161455258D01*
X128268418Y-161528084D01*
X128416255Y-161572929D01*
X128570000Y-161588072D01*
X128870000Y-161588072D01*
X129023745Y-161572929D01*
X129171582Y-161528084D01*
X129230000Y-161496858D01*
X129230000Y-162695198D01*
X127456181Y-164469018D01*
X127370665Y-164433596D01*
X127025807Y-164365000D01*
X126674193Y-164365000D01*
X126329335Y-164433596D01*
X126004485Y-164568153D01*
X125712129Y-164763500D01*
X125463500Y-165012129D01*
X125268153Y-165304485D01*
X125133596Y-165629335D01*
X125065000Y-165974193D01*
X125065000Y-166325807D01*
X125133596Y-166670665D01*
X125268153Y-166995515D01*
X125463500Y-167287871D01*
X125712129Y-167536500D01*
X126004485Y-167731847D01*
X126329335Y-167866404D01*
X126674193Y-167935000D01*
X127025807Y-167935000D01*
X127370665Y-167866404D01*
X127695515Y-167731847D01*
X127987871Y-167536500D01*
X128236500Y-167287871D01*
X128431847Y-166995515D01*
X128566404Y-166670665D01*
X128635000Y-166325807D01*
X128635000Y-165974193D01*
X128566404Y-165629335D01*
X128530982Y-165543819D01*
X130501004Y-163573798D01*
X130530001Y-163550001D01*
X130624974Y-163434276D01*
X130695546Y-163302247D01*
X130739003Y-163158986D01*
X130750000Y-163047333D01*
X130750000Y-163047332D01*
X130753677Y-163010000D01*
X130750000Y-162972667D01*
X130750000Y-161549870D01*
X130835518Y-161575812D01*
X130960000Y-161588072D01*
X130974250Y-161585000D01*
X131133000Y-161426250D01*
X131133000Y-160102000D01*
X131387000Y-160102000D01*
X131387000Y-161426250D01*
X131545750Y-161585000D01*
X131560000Y-161588072D01*
X131684482Y-161575812D01*
X131804180Y-161539502D01*
X131914494Y-161480537D01*
X132011185Y-161401185D01*
X132090537Y-161304494D01*
X132149502Y-161194180D01*
X132185812Y-161074482D01*
X132198072Y-160950000D01*
X132195000Y-160260750D01*
X132036250Y-160102000D01*
X131387000Y-160102000D01*
X131133000Y-160102000D01*
X131113000Y-160102000D01*
X131113000Y-159848000D01*
X131133000Y-159848000D01*
X131133000Y-158523750D01*
X131387000Y-158523750D01*
X131387000Y-159848000D01*
X132036250Y-159848000D01*
X132195000Y-159689250D01*
X132198072Y-159000000D01*
X132185812Y-158875518D01*
X132149502Y-158755820D01*
X132090537Y-158645506D01*
X132011185Y-158548815D01*
X131914494Y-158469463D01*
X131804180Y-158410498D01*
X131684482Y-158374188D01*
X131560000Y-158361928D01*
X131545750Y-158365000D01*
X131387000Y-158523750D01*
X131133000Y-158523750D01*
X130974250Y-158365000D01*
X130960000Y-158361928D01*
X130835518Y-158374188D01*
X130715820Y-158410498D01*
X130605506Y-158469463D01*
X130575936Y-158493730D01*
X130441582Y-158421916D01*
X130293745Y-158377071D01*
X130140000Y-158361928D01*
X129840000Y-158361928D01*
X129686255Y-158377071D01*
X129538418Y-158421916D01*
X129402171Y-158494742D01*
X129355000Y-158533454D01*
X129307829Y-158494742D01*
X129273420Y-158476350D01*
X129260001Y-158459999D01*
X129231004Y-158436202D01*
X128083804Y-157289003D01*
X128060001Y-157259999D01*
X127944276Y-157165026D01*
X127812247Y-157094454D01*
X127668986Y-157050997D01*
X127557333Y-157040000D01*
X127557322Y-157040000D01*
X127520000Y-157036324D01*
X127482678Y-157040000D01*
X126314990Y-157040000D01*
X126314990Y-156638072D01*
X126330000Y-156638072D01*
X126483745Y-156622929D01*
X126631582Y-156578084D01*
X126767829Y-156505258D01*
X126815000Y-156466546D01*
X126862171Y-156505258D01*
X126998418Y-156578084D01*
X127146255Y-156622929D01*
X127300000Y-156638072D01*
X127600000Y-156638072D01*
X127753745Y-156622929D01*
X127901582Y-156578084D01*
X128037829Y-156505258D01*
X128085000Y-156466546D01*
X128132171Y-156505258D01*
X128268418Y-156578084D01*
X128416255Y-156622929D01*
X128570000Y-156638072D01*
X128870000Y-156638072D01*
X128880472Y-156637041D01*
X129079438Y-156836007D01*
X129103241Y-156865011D01*
X129218966Y-156959984D01*
X129350995Y-157030556D01*
X129494256Y-157074013D01*
X129605909Y-157085010D01*
X129605918Y-157085010D01*
X129643241Y-157088686D01*
X129680564Y-157085010D01*
X133538168Y-157085010D01*
X133575490Y-157088686D01*
X133612812Y-157085010D01*
X133612823Y-157085010D01*
X133724476Y-157074013D01*
X133867737Y-157030556D01*
X133999766Y-156959984D01*
X134115491Y-156865011D01*
X134139294Y-156836007D01*
X136590000Y-154385301D01*
X136590001Y-157522007D01*
X135017407Y-159094602D01*
X135017402Y-159094606D01*
X129663993Y-164448016D01*
X129634989Y-164471819D01*
X129579861Y-164538994D01*
X129540016Y-164587544D01*
X129518440Y-164627910D01*
X129469444Y-164719574D01*
X129425987Y-164862835D01*
X129414990Y-164974488D01*
X129414990Y-164974498D01*
X129411314Y-165011820D01*
X129414990Y-165049143D01*
X129414991Y-167250848D01*
X129411314Y-167288180D01*
X129425988Y-167437165D01*
X129469444Y-167580426D01*
X129540016Y-167712456D01*
X129611191Y-167799182D01*
X129634990Y-167828181D01*
X129663988Y-167851979D01*
X129948016Y-168136007D01*
X129971819Y-168165011D01*
X130087544Y-168259984D01*
X130162408Y-168300000D01*
X130219573Y-168330556D01*
X130362834Y-168374013D01*
X130511820Y-168388687D01*
X130549153Y-168385010D01*
X132750858Y-168385010D01*
X132788180Y-168388686D01*
X132825502Y-168385010D01*
X132825513Y-168385010D01*
X132937166Y-168374013D01*
X133080427Y-168330556D01*
X133212456Y-168259984D01*
X133328181Y-168165011D01*
X133351984Y-168136007D01*
X133636008Y-167851983D01*
X133665011Y-167828181D01*
X133759984Y-167712456D01*
X133830556Y-167580427D01*
X133874013Y-167437166D01*
X133878427Y-167392349D01*
X137637256Y-167392349D01*
X137751118Y-167672090D01*
X138066296Y-167827961D01*
X138405826Y-167919349D01*
X138756661Y-167942741D01*
X139105319Y-167897240D01*
X139438400Y-167784594D01*
X139648882Y-167672090D01*
X139762744Y-167392349D01*
X138700000Y-166329605D01*
X137637256Y-167392349D01*
X133878427Y-167392349D01*
X133885010Y-167325513D01*
X133885010Y-167325512D01*
X133888687Y-167288180D01*
X133885010Y-167250847D01*
X133885010Y-166206661D01*
X136907259Y-166206661D01*
X136952760Y-166555319D01*
X137065406Y-166888400D01*
X137177910Y-167098882D01*
X137457651Y-167212744D01*
X138520395Y-166150000D01*
X137457651Y-165087256D01*
X137177910Y-165201118D01*
X137022039Y-165516296D01*
X136930651Y-165855826D01*
X136907259Y-166206661D01*
X133885010Y-166206661D01*
X133885010Y-165626201D01*
X135351212Y-164160000D01*
X138335199Y-164160000D01*
X138545258Y-164370059D01*
X138294681Y-164402760D01*
X137961600Y-164515406D01*
X137751118Y-164627910D01*
X137637256Y-164907651D01*
X138700000Y-165970395D01*
X138714143Y-165956253D01*
X138893748Y-166135858D01*
X138879605Y-166150000D01*
X139942349Y-167212744D01*
X140222090Y-167098882D01*
X140377961Y-166783704D01*
X140469349Y-166444174D01*
X140478727Y-166303528D01*
X140836201Y-166661003D01*
X140859999Y-166690001D01*
X140975724Y-166784974D01*
X141107753Y-166855546D01*
X141251014Y-166899003D01*
X141362667Y-166910000D01*
X141362676Y-166910000D01*
X141399999Y-166913676D01*
X141437322Y-166910000D01*
X141711928Y-166910000D01*
X141711928Y-167050000D01*
X141728992Y-167223254D01*
X141779528Y-167389850D01*
X141861595Y-167543386D01*
X141972038Y-167677962D01*
X142106614Y-167788405D01*
X142260150Y-167870472D01*
X142426746Y-167921008D01*
X142600000Y-167938072D01*
X142740001Y-167938072D01*
X142740001Y-167985197D01*
X141935199Y-168790000D01*
X120764802Y-168790000D01*
X120060000Y-168085199D01*
X120060000Y-154989801D01*
X121295000Y-153754801D01*
X122701928Y-155161730D01*
G37*
%TD.AperFunction*%
D14*
X128493377Y-152006623D02*
X128602500Y-152096179D01*
X128602500Y-153411928D01*
X128570000Y-153411928D01*
X128416255Y-153427071D01*
X128268418Y-153471916D01*
X128132171Y-153544742D01*
X128085000Y-153583454D01*
X128037829Y-153544742D01*
X127901582Y-153471916D01*
X127753745Y-153427071D01*
X127600000Y-153411928D01*
X127300000Y-153411928D01*
X127146255Y-153427071D01*
X126998418Y-153471916D01*
X126862171Y-153544742D01*
X126815000Y-153583454D01*
X126767829Y-153544742D01*
X126718778Y-153518523D01*
X128005309Y-152231993D01*
X128122567Y-152196423D01*
X128273942Y-152115512D01*
X128406623Y-152006623D01*
X128450000Y-151953768D01*
X128493377Y-152006623D01*
%TA.AperFunction,Conductor*%
D15*
G36*
X128493377Y-152006623D02*
G01*
X128602500Y-152096179D01*
X128602500Y-153411928D01*
X128570000Y-153411928D01*
X128416255Y-153427071D01*
X128268418Y-153471916D01*
X128132171Y-153544742D01*
X128085000Y-153583454D01*
X128037829Y-153544742D01*
X127901582Y-153471916D01*
X127753745Y-153427071D01*
X127600000Y-153411928D01*
X127300000Y-153411928D01*
X127146255Y-153427071D01*
X126998418Y-153471916D01*
X126862171Y-153544742D01*
X126815000Y-153583454D01*
X126767829Y-153544742D01*
X126718778Y-153518523D01*
X128005309Y-152231993D01*
X128122567Y-152196423D01*
X128273942Y-152115512D01*
X128406623Y-152006623D01*
X128450000Y-151953768D01*
X128493377Y-152006623D01*
G37*
%TD.AperFunction*%
%TD*%
D14*
%TO.N,GNDS*%
X158877000Y-143129000D02*
X111633000Y-143129000D01*
X111633000Y-142186349D01*
X114253256Y-142186349D01*
X114367118Y-142466090D01*
X114682296Y-142621961D01*
X115021826Y-142713349D01*
X115372661Y-142736741D01*
X115721319Y-142691240D01*
X116054400Y-142578594D01*
X116264882Y-142466090D01*
X116378744Y-142186349D01*
X115316000Y-141123605D01*
X114253256Y-142186349D01*
X111633000Y-142186349D01*
X111633000Y-141000661D01*
X113523259Y-141000661D01*
X113568760Y-141349319D01*
X113681406Y-141682400D01*
X113793910Y-141892882D01*
X114073651Y-142006744D01*
X115136395Y-140944000D01*
X115495605Y-140944000D01*
X116558349Y-142006744D01*
X116838090Y-141892882D01*
X116993961Y-141577704D01*
X117063583Y-141319040D01*
X117838091Y-141319040D01*
X117932930Y-141583881D01*
X118077615Y-141825131D01*
X118266586Y-142033519D01*
X118492580Y-142201037D01*
X118746913Y-142321246D01*
X118880961Y-142361904D01*
X119103000Y-142239915D01*
X119103000Y-141097000D01*
X117959376Y-141097000D01*
X117838091Y-141319040D01*
X117063583Y-141319040D01*
X117085349Y-141238174D01*
X117108741Y-140887339D01*
X117073978Y-140620960D01*
X117838091Y-140620960D01*
X117959376Y-140843000D01*
X119103000Y-140843000D01*
X119103000Y-139700085D01*
X118880961Y-139578096D01*
X118746913Y-139618754D01*
X118492580Y-139738963D01*
X118266586Y-139906481D01*
X118077615Y-140114869D01*
X117932930Y-140356119D01*
X117838091Y-140620960D01*
X117073978Y-140620960D01*
X117063240Y-140538681D01*
X116950594Y-140205600D01*
X116838090Y-139995118D01*
X116558349Y-139881256D01*
X115495605Y-140944000D01*
X115136395Y-140944000D01*
X114073651Y-139881256D01*
X113793910Y-139995118D01*
X113638039Y-140310296D01*
X113546651Y-140649826D01*
X113523259Y-141000661D01*
X111633000Y-141000661D01*
X111633000Y-139701651D01*
X114253256Y-139701651D01*
X115316000Y-140764395D01*
X116378744Y-139701651D01*
X116264882Y-139421910D01*
X115949704Y-139266039D01*
X115610174Y-139174651D01*
X115259339Y-139151259D01*
X114910681Y-139196760D01*
X114577600Y-139309406D01*
X114367118Y-139421910D01*
X114253256Y-139701651D01*
X111633000Y-139701651D01*
X111633000Y-135244000D01*
X113527928Y-135244000D01*
X113527928Y-137044000D01*
X113544992Y-137217254D01*
X113595528Y-137383850D01*
X113677595Y-137537386D01*
X113788038Y-137671962D01*
X113922614Y-137782405D01*
X114076150Y-137864472D01*
X114242746Y-137915008D01*
X114416000Y-137932072D01*
X116216000Y-137932072D01*
X116389254Y-137915008D01*
X116555850Y-137864472D01*
X116709386Y-137782405D01*
X116843962Y-137671962D01*
X116954405Y-137537386D01*
X117036472Y-137383850D01*
X117087008Y-137217254D01*
X117104072Y-137044000D01*
X117104072Y-135430729D01*
X119349822Y-133184980D01*
X122177028Y-133184980D01*
X121288998Y-134073011D01*
X121260000Y-134096809D01*
X121236202Y-134125807D01*
X121236201Y-134125808D01*
X121165026Y-134212534D01*
X121094454Y-134344564D01*
X121064180Y-134444368D01*
X121050998Y-134487824D01*
X121047416Y-134524193D01*
X121036324Y-134636810D01*
X121040001Y-134674142D01*
X121040000Y-136164580D01*
X120943377Y-136243877D01*
X120834488Y-136376558D01*
X120753577Y-136527933D01*
X120703752Y-136692184D01*
X120686928Y-136863000D01*
X120686928Y-137363000D01*
X120703752Y-137533816D01*
X120753577Y-137698067D01*
X120834488Y-137849442D01*
X120943377Y-137982123D01*
X120996232Y-138025500D01*
X120943377Y-138068877D01*
X120834488Y-138201558D01*
X120753577Y-138352933D01*
X120703752Y-138517184D01*
X120686928Y-138688000D01*
X120686928Y-139188000D01*
X120703752Y-139358816D01*
X120753577Y-139523067D01*
X120776119Y-139565240D01*
X120725820Y-139580498D01*
X120615506Y-139639463D01*
X120518815Y-139718815D01*
X120439463Y-139815506D01*
X120380498Y-139925820D01*
X120344188Y-140045518D01*
X120341769Y-140070080D01*
X120193414Y-139906481D01*
X119967420Y-139738963D01*
X119713087Y-139618754D01*
X119579039Y-139578096D01*
X119357000Y-139700085D01*
X119357000Y-140843000D01*
X119377000Y-140843000D01*
X119377000Y-141097000D01*
X119357000Y-141097000D01*
X119357000Y-142239915D01*
X119579039Y-142361904D01*
X119713087Y-142321246D01*
X119967420Y-142201037D01*
X120193414Y-142033519D01*
X120341769Y-141869920D01*
X120344188Y-141894482D01*
X120380498Y-142014180D01*
X120439463Y-142124494D01*
X120518815Y-142221185D01*
X120615506Y-142300537D01*
X120725820Y-142359502D01*
X120845518Y-142395812D01*
X120970000Y-142408072D01*
X122570000Y-142408072D01*
X122694482Y-142395812D01*
X122814180Y-142359502D01*
X122924494Y-142300537D01*
X123021185Y-142221185D01*
X123100537Y-142124494D01*
X123159502Y-142014180D01*
X123195812Y-141894482D01*
X123208072Y-141770000D01*
X123208072Y-141269040D01*
X125648091Y-141269040D01*
X125742930Y-141533881D01*
X125887615Y-141775131D01*
X126076586Y-141983519D01*
X126302580Y-142151037D01*
X126556913Y-142271246D01*
X126690961Y-142311904D01*
X126913000Y-142189915D01*
X126913000Y-141047000D01*
X125769376Y-141047000D01*
X125648091Y-141269040D01*
X123208072Y-141269040D01*
X123208072Y-140570960D01*
X125648091Y-140570960D01*
X125769376Y-140793000D01*
X126913000Y-140793000D01*
X126913000Y-139650085D01*
X126690961Y-139528096D01*
X126556913Y-139568754D01*
X126302580Y-139688963D01*
X126076586Y-139856481D01*
X125887615Y-140064869D01*
X125742930Y-140306119D01*
X125648091Y-140570960D01*
X123208072Y-140570960D01*
X123208072Y-140170000D01*
X123195812Y-140045518D01*
X123159502Y-139925820D01*
X123100537Y-139815506D01*
X123021185Y-139718815D01*
X122924494Y-139639463D01*
X122815382Y-139581141D01*
X122846423Y-139523067D01*
X122896248Y-139358816D01*
X122913072Y-139188000D01*
X122913072Y-138688000D01*
X122896248Y-138517184D01*
X122846423Y-138352933D01*
X122765512Y-138201558D01*
X122656623Y-138068877D01*
X122603768Y-138025500D01*
X122656623Y-137982123D01*
X122765512Y-137849442D01*
X122846423Y-137698067D01*
X122896248Y-137533816D01*
X122913072Y-137363000D01*
X122913072Y-136863000D01*
X122896248Y-136692184D01*
X122846423Y-136527933D01*
X122765512Y-136376558D01*
X122656623Y-136243877D01*
X122560000Y-136164580D01*
X122560000Y-134951611D01*
X122911928Y-134599683D01*
X122911928Y-135250000D01*
X122928992Y-135423254D01*
X122979528Y-135589850D01*
X123061595Y-135743386D01*
X123172038Y-135877962D01*
X123306614Y-135988405D01*
X123460150Y-136070472D01*
X123626746Y-136121008D01*
X123800000Y-136138072D01*
X125600000Y-136138072D01*
X125773254Y-136121008D01*
X125939850Y-136070472D01*
X126093386Y-135988405D01*
X126227962Y-135877962D01*
X126338405Y-135743386D01*
X126420472Y-135589850D01*
X126471008Y-135423254D01*
X126488072Y-135250000D01*
X126488072Y-135110000D01*
X126522199Y-135110000D01*
X128486928Y-137074730D01*
X128486928Y-137363000D01*
X128503752Y-137533816D01*
X128553577Y-137698067D01*
X128634488Y-137849442D01*
X128743377Y-137982123D01*
X128796232Y-138025500D01*
X128743377Y-138068877D01*
X128634488Y-138201558D01*
X128553577Y-138352933D01*
X128503752Y-138517184D01*
X128486928Y-138688000D01*
X128486928Y-139188000D01*
X128503752Y-139358816D01*
X128553577Y-139523067D01*
X128554517Y-139524826D01*
X128535820Y-139530498D01*
X128425506Y-139589463D01*
X128328815Y-139668815D01*
X128249463Y-139765506D01*
X128190498Y-139875820D01*
X128154188Y-139995518D01*
X128151769Y-140020080D01*
X128003414Y-139856481D01*
X127777420Y-139688963D01*
X127523087Y-139568754D01*
X127389039Y-139528096D01*
X127167000Y-139650085D01*
X127167000Y-140793000D01*
X127187000Y-140793000D01*
X127187000Y-141047000D01*
X127167000Y-141047000D01*
X127167000Y-142189915D01*
X127389039Y-142311904D01*
X127523087Y-142271246D01*
X127777420Y-142151037D01*
X128003414Y-141983519D01*
X128151769Y-141819920D01*
X128154188Y-141844482D01*
X128190498Y-141964180D01*
X128249463Y-142074494D01*
X128328815Y-142171185D01*
X128425506Y-142250537D01*
X128535820Y-142309502D01*
X128655518Y-142345812D01*
X128780000Y-142358072D01*
X130380000Y-142358072D01*
X130504482Y-142345812D01*
X130624180Y-142309502D01*
X130734494Y-142250537D01*
X130831185Y-142171185D01*
X130910537Y-142074494D01*
X130969502Y-141964180D01*
X131005812Y-141844482D01*
X131018072Y-141720000D01*
X131018072Y-141319040D01*
X133228091Y-141319040D01*
X133322930Y-141583881D01*
X133467615Y-141825131D01*
X133656586Y-142033519D01*
X133882580Y-142201037D01*
X134136913Y-142321246D01*
X134270961Y-142361904D01*
X134493000Y-142239915D01*
X134493000Y-141097000D01*
X133349376Y-141097000D01*
X133228091Y-141319040D01*
X131018072Y-141319040D01*
X131018072Y-140620960D01*
X133228091Y-140620960D01*
X133349376Y-140843000D01*
X134493000Y-140843000D01*
X134493000Y-139700085D01*
X134270961Y-139578096D01*
X134136913Y-139618754D01*
X133882580Y-139738963D01*
X133656586Y-139906481D01*
X133467615Y-140114869D01*
X133322930Y-140356119D01*
X133228091Y-140620960D01*
X131018072Y-140620960D01*
X131018072Y-140120000D01*
X131005812Y-139995518D01*
X130969502Y-139875820D01*
X130910537Y-139765506D01*
X130831185Y-139668815D01*
X130734494Y-139589463D01*
X130638391Y-139538094D01*
X130646423Y-139523067D01*
X130696248Y-139358816D01*
X130713072Y-139188000D01*
X130713072Y-138688000D01*
X130696248Y-138517184D01*
X130646423Y-138352933D01*
X130565512Y-138201558D01*
X130456623Y-138068877D01*
X130403768Y-138025500D01*
X130456623Y-137982123D01*
X130565512Y-137849442D01*
X130646423Y-137698067D01*
X130696248Y-137533816D01*
X130713072Y-137363000D01*
X130713072Y-136863000D01*
X130696248Y-136692184D01*
X130646423Y-136527933D01*
X130565512Y-136376558D01*
X130456623Y-136243877D01*
X130323942Y-136134988D01*
X130172567Y-136054077D01*
X130102060Y-136032689D01*
X130345515Y-135931847D01*
X130637871Y-135736500D01*
X130886500Y-135487871D01*
X131081847Y-135195515D01*
X131216404Y-134870665D01*
X131285000Y-134525807D01*
X131285000Y-134174193D01*
X131216404Y-133829335D01*
X131081847Y-133504485D01*
X130886500Y-133212129D01*
X130859351Y-133184980D01*
X132940649Y-133184980D01*
X132913500Y-133212129D01*
X132718153Y-133504485D01*
X132583596Y-133829335D01*
X132515000Y-134174193D01*
X132515000Y-134525807D01*
X132583596Y-134870665D01*
X132718153Y-135195515D01*
X132913500Y-135487871D01*
X133162129Y-135736500D01*
X133454485Y-135931847D01*
X133779335Y-136066404D01*
X134124193Y-136135000D01*
X134475807Y-136135000D01*
X134820665Y-136066404D01*
X134906181Y-136030982D01*
X136086928Y-137211730D01*
X136086928Y-137321000D01*
X136103752Y-137491816D01*
X136153577Y-137656067D01*
X136234488Y-137807442D01*
X136343377Y-137940123D01*
X136396232Y-137983500D01*
X136343377Y-138026877D01*
X136234488Y-138159558D01*
X136153577Y-138310933D01*
X136103752Y-138475184D01*
X136086928Y-138646000D01*
X136086928Y-139146000D01*
X136103752Y-139316816D01*
X136153577Y-139481067D01*
X136194041Y-139556770D01*
X136115820Y-139580498D01*
X136005506Y-139639463D01*
X135908815Y-139718815D01*
X135829463Y-139815506D01*
X135770498Y-139925820D01*
X135734188Y-140045518D01*
X135731769Y-140070080D01*
X135583414Y-139906481D01*
X135357420Y-139738963D01*
X135103087Y-139618754D01*
X134969039Y-139578096D01*
X134747000Y-139700085D01*
X134747000Y-140843000D01*
X134767000Y-140843000D01*
X134767000Y-141097000D01*
X134747000Y-141097000D01*
X134747000Y-142239915D01*
X134969039Y-142361904D01*
X135103087Y-142321246D01*
X135357420Y-142201037D01*
X135583414Y-142033519D01*
X135731769Y-141869920D01*
X135734188Y-141894482D01*
X135770498Y-142014180D01*
X135829463Y-142124494D01*
X135908815Y-142221185D01*
X136005506Y-142300537D01*
X136115820Y-142359502D01*
X136235518Y-142395812D01*
X136360000Y-142408072D01*
X137960000Y-142408072D01*
X138084482Y-142395812D01*
X138204180Y-142359502D01*
X138314494Y-142300537D01*
X138411185Y-142221185D01*
X138490537Y-142124494D01*
X138549502Y-142014180D01*
X138585812Y-141894482D01*
X138598072Y-141770000D01*
X138598072Y-140170000D01*
X138585812Y-140045518D01*
X138549502Y-139925820D01*
X138490537Y-139815506D01*
X138411185Y-139718815D01*
X138314494Y-139639463D01*
X138204180Y-139580498D01*
X138194798Y-139577652D01*
X138246423Y-139481067D01*
X138296248Y-139316816D01*
X138313072Y-139146000D01*
X138313072Y-138646000D01*
X138296248Y-138475184D01*
X138246423Y-138310933D01*
X138165512Y-138159558D01*
X138056623Y-138026877D01*
X138003768Y-137983500D01*
X138056623Y-137940123D01*
X138165512Y-137807442D01*
X138246423Y-137656067D01*
X138296248Y-137491816D01*
X138313072Y-137321000D01*
X138313072Y-136821000D01*
X138296248Y-136650184D01*
X138246423Y-136485933D01*
X138187048Y-136374850D01*
X140699428Y-138887230D01*
X140699428Y-139175500D01*
X140716252Y-139346316D01*
X140766077Y-139510567D01*
X140846988Y-139661942D01*
X140955877Y-139794623D01*
X141088558Y-139903512D01*
X141239933Y-139984423D01*
X141404184Y-140034248D01*
X141575000Y-140051072D01*
X142075000Y-140051072D01*
X142245816Y-140034248D01*
X142410067Y-139984423D01*
X142533066Y-139918679D01*
X142378320Y-140150273D01*
X142270147Y-140411426D01*
X142215000Y-140688665D01*
X142215000Y-140971335D01*
X142270147Y-141248574D01*
X142378320Y-141509727D01*
X142535363Y-141744759D01*
X142735241Y-141944637D01*
X142970273Y-142101680D01*
X143231426Y-142209853D01*
X143508665Y-142265000D01*
X143791335Y-142265000D01*
X144068574Y-142209853D01*
X144329727Y-142101680D01*
X144564759Y-141944637D01*
X144764637Y-141744759D01*
X144921680Y-141509727D01*
X144926067Y-141499135D01*
X145037615Y-141685131D01*
X145226586Y-141893519D01*
X145452580Y-142061037D01*
X145706913Y-142181246D01*
X145840961Y-142221904D01*
X146063000Y-142099915D01*
X146063000Y-140957000D01*
X146317000Y-140957000D01*
X146317000Y-142099915D01*
X146539039Y-142221904D01*
X146673087Y-142181246D01*
X146927420Y-142061037D01*
X147153414Y-141893519D01*
X147342385Y-141685131D01*
X147487070Y-141443881D01*
X147581909Y-141179040D01*
X147460624Y-140957000D01*
X146317000Y-140957000D01*
X146063000Y-140957000D01*
X146043000Y-140957000D01*
X146043000Y-140703000D01*
X146063000Y-140703000D01*
X146063000Y-139560085D01*
X146317000Y-139560085D01*
X146317000Y-140703000D01*
X147460624Y-140703000D01*
X147581909Y-140480960D01*
X147487070Y-140216119D01*
X147342385Y-139974869D01*
X147153414Y-139766481D01*
X146927420Y-139598963D01*
X146673087Y-139478754D01*
X146539039Y-139438096D01*
X146317000Y-139560085D01*
X146063000Y-139560085D01*
X145840961Y-139438096D01*
X145706913Y-139478754D01*
X145452580Y-139598963D01*
X145226586Y-139766481D01*
X145037615Y-139974869D01*
X144926067Y-140160865D01*
X144921680Y-140150273D01*
X144764637Y-139915241D01*
X144575421Y-139726025D01*
X144628012Y-139661942D01*
X144708923Y-139510567D01*
X144758748Y-139346316D01*
X144775572Y-139175500D01*
X144775572Y-138700500D01*
X144758748Y-138529684D01*
X144708923Y-138365433D01*
X144628012Y-138214058D01*
X144519123Y-138081377D01*
X144410000Y-137991822D01*
X144410000Y-136488072D01*
X146000000Y-136488072D01*
X146173254Y-136471008D01*
X146339850Y-136420472D01*
X146493386Y-136338405D01*
X146627962Y-136227962D01*
X146738405Y-136093386D01*
X146814000Y-135951958D01*
X146814000Y-136614677D01*
X146810324Y-136652000D01*
X146814000Y-136689322D01*
X146814000Y-136689332D01*
X146824997Y-136800985D01*
X146841548Y-136855546D01*
X146868454Y-136944246D01*
X146939026Y-137076276D01*
X146959329Y-137101015D01*
X147033999Y-137192001D01*
X147063003Y-137215804D01*
X149296201Y-139449003D01*
X149319999Y-139478001D01*
X149435724Y-139572974D01*
X149454918Y-139583233D01*
X149496988Y-139661942D01*
X149605877Y-139794623D01*
X149738558Y-139903512D01*
X149889933Y-139984423D01*
X150054184Y-140034248D01*
X150225000Y-140051072D01*
X150725000Y-140051072D01*
X150895816Y-140034248D01*
X151060067Y-139984423D01*
X151211442Y-139903512D01*
X151344123Y-139794623D01*
X151387500Y-139741768D01*
X151397117Y-139753487D01*
X151235363Y-139915241D01*
X151078320Y-140150273D01*
X150970147Y-140411426D01*
X150915000Y-140688665D01*
X150915000Y-140971335D01*
X150970147Y-141248574D01*
X151078320Y-141509727D01*
X151235363Y-141744759D01*
X151435241Y-141944637D01*
X151670273Y-142101680D01*
X151931426Y-142209853D01*
X152208665Y-142265000D01*
X152491335Y-142265000D01*
X152768574Y-142209853D01*
X153029727Y-142101680D01*
X153264759Y-141944637D01*
X153464637Y-141744759D01*
X153621680Y-141509727D01*
X153626067Y-141499135D01*
X153737615Y-141685131D01*
X153926586Y-141893519D01*
X154152580Y-142061037D01*
X154406913Y-142181246D01*
X154540961Y-142221904D01*
X154763000Y-142099915D01*
X154763000Y-140957000D01*
X155017000Y-140957000D01*
X155017000Y-142099915D01*
X155239039Y-142221904D01*
X155373087Y-142181246D01*
X155627420Y-142061037D01*
X155853414Y-141893519D01*
X156042385Y-141685131D01*
X156187070Y-141443881D01*
X156281909Y-141179040D01*
X156160624Y-140957000D01*
X155017000Y-140957000D01*
X154763000Y-140957000D01*
X154743000Y-140957000D01*
X154743000Y-140703000D01*
X154763000Y-140703000D01*
X154763000Y-139560085D01*
X155017000Y-139560085D01*
X155017000Y-140703000D01*
X156160624Y-140703000D01*
X156281909Y-140480960D01*
X156187070Y-140216119D01*
X156042385Y-139974869D01*
X155853414Y-139766481D01*
X155627420Y-139598963D01*
X155373087Y-139478754D01*
X155239039Y-139438096D01*
X155017000Y-139560085D01*
X154763000Y-139560085D01*
X154540961Y-139438096D01*
X154406913Y-139478754D01*
X154152580Y-139598963D01*
X153926586Y-139766481D01*
X153737615Y-139974869D01*
X153626067Y-140160865D01*
X153621680Y-140150273D01*
X153464637Y-139915241D01*
X153264759Y-139715363D01*
X153245003Y-139702163D01*
X153278012Y-139661942D01*
X153358923Y-139510567D01*
X153408748Y-139346316D01*
X153425572Y-139175500D01*
X153425572Y-138700500D01*
X153408748Y-138529684D01*
X153358923Y-138365433D01*
X153278012Y-138214058D01*
X153169123Y-138081377D01*
X153060000Y-137991822D01*
X153060000Y-137137333D01*
X153063677Y-137100000D01*
X153049003Y-136951014D01*
X153005546Y-136807753D01*
X152934974Y-136675724D01*
X152911174Y-136646724D01*
X152840001Y-136559999D01*
X152811003Y-136536201D01*
X151580982Y-135306181D01*
X151616404Y-135220665D01*
X151685000Y-134875807D01*
X151685000Y-134524193D01*
X151616404Y-134179335D01*
X151481847Y-133854485D01*
X151286500Y-133562129D01*
X151037871Y-133313500D01*
X150745515Y-133118153D01*
X150420665Y-132983596D01*
X150075807Y-132915000D01*
X149724193Y-132915000D01*
X149379335Y-132983596D01*
X149054485Y-133118153D01*
X148762129Y-133313500D01*
X148513500Y-133562129D01*
X148318153Y-133854485D01*
X148203890Y-134130340D01*
X148114001Y-134020809D01*
X148085003Y-133997011D01*
X146801984Y-132713993D01*
X146778181Y-132684989D01*
X146662456Y-132590016D01*
X146530427Y-132519444D01*
X146387166Y-132475987D01*
X146275513Y-132464990D01*
X146275502Y-132464990D01*
X146238180Y-132461314D01*
X146200858Y-132464990D01*
X143999143Y-132464990D01*
X143961820Y-132461314D01*
X143924497Y-132464990D01*
X143924487Y-132464990D01*
X143812834Y-132475987D01*
X143669573Y-132519444D01*
X143537544Y-132590016D01*
X143421819Y-132684989D01*
X143398021Y-132713987D01*
X141314003Y-134798006D01*
X141284999Y-134821809D01*
X141229871Y-134888984D01*
X141190026Y-134937534D01*
X141164669Y-134984974D01*
X141119454Y-135069564D01*
X141075997Y-135212825D01*
X141065000Y-135324478D01*
X141065000Y-135324486D01*
X141061324Y-135361810D01*
X141065000Y-135399133D01*
X141065000Y-137103199D01*
X135875784Y-131913983D01*
X135851981Y-131884979D01*
X135736256Y-131790006D01*
X135604227Y-131719434D01*
X135460966Y-131675977D01*
X135349313Y-131664980D01*
X135349302Y-131664980D01*
X135311980Y-131661304D01*
X135274658Y-131664980D01*
X119072353Y-131664980D01*
X119035020Y-131661303D01*
X118997687Y-131664980D01*
X118886034Y-131675977D01*
X118742773Y-131719434D01*
X118610744Y-131790006D01*
X118495019Y-131884979D01*
X118471221Y-131913977D01*
X116029271Y-134355928D01*
X114416000Y-134355928D01*
X114242746Y-134372992D01*
X114076150Y-134423528D01*
X113922614Y-134505595D01*
X113788038Y-134616038D01*
X113677595Y-134750614D01*
X113595528Y-134904150D01*
X113544992Y-135070746D01*
X113527928Y-135244000D01*
X111633000Y-135244000D01*
X111633000Y-134004283D01*
X111914729Y-133816038D01*
X112226038Y-133504729D01*
X112470631Y-133138669D01*
X112639110Y-132731925D01*
X112725000Y-132300128D01*
X112725000Y-131859872D01*
X112639110Y-131428075D01*
X112470631Y-131021331D01*
X112226038Y-130655271D01*
X111999767Y-130429000D01*
X158877000Y-130429000D01*
X158877000Y-143129000D01*
%TA.AperFunction,Conductor*%
D15*
G36*
X158877000Y-143129000D02*
G01*
X111633000Y-143129000D01*
X111633000Y-142186349D01*
X114253256Y-142186349D01*
X114367118Y-142466090D01*
X114682296Y-142621961D01*
X115021826Y-142713349D01*
X115372661Y-142736741D01*
X115721319Y-142691240D01*
X116054400Y-142578594D01*
X116264882Y-142466090D01*
X116378744Y-142186349D01*
X115316000Y-141123605D01*
X114253256Y-142186349D01*
X111633000Y-142186349D01*
X111633000Y-141000661D01*
X113523259Y-141000661D01*
X113568760Y-141349319D01*
X113681406Y-141682400D01*
X113793910Y-141892882D01*
X114073651Y-142006744D01*
X115136395Y-140944000D01*
X115495605Y-140944000D01*
X116558349Y-142006744D01*
X116838090Y-141892882D01*
X116993961Y-141577704D01*
X117063583Y-141319040D01*
X117838091Y-141319040D01*
X117932930Y-141583881D01*
X118077615Y-141825131D01*
X118266586Y-142033519D01*
X118492580Y-142201037D01*
X118746913Y-142321246D01*
X118880961Y-142361904D01*
X119103000Y-142239915D01*
X119103000Y-141097000D01*
X117959376Y-141097000D01*
X117838091Y-141319040D01*
X117063583Y-141319040D01*
X117085349Y-141238174D01*
X117108741Y-140887339D01*
X117073978Y-140620960D01*
X117838091Y-140620960D01*
X117959376Y-140843000D01*
X119103000Y-140843000D01*
X119103000Y-139700085D01*
X118880961Y-139578096D01*
X118746913Y-139618754D01*
X118492580Y-139738963D01*
X118266586Y-139906481D01*
X118077615Y-140114869D01*
X117932930Y-140356119D01*
X117838091Y-140620960D01*
X117073978Y-140620960D01*
X117063240Y-140538681D01*
X116950594Y-140205600D01*
X116838090Y-139995118D01*
X116558349Y-139881256D01*
X115495605Y-140944000D01*
X115136395Y-140944000D01*
X114073651Y-139881256D01*
X113793910Y-139995118D01*
X113638039Y-140310296D01*
X113546651Y-140649826D01*
X113523259Y-141000661D01*
X111633000Y-141000661D01*
X111633000Y-139701651D01*
X114253256Y-139701651D01*
X115316000Y-140764395D01*
X116378744Y-139701651D01*
X116264882Y-139421910D01*
X115949704Y-139266039D01*
X115610174Y-139174651D01*
X115259339Y-139151259D01*
X114910681Y-139196760D01*
X114577600Y-139309406D01*
X114367118Y-139421910D01*
X114253256Y-139701651D01*
X111633000Y-139701651D01*
X111633000Y-135244000D01*
X113527928Y-135244000D01*
X113527928Y-137044000D01*
X113544992Y-137217254D01*
X113595528Y-137383850D01*
X113677595Y-137537386D01*
X113788038Y-137671962D01*
X113922614Y-137782405D01*
X114076150Y-137864472D01*
X114242746Y-137915008D01*
X114416000Y-137932072D01*
X116216000Y-137932072D01*
X116389254Y-137915008D01*
X116555850Y-137864472D01*
X116709386Y-137782405D01*
X116843962Y-137671962D01*
X116954405Y-137537386D01*
X117036472Y-137383850D01*
X117087008Y-137217254D01*
X117104072Y-137044000D01*
X117104072Y-135430729D01*
X119349822Y-133184980D01*
X122177028Y-133184980D01*
X121288998Y-134073011D01*
X121260000Y-134096809D01*
X121236202Y-134125807D01*
X121236201Y-134125808D01*
X121165026Y-134212534D01*
X121094454Y-134344564D01*
X121064180Y-134444368D01*
X121050998Y-134487824D01*
X121047416Y-134524193D01*
X121036324Y-134636810D01*
X121040001Y-134674142D01*
X121040000Y-136164580D01*
X120943377Y-136243877D01*
X120834488Y-136376558D01*
X120753577Y-136527933D01*
X120703752Y-136692184D01*
X120686928Y-136863000D01*
X120686928Y-137363000D01*
X120703752Y-137533816D01*
X120753577Y-137698067D01*
X120834488Y-137849442D01*
X120943377Y-137982123D01*
X120996232Y-138025500D01*
X120943377Y-138068877D01*
X120834488Y-138201558D01*
X120753577Y-138352933D01*
X120703752Y-138517184D01*
X120686928Y-138688000D01*
X120686928Y-139188000D01*
X120703752Y-139358816D01*
X120753577Y-139523067D01*
X120776119Y-139565240D01*
X120725820Y-139580498D01*
X120615506Y-139639463D01*
X120518815Y-139718815D01*
X120439463Y-139815506D01*
X120380498Y-139925820D01*
X120344188Y-140045518D01*
X120341769Y-140070080D01*
X120193414Y-139906481D01*
X119967420Y-139738963D01*
X119713087Y-139618754D01*
X119579039Y-139578096D01*
X119357000Y-139700085D01*
X119357000Y-140843000D01*
X119377000Y-140843000D01*
X119377000Y-141097000D01*
X119357000Y-141097000D01*
X119357000Y-142239915D01*
X119579039Y-142361904D01*
X119713087Y-142321246D01*
X119967420Y-142201037D01*
X120193414Y-142033519D01*
X120341769Y-141869920D01*
X120344188Y-141894482D01*
X120380498Y-142014180D01*
X120439463Y-142124494D01*
X120518815Y-142221185D01*
X120615506Y-142300537D01*
X120725820Y-142359502D01*
X120845518Y-142395812D01*
X120970000Y-142408072D01*
X122570000Y-142408072D01*
X122694482Y-142395812D01*
X122814180Y-142359502D01*
X122924494Y-142300537D01*
X123021185Y-142221185D01*
X123100537Y-142124494D01*
X123159502Y-142014180D01*
X123195812Y-141894482D01*
X123208072Y-141770000D01*
X123208072Y-141269040D01*
X125648091Y-141269040D01*
X125742930Y-141533881D01*
X125887615Y-141775131D01*
X126076586Y-141983519D01*
X126302580Y-142151037D01*
X126556913Y-142271246D01*
X126690961Y-142311904D01*
X126913000Y-142189915D01*
X126913000Y-141047000D01*
X125769376Y-141047000D01*
X125648091Y-141269040D01*
X123208072Y-141269040D01*
X123208072Y-140570960D01*
X125648091Y-140570960D01*
X125769376Y-140793000D01*
X126913000Y-140793000D01*
X126913000Y-139650085D01*
X126690961Y-139528096D01*
X126556913Y-139568754D01*
X126302580Y-139688963D01*
X126076586Y-139856481D01*
X125887615Y-140064869D01*
X125742930Y-140306119D01*
X125648091Y-140570960D01*
X123208072Y-140570960D01*
X123208072Y-140170000D01*
X123195812Y-140045518D01*
X123159502Y-139925820D01*
X123100537Y-139815506D01*
X123021185Y-139718815D01*
X122924494Y-139639463D01*
X122815382Y-139581141D01*
X122846423Y-139523067D01*
X122896248Y-139358816D01*
X122913072Y-139188000D01*
X122913072Y-138688000D01*
X122896248Y-138517184D01*
X122846423Y-138352933D01*
X122765512Y-138201558D01*
X122656623Y-138068877D01*
X122603768Y-138025500D01*
X122656623Y-137982123D01*
X122765512Y-137849442D01*
X122846423Y-137698067D01*
X122896248Y-137533816D01*
X122913072Y-137363000D01*
X122913072Y-136863000D01*
X122896248Y-136692184D01*
X122846423Y-136527933D01*
X122765512Y-136376558D01*
X122656623Y-136243877D01*
X122560000Y-136164580D01*
X122560000Y-134951611D01*
X122911928Y-134599683D01*
X122911928Y-135250000D01*
X122928992Y-135423254D01*
X122979528Y-135589850D01*
X123061595Y-135743386D01*
X123172038Y-135877962D01*
X123306614Y-135988405D01*
X123460150Y-136070472D01*
X123626746Y-136121008D01*
X123800000Y-136138072D01*
X125600000Y-136138072D01*
X125773254Y-136121008D01*
X125939850Y-136070472D01*
X126093386Y-135988405D01*
X126227962Y-135877962D01*
X126338405Y-135743386D01*
X126420472Y-135589850D01*
X126471008Y-135423254D01*
X126488072Y-135250000D01*
X126488072Y-135110000D01*
X126522199Y-135110000D01*
X128486928Y-137074730D01*
X128486928Y-137363000D01*
X128503752Y-137533816D01*
X128553577Y-137698067D01*
X128634488Y-137849442D01*
X128743377Y-137982123D01*
X128796232Y-138025500D01*
X128743377Y-138068877D01*
X128634488Y-138201558D01*
X128553577Y-138352933D01*
X128503752Y-138517184D01*
X128486928Y-138688000D01*
X128486928Y-139188000D01*
X128503752Y-139358816D01*
X128553577Y-139523067D01*
X128554517Y-139524826D01*
X128535820Y-139530498D01*
X128425506Y-139589463D01*
X128328815Y-139668815D01*
X128249463Y-139765506D01*
X128190498Y-139875820D01*
X128154188Y-139995518D01*
X128151769Y-140020080D01*
X128003414Y-139856481D01*
X127777420Y-139688963D01*
X127523087Y-139568754D01*
X127389039Y-139528096D01*
X127167000Y-139650085D01*
X127167000Y-140793000D01*
X127187000Y-140793000D01*
X127187000Y-141047000D01*
X127167000Y-141047000D01*
X127167000Y-142189915D01*
X127389039Y-142311904D01*
X127523087Y-142271246D01*
X127777420Y-142151037D01*
X128003414Y-141983519D01*
X128151769Y-141819920D01*
X128154188Y-141844482D01*
X128190498Y-141964180D01*
X128249463Y-142074494D01*
X128328815Y-142171185D01*
X128425506Y-142250537D01*
X128535820Y-142309502D01*
X128655518Y-142345812D01*
X128780000Y-142358072D01*
X130380000Y-142358072D01*
X130504482Y-142345812D01*
X130624180Y-142309502D01*
X130734494Y-142250537D01*
X130831185Y-142171185D01*
X130910537Y-142074494D01*
X130969502Y-141964180D01*
X131005812Y-141844482D01*
X131018072Y-141720000D01*
X131018072Y-141319040D01*
X133228091Y-141319040D01*
X133322930Y-141583881D01*
X133467615Y-141825131D01*
X133656586Y-142033519D01*
X133882580Y-142201037D01*
X134136913Y-142321246D01*
X134270961Y-142361904D01*
X134493000Y-142239915D01*
X134493000Y-141097000D01*
X133349376Y-141097000D01*
X133228091Y-141319040D01*
X131018072Y-141319040D01*
X131018072Y-140620960D01*
X133228091Y-140620960D01*
X133349376Y-140843000D01*
X134493000Y-140843000D01*
X134493000Y-139700085D01*
X134270961Y-139578096D01*
X134136913Y-139618754D01*
X133882580Y-139738963D01*
X133656586Y-139906481D01*
X133467615Y-140114869D01*
X133322930Y-140356119D01*
X133228091Y-140620960D01*
X131018072Y-140620960D01*
X131018072Y-140120000D01*
X131005812Y-139995518D01*
X130969502Y-139875820D01*
X130910537Y-139765506D01*
X130831185Y-139668815D01*
X130734494Y-139589463D01*
X130638391Y-139538094D01*
X130646423Y-139523067D01*
X130696248Y-139358816D01*
X130713072Y-139188000D01*
X130713072Y-138688000D01*
X130696248Y-138517184D01*
X130646423Y-138352933D01*
X130565512Y-138201558D01*
X130456623Y-138068877D01*
X130403768Y-138025500D01*
X130456623Y-137982123D01*
X130565512Y-137849442D01*
X130646423Y-137698067D01*
X130696248Y-137533816D01*
X130713072Y-137363000D01*
X130713072Y-136863000D01*
X130696248Y-136692184D01*
X130646423Y-136527933D01*
X130565512Y-136376558D01*
X130456623Y-136243877D01*
X130323942Y-136134988D01*
X130172567Y-136054077D01*
X130102060Y-136032689D01*
X130345515Y-135931847D01*
X130637871Y-135736500D01*
X130886500Y-135487871D01*
X131081847Y-135195515D01*
X131216404Y-134870665D01*
X131285000Y-134525807D01*
X131285000Y-134174193D01*
X131216404Y-133829335D01*
X131081847Y-133504485D01*
X130886500Y-133212129D01*
X130859351Y-133184980D01*
X132940649Y-133184980D01*
X132913500Y-133212129D01*
X132718153Y-133504485D01*
X132583596Y-133829335D01*
X132515000Y-134174193D01*
X132515000Y-134525807D01*
X132583596Y-134870665D01*
X132718153Y-135195515D01*
X132913500Y-135487871D01*
X133162129Y-135736500D01*
X133454485Y-135931847D01*
X133779335Y-136066404D01*
X134124193Y-136135000D01*
X134475807Y-136135000D01*
X134820665Y-136066404D01*
X134906181Y-136030982D01*
X136086928Y-137211730D01*
X136086928Y-137321000D01*
X136103752Y-137491816D01*
X136153577Y-137656067D01*
X136234488Y-137807442D01*
X136343377Y-137940123D01*
X136396232Y-137983500D01*
X136343377Y-138026877D01*
X136234488Y-138159558D01*
X136153577Y-138310933D01*
X136103752Y-138475184D01*
X136086928Y-138646000D01*
X136086928Y-139146000D01*
X136103752Y-139316816D01*
X136153577Y-139481067D01*
X136194041Y-139556770D01*
X136115820Y-139580498D01*
X136005506Y-139639463D01*
X135908815Y-139718815D01*
X135829463Y-139815506D01*
X135770498Y-139925820D01*
X135734188Y-140045518D01*
X135731769Y-140070080D01*
X135583414Y-139906481D01*
X135357420Y-139738963D01*
X135103087Y-139618754D01*
X134969039Y-139578096D01*
X134747000Y-139700085D01*
X134747000Y-140843000D01*
X134767000Y-140843000D01*
X134767000Y-141097000D01*
X134747000Y-141097000D01*
X134747000Y-142239915D01*
X134969039Y-142361904D01*
X135103087Y-142321246D01*
X135357420Y-142201037D01*
X135583414Y-142033519D01*
X135731769Y-141869920D01*
X135734188Y-141894482D01*
X135770498Y-142014180D01*
X135829463Y-142124494D01*
X135908815Y-142221185D01*
X136005506Y-142300537D01*
X136115820Y-142359502D01*
X136235518Y-142395812D01*
X136360000Y-142408072D01*
X137960000Y-142408072D01*
X138084482Y-142395812D01*
X138204180Y-142359502D01*
X138314494Y-142300537D01*
X138411185Y-142221185D01*
X138490537Y-142124494D01*
X138549502Y-142014180D01*
X138585812Y-141894482D01*
X138598072Y-141770000D01*
X138598072Y-140170000D01*
X138585812Y-140045518D01*
X138549502Y-139925820D01*
X138490537Y-139815506D01*
X138411185Y-139718815D01*
X138314494Y-139639463D01*
X138204180Y-139580498D01*
X138194798Y-139577652D01*
X138246423Y-139481067D01*
X138296248Y-139316816D01*
X138313072Y-139146000D01*
X138313072Y-138646000D01*
X138296248Y-138475184D01*
X138246423Y-138310933D01*
X138165512Y-138159558D01*
X138056623Y-138026877D01*
X138003768Y-137983500D01*
X138056623Y-137940123D01*
X138165512Y-137807442D01*
X138246423Y-137656067D01*
X138296248Y-137491816D01*
X138313072Y-137321000D01*
X138313072Y-136821000D01*
X138296248Y-136650184D01*
X138246423Y-136485933D01*
X138187048Y-136374850D01*
X140699428Y-138887230D01*
X140699428Y-139175500D01*
X140716252Y-139346316D01*
X140766077Y-139510567D01*
X140846988Y-139661942D01*
X140955877Y-139794623D01*
X141088558Y-139903512D01*
X141239933Y-139984423D01*
X141404184Y-140034248D01*
X141575000Y-140051072D01*
X142075000Y-140051072D01*
X142245816Y-140034248D01*
X142410067Y-139984423D01*
X142533066Y-139918679D01*
X142378320Y-140150273D01*
X142270147Y-140411426D01*
X142215000Y-140688665D01*
X142215000Y-140971335D01*
X142270147Y-141248574D01*
X142378320Y-141509727D01*
X142535363Y-141744759D01*
X142735241Y-141944637D01*
X142970273Y-142101680D01*
X143231426Y-142209853D01*
X143508665Y-142265000D01*
X143791335Y-142265000D01*
X144068574Y-142209853D01*
X144329727Y-142101680D01*
X144564759Y-141944637D01*
X144764637Y-141744759D01*
X144921680Y-141509727D01*
X144926067Y-141499135D01*
X145037615Y-141685131D01*
X145226586Y-141893519D01*
X145452580Y-142061037D01*
X145706913Y-142181246D01*
X145840961Y-142221904D01*
X146063000Y-142099915D01*
X146063000Y-140957000D01*
X146317000Y-140957000D01*
X146317000Y-142099915D01*
X146539039Y-142221904D01*
X146673087Y-142181246D01*
X146927420Y-142061037D01*
X147153414Y-141893519D01*
X147342385Y-141685131D01*
X147487070Y-141443881D01*
X147581909Y-141179040D01*
X147460624Y-140957000D01*
X146317000Y-140957000D01*
X146063000Y-140957000D01*
X146043000Y-140957000D01*
X146043000Y-140703000D01*
X146063000Y-140703000D01*
X146063000Y-139560085D01*
X146317000Y-139560085D01*
X146317000Y-140703000D01*
X147460624Y-140703000D01*
X147581909Y-140480960D01*
X147487070Y-140216119D01*
X147342385Y-139974869D01*
X147153414Y-139766481D01*
X146927420Y-139598963D01*
X146673087Y-139478754D01*
X146539039Y-139438096D01*
X146317000Y-139560085D01*
X146063000Y-139560085D01*
X145840961Y-139438096D01*
X145706913Y-139478754D01*
X145452580Y-139598963D01*
X145226586Y-139766481D01*
X145037615Y-139974869D01*
X144926067Y-140160865D01*
X144921680Y-140150273D01*
X144764637Y-139915241D01*
X144575421Y-139726025D01*
X144628012Y-139661942D01*
X144708923Y-139510567D01*
X144758748Y-139346316D01*
X144775572Y-139175500D01*
X144775572Y-138700500D01*
X144758748Y-138529684D01*
X144708923Y-138365433D01*
X144628012Y-138214058D01*
X144519123Y-138081377D01*
X144410000Y-137991822D01*
X144410000Y-136488072D01*
X146000000Y-136488072D01*
X146173254Y-136471008D01*
X146339850Y-136420472D01*
X146493386Y-136338405D01*
X146627962Y-136227962D01*
X146738405Y-136093386D01*
X146814000Y-135951958D01*
X146814000Y-136614677D01*
X146810324Y-136652000D01*
X146814000Y-136689322D01*
X146814000Y-136689332D01*
X146824997Y-136800985D01*
X146841548Y-136855546D01*
X146868454Y-136944246D01*
X146939026Y-137076276D01*
X146959329Y-137101015D01*
X147033999Y-137192001D01*
X147063003Y-137215804D01*
X149296201Y-139449003D01*
X149319999Y-139478001D01*
X149435724Y-139572974D01*
X149454918Y-139583233D01*
X149496988Y-139661942D01*
X149605877Y-139794623D01*
X149738558Y-139903512D01*
X149889933Y-139984423D01*
X150054184Y-140034248D01*
X150225000Y-140051072D01*
X150725000Y-140051072D01*
X150895816Y-140034248D01*
X151060067Y-139984423D01*
X151211442Y-139903512D01*
X151344123Y-139794623D01*
X151387500Y-139741768D01*
X151397117Y-139753487D01*
X151235363Y-139915241D01*
X151078320Y-140150273D01*
X150970147Y-140411426D01*
X150915000Y-140688665D01*
X150915000Y-140971335D01*
X150970147Y-141248574D01*
X151078320Y-141509727D01*
X151235363Y-141744759D01*
X151435241Y-141944637D01*
X151670273Y-142101680D01*
X151931426Y-142209853D01*
X152208665Y-142265000D01*
X152491335Y-142265000D01*
X152768574Y-142209853D01*
X153029727Y-142101680D01*
X153264759Y-141944637D01*
X153464637Y-141744759D01*
X153621680Y-141509727D01*
X153626067Y-141499135D01*
X153737615Y-141685131D01*
X153926586Y-141893519D01*
X154152580Y-142061037D01*
X154406913Y-142181246D01*
X154540961Y-142221904D01*
X154763000Y-142099915D01*
X154763000Y-140957000D01*
X155017000Y-140957000D01*
X155017000Y-142099915D01*
X155239039Y-142221904D01*
X155373087Y-142181246D01*
X155627420Y-142061037D01*
X155853414Y-141893519D01*
X156042385Y-141685131D01*
X156187070Y-141443881D01*
X156281909Y-141179040D01*
X156160624Y-140957000D01*
X155017000Y-140957000D01*
X154763000Y-140957000D01*
X154743000Y-140957000D01*
X154743000Y-140703000D01*
X154763000Y-140703000D01*
X154763000Y-139560085D01*
X155017000Y-139560085D01*
X155017000Y-140703000D01*
X156160624Y-140703000D01*
X156281909Y-140480960D01*
X156187070Y-140216119D01*
X156042385Y-139974869D01*
X155853414Y-139766481D01*
X155627420Y-139598963D01*
X155373087Y-139478754D01*
X155239039Y-139438096D01*
X155017000Y-139560085D01*
X154763000Y-139560085D01*
X154540961Y-139438096D01*
X154406913Y-139478754D01*
X154152580Y-139598963D01*
X153926586Y-139766481D01*
X153737615Y-139974869D01*
X153626067Y-140160865D01*
X153621680Y-140150273D01*
X153464637Y-139915241D01*
X153264759Y-139715363D01*
X153245003Y-139702163D01*
X153278012Y-139661942D01*
X153358923Y-139510567D01*
X153408748Y-139346316D01*
X153425572Y-139175500D01*
X153425572Y-138700500D01*
X153408748Y-138529684D01*
X153358923Y-138365433D01*
X153278012Y-138214058D01*
X153169123Y-138081377D01*
X153060000Y-137991822D01*
X153060000Y-137137333D01*
X153063677Y-137100000D01*
X153049003Y-136951014D01*
X153005546Y-136807753D01*
X152934974Y-136675724D01*
X152911174Y-136646724D01*
X152840001Y-136559999D01*
X152811003Y-136536201D01*
X151580982Y-135306181D01*
X151616404Y-135220665D01*
X151685000Y-134875807D01*
X151685000Y-134524193D01*
X151616404Y-134179335D01*
X151481847Y-133854485D01*
X151286500Y-133562129D01*
X151037871Y-133313500D01*
X150745515Y-133118153D01*
X150420665Y-132983596D01*
X150075807Y-132915000D01*
X149724193Y-132915000D01*
X149379335Y-132983596D01*
X149054485Y-133118153D01*
X148762129Y-133313500D01*
X148513500Y-133562129D01*
X148318153Y-133854485D01*
X148203890Y-134130340D01*
X148114001Y-134020809D01*
X148085003Y-133997011D01*
X146801984Y-132713993D01*
X146778181Y-132684989D01*
X146662456Y-132590016D01*
X146530427Y-132519444D01*
X146387166Y-132475987D01*
X146275513Y-132464990D01*
X146275502Y-132464990D01*
X146238180Y-132461314D01*
X146200858Y-132464990D01*
X143999143Y-132464990D01*
X143961820Y-132461314D01*
X143924497Y-132464990D01*
X143924487Y-132464990D01*
X143812834Y-132475987D01*
X143669573Y-132519444D01*
X143537544Y-132590016D01*
X143421819Y-132684989D01*
X143398021Y-132713987D01*
X141314003Y-134798006D01*
X141284999Y-134821809D01*
X141229871Y-134888984D01*
X141190026Y-134937534D01*
X141164669Y-134984974D01*
X141119454Y-135069564D01*
X141075997Y-135212825D01*
X141065000Y-135324478D01*
X141065000Y-135324486D01*
X141061324Y-135361810D01*
X141065000Y-135399133D01*
X141065000Y-137103199D01*
X135875784Y-131913983D01*
X135851981Y-131884979D01*
X135736256Y-131790006D01*
X135604227Y-131719434D01*
X135460966Y-131675977D01*
X135349313Y-131664980D01*
X135349302Y-131664980D01*
X135311980Y-131661304D01*
X135274658Y-131664980D01*
X119072353Y-131664980D01*
X119035020Y-131661303D01*
X118997687Y-131664980D01*
X118886034Y-131675977D01*
X118742773Y-131719434D01*
X118610744Y-131790006D01*
X118495019Y-131884979D01*
X118471221Y-131913977D01*
X116029271Y-134355928D01*
X114416000Y-134355928D01*
X114242746Y-134372992D01*
X114076150Y-134423528D01*
X113922614Y-134505595D01*
X113788038Y-134616038D01*
X113677595Y-134750614D01*
X113595528Y-134904150D01*
X113544992Y-135070746D01*
X113527928Y-135244000D01*
X111633000Y-135244000D01*
X111633000Y-134004283D01*
X111914729Y-133816038D01*
X112226038Y-133504729D01*
X112470631Y-133138669D01*
X112639110Y-132731925D01*
X112725000Y-132300128D01*
X112725000Y-131859872D01*
X112639110Y-131428075D01*
X112470631Y-131021331D01*
X112226038Y-130655271D01*
X111999767Y-130429000D01*
X158877000Y-130429000D01*
X158877000Y-143129000D01*
G37*
%TD.AperFunction*%
%TD*%
M02*
