M48
; DRILL file {KiCad 5.1.10} date Fri Dec 10 15:57:22 2021
; FORMAT={-:-/ absolute / metric / decimal}
; #@! TF.CreationDate,2021-12-10T15:57:22+01:00
; #@! TF.GenerationSoftware,Kicad,Pcbnew,5.1.10
; #@! TF.FileFunction,Plated,1,2,PTH
FMAT,2
METRIC
T1C0.800
T2C1.100
%
G90
G05
T1
X119.23Y-140.97
X119.23Y-148.59
X121.77Y-140.97
X121.77Y-148.59
X127.04Y-140.92
X127.04Y-148.54
X129.58Y-140.92
X129.58Y-148.54
X134.62Y-140.97
X134.62Y-148.59
X137.16Y-140.97
X137.16Y-148.59
X143.65Y-140.83
X143.65Y-148.45
X146.19Y-140.83
X146.19Y-148.45
X152.35Y-140.83
X152.35Y-148.45
X154.89Y-140.83
X154.89Y-148.45
T2
X115.316Y-136.144
X115.316Y-140.944
X122.05Y-166.15
X124.7Y-134.35
X126.85Y-166.15
X129.5Y-134.35
X131.65Y-166.15
X134.3Y-134.35
X138.7Y-166.15
X143.5Y-166.15
X145.1Y-134.7
X149.9Y-134.7
X150.5Y-166.0
X155.3Y-166.0
T0
M30
