%TF.GenerationSoftware,KiCad,Pcbnew,5.1.10*%
%TF.CreationDate,2021-12-10T15:57:17+01:00*%
%TF.ProjectId,PCB_PEE30 zonder mountingholes,5043425f-5045-4453-9330-207a6f6e6465,rev?*%
%TF.SameCoordinates,Original*%
%TF.FileFunction,Legend,Top*%
%TF.FilePolarity,Positive*%
%FSLAX46Y46*%
G04 Gerber Fmt 4.6, Leading zero omitted, Abs format (unit mm)*
G04 Created by KiCad (PCBNEW 5.1.10) date 2021-12-10 15:57:17*
%MOMM*%
%LPD*%
G01*
G04 APERTURE LIST*
%ADD10C,0.150000*%
%ADD11C,0.100000*%
%ADD12C,0.120000*%
%ADD13C,3.200000*%
%ADD14C,2.300000*%
%ADD15O,1.600000X1.600000*%
%ADD16R,1.600000X1.600000*%
G04 APERTURE END LIST*
D10*
X108789720Y-136972348D02*
X109551624Y-136972348D01*
X109170672Y-137353300D02*
X109170672Y-136591396D01*
X109932577Y-136353300D02*
X110551624Y-136353300D01*
X110218291Y-136734253D01*
X110361148Y-136734253D01*
X110456386Y-136781872D01*
X110504005Y-136829491D01*
X110551624Y-136924729D01*
X110551624Y-137162824D01*
X110504005Y-137258062D01*
X110456386Y-137305681D01*
X110361148Y-137353300D01*
X110075434Y-137353300D01*
X109980196Y-137305681D01*
X109932577Y-137258062D01*
X110980196Y-137258062D02*
X111027815Y-137305681D01*
X110980196Y-137353300D01*
X110932577Y-137305681D01*
X110980196Y-137258062D01*
X110980196Y-137353300D01*
X111361148Y-136353300D02*
X111980196Y-136353300D01*
X111646862Y-136734253D01*
X111789720Y-136734253D01*
X111884958Y-136781872D01*
X111932577Y-136829491D01*
X111980196Y-136924729D01*
X111980196Y-137162824D01*
X111932577Y-137258062D01*
X111884958Y-137305681D01*
X111789720Y-137353300D01*
X111504005Y-137353300D01*
X111408767Y-137305681D01*
X111361148Y-137258062D01*
X112265910Y-136353300D02*
X112599243Y-137353300D01*
X112932577Y-136353300D01*
X110764415Y-140673200D02*
X110669177Y-140625580D01*
X110526320Y-140625580D01*
X110383462Y-140673200D01*
X110288224Y-140768438D01*
X110240605Y-140863676D01*
X110192986Y-141054152D01*
X110192986Y-141197009D01*
X110240605Y-141387485D01*
X110288224Y-141482723D01*
X110383462Y-141577961D01*
X110526320Y-141625580D01*
X110621558Y-141625580D01*
X110764415Y-141577961D01*
X110812034Y-141530342D01*
X110812034Y-141197009D01*
X110621558Y-141197009D01*
X111240605Y-141625580D02*
X111240605Y-140625580D01*
X111812034Y-141625580D01*
X111812034Y-140625580D01*
X112288224Y-141625580D02*
X112288224Y-140625580D01*
X112526320Y-140625580D01*
X112669177Y-140673200D01*
X112764415Y-140768438D01*
X112812034Y-140863676D01*
X112859653Y-141054152D01*
X112859653Y-141197009D01*
X112812034Y-141387485D01*
X112764415Y-141482723D01*
X112669177Y-141577961D01*
X112526320Y-141625580D01*
X112288224Y-141625580D01*
D11*
X147228228Y-168487540D02*
X147299657Y-168511350D01*
X147418704Y-168511350D01*
X147466323Y-168487540D01*
X147490133Y-168463731D01*
X147513942Y-168416112D01*
X147513942Y-168368493D01*
X147490133Y-168320874D01*
X147466323Y-168297064D01*
X147418704Y-168273255D01*
X147323466Y-168249445D01*
X147275847Y-168225636D01*
X147252038Y-168201826D01*
X147228228Y-168154207D01*
X147228228Y-168106588D01*
X147252038Y-168058969D01*
X147275847Y-168035160D01*
X147323466Y-168011350D01*
X147442514Y-168011350D01*
X147513942Y-168035160D01*
X147656800Y-168178017D02*
X147847276Y-168178017D01*
X147728228Y-168011350D02*
X147728228Y-168439921D01*
X147752038Y-168487540D01*
X147799657Y-168511350D01*
X147847276Y-168511350D01*
X148228228Y-168511350D02*
X148228228Y-168249445D01*
X148204419Y-168201826D01*
X148156800Y-168178017D01*
X148061561Y-168178017D01*
X148013942Y-168201826D01*
X148228228Y-168487540D02*
X148180609Y-168511350D01*
X148061561Y-168511350D01*
X148013942Y-168487540D01*
X147990133Y-168439921D01*
X147990133Y-168392302D01*
X148013942Y-168344683D01*
X148061561Y-168320874D01*
X148180609Y-168320874D01*
X148228228Y-168297064D01*
X148394895Y-168178017D02*
X148585371Y-168178017D01*
X148466323Y-168011350D02*
X148466323Y-168439921D01*
X148490133Y-168487540D01*
X148537752Y-168511350D01*
X148585371Y-168511350D01*
X148966323Y-168178017D02*
X148966323Y-168511350D01*
X148752038Y-168178017D02*
X148752038Y-168439921D01*
X148775847Y-168487540D01*
X148823466Y-168511350D01*
X148894895Y-168511350D01*
X148942514Y-168487540D01*
X148966323Y-168463731D01*
X149180609Y-168487540D02*
X149228228Y-168511350D01*
X149323466Y-168511350D01*
X149371085Y-168487540D01*
X149394895Y-168439921D01*
X149394895Y-168416112D01*
X149371085Y-168368493D01*
X149323466Y-168344683D01*
X149252038Y-168344683D01*
X149204419Y-168320874D01*
X149180609Y-168273255D01*
X149180609Y-168249445D01*
X149204419Y-168201826D01*
X149252038Y-168178017D01*
X149323466Y-168178017D01*
X149371085Y-168201826D01*
X149490133Y-168558969D02*
X149871085Y-168558969D01*
X150204419Y-168511350D02*
X150204419Y-168249445D01*
X150180609Y-168201826D01*
X150132990Y-168178017D01*
X150037752Y-168178017D01*
X149990133Y-168201826D01*
X150204419Y-168487540D02*
X150156800Y-168511350D01*
X150037752Y-168511350D01*
X149990133Y-168487540D01*
X149966323Y-168439921D01*
X149966323Y-168392302D01*
X149990133Y-168344683D01*
X150037752Y-168320874D01*
X150156800Y-168320874D01*
X150204419Y-168297064D01*
X150656800Y-168511350D02*
X150656800Y-168249445D01*
X150632990Y-168201826D01*
X150585371Y-168178017D01*
X150490133Y-168178017D01*
X150442514Y-168201826D01*
X150656800Y-168487540D02*
X150609180Y-168511350D01*
X150490133Y-168511350D01*
X150442514Y-168487540D01*
X150418704Y-168439921D01*
X150418704Y-168392302D01*
X150442514Y-168344683D01*
X150490133Y-168320874D01*
X150609180Y-168320874D01*
X150656800Y-168297064D01*
X150894895Y-168178017D02*
X150894895Y-168511350D01*
X150894895Y-168225636D02*
X150918704Y-168201826D01*
X150966323Y-168178017D01*
X151037752Y-168178017D01*
X151085371Y-168201826D01*
X151109180Y-168249445D01*
X151109180Y-168511350D01*
X151228228Y-168558969D02*
X151609180Y-168558969D01*
X151728228Y-168511350D02*
X151728228Y-168011350D01*
X151894895Y-168368493D01*
X152061561Y-168011350D01*
X152061561Y-168511350D01*
X153080542Y-168614540D02*
X153151971Y-168638350D01*
X153271019Y-168638350D01*
X153318638Y-168614540D01*
X153342447Y-168590731D01*
X153366257Y-168543112D01*
X153366257Y-168495493D01*
X153342447Y-168447874D01*
X153318638Y-168424064D01*
X153271019Y-168400255D01*
X153175780Y-168376445D01*
X153128161Y-168352636D01*
X153104352Y-168328826D01*
X153080542Y-168281207D01*
X153080542Y-168233588D01*
X153104352Y-168185969D01*
X153128161Y-168162160D01*
X153175780Y-168138350D01*
X153294828Y-168138350D01*
X153366257Y-168162160D01*
X153509114Y-168305017D02*
X153699590Y-168305017D01*
X153580542Y-168138350D02*
X153580542Y-168566921D01*
X153604352Y-168614540D01*
X153651971Y-168638350D01*
X153699590Y-168638350D01*
X154080542Y-168638350D02*
X154080542Y-168376445D01*
X154056733Y-168328826D01*
X154009114Y-168305017D01*
X153913876Y-168305017D01*
X153866257Y-168328826D01*
X154080542Y-168614540D02*
X154032923Y-168638350D01*
X153913876Y-168638350D01*
X153866257Y-168614540D01*
X153842447Y-168566921D01*
X153842447Y-168519302D01*
X153866257Y-168471683D01*
X153913876Y-168447874D01*
X154032923Y-168447874D01*
X154080542Y-168424064D01*
X154247209Y-168305017D02*
X154437685Y-168305017D01*
X154318638Y-168138350D02*
X154318638Y-168566921D01*
X154342447Y-168614540D01*
X154390066Y-168638350D01*
X154437685Y-168638350D01*
X154818638Y-168305017D02*
X154818638Y-168638350D01*
X154604352Y-168305017D02*
X154604352Y-168566921D01*
X154628161Y-168614540D01*
X154675780Y-168638350D01*
X154747209Y-168638350D01*
X154794828Y-168614540D01*
X154818638Y-168590731D01*
X155032923Y-168614540D02*
X155080542Y-168638350D01*
X155175780Y-168638350D01*
X155223400Y-168614540D01*
X155247209Y-168566921D01*
X155247209Y-168543112D01*
X155223400Y-168495493D01*
X155175780Y-168471683D01*
X155104352Y-168471683D01*
X155056733Y-168447874D01*
X155032923Y-168400255D01*
X155032923Y-168376445D01*
X155056733Y-168328826D01*
X155104352Y-168305017D01*
X155175780Y-168305017D01*
X155223400Y-168328826D01*
X155342447Y-168685969D02*
X155723400Y-168685969D01*
X156056733Y-168638350D02*
X156056733Y-168376445D01*
X156032923Y-168328826D01*
X155985304Y-168305017D01*
X155890066Y-168305017D01*
X155842447Y-168328826D01*
X156056733Y-168614540D02*
X156009114Y-168638350D01*
X155890066Y-168638350D01*
X155842447Y-168614540D01*
X155818638Y-168566921D01*
X155818638Y-168519302D01*
X155842447Y-168471683D01*
X155890066Y-168447874D01*
X156009114Y-168447874D01*
X156056733Y-168424064D01*
X156509114Y-168638350D02*
X156509114Y-168376445D01*
X156485304Y-168328826D01*
X156437685Y-168305017D01*
X156342447Y-168305017D01*
X156294828Y-168328826D01*
X156509114Y-168614540D02*
X156461495Y-168638350D01*
X156342447Y-168638350D01*
X156294828Y-168614540D01*
X156271019Y-168566921D01*
X156271019Y-168519302D01*
X156294828Y-168471683D01*
X156342447Y-168447874D01*
X156461495Y-168447874D01*
X156509114Y-168424064D01*
X156747209Y-168305017D02*
X156747209Y-168638350D01*
X156747209Y-168352636D02*
X156771019Y-168328826D01*
X156818638Y-168305017D01*
X156890066Y-168305017D01*
X156937685Y-168328826D01*
X156961495Y-168376445D01*
X156961495Y-168638350D01*
X157080542Y-168685969D02*
X157461495Y-168685969D01*
X157747209Y-168376445D02*
X157818638Y-168400255D01*
X157842447Y-168424064D01*
X157866257Y-168471683D01*
X157866257Y-168543112D01*
X157842447Y-168590731D01*
X157818638Y-168614540D01*
X157771019Y-168638350D01*
X157580542Y-168638350D01*
X157580542Y-168138350D01*
X157747209Y-168138350D01*
X157794828Y-168162160D01*
X157818638Y-168185969D01*
X157842447Y-168233588D01*
X157842447Y-168281207D01*
X157818638Y-168328826D01*
X157794828Y-168352636D01*
X157747209Y-168376445D01*
X157580542Y-168376445D01*
X147944662Y-132256980D02*
X148016091Y-132280790D01*
X148135139Y-132280790D01*
X148182758Y-132256980D01*
X148206567Y-132233171D01*
X148230377Y-132185552D01*
X148230377Y-132137933D01*
X148206567Y-132090314D01*
X148182758Y-132066504D01*
X148135139Y-132042695D01*
X148039900Y-132018885D01*
X147992281Y-131995076D01*
X147968472Y-131971266D01*
X147944662Y-131923647D01*
X147944662Y-131876028D01*
X147968472Y-131828409D01*
X147992281Y-131804600D01*
X148039900Y-131780790D01*
X148158948Y-131780790D01*
X148230377Y-131804600D01*
X148373234Y-131947457D02*
X148563710Y-131947457D01*
X148444662Y-131780790D02*
X148444662Y-132209361D01*
X148468472Y-132256980D01*
X148516091Y-132280790D01*
X148563710Y-132280790D01*
X148944662Y-132280790D02*
X148944662Y-132018885D01*
X148920853Y-131971266D01*
X148873234Y-131947457D01*
X148777996Y-131947457D01*
X148730377Y-131971266D01*
X148944662Y-132256980D02*
X148897043Y-132280790D01*
X148777996Y-132280790D01*
X148730377Y-132256980D01*
X148706567Y-132209361D01*
X148706567Y-132161742D01*
X148730377Y-132114123D01*
X148777996Y-132090314D01*
X148897043Y-132090314D01*
X148944662Y-132066504D01*
X149111329Y-131947457D02*
X149301805Y-131947457D01*
X149182758Y-131780790D02*
X149182758Y-132209361D01*
X149206567Y-132256980D01*
X149254186Y-132280790D01*
X149301805Y-132280790D01*
X149682758Y-131947457D02*
X149682758Y-132280790D01*
X149468472Y-131947457D02*
X149468472Y-132209361D01*
X149492281Y-132256980D01*
X149539900Y-132280790D01*
X149611329Y-132280790D01*
X149658948Y-132256980D01*
X149682758Y-132233171D01*
X149897043Y-132256980D02*
X149944662Y-132280790D01*
X150039900Y-132280790D01*
X150087520Y-132256980D01*
X150111329Y-132209361D01*
X150111329Y-132185552D01*
X150087520Y-132137933D01*
X150039900Y-132114123D01*
X149968472Y-132114123D01*
X149920853Y-132090314D01*
X149897043Y-132042695D01*
X149897043Y-132018885D01*
X149920853Y-131971266D01*
X149968472Y-131947457D01*
X150039900Y-131947457D01*
X150087520Y-131971266D01*
X150206567Y-132328409D02*
X150587520Y-132328409D01*
X150920853Y-132280790D02*
X150920853Y-132018885D01*
X150897043Y-131971266D01*
X150849424Y-131947457D01*
X150754186Y-131947457D01*
X150706567Y-131971266D01*
X150920853Y-132256980D02*
X150873234Y-132280790D01*
X150754186Y-132280790D01*
X150706567Y-132256980D01*
X150682758Y-132209361D01*
X150682758Y-132161742D01*
X150706567Y-132114123D01*
X150754186Y-132090314D01*
X150873234Y-132090314D01*
X150920853Y-132066504D01*
X151373234Y-132280790D02*
X151373234Y-132018885D01*
X151349424Y-131971266D01*
X151301805Y-131947457D01*
X151206567Y-131947457D01*
X151158948Y-131971266D01*
X151373234Y-132256980D02*
X151325615Y-132280790D01*
X151206567Y-132280790D01*
X151158948Y-132256980D01*
X151135139Y-132209361D01*
X151135139Y-132161742D01*
X151158948Y-132114123D01*
X151206567Y-132090314D01*
X151325615Y-132090314D01*
X151373234Y-132066504D01*
X151611329Y-131947457D02*
X151611329Y-132280790D01*
X151611329Y-131995076D02*
X151635139Y-131971266D01*
X151682758Y-131947457D01*
X151754186Y-131947457D01*
X151801805Y-131971266D01*
X151825615Y-132018885D01*
X151825615Y-132280790D01*
X151944662Y-132328409D02*
X152325615Y-132328409D01*
X152611329Y-132018885D02*
X152682758Y-132042695D01*
X152706567Y-132066504D01*
X152730377Y-132114123D01*
X152730377Y-132185552D01*
X152706567Y-132233171D01*
X152682758Y-132256980D01*
X152635139Y-132280790D01*
X152444662Y-132280790D01*
X152444662Y-131780790D01*
X152611329Y-131780790D01*
X152658948Y-131804600D01*
X152682758Y-131828409D01*
X152706567Y-131876028D01*
X152706567Y-131923647D01*
X152682758Y-131971266D01*
X152658948Y-131995076D01*
X152611329Y-132018885D01*
X152444662Y-132018885D01*
X142458108Y-132221420D02*
X142529537Y-132245230D01*
X142648584Y-132245230D01*
X142696203Y-132221420D01*
X142720013Y-132197611D01*
X142743822Y-132149992D01*
X142743822Y-132102373D01*
X142720013Y-132054754D01*
X142696203Y-132030944D01*
X142648584Y-132007135D01*
X142553346Y-131983325D01*
X142505727Y-131959516D01*
X142481918Y-131935706D01*
X142458108Y-131888087D01*
X142458108Y-131840468D01*
X142481918Y-131792849D01*
X142505727Y-131769040D01*
X142553346Y-131745230D01*
X142672394Y-131745230D01*
X142743822Y-131769040D01*
X142886680Y-131911897D02*
X143077156Y-131911897D01*
X142958108Y-131745230D02*
X142958108Y-132173801D01*
X142981918Y-132221420D01*
X143029537Y-132245230D01*
X143077156Y-132245230D01*
X143458108Y-132245230D02*
X143458108Y-131983325D01*
X143434299Y-131935706D01*
X143386680Y-131911897D01*
X143291441Y-131911897D01*
X143243822Y-131935706D01*
X143458108Y-132221420D02*
X143410489Y-132245230D01*
X143291441Y-132245230D01*
X143243822Y-132221420D01*
X143220013Y-132173801D01*
X143220013Y-132126182D01*
X143243822Y-132078563D01*
X143291441Y-132054754D01*
X143410489Y-132054754D01*
X143458108Y-132030944D01*
X143624775Y-131911897D02*
X143815251Y-131911897D01*
X143696203Y-131745230D02*
X143696203Y-132173801D01*
X143720013Y-132221420D01*
X143767632Y-132245230D01*
X143815251Y-132245230D01*
X144196203Y-131911897D02*
X144196203Y-132245230D01*
X143981918Y-131911897D02*
X143981918Y-132173801D01*
X144005727Y-132221420D01*
X144053346Y-132245230D01*
X144124775Y-132245230D01*
X144172394Y-132221420D01*
X144196203Y-132197611D01*
X144410489Y-132221420D02*
X144458108Y-132245230D01*
X144553346Y-132245230D01*
X144600965Y-132221420D01*
X144624775Y-132173801D01*
X144624775Y-132149992D01*
X144600965Y-132102373D01*
X144553346Y-132078563D01*
X144481918Y-132078563D01*
X144434299Y-132054754D01*
X144410489Y-132007135D01*
X144410489Y-131983325D01*
X144434299Y-131935706D01*
X144481918Y-131911897D01*
X144553346Y-131911897D01*
X144600965Y-131935706D01*
X144720013Y-132292849D02*
X145100965Y-132292849D01*
X145434299Y-132245230D02*
X145434299Y-131983325D01*
X145410489Y-131935706D01*
X145362870Y-131911897D01*
X145267632Y-131911897D01*
X145220013Y-131935706D01*
X145434299Y-132221420D02*
X145386680Y-132245230D01*
X145267632Y-132245230D01*
X145220013Y-132221420D01*
X145196203Y-132173801D01*
X145196203Y-132126182D01*
X145220013Y-132078563D01*
X145267632Y-132054754D01*
X145386680Y-132054754D01*
X145434299Y-132030944D01*
X145886680Y-132245230D02*
X145886680Y-131983325D01*
X145862870Y-131935706D01*
X145815251Y-131911897D01*
X145720013Y-131911897D01*
X145672394Y-131935706D01*
X145886680Y-132221420D02*
X145839060Y-132245230D01*
X145720013Y-132245230D01*
X145672394Y-132221420D01*
X145648584Y-132173801D01*
X145648584Y-132126182D01*
X145672394Y-132078563D01*
X145720013Y-132054754D01*
X145839060Y-132054754D01*
X145886680Y-132030944D01*
X146124775Y-131911897D02*
X146124775Y-132245230D01*
X146124775Y-131959516D02*
X146148584Y-131935706D01*
X146196203Y-131911897D01*
X146267632Y-131911897D01*
X146315251Y-131935706D01*
X146339060Y-131983325D01*
X146339060Y-132245230D01*
X146458108Y-132292849D02*
X146839060Y-132292849D01*
X146958108Y-132245230D02*
X146958108Y-131745230D01*
X147124775Y-132102373D01*
X147291441Y-131745230D01*
X147291441Y-132245230D01*
D10*
X141510000Y-163535668D02*
X142271904Y-163535668D01*
X141890952Y-163916620D02*
X141890952Y-163154716D01*
X142652857Y-162916620D02*
X143271904Y-162916620D01*
X142938571Y-163297573D01*
X143081428Y-163297573D01*
X143176666Y-163345192D01*
X143224285Y-163392811D01*
X143271904Y-163488049D01*
X143271904Y-163726144D01*
X143224285Y-163821382D01*
X143176666Y-163869001D01*
X143081428Y-163916620D01*
X142795714Y-163916620D01*
X142700476Y-163869001D01*
X142652857Y-163821382D01*
X143700476Y-163821382D02*
X143748095Y-163869001D01*
X143700476Y-163916620D01*
X143652857Y-163869001D01*
X143700476Y-163821382D01*
X143700476Y-163916620D01*
X144081428Y-162916620D02*
X144700476Y-162916620D01*
X144367142Y-163297573D01*
X144510000Y-163297573D01*
X144605238Y-163345192D01*
X144652857Y-163392811D01*
X144700476Y-163488049D01*
X144700476Y-163726144D01*
X144652857Y-163821382D01*
X144605238Y-163869001D01*
X144510000Y-163916620D01*
X144224285Y-163916620D01*
X144129047Y-163869001D01*
X144081428Y-163821382D01*
X144986190Y-162916620D02*
X145319523Y-163916620D01*
X145652857Y-162916620D01*
X135595455Y-167460040D02*
X135500217Y-167412420D01*
X135357360Y-167412420D01*
X135214502Y-167460040D01*
X135119264Y-167555278D01*
X135071645Y-167650516D01*
X135024026Y-167840992D01*
X135024026Y-167983849D01*
X135071645Y-168174325D01*
X135119264Y-168269563D01*
X135214502Y-168364801D01*
X135357360Y-168412420D01*
X135452598Y-168412420D01*
X135595455Y-168364801D01*
X135643074Y-168317182D01*
X135643074Y-167983849D01*
X135452598Y-167983849D01*
X136071645Y-168412420D02*
X136071645Y-167412420D01*
X136643074Y-168412420D01*
X136643074Y-167412420D01*
X137119264Y-168412420D02*
X137119264Y-167412420D01*
X137357360Y-167412420D01*
X137500217Y-167460040D01*
X137595455Y-167555278D01*
X137643074Y-167650516D01*
X137690693Y-167840992D01*
X137690693Y-167983849D01*
X137643074Y-168174325D01*
X137595455Y-168269563D01*
X137500217Y-168364801D01*
X137357360Y-168412420D01*
X137119264Y-168412420D01*
D11*
X133066731Y-131291780D02*
X133138160Y-131315590D01*
X133257207Y-131315590D01*
X133304826Y-131291780D01*
X133328636Y-131267971D01*
X133352445Y-131220352D01*
X133352445Y-131172733D01*
X133328636Y-131125114D01*
X133304826Y-131101304D01*
X133257207Y-131077495D01*
X133161969Y-131053685D01*
X133114350Y-131029876D01*
X133090540Y-131006066D01*
X133066731Y-130958447D01*
X133066731Y-130910828D01*
X133090540Y-130863209D01*
X133114350Y-130839400D01*
X133161969Y-130815590D01*
X133281017Y-130815590D01*
X133352445Y-130839400D01*
X133495302Y-130982257D02*
X133685779Y-130982257D01*
X133566731Y-130815590D02*
X133566731Y-131244161D01*
X133590540Y-131291780D01*
X133638160Y-131315590D01*
X133685779Y-131315590D01*
X134066731Y-131315590D02*
X134066731Y-131053685D01*
X134042921Y-131006066D01*
X133995302Y-130982257D01*
X133900064Y-130982257D01*
X133852445Y-131006066D01*
X134066731Y-131291780D02*
X134019112Y-131315590D01*
X133900064Y-131315590D01*
X133852445Y-131291780D01*
X133828636Y-131244161D01*
X133828636Y-131196542D01*
X133852445Y-131148923D01*
X133900064Y-131125114D01*
X134019112Y-131125114D01*
X134066731Y-131101304D01*
X134233398Y-130982257D02*
X134423874Y-130982257D01*
X134304826Y-130815590D02*
X134304826Y-131244161D01*
X134328636Y-131291780D01*
X134376255Y-131315590D01*
X134423874Y-131315590D01*
X134804826Y-130982257D02*
X134804826Y-131315590D01*
X134590540Y-130982257D02*
X134590540Y-131244161D01*
X134614350Y-131291780D01*
X134661969Y-131315590D01*
X134733398Y-131315590D01*
X134781017Y-131291780D01*
X134804826Y-131267971D01*
X135019112Y-131291780D02*
X135066731Y-131315590D01*
X135161969Y-131315590D01*
X135209588Y-131291780D01*
X135233398Y-131244161D01*
X135233398Y-131220352D01*
X135209588Y-131172733D01*
X135161969Y-131148923D01*
X135090540Y-131148923D01*
X135042921Y-131125114D01*
X135019112Y-131077495D01*
X135019112Y-131053685D01*
X135042921Y-131006066D01*
X135090540Y-130982257D01*
X135161969Y-130982257D01*
X135209588Y-131006066D01*
X135328636Y-131363209D02*
X135709588Y-131363209D01*
X135828636Y-131315590D02*
X135828636Y-130815590D01*
X135995302Y-131172733D01*
X136161969Y-130815590D01*
X136161969Y-131315590D01*
X136685779Y-131267971D02*
X136661969Y-131291780D01*
X136590540Y-131315590D01*
X136542921Y-131315590D01*
X136471493Y-131291780D01*
X136423874Y-131244161D01*
X136400064Y-131196542D01*
X136376255Y-131101304D01*
X136376255Y-131029876D01*
X136400064Y-130934638D01*
X136423874Y-130887019D01*
X136471493Y-130839400D01*
X136542921Y-130815590D01*
X136590540Y-130815590D01*
X136661969Y-130839400D01*
X136685779Y-130863209D01*
X136900064Y-130815590D02*
X136900064Y-131220352D01*
X136923874Y-131267971D01*
X136947683Y-131291780D01*
X136995302Y-131315590D01*
X137090540Y-131315590D01*
X137138160Y-131291780D01*
X137161969Y-131267971D01*
X137185779Y-131220352D01*
X137185779Y-130815590D01*
X121941020Y-131286700D02*
X122012449Y-131310510D01*
X122131497Y-131310510D01*
X122179116Y-131286700D01*
X122202925Y-131262891D01*
X122226735Y-131215272D01*
X122226735Y-131167653D01*
X122202925Y-131120034D01*
X122179116Y-131096224D01*
X122131497Y-131072415D01*
X122036259Y-131048605D01*
X121988640Y-131024796D01*
X121964830Y-131000986D01*
X121941020Y-130953367D01*
X121941020Y-130905748D01*
X121964830Y-130858129D01*
X121988640Y-130834320D01*
X122036259Y-130810510D01*
X122155306Y-130810510D01*
X122226735Y-130834320D01*
X122369592Y-130977177D02*
X122560068Y-130977177D01*
X122441020Y-130810510D02*
X122441020Y-131239081D01*
X122464830Y-131286700D01*
X122512449Y-131310510D01*
X122560068Y-131310510D01*
X122941020Y-131310510D02*
X122941020Y-131048605D01*
X122917211Y-131000986D01*
X122869592Y-130977177D01*
X122774354Y-130977177D01*
X122726735Y-131000986D01*
X122941020Y-131286700D02*
X122893401Y-131310510D01*
X122774354Y-131310510D01*
X122726735Y-131286700D01*
X122702925Y-131239081D01*
X122702925Y-131191462D01*
X122726735Y-131143843D01*
X122774354Y-131120034D01*
X122893401Y-131120034D01*
X122941020Y-131096224D01*
X123179116Y-131310510D02*
X123179116Y-130977177D01*
X123179116Y-131072415D02*
X123202925Y-131024796D01*
X123226735Y-131000986D01*
X123274354Y-130977177D01*
X123321973Y-130977177D01*
X123417211Y-130977177D02*
X123607687Y-130977177D01*
X123488640Y-130810510D02*
X123488640Y-131239081D01*
X123512449Y-131286700D01*
X123560068Y-131310510D01*
X123607687Y-131310510D01*
X123655306Y-131358129D02*
X124036259Y-131358129D01*
X124155306Y-131310510D02*
X124155306Y-130810510D01*
X124321973Y-131167653D01*
X124488640Y-130810510D01*
X124488640Y-131310510D01*
X125012449Y-131262891D02*
X124988640Y-131286700D01*
X124917211Y-131310510D01*
X124869592Y-131310510D01*
X124798163Y-131286700D01*
X124750544Y-131239081D01*
X124726735Y-131191462D01*
X124702925Y-131096224D01*
X124702925Y-131024796D01*
X124726735Y-130929558D01*
X124750544Y-130881939D01*
X124798163Y-130834320D01*
X124869592Y-130810510D01*
X124917211Y-130810510D01*
X124988640Y-130834320D01*
X125012449Y-130858129D01*
X125226735Y-130810510D02*
X125226735Y-131215272D01*
X125250544Y-131262891D01*
X125274354Y-131286700D01*
X125321973Y-131310510D01*
X125417211Y-131310510D01*
X125464830Y-131286700D01*
X125488640Y-131262891D01*
X125512449Y-131215272D01*
X125512449Y-130810510D01*
X129917131Y-170671940D02*
X129988560Y-170695750D01*
X130107607Y-170695750D01*
X130155226Y-170671940D01*
X130179036Y-170648131D01*
X130202845Y-170600512D01*
X130202845Y-170552893D01*
X130179036Y-170505274D01*
X130155226Y-170481464D01*
X130107607Y-170457655D01*
X130012369Y-170433845D01*
X129964750Y-170410036D01*
X129940940Y-170386226D01*
X129917131Y-170338607D01*
X129917131Y-170290988D01*
X129940940Y-170243369D01*
X129964750Y-170219560D01*
X130012369Y-170195750D01*
X130131417Y-170195750D01*
X130202845Y-170219560D01*
X130345702Y-170362417D02*
X130536179Y-170362417D01*
X130417131Y-170195750D02*
X130417131Y-170624321D01*
X130440940Y-170671940D01*
X130488560Y-170695750D01*
X130536179Y-170695750D01*
X130917131Y-170695750D02*
X130917131Y-170433845D01*
X130893321Y-170386226D01*
X130845702Y-170362417D01*
X130750464Y-170362417D01*
X130702845Y-170386226D01*
X130917131Y-170671940D02*
X130869512Y-170695750D01*
X130750464Y-170695750D01*
X130702845Y-170671940D01*
X130679036Y-170624321D01*
X130679036Y-170576702D01*
X130702845Y-170529083D01*
X130750464Y-170505274D01*
X130869512Y-170505274D01*
X130917131Y-170481464D01*
X131083798Y-170362417D02*
X131274274Y-170362417D01*
X131155226Y-170195750D02*
X131155226Y-170624321D01*
X131179036Y-170671940D01*
X131226655Y-170695750D01*
X131274274Y-170695750D01*
X131655226Y-170362417D02*
X131655226Y-170695750D01*
X131440940Y-170362417D02*
X131440940Y-170624321D01*
X131464750Y-170671940D01*
X131512369Y-170695750D01*
X131583798Y-170695750D01*
X131631417Y-170671940D01*
X131655226Y-170648131D01*
X131869512Y-170671940D02*
X131917131Y-170695750D01*
X132012369Y-170695750D01*
X132059988Y-170671940D01*
X132083798Y-170624321D01*
X132083798Y-170600512D01*
X132059988Y-170552893D01*
X132012369Y-170529083D01*
X131940940Y-170529083D01*
X131893321Y-170505274D01*
X131869512Y-170457655D01*
X131869512Y-170433845D01*
X131893321Y-170386226D01*
X131940940Y-170362417D01*
X132012369Y-170362417D01*
X132059988Y-170386226D01*
X132179036Y-170743369D02*
X132559988Y-170743369D01*
X132679036Y-170695750D02*
X132679036Y-170195750D01*
X132845702Y-170552893D01*
X133012369Y-170195750D01*
X133012369Y-170695750D01*
X133536179Y-170648131D02*
X133512369Y-170671940D01*
X133440940Y-170695750D01*
X133393321Y-170695750D01*
X133321893Y-170671940D01*
X133274274Y-170624321D01*
X133250464Y-170576702D01*
X133226655Y-170481464D01*
X133226655Y-170410036D01*
X133250464Y-170314798D01*
X133274274Y-170267179D01*
X133321893Y-170219560D01*
X133393321Y-170195750D01*
X133440940Y-170195750D01*
X133512369Y-170219560D01*
X133536179Y-170243369D01*
X133750464Y-170195750D02*
X133750464Y-170600512D01*
X133774274Y-170648131D01*
X133798083Y-170671940D01*
X133845702Y-170695750D01*
X133940940Y-170695750D01*
X133988560Y-170671940D01*
X134012369Y-170648131D01*
X134036179Y-170600512D01*
X134036179Y-170195750D01*
X125243020Y-170732900D02*
X125314449Y-170756710D01*
X125433497Y-170756710D01*
X125481116Y-170732900D01*
X125504925Y-170709091D01*
X125528735Y-170661472D01*
X125528735Y-170613853D01*
X125504925Y-170566234D01*
X125481116Y-170542424D01*
X125433497Y-170518615D01*
X125338259Y-170494805D01*
X125290640Y-170470996D01*
X125266830Y-170447186D01*
X125243020Y-170399567D01*
X125243020Y-170351948D01*
X125266830Y-170304329D01*
X125290640Y-170280520D01*
X125338259Y-170256710D01*
X125457306Y-170256710D01*
X125528735Y-170280520D01*
X125671592Y-170423377D02*
X125862068Y-170423377D01*
X125743020Y-170256710D02*
X125743020Y-170685281D01*
X125766830Y-170732900D01*
X125814449Y-170756710D01*
X125862068Y-170756710D01*
X126243020Y-170756710D02*
X126243020Y-170494805D01*
X126219211Y-170447186D01*
X126171592Y-170423377D01*
X126076354Y-170423377D01*
X126028735Y-170447186D01*
X126243020Y-170732900D02*
X126195401Y-170756710D01*
X126076354Y-170756710D01*
X126028735Y-170732900D01*
X126004925Y-170685281D01*
X126004925Y-170637662D01*
X126028735Y-170590043D01*
X126076354Y-170566234D01*
X126195401Y-170566234D01*
X126243020Y-170542424D01*
X126481116Y-170756710D02*
X126481116Y-170423377D01*
X126481116Y-170518615D02*
X126504925Y-170470996D01*
X126528735Y-170447186D01*
X126576354Y-170423377D01*
X126623973Y-170423377D01*
X126719211Y-170423377D02*
X126909687Y-170423377D01*
X126790640Y-170256710D02*
X126790640Y-170685281D01*
X126814449Y-170732900D01*
X126862068Y-170756710D01*
X126909687Y-170756710D01*
X126957306Y-170804329D02*
X127338259Y-170804329D01*
X127457306Y-170756710D02*
X127457306Y-170256710D01*
X127623973Y-170613853D01*
X127790640Y-170256710D01*
X127790640Y-170756710D01*
X128314449Y-170709091D02*
X128290640Y-170732900D01*
X128219211Y-170756710D01*
X128171592Y-170756710D01*
X128100163Y-170732900D01*
X128052544Y-170685281D01*
X128028735Y-170637662D01*
X128004925Y-170542424D01*
X128004925Y-170470996D01*
X128028735Y-170375758D01*
X128052544Y-170328139D01*
X128100163Y-170280520D01*
X128171592Y-170256710D01*
X128219211Y-170256710D01*
X128290640Y-170280520D01*
X128314449Y-170304329D01*
X128528735Y-170256710D02*
X128528735Y-170661472D01*
X128552544Y-170709091D01*
X128576354Y-170732900D01*
X128623973Y-170756710D01*
X128719211Y-170756710D01*
X128766830Y-170732900D01*
X128790640Y-170709091D01*
X128814449Y-170661472D01*
X128814449Y-170256710D01*
X126435219Y-131235900D02*
X126482838Y-131259710D01*
X126578076Y-131259710D01*
X126625695Y-131235900D01*
X126649504Y-131188281D01*
X126649504Y-131164472D01*
X126625695Y-131116853D01*
X126578076Y-131093043D01*
X126506647Y-131093043D01*
X126459028Y-131069234D01*
X126435219Y-131021615D01*
X126435219Y-130997805D01*
X126459028Y-130950186D01*
X126506647Y-130926377D01*
X126578076Y-130926377D01*
X126625695Y-130950186D01*
X126792361Y-130926377D02*
X126982838Y-130926377D01*
X126863790Y-130759710D02*
X126863790Y-131188281D01*
X126887600Y-131235900D01*
X126935219Y-131259710D01*
X126982838Y-131259710D01*
X127363790Y-131259710D02*
X127363790Y-130997805D01*
X127339980Y-130950186D01*
X127292361Y-130926377D01*
X127197123Y-130926377D01*
X127149504Y-130950186D01*
X127363790Y-131235900D02*
X127316171Y-131259710D01*
X127197123Y-131259710D01*
X127149504Y-131235900D01*
X127125695Y-131188281D01*
X127125695Y-131140662D01*
X127149504Y-131093043D01*
X127197123Y-131069234D01*
X127316171Y-131069234D01*
X127363790Y-131045424D01*
X127530457Y-130926377D02*
X127720933Y-130926377D01*
X127601885Y-130759710D02*
X127601885Y-131188281D01*
X127625695Y-131235900D01*
X127673314Y-131259710D01*
X127720933Y-131259710D01*
X128101885Y-130926377D02*
X128101885Y-131259710D01*
X127887600Y-130926377D02*
X127887600Y-131188281D01*
X127911409Y-131235900D01*
X127959028Y-131259710D01*
X128030457Y-131259710D01*
X128078076Y-131235900D01*
X128101885Y-131212091D01*
X128316171Y-131235900D02*
X128363790Y-131259710D01*
X128459028Y-131259710D01*
X128506647Y-131235900D01*
X128530457Y-131188281D01*
X128530457Y-131164472D01*
X128506647Y-131116853D01*
X128459028Y-131093043D01*
X128387600Y-131093043D01*
X128339980Y-131069234D01*
X128316171Y-131021615D01*
X128316171Y-130997805D01*
X128339980Y-130950186D01*
X128387600Y-130926377D01*
X128459028Y-130926377D01*
X128506647Y-130950186D01*
X128625695Y-131307329D02*
X129006647Y-131307329D01*
X129125695Y-131259710D02*
X129125695Y-130759710D01*
X129125695Y-130950186D02*
X129173314Y-130926377D01*
X129268552Y-130926377D01*
X129316171Y-130950186D01*
X129339980Y-130973996D01*
X129363790Y-131021615D01*
X129363790Y-131164472D01*
X129339980Y-131212091D01*
X129316171Y-131235900D01*
X129268552Y-131259710D01*
X129173314Y-131259710D01*
X129125695Y-131235900D01*
X129768552Y-131235900D02*
X129720933Y-131259710D01*
X129625695Y-131259710D01*
X129578076Y-131235900D01*
X129554266Y-131188281D01*
X129554266Y-130997805D01*
X129578076Y-130950186D01*
X129625695Y-130926377D01*
X129720933Y-130926377D01*
X129768552Y-130950186D01*
X129792361Y-130997805D01*
X129792361Y-131045424D01*
X129554266Y-131093043D01*
X130078076Y-131259710D02*
X130030457Y-131235900D01*
X130006647Y-131188281D01*
X130006647Y-130759710D01*
X130482838Y-131259710D02*
X130482838Y-130997805D01*
X130459028Y-130950186D01*
X130411409Y-130926377D01*
X130316171Y-130926377D01*
X130268552Y-130950186D01*
X130482838Y-131235900D02*
X130435219Y-131259710D01*
X130316171Y-131259710D01*
X130268552Y-131235900D01*
X130244742Y-131188281D01*
X130244742Y-131140662D01*
X130268552Y-131093043D01*
X130316171Y-131069234D01*
X130435219Y-131069234D01*
X130482838Y-131045424D01*
X130697123Y-131235900D02*
X130744742Y-131259710D01*
X130839980Y-131259710D01*
X130887600Y-131235900D01*
X130911409Y-131188281D01*
X130911409Y-131164472D01*
X130887600Y-131116853D01*
X130839980Y-131093043D01*
X130768552Y-131093043D01*
X130720933Y-131069234D01*
X130697123Y-131021615D01*
X130697123Y-130997805D01*
X130720933Y-130950186D01*
X130768552Y-130926377D01*
X130839980Y-130926377D01*
X130887600Y-130950186D01*
X131054266Y-130926377D02*
X131244742Y-130926377D01*
X131125695Y-130759710D02*
X131125695Y-131188281D01*
X131149504Y-131235900D01*
X131197123Y-131259710D01*
X131244742Y-131259710D01*
X131411409Y-131259710D02*
X131411409Y-130926377D01*
X131411409Y-130759710D02*
X131387600Y-130783520D01*
X131411409Y-130807329D01*
X131435219Y-130783520D01*
X131411409Y-130759710D01*
X131411409Y-130807329D01*
X131649504Y-130926377D02*
X131649504Y-131259710D01*
X131649504Y-130973996D02*
X131673314Y-130950186D01*
X131720933Y-130926377D01*
X131792361Y-130926377D01*
X131839980Y-130950186D01*
X131863790Y-130997805D01*
X131863790Y-131259710D01*
X132316171Y-130926377D02*
X132316171Y-131331139D01*
X132292361Y-131378758D01*
X132268552Y-131402567D01*
X132220933Y-131426377D01*
X132149504Y-131426377D01*
X132101885Y-131402567D01*
X132316171Y-131235900D02*
X132268552Y-131259710D01*
X132173314Y-131259710D01*
X132125695Y-131235900D01*
X132101885Y-131212091D01*
X132078076Y-131164472D01*
X132078076Y-131021615D01*
X132101885Y-130973996D01*
X132125695Y-130950186D01*
X132173314Y-130926377D01*
X132268552Y-130926377D01*
X132316171Y-130950186D01*
X118530739Y-170702420D02*
X118578358Y-170726230D01*
X118673596Y-170726230D01*
X118721215Y-170702420D01*
X118745024Y-170654801D01*
X118745024Y-170630992D01*
X118721215Y-170583373D01*
X118673596Y-170559563D01*
X118602167Y-170559563D01*
X118554548Y-170535754D01*
X118530739Y-170488135D01*
X118530739Y-170464325D01*
X118554548Y-170416706D01*
X118602167Y-170392897D01*
X118673596Y-170392897D01*
X118721215Y-170416706D01*
X118887881Y-170392897D02*
X119078358Y-170392897D01*
X118959310Y-170226230D02*
X118959310Y-170654801D01*
X118983120Y-170702420D01*
X119030739Y-170726230D01*
X119078358Y-170726230D01*
X119459310Y-170726230D02*
X119459310Y-170464325D01*
X119435500Y-170416706D01*
X119387881Y-170392897D01*
X119292643Y-170392897D01*
X119245024Y-170416706D01*
X119459310Y-170702420D02*
X119411691Y-170726230D01*
X119292643Y-170726230D01*
X119245024Y-170702420D01*
X119221215Y-170654801D01*
X119221215Y-170607182D01*
X119245024Y-170559563D01*
X119292643Y-170535754D01*
X119411691Y-170535754D01*
X119459310Y-170511944D01*
X119625977Y-170392897D02*
X119816453Y-170392897D01*
X119697405Y-170226230D02*
X119697405Y-170654801D01*
X119721215Y-170702420D01*
X119768834Y-170726230D01*
X119816453Y-170726230D01*
X120197405Y-170392897D02*
X120197405Y-170726230D01*
X119983120Y-170392897D02*
X119983120Y-170654801D01*
X120006929Y-170702420D01*
X120054548Y-170726230D01*
X120125977Y-170726230D01*
X120173596Y-170702420D01*
X120197405Y-170678611D01*
X120411691Y-170702420D02*
X120459310Y-170726230D01*
X120554548Y-170726230D01*
X120602167Y-170702420D01*
X120625977Y-170654801D01*
X120625977Y-170630992D01*
X120602167Y-170583373D01*
X120554548Y-170559563D01*
X120483120Y-170559563D01*
X120435500Y-170535754D01*
X120411691Y-170488135D01*
X120411691Y-170464325D01*
X120435500Y-170416706D01*
X120483120Y-170392897D01*
X120554548Y-170392897D01*
X120602167Y-170416706D01*
X120721215Y-170773849D02*
X121102167Y-170773849D01*
X121221215Y-170726230D02*
X121221215Y-170226230D01*
X121221215Y-170416706D02*
X121268834Y-170392897D01*
X121364072Y-170392897D01*
X121411691Y-170416706D01*
X121435500Y-170440516D01*
X121459310Y-170488135D01*
X121459310Y-170630992D01*
X121435500Y-170678611D01*
X121411691Y-170702420D01*
X121364072Y-170726230D01*
X121268834Y-170726230D01*
X121221215Y-170702420D01*
X121864072Y-170702420D02*
X121816453Y-170726230D01*
X121721215Y-170726230D01*
X121673596Y-170702420D01*
X121649786Y-170654801D01*
X121649786Y-170464325D01*
X121673596Y-170416706D01*
X121721215Y-170392897D01*
X121816453Y-170392897D01*
X121864072Y-170416706D01*
X121887881Y-170464325D01*
X121887881Y-170511944D01*
X121649786Y-170559563D01*
X122173596Y-170726230D02*
X122125977Y-170702420D01*
X122102167Y-170654801D01*
X122102167Y-170226230D01*
X122578358Y-170726230D02*
X122578358Y-170464325D01*
X122554548Y-170416706D01*
X122506929Y-170392897D01*
X122411691Y-170392897D01*
X122364072Y-170416706D01*
X122578358Y-170702420D02*
X122530739Y-170726230D01*
X122411691Y-170726230D01*
X122364072Y-170702420D01*
X122340262Y-170654801D01*
X122340262Y-170607182D01*
X122364072Y-170559563D01*
X122411691Y-170535754D01*
X122530739Y-170535754D01*
X122578358Y-170511944D01*
X122792643Y-170702420D02*
X122840262Y-170726230D01*
X122935500Y-170726230D01*
X122983120Y-170702420D01*
X123006929Y-170654801D01*
X123006929Y-170630992D01*
X122983120Y-170583373D01*
X122935500Y-170559563D01*
X122864072Y-170559563D01*
X122816453Y-170535754D01*
X122792643Y-170488135D01*
X122792643Y-170464325D01*
X122816453Y-170416706D01*
X122864072Y-170392897D01*
X122935500Y-170392897D01*
X122983120Y-170416706D01*
X123149786Y-170392897D02*
X123340262Y-170392897D01*
X123221215Y-170226230D02*
X123221215Y-170654801D01*
X123245024Y-170702420D01*
X123292643Y-170726230D01*
X123340262Y-170726230D01*
X123506929Y-170726230D02*
X123506929Y-170392897D01*
X123506929Y-170226230D02*
X123483120Y-170250040D01*
X123506929Y-170273849D01*
X123530739Y-170250040D01*
X123506929Y-170226230D01*
X123506929Y-170273849D01*
X123745024Y-170392897D02*
X123745024Y-170726230D01*
X123745024Y-170440516D02*
X123768834Y-170416706D01*
X123816453Y-170392897D01*
X123887881Y-170392897D01*
X123935500Y-170416706D01*
X123959310Y-170464325D01*
X123959310Y-170726230D01*
X124411691Y-170392897D02*
X124411691Y-170797659D01*
X124387881Y-170845278D01*
X124364072Y-170869087D01*
X124316453Y-170892897D01*
X124245024Y-170892897D01*
X124197405Y-170869087D01*
X124411691Y-170702420D02*
X124364072Y-170726230D01*
X124268834Y-170726230D01*
X124221215Y-170702420D01*
X124197405Y-170678611D01*
X124173596Y-170630992D01*
X124173596Y-170488135D01*
X124197405Y-170440516D01*
X124221215Y-170416706D01*
X124268834Y-170392897D01*
X124364072Y-170392897D01*
X124411691Y-170416706D01*
D12*
%TO.C,U8*%
X151020000Y-145640000D02*
X151020000Y-147290000D01*
X151020000Y-147290000D02*
X156220000Y-147290000D01*
X156220000Y-147290000D02*
X156220000Y-141990000D01*
X156220000Y-141990000D02*
X151020000Y-141990000D01*
X151020000Y-141990000D02*
X151020000Y-143640000D01*
X151020000Y-143640000D02*
G75*
G02*
X151020000Y-145640000I0J-1000000D01*
G01*
%TO.C,U7*%
X142320000Y-145640000D02*
X142320000Y-147290000D01*
X142320000Y-147290000D02*
X147520000Y-147290000D01*
X147520000Y-147290000D02*
X147520000Y-141990000D01*
X147520000Y-141990000D02*
X142320000Y-141990000D01*
X142320000Y-141990000D02*
X142320000Y-143640000D01*
X142320000Y-143640000D02*
G75*
G02*
X142320000Y-145640000I0J-1000000D01*
G01*
%TO.C,U4*%
X138490000Y-143780000D02*
X138490000Y-142130000D01*
X138490000Y-142130000D02*
X133290000Y-142130000D01*
X133290000Y-142130000D02*
X133290000Y-147430000D01*
X133290000Y-147430000D02*
X138490000Y-147430000D01*
X138490000Y-147430000D02*
X138490000Y-145780000D01*
X138490000Y-145780000D02*
G75*
G02*
X138490000Y-143780000I0J1000000D01*
G01*
%TO.C,U3*%
X123100000Y-143780000D02*
X123100000Y-142130000D01*
X123100000Y-142130000D02*
X117900000Y-142130000D01*
X117900000Y-142130000D02*
X117900000Y-147430000D01*
X117900000Y-147430000D02*
X123100000Y-147430000D01*
X123100000Y-147430000D02*
X123100000Y-145780000D01*
X123100000Y-145780000D02*
G75*
G02*
X123100000Y-143780000I0J1000000D01*
G01*
%TO.C,U2*%
X130910000Y-143730000D02*
X130910000Y-142080000D01*
X130910000Y-142080000D02*
X125710000Y-142080000D01*
X125710000Y-142080000D02*
X125710000Y-147380000D01*
X125710000Y-147380000D02*
X130910000Y-147380000D01*
X130910000Y-147380000D02*
X130910000Y-145730000D01*
X130910000Y-145730000D02*
G75*
G02*
X130910000Y-143730000I0J1000000D01*
G01*
%TO.C,U1*%
X131885000Y-157500000D02*
X131885000Y-155550000D01*
X131885000Y-157500000D02*
X131885000Y-159450000D01*
X123015000Y-157500000D02*
X123015000Y-155550000D01*
X123015000Y-157500000D02*
X123015000Y-160950000D01*
%TO.C,R10*%
X137722500Y-137728776D02*
X137722500Y-138238224D01*
X136677500Y-137728776D02*
X136677500Y-138238224D01*
%TO.C,R9*%
X122322500Y-137770776D02*
X122322500Y-138280224D01*
X121277500Y-137770776D02*
X121277500Y-138280224D01*
%TO.C,R8*%
X130122500Y-137770776D02*
X130122500Y-138280224D01*
X129077500Y-137770776D02*
X129077500Y-138280224D01*
%TO.C,R7*%
X136827500Y-151892724D02*
X136827500Y-151383276D01*
X137872500Y-151892724D02*
X137872500Y-151383276D01*
%TO.C,R6*%
X121227500Y-151742224D02*
X121227500Y-151232776D01*
X122272500Y-151742224D02*
X122272500Y-151232776D01*
%TO.C,R5*%
X128704724Y-151672500D02*
X128195276Y-151672500D01*
X128704724Y-150627500D02*
X128195276Y-150627500D01*
%TO.C,R4*%
X151132776Y-138415500D02*
X151642224Y-138415500D01*
X151132776Y-139460500D02*
X151642224Y-139460500D01*
%TO.C,R3*%
X151777500Y-151996224D02*
X151777500Y-151486776D01*
X152822500Y-151996224D02*
X152822500Y-151486776D01*
%TO.C,R2*%
X142482776Y-138415500D02*
X142992224Y-138415500D01*
X142482776Y-139460500D02*
X142992224Y-139460500D01*
%TO.C,R1*%
X143177500Y-151789224D02*
X143177500Y-151279776D01*
X144222500Y-151789224D02*
X144222500Y-151279776D01*
%TO.C,R10*%
D10*
X139082380Y-138626357D02*
X138606190Y-138959690D01*
X139082380Y-139197785D02*
X138082380Y-139197785D01*
X138082380Y-138816833D01*
X138130000Y-138721595D01*
X138177619Y-138673976D01*
X138272857Y-138626357D01*
X138415714Y-138626357D01*
X138510952Y-138673976D01*
X138558571Y-138721595D01*
X138606190Y-138816833D01*
X138606190Y-139197785D01*
X139082380Y-137673976D02*
X139082380Y-138245404D01*
X139082380Y-137959690D02*
X138082380Y-137959690D01*
X138225238Y-138054928D01*
X138320476Y-138150166D01*
X138368095Y-138245404D01*
X138082380Y-137054928D02*
X138082380Y-136959690D01*
X138130000Y-136864452D01*
X138177619Y-136816833D01*
X138272857Y-136769214D01*
X138463333Y-136721595D01*
X138701428Y-136721595D01*
X138891904Y-136769214D01*
X138987142Y-136816833D01*
X139034761Y-136864452D01*
X139082380Y-136959690D01*
X139082380Y-137054928D01*
X139034761Y-137150166D01*
X138987142Y-137197785D01*
X138891904Y-137245404D01*
X138701428Y-137293023D01*
X138463333Y-137293023D01*
X138272857Y-137245404D01*
X138177619Y-137197785D01*
X138130000Y-137150166D01*
X138082380Y-137054928D01*
%TO.C,R9*%
X123682380Y-138192166D02*
X123206190Y-138525500D01*
X123682380Y-138763595D02*
X122682380Y-138763595D01*
X122682380Y-138382642D01*
X122730000Y-138287404D01*
X122777619Y-138239785D01*
X122872857Y-138192166D01*
X123015714Y-138192166D01*
X123110952Y-138239785D01*
X123158571Y-138287404D01*
X123206190Y-138382642D01*
X123206190Y-138763595D01*
X123682380Y-137715976D02*
X123682380Y-137525500D01*
X123634761Y-137430261D01*
X123587142Y-137382642D01*
X123444285Y-137287404D01*
X123253809Y-137239785D01*
X122872857Y-137239785D01*
X122777619Y-137287404D01*
X122730000Y-137335023D01*
X122682380Y-137430261D01*
X122682380Y-137620738D01*
X122730000Y-137715976D01*
X122777619Y-137763595D01*
X122872857Y-137811214D01*
X123110952Y-137811214D01*
X123206190Y-137763595D01*
X123253809Y-137715976D01*
X123301428Y-137620738D01*
X123301428Y-137430261D01*
X123253809Y-137335023D01*
X123206190Y-137287404D01*
X123110952Y-137239785D01*
%TO.C,R8*%
X131482380Y-138192166D02*
X131006190Y-138525500D01*
X131482380Y-138763595D02*
X130482380Y-138763595D01*
X130482380Y-138382642D01*
X130530000Y-138287404D01*
X130577619Y-138239785D01*
X130672857Y-138192166D01*
X130815714Y-138192166D01*
X130910952Y-138239785D01*
X130958571Y-138287404D01*
X131006190Y-138382642D01*
X131006190Y-138763595D01*
X130910952Y-137620738D02*
X130863333Y-137715976D01*
X130815714Y-137763595D01*
X130720476Y-137811214D01*
X130672857Y-137811214D01*
X130577619Y-137763595D01*
X130530000Y-137715976D01*
X130482380Y-137620738D01*
X130482380Y-137430261D01*
X130530000Y-137335023D01*
X130577619Y-137287404D01*
X130672857Y-137239785D01*
X130720476Y-137239785D01*
X130815714Y-137287404D01*
X130863333Y-137335023D01*
X130910952Y-137430261D01*
X130910952Y-137620738D01*
X130958571Y-137715976D01*
X131006190Y-137763595D01*
X131101428Y-137811214D01*
X131291904Y-137811214D01*
X131387142Y-137763595D01*
X131434761Y-137715976D01*
X131482380Y-137620738D01*
X131482380Y-137430261D01*
X131434761Y-137335023D01*
X131387142Y-137287404D01*
X131291904Y-137239785D01*
X131101428Y-137239785D01*
X131006190Y-137287404D01*
X130958571Y-137335023D01*
X130910952Y-137430261D01*
%TO.C,R7*%
X136372380Y-151804666D02*
X135896190Y-152138000D01*
X136372380Y-152376095D02*
X135372380Y-152376095D01*
X135372380Y-151995142D01*
X135420000Y-151899904D01*
X135467619Y-151852285D01*
X135562857Y-151804666D01*
X135705714Y-151804666D01*
X135800952Y-151852285D01*
X135848571Y-151899904D01*
X135896190Y-151995142D01*
X135896190Y-152376095D01*
X135372380Y-151471333D02*
X135372380Y-150804666D01*
X136372380Y-151233238D01*
%TO.C,R6*%
X120772380Y-151654166D02*
X120296190Y-151987500D01*
X120772380Y-152225595D02*
X119772380Y-152225595D01*
X119772380Y-151844642D01*
X119820000Y-151749404D01*
X119867619Y-151701785D01*
X119962857Y-151654166D01*
X120105714Y-151654166D01*
X120200952Y-151701785D01*
X120248571Y-151749404D01*
X120296190Y-151844642D01*
X120296190Y-152225595D01*
X119772380Y-150797023D02*
X119772380Y-150987500D01*
X119820000Y-151082738D01*
X119867619Y-151130357D01*
X120010476Y-151225595D01*
X120200952Y-151273214D01*
X120581904Y-151273214D01*
X120677142Y-151225595D01*
X120724761Y-151177976D01*
X120772380Y-151082738D01*
X120772380Y-150892261D01*
X120724761Y-150797023D01*
X120677142Y-150749404D01*
X120581904Y-150701785D01*
X120343809Y-150701785D01*
X120248571Y-150749404D01*
X120200952Y-150797023D01*
X120153333Y-150892261D01*
X120153333Y-151082738D01*
X120200952Y-151177976D01*
X120248571Y-151225595D01*
X120343809Y-151273214D01*
%TO.C,R5*%
X128283333Y-153032380D02*
X127950000Y-152556190D01*
X127711904Y-153032380D02*
X127711904Y-152032380D01*
X128092857Y-152032380D01*
X128188095Y-152080000D01*
X128235714Y-152127619D01*
X128283333Y-152222857D01*
X128283333Y-152365714D01*
X128235714Y-152460952D01*
X128188095Y-152508571D01*
X128092857Y-152556190D01*
X127711904Y-152556190D01*
X129188095Y-152032380D02*
X128711904Y-152032380D01*
X128664285Y-152508571D01*
X128711904Y-152460952D01*
X128807142Y-152413333D01*
X129045238Y-152413333D01*
X129140476Y-152460952D01*
X129188095Y-152508571D01*
X129235714Y-152603809D01*
X129235714Y-152841904D01*
X129188095Y-152937142D01*
X129140476Y-152984761D01*
X129045238Y-153032380D01*
X128807142Y-153032380D01*
X128711904Y-152984761D01*
X128664285Y-152937142D01*
%TO.C,R4*%
X151220833Y-137960380D02*
X150887500Y-137484190D01*
X150649404Y-137960380D02*
X150649404Y-136960380D01*
X151030357Y-136960380D01*
X151125595Y-137008000D01*
X151173214Y-137055619D01*
X151220833Y-137150857D01*
X151220833Y-137293714D01*
X151173214Y-137388952D01*
X151125595Y-137436571D01*
X151030357Y-137484190D01*
X150649404Y-137484190D01*
X152077976Y-137293714D02*
X152077976Y-137960380D01*
X151839880Y-136912761D02*
X151601785Y-137627047D01*
X152220833Y-137627047D01*
%TO.C,R3*%
X151322380Y-151908166D02*
X150846190Y-152241500D01*
X151322380Y-152479595D02*
X150322380Y-152479595D01*
X150322380Y-152098642D01*
X150370000Y-152003404D01*
X150417619Y-151955785D01*
X150512857Y-151908166D01*
X150655714Y-151908166D01*
X150750952Y-151955785D01*
X150798571Y-152003404D01*
X150846190Y-152098642D01*
X150846190Y-152479595D01*
X150322380Y-151574833D02*
X150322380Y-150955785D01*
X150703333Y-151289119D01*
X150703333Y-151146261D01*
X150750952Y-151051023D01*
X150798571Y-151003404D01*
X150893809Y-150955785D01*
X151131904Y-150955785D01*
X151227142Y-151003404D01*
X151274761Y-151051023D01*
X151322380Y-151146261D01*
X151322380Y-151431976D01*
X151274761Y-151527214D01*
X151227142Y-151574833D01*
%TO.C,R2*%
X142570833Y-137960380D02*
X142237500Y-137484190D01*
X141999404Y-137960380D02*
X141999404Y-136960380D01*
X142380357Y-136960380D01*
X142475595Y-137008000D01*
X142523214Y-137055619D01*
X142570833Y-137150857D01*
X142570833Y-137293714D01*
X142523214Y-137388952D01*
X142475595Y-137436571D01*
X142380357Y-137484190D01*
X141999404Y-137484190D01*
X142951785Y-137055619D02*
X142999404Y-137008000D01*
X143094642Y-136960380D01*
X143332738Y-136960380D01*
X143427976Y-137008000D01*
X143475595Y-137055619D01*
X143523214Y-137150857D01*
X143523214Y-137246095D01*
X143475595Y-137388952D01*
X142904166Y-137960380D01*
X143523214Y-137960380D01*
%TO.C,R1*%
X142722380Y-151701166D02*
X142246190Y-152034500D01*
X142722380Y-152272595D02*
X141722380Y-152272595D01*
X141722380Y-151891642D01*
X141770000Y-151796404D01*
X141817619Y-151748785D01*
X141912857Y-151701166D01*
X142055714Y-151701166D01*
X142150952Y-151748785D01*
X142198571Y-151796404D01*
X142246190Y-151891642D01*
X142246190Y-152272595D01*
X142722380Y-150748785D02*
X142722380Y-151320214D01*
X142722380Y-151034500D02*
X141722380Y-151034500D01*
X141865238Y-151129738D01*
X141960476Y-151224976D01*
X142008095Y-151320214D01*
%TD*%
%LPC*%
D13*
%TO.C,H2*%
X161290000Y-170180000D03*
%TD*%
%TO.C,H4*%
X110490000Y-170180000D03*
%TD*%
%TO.C,H1*%
X110490000Y-132080000D03*
%TD*%
%TO.C,H3*%
X161290000Y-132080000D03*
%TD*%
D14*
%TO.C,J1*%
X138700000Y-166150000D03*
G36*
G01*
X144650000Y-165250000D02*
X144650000Y-167050000D01*
G75*
G02*
X144400000Y-167300000I-250000J0D01*
G01*
X142600000Y-167300000D01*
G75*
G02*
X142350000Y-167050000I0J250000D01*
G01*
X142350000Y-165250000D01*
G75*
G02*
X142600000Y-165000000I250000J0D01*
G01*
X144400000Y-165000000D01*
G75*
G02*
X144650000Y-165250000I0J-250000D01*
G01*
G37*
%TD*%
D15*
%TO.C,U8*%
X152350000Y-140830000D03*
X154890000Y-148450000D03*
X154890000Y-140830000D03*
D16*
X152350000Y-148450000D03*
%TD*%
D15*
%TO.C,U7*%
X143650000Y-140830000D03*
X146190000Y-148450000D03*
X146190000Y-140830000D03*
D16*
X143650000Y-148450000D03*
%TD*%
D15*
%TO.C,U4*%
X137160000Y-148590000D03*
X134620000Y-140970000D03*
X134620000Y-148590000D03*
D16*
X137160000Y-140970000D03*
%TD*%
D15*
%TO.C,U3*%
X121770000Y-148590000D03*
X119230000Y-140970000D03*
X119230000Y-148590000D03*
D16*
X121770000Y-140970000D03*
%TD*%
D15*
%TO.C,U2*%
X129580000Y-148540000D03*
X127040000Y-140920000D03*
X127040000Y-148540000D03*
D16*
X129580000Y-140920000D03*
%TD*%
%TO.C,U1*%
G36*
G01*
X123790000Y-156000000D02*
X123490000Y-156000000D01*
G75*
G02*
X123340000Y-155850000I0J150000D01*
G01*
X123340000Y-154200000D01*
G75*
G02*
X123490000Y-154050000I150000J0D01*
G01*
X123790000Y-154050000D01*
G75*
G02*
X123940000Y-154200000I0J-150000D01*
G01*
X123940000Y-155850000D01*
G75*
G02*
X123790000Y-156000000I-150000J0D01*
G01*
G37*
G36*
G01*
X125060000Y-156000000D02*
X124760000Y-156000000D01*
G75*
G02*
X124610000Y-155850000I0J150000D01*
G01*
X124610000Y-154200000D01*
G75*
G02*
X124760000Y-154050000I150000J0D01*
G01*
X125060000Y-154050000D01*
G75*
G02*
X125210000Y-154200000I0J-150000D01*
G01*
X125210000Y-155850000D01*
G75*
G02*
X125060000Y-156000000I-150000J0D01*
G01*
G37*
G36*
G01*
X126330000Y-156000000D02*
X126030000Y-156000000D01*
G75*
G02*
X125880000Y-155850000I0J150000D01*
G01*
X125880000Y-154200000D01*
G75*
G02*
X126030000Y-154050000I150000J0D01*
G01*
X126330000Y-154050000D01*
G75*
G02*
X126480000Y-154200000I0J-150000D01*
G01*
X126480000Y-155850000D01*
G75*
G02*
X126330000Y-156000000I-150000J0D01*
G01*
G37*
G36*
G01*
X127600000Y-156000000D02*
X127300000Y-156000000D01*
G75*
G02*
X127150000Y-155850000I0J150000D01*
G01*
X127150000Y-154200000D01*
G75*
G02*
X127300000Y-154050000I150000J0D01*
G01*
X127600000Y-154050000D01*
G75*
G02*
X127750000Y-154200000I0J-150000D01*
G01*
X127750000Y-155850000D01*
G75*
G02*
X127600000Y-156000000I-150000J0D01*
G01*
G37*
G36*
G01*
X128870000Y-156000000D02*
X128570000Y-156000000D01*
G75*
G02*
X128420000Y-155850000I0J150000D01*
G01*
X128420000Y-154200000D01*
G75*
G02*
X128570000Y-154050000I150000J0D01*
G01*
X128870000Y-154050000D01*
G75*
G02*
X129020000Y-154200000I0J-150000D01*
G01*
X129020000Y-155850000D01*
G75*
G02*
X128870000Y-156000000I-150000J0D01*
G01*
G37*
G36*
G01*
X130140000Y-156000000D02*
X129840000Y-156000000D01*
G75*
G02*
X129690000Y-155850000I0J150000D01*
G01*
X129690000Y-154200000D01*
G75*
G02*
X129840000Y-154050000I150000J0D01*
G01*
X130140000Y-154050000D01*
G75*
G02*
X130290000Y-154200000I0J-150000D01*
G01*
X130290000Y-155850000D01*
G75*
G02*
X130140000Y-156000000I-150000J0D01*
G01*
G37*
G36*
G01*
X131410000Y-156000000D02*
X131110000Y-156000000D01*
G75*
G02*
X130960000Y-155850000I0J150000D01*
G01*
X130960000Y-154200000D01*
G75*
G02*
X131110000Y-154050000I150000J0D01*
G01*
X131410000Y-154050000D01*
G75*
G02*
X131560000Y-154200000I0J-150000D01*
G01*
X131560000Y-155850000D01*
G75*
G02*
X131410000Y-156000000I-150000J0D01*
G01*
G37*
G36*
G01*
X131410000Y-160950000D02*
X131110000Y-160950000D01*
G75*
G02*
X130960000Y-160800000I0J150000D01*
G01*
X130960000Y-159150000D01*
G75*
G02*
X131110000Y-159000000I150000J0D01*
G01*
X131410000Y-159000000D01*
G75*
G02*
X131560000Y-159150000I0J-150000D01*
G01*
X131560000Y-160800000D01*
G75*
G02*
X131410000Y-160950000I-150000J0D01*
G01*
G37*
G36*
G01*
X130140000Y-160950000D02*
X129840000Y-160950000D01*
G75*
G02*
X129690000Y-160800000I0J150000D01*
G01*
X129690000Y-159150000D01*
G75*
G02*
X129840000Y-159000000I150000J0D01*
G01*
X130140000Y-159000000D01*
G75*
G02*
X130290000Y-159150000I0J-150000D01*
G01*
X130290000Y-160800000D01*
G75*
G02*
X130140000Y-160950000I-150000J0D01*
G01*
G37*
G36*
G01*
X128870000Y-160950000D02*
X128570000Y-160950000D01*
G75*
G02*
X128420000Y-160800000I0J150000D01*
G01*
X128420000Y-159150000D01*
G75*
G02*
X128570000Y-159000000I150000J0D01*
G01*
X128870000Y-159000000D01*
G75*
G02*
X129020000Y-159150000I0J-150000D01*
G01*
X129020000Y-160800000D01*
G75*
G02*
X128870000Y-160950000I-150000J0D01*
G01*
G37*
G36*
G01*
X127600000Y-160950000D02*
X127300000Y-160950000D01*
G75*
G02*
X127150000Y-160800000I0J150000D01*
G01*
X127150000Y-159150000D01*
G75*
G02*
X127300000Y-159000000I150000J0D01*
G01*
X127600000Y-159000000D01*
G75*
G02*
X127750000Y-159150000I0J-150000D01*
G01*
X127750000Y-160800000D01*
G75*
G02*
X127600000Y-160950000I-150000J0D01*
G01*
G37*
G36*
G01*
X126330000Y-160950000D02*
X126030000Y-160950000D01*
G75*
G02*
X125880000Y-160800000I0J150000D01*
G01*
X125880000Y-159150000D01*
G75*
G02*
X126030000Y-159000000I150000J0D01*
G01*
X126330000Y-159000000D01*
G75*
G02*
X126480000Y-159150000I0J-150000D01*
G01*
X126480000Y-160800000D01*
G75*
G02*
X126330000Y-160950000I-150000J0D01*
G01*
G37*
G36*
G01*
X125060000Y-160950000D02*
X124760000Y-160950000D01*
G75*
G02*
X124610000Y-160800000I0J150000D01*
G01*
X124610000Y-159150000D01*
G75*
G02*
X124760000Y-159000000I150000J0D01*
G01*
X125060000Y-159000000D01*
G75*
G02*
X125210000Y-159150000I0J-150000D01*
G01*
X125210000Y-160800000D01*
G75*
G02*
X125060000Y-160950000I-150000J0D01*
G01*
G37*
G36*
G01*
X123790000Y-160950000D02*
X123490000Y-160950000D01*
G75*
G02*
X123340000Y-160800000I0J150000D01*
G01*
X123340000Y-159150000D01*
G75*
G02*
X123490000Y-159000000I150000J0D01*
G01*
X123790000Y-159000000D01*
G75*
G02*
X123940000Y-159150000I0J-150000D01*
G01*
X123940000Y-160800000D01*
G75*
G02*
X123790000Y-160950000I-150000J0D01*
G01*
G37*
%TD*%
D14*
%TO.C,TTL_Output1*%
X149900000Y-134700000D03*
G36*
G01*
X143950000Y-135600000D02*
X143950000Y-133800000D01*
G75*
G02*
X144200000Y-133550000I250000J0D01*
G01*
X146000000Y-133550000D01*
G75*
G02*
X146250000Y-133800000I0J-250000D01*
G01*
X146250000Y-135600000D01*
G75*
G02*
X146000000Y-135850000I-250000J0D01*
G01*
X144200000Y-135850000D01*
G75*
G02*
X143950000Y-135600000I0J250000D01*
G01*
G37*
%TD*%
%TO.C,TTL_MSP-kant_2*%
X150500000Y-166000000D03*
G36*
G01*
X156450000Y-165100000D02*
X156450000Y-166900000D01*
G75*
G02*
X156200000Y-167150000I-250000J0D01*
G01*
X154400000Y-167150000D01*
G75*
G02*
X154150000Y-166900000I0J250000D01*
G01*
X154150000Y-165100000D01*
G75*
G02*
X154400000Y-164850000I250000J0D01*
G01*
X156200000Y-164850000D01*
G75*
G02*
X156450000Y-165100000I0J-250000D01*
G01*
G37*
%TD*%
%TO.C,TTL_MSP-kant_1*%
X122050000Y-166150000D03*
X126850000Y-166150000D03*
G36*
G01*
X132800000Y-165250000D02*
X132800000Y-167050000D01*
G75*
G02*
X132550000Y-167300000I-250000J0D01*
G01*
X130750000Y-167300000D01*
G75*
G02*
X130500000Y-167050000I0J250000D01*
G01*
X130500000Y-165250000D01*
G75*
G02*
X130750000Y-165000000I250000J0D01*
G01*
X132550000Y-165000000D01*
G75*
G02*
X132800000Y-165250000I0J-250000D01*
G01*
G37*
%TD*%
%TO.C,R10*%
G36*
G01*
X136962500Y-138408500D02*
X137437500Y-138408500D01*
G75*
G02*
X137675000Y-138646000I0J-237500D01*
G01*
X137675000Y-139146000D01*
G75*
G02*
X137437500Y-139383500I-237500J0D01*
G01*
X136962500Y-139383500D01*
G75*
G02*
X136725000Y-139146000I0J237500D01*
G01*
X136725000Y-138646000D01*
G75*
G02*
X136962500Y-138408500I237500J0D01*
G01*
G37*
G36*
G01*
X136962500Y-136583500D02*
X137437500Y-136583500D01*
G75*
G02*
X137675000Y-136821000I0J-237500D01*
G01*
X137675000Y-137321000D01*
G75*
G02*
X137437500Y-137558500I-237500J0D01*
G01*
X136962500Y-137558500D01*
G75*
G02*
X136725000Y-137321000I0J237500D01*
G01*
X136725000Y-136821000D01*
G75*
G02*
X136962500Y-136583500I237500J0D01*
G01*
G37*
%TD*%
%TO.C,R9*%
G36*
G01*
X121562500Y-138450500D02*
X122037500Y-138450500D01*
G75*
G02*
X122275000Y-138688000I0J-237500D01*
G01*
X122275000Y-139188000D01*
G75*
G02*
X122037500Y-139425500I-237500J0D01*
G01*
X121562500Y-139425500D01*
G75*
G02*
X121325000Y-139188000I0J237500D01*
G01*
X121325000Y-138688000D01*
G75*
G02*
X121562500Y-138450500I237500J0D01*
G01*
G37*
G36*
G01*
X121562500Y-136625500D02*
X122037500Y-136625500D01*
G75*
G02*
X122275000Y-136863000I0J-237500D01*
G01*
X122275000Y-137363000D01*
G75*
G02*
X122037500Y-137600500I-237500J0D01*
G01*
X121562500Y-137600500D01*
G75*
G02*
X121325000Y-137363000I0J237500D01*
G01*
X121325000Y-136863000D01*
G75*
G02*
X121562500Y-136625500I237500J0D01*
G01*
G37*
%TD*%
%TO.C,R8*%
G36*
G01*
X129362500Y-138450500D02*
X129837500Y-138450500D01*
G75*
G02*
X130075000Y-138688000I0J-237500D01*
G01*
X130075000Y-139188000D01*
G75*
G02*
X129837500Y-139425500I-237500J0D01*
G01*
X129362500Y-139425500D01*
G75*
G02*
X129125000Y-139188000I0J237500D01*
G01*
X129125000Y-138688000D01*
G75*
G02*
X129362500Y-138450500I237500J0D01*
G01*
G37*
G36*
G01*
X129362500Y-136625500D02*
X129837500Y-136625500D01*
G75*
G02*
X130075000Y-136863000I0J-237500D01*
G01*
X130075000Y-137363000D01*
G75*
G02*
X129837500Y-137600500I-237500J0D01*
G01*
X129362500Y-137600500D01*
G75*
G02*
X129125000Y-137363000I0J237500D01*
G01*
X129125000Y-136863000D01*
G75*
G02*
X129362500Y-136625500I237500J0D01*
G01*
G37*
%TD*%
%TO.C,R7*%
G36*
G01*
X137587500Y-151213000D02*
X137112500Y-151213000D01*
G75*
G02*
X136875000Y-150975500I0J237500D01*
G01*
X136875000Y-150475500D01*
G75*
G02*
X137112500Y-150238000I237500J0D01*
G01*
X137587500Y-150238000D01*
G75*
G02*
X137825000Y-150475500I0J-237500D01*
G01*
X137825000Y-150975500D01*
G75*
G02*
X137587500Y-151213000I-237500J0D01*
G01*
G37*
G36*
G01*
X137587500Y-153038000D02*
X137112500Y-153038000D01*
G75*
G02*
X136875000Y-152800500I0J237500D01*
G01*
X136875000Y-152300500D01*
G75*
G02*
X137112500Y-152063000I237500J0D01*
G01*
X137587500Y-152063000D01*
G75*
G02*
X137825000Y-152300500I0J-237500D01*
G01*
X137825000Y-152800500D01*
G75*
G02*
X137587500Y-153038000I-237500J0D01*
G01*
G37*
%TD*%
%TO.C,R6*%
G36*
G01*
X121987500Y-151062500D02*
X121512500Y-151062500D01*
G75*
G02*
X121275000Y-150825000I0J237500D01*
G01*
X121275000Y-150325000D01*
G75*
G02*
X121512500Y-150087500I237500J0D01*
G01*
X121987500Y-150087500D01*
G75*
G02*
X122225000Y-150325000I0J-237500D01*
G01*
X122225000Y-150825000D01*
G75*
G02*
X121987500Y-151062500I-237500J0D01*
G01*
G37*
G36*
G01*
X121987500Y-152887500D02*
X121512500Y-152887500D01*
G75*
G02*
X121275000Y-152650000I0J237500D01*
G01*
X121275000Y-152150000D01*
G75*
G02*
X121512500Y-151912500I237500J0D01*
G01*
X121987500Y-151912500D01*
G75*
G02*
X122225000Y-152150000I0J-237500D01*
G01*
X122225000Y-152650000D01*
G75*
G02*
X121987500Y-152887500I-237500J0D01*
G01*
G37*
%TD*%
%TO.C,R5*%
G36*
G01*
X128025000Y-150912500D02*
X128025000Y-151387500D01*
G75*
G02*
X127787500Y-151625000I-237500J0D01*
G01*
X127287500Y-151625000D01*
G75*
G02*
X127050000Y-151387500I0J237500D01*
G01*
X127050000Y-150912500D01*
G75*
G02*
X127287500Y-150675000I237500J0D01*
G01*
X127787500Y-150675000D01*
G75*
G02*
X128025000Y-150912500I0J-237500D01*
G01*
G37*
G36*
G01*
X129850000Y-150912500D02*
X129850000Y-151387500D01*
G75*
G02*
X129612500Y-151625000I-237500J0D01*
G01*
X129112500Y-151625000D01*
G75*
G02*
X128875000Y-151387500I0J237500D01*
G01*
X128875000Y-150912500D01*
G75*
G02*
X129112500Y-150675000I237500J0D01*
G01*
X129612500Y-150675000D01*
G75*
G02*
X129850000Y-150912500I0J-237500D01*
G01*
G37*
%TD*%
%TO.C,R4*%
G36*
G01*
X151812500Y-139175500D02*
X151812500Y-138700500D01*
G75*
G02*
X152050000Y-138463000I237500J0D01*
G01*
X152550000Y-138463000D01*
G75*
G02*
X152787500Y-138700500I0J-237500D01*
G01*
X152787500Y-139175500D01*
G75*
G02*
X152550000Y-139413000I-237500J0D01*
G01*
X152050000Y-139413000D01*
G75*
G02*
X151812500Y-139175500I0J237500D01*
G01*
G37*
G36*
G01*
X149987500Y-139175500D02*
X149987500Y-138700500D01*
G75*
G02*
X150225000Y-138463000I237500J0D01*
G01*
X150725000Y-138463000D01*
G75*
G02*
X150962500Y-138700500I0J-237500D01*
G01*
X150962500Y-139175500D01*
G75*
G02*
X150725000Y-139413000I-237500J0D01*
G01*
X150225000Y-139413000D01*
G75*
G02*
X149987500Y-139175500I0J237500D01*
G01*
G37*
%TD*%
%TO.C,R3*%
G36*
G01*
X152537500Y-151316500D02*
X152062500Y-151316500D01*
G75*
G02*
X151825000Y-151079000I0J237500D01*
G01*
X151825000Y-150579000D01*
G75*
G02*
X152062500Y-150341500I237500J0D01*
G01*
X152537500Y-150341500D01*
G75*
G02*
X152775000Y-150579000I0J-237500D01*
G01*
X152775000Y-151079000D01*
G75*
G02*
X152537500Y-151316500I-237500J0D01*
G01*
G37*
G36*
G01*
X152537500Y-153141500D02*
X152062500Y-153141500D01*
G75*
G02*
X151825000Y-152904000I0J237500D01*
G01*
X151825000Y-152404000D01*
G75*
G02*
X152062500Y-152166500I237500J0D01*
G01*
X152537500Y-152166500D01*
G75*
G02*
X152775000Y-152404000I0J-237500D01*
G01*
X152775000Y-152904000D01*
G75*
G02*
X152537500Y-153141500I-237500J0D01*
G01*
G37*
%TD*%
%TO.C,R2*%
G36*
G01*
X143162500Y-139175500D02*
X143162500Y-138700500D01*
G75*
G02*
X143400000Y-138463000I237500J0D01*
G01*
X143900000Y-138463000D01*
G75*
G02*
X144137500Y-138700500I0J-237500D01*
G01*
X144137500Y-139175500D01*
G75*
G02*
X143900000Y-139413000I-237500J0D01*
G01*
X143400000Y-139413000D01*
G75*
G02*
X143162500Y-139175500I0J237500D01*
G01*
G37*
G36*
G01*
X141337500Y-139175500D02*
X141337500Y-138700500D01*
G75*
G02*
X141575000Y-138463000I237500J0D01*
G01*
X142075000Y-138463000D01*
G75*
G02*
X142312500Y-138700500I0J-237500D01*
G01*
X142312500Y-139175500D01*
G75*
G02*
X142075000Y-139413000I-237500J0D01*
G01*
X141575000Y-139413000D01*
G75*
G02*
X141337500Y-139175500I0J237500D01*
G01*
G37*
%TD*%
%TO.C,R1*%
G36*
G01*
X143937500Y-151109500D02*
X143462500Y-151109500D01*
G75*
G02*
X143225000Y-150872000I0J237500D01*
G01*
X143225000Y-150372000D01*
G75*
G02*
X143462500Y-150134500I237500J0D01*
G01*
X143937500Y-150134500D01*
G75*
G02*
X144175000Y-150372000I0J-237500D01*
G01*
X144175000Y-150872000D01*
G75*
G02*
X143937500Y-151109500I-237500J0D01*
G01*
G37*
G36*
G01*
X143937500Y-152934500D02*
X143462500Y-152934500D01*
G75*
G02*
X143225000Y-152697000I0J237500D01*
G01*
X143225000Y-152197000D01*
G75*
G02*
X143462500Y-151959500I237500J0D01*
G01*
X143937500Y-151959500D01*
G75*
G02*
X144175000Y-152197000I0J-237500D01*
G01*
X144175000Y-152697000D01*
G75*
G02*
X143937500Y-152934500I-237500J0D01*
G01*
G37*
%TD*%
%TO.C,J2*%
X115316000Y-140944000D03*
G36*
G01*
X114416000Y-134994000D02*
X116216000Y-134994000D01*
G75*
G02*
X116466000Y-135244000I0J-250000D01*
G01*
X116466000Y-137044000D01*
G75*
G02*
X116216000Y-137294000I-250000J0D01*
G01*
X114416000Y-137294000D01*
G75*
G02*
X114166000Y-137044000I0J250000D01*
G01*
X114166000Y-135244000D01*
G75*
G02*
X114416000Y-134994000I250000J0D01*
G01*
G37*
%TD*%
%TO.C,input_TTL1*%
X134300000Y-134350000D03*
X129500000Y-134350000D03*
G36*
G01*
X123550000Y-135250000D02*
X123550000Y-133450000D01*
G75*
G02*
X123800000Y-133200000I250000J0D01*
G01*
X125600000Y-133200000D01*
G75*
G02*
X125850000Y-133450000I0J-250000D01*
G01*
X125850000Y-135250000D01*
G75*
G02*
X125600000Y-135500000I-250000J0D01*
G01*
X123800000Y-135500000D01*
G75*
G02*
X123550000Y-135250000I0J250000D01*
G01*
G37*
%TD*%
M02*
