%FSLAX45Y45*%
G04 Gerber Fmt 4.5, Leading zero omitted, Abs format (unit mm)*
G04 Created by KiCad (PCBNEW 5.1.10) date 2021-12-10 15:57:23*
%MOMM*%
%LPD*%
G01*
G04 APERTURE LIST*
%TA.AperFunction,Profile*%
%ADD10C,0.050000*%
%TD*%
%ADD11C,0.200000*%
%ADD12C,0.300000*%
G04 APERTURE END LIST*
D10*
X10541000Y-17526000D02*
X10541000Y-12700000D01*
X16637000Y-17526000D02*
X10541000Y-17526000D01*
X16637000Y-12700000D02*
X16637000Y-17526000D01*
X10541000Y-12700000D02*
X16637000Y-12700000D01*
D11*
X10889000Y-13048000D02*
X11209000Y-13368000D01*
X11209000Y-13048000D02*
X10889000Y-13368000D01*
X10889000Y-16858000D02*
X11209000Y-17178000D01*
X11209000Y-16858000D02*
X10889000Y-17178000D01*
X15969000Y-13048000D02*
X16289000Y-13368000D01*
X16289000Y-13048000D02*
X15969000Y-13368000D01*
X15969000Y-16858000D02*
X16289000Y-17178000D01*
X16289000Y-16858000D02*
X15969000Y-17178000D01*
D12*
X10824928Y-17994214D02*
X10824928Y-17694214D01*
X10896357Y-17694214D01*
X10939214Y-17708500D01*
X10967786Y-17737072D01*
X10982071Y-17765643D01*
X10996357Y-17822786D01*
X10996357Y-17865643D01*
X10982071Y-17922786D01*
X10967786Y-17951357D01*
X10939214Y-17979929D01*
X10896357Y-17994214D01*
X10824928Y-17994214D01*
X11124928Y-17994214D02*
X11124928Y-17794214D01*
X11124928Y-17851357D02*
X11139214Y-17822786D01*
X11153500Y-17808500D01*
X11182071Y-17794214D01*
X11210643Y-17794214D01*
X11310643Y-17994214D02*
X11310643Y-17794214D01*
X11310643Y-17694214D02*
X11296357Y-17708500D01*
X11310643Y-17722786D01*
X11324928Y-17708500D01*
X11310643Y-17694214D01*
X11310643Y-17722786D01*
X11496357Y-17994214D02*
X11467786Y-17979929D01*
X11453500Y-17951357D01*
X11453500Y-17694214D01*
X11653500Y-17994214D02*
X11624928Y-17979929D01*
X11610643Y-17951357D01*
X11610643Y-17694214D01*
X11996357Y-17994214D02*
X11996357Y-17694214D01*
X12096357Y-17908500D01*
X12196357Y-17694214D01*
X12196357Y-17994214D01*
X12467786Y-17994214D02*
X12467786Y-17837072D01*
X12453500Y-17808500D01*
X12424928Y-17794214D01*
X12367786Y-17794214D01*
X12339214Y-17808500D01*
X12467786Y-17979929D02*
X12439214Y-17994214D01*
X12367786Y-17994214D01*
X12339214Y-17979929D01*
X12324928Y-17951357D01*
X12324928Y-17922786D01*
X12339214Y-17894214D01*
X12367786Y-17879929D01*
X12439214Y-17879929D01*
X12467786Y-17865643D01*
X12610643Y-17794214D02*
X12610643Y-18094214D01*
X12610643Y-17808500D02*
X12639214Y-17794214D01*
X12696357Y-17794214D01*
X12724928Y-17808500D01*
X12739214Y-17822786D01*
X12753500Y-17851357D01*
X12753500Y-17937072D01*
X12739214Y-17965643D01*
X12724928Y-17979929D01*
X12696357Y-17994214D01*
X12639214Y-17994214D01*
X12610643Y-17979929D01*
X12882071Y-17965643D02*
X12896357Y-17979929D01*
X12882071Y-17994214D01*
X12867786Y-17979929D01*
X12882071Y-17965643D01*
X12882071Y-17994214D01*
X12882071Y-17808500D02*
X12896357Y-17822786D01*
X12882071Y-17837072D01*
X12867786Y-17822786D01*
X12882071Y-17808500D01*
X12882071Y-17837072D01*
X10218500Y-18328500D02*
X10538500Y-18648500D01*
X10538500Y-18328500D02*
X10218500Y-18648500D01*
X10796357Y-18324214D02*
X10982071Y-18324214D01*
X10882071Y-18438500D01*
X10924928Y-18438500D01*
X10953500Y-18452786D01*
X10967786Y-18467072D01*
X10982071Y-18495643D01*
X10982071Y-18567072D01*
X10967786Y-18595643D01*
X10953500Y-18609929D01*
X10924928Y-18624214D01*
X10839214Y-18624214D01*
X10810643Y-18609929D01*
X10796357Y-18595643D01*
X11110643Y-18595643D02*
X11124928Y-18609929D01*
X11110643Y-18624214D01*
X11096357Y-18609929D01*
X11110643Y-18595643D01*
X11110643Y-18624214D01*
X11239214Y-18352786D02*
X11253500Y-18338500D01*
X11282071Y-18324214D01*
X11353500Y-18324214D01*
X11382071Y-18338500D01*
X11396357Y-18352786D01*
X11410643Y-18381357D01*
X11410643Y-18409929D01*
X11396357Y-18452786D01*
X11224928Y-18624214D01*
X11410643Y-18624214D01*
X11596357Y-18324214D02*
X11624928Y-18324214D01*
X11653500Y-18338500D01*
X11667786Y-18352786D01*
X11682071Y-18381357D01*
X11696357Y-18438500D01*
X11696357Y-18509929D01*
X11682071Y-18567072D01*
X11667786Y-18595643D01*
X11653500Y-18609929D01*
X11624928Y-18624214D01*
X11596357Y-18624214D01*
X11567786Y-18609929D01*
X11553500Y-18595643D01*
X11539214Y-18567072D01*
X11524928Y-18509929D01*
X11524928Y-18438500D01*
X11539214Y-18381357D01*
X11553500Y-18352786D01*
X11567786Y-18338500D01*
X11596357Y-18324214D01*
X11882071Y-18324214D02*
X11910643Y-18324214D01*
X11939214Y-18338500D01*
X11953500Y-18352786D01*
X11967786Y-18381357D01*
X11982071Y-18438500D01*
X11982071Y-18509929D01*
X11967786Y-18567072D01*
X11953500Y-18595643D01*
X11939214Y-18609929D01*
X11910643Y-18624214D01*
X11882071Y-18624214D01*
X11853500Y-18609929D01*
X11839214Y-18595643D01*
X11824928Y-18567072D01*
X11810643Y-18509929D01*
X11810643Y-18438500D01*
X11824928Y-18381357D01*
X11839214Y-18352786D01*
X11853500Y-18338500D01*
X11882071Y-18324214D01*
X12110643Y-18624214D02*
X12110643Y-18424214D01*
X12110643Y-18452786D02*
X12124928Y-18438500D01*
X12153500Y-18424214D01*
X12196357Y-18424214D01*
X12224928Y-18438500D01*
X12239214Y-18467072D01*
X12239214Y-18624214D01*
X12239214Y-18467072D02*
X12253500Y-18438500D01*
X12282071Y-18424214D01*
X12324928Y-18424214D01*
X12353500Y-18438500D01*
X12367786Y-18467072D01*
X12367786Y-18624214D01*
X12510643Y-18624214D02*
X12510643Y-18424214D01*
X12510643Y-18452786D02*
X12524928Y-18438500D01*
X12553500Y-18424214D01*
X12596357Y-18424214D01*
X12624928Y-18438500D01*
X12639214Y-18467072D01*
X12639214Y-18624214D01*
X12639214Y-18467072D02*
X12653500Y-18438500D01*
X12682071Y-18424214D01*
X12724928Y-18424214D01*
X12753500Y-18438500D01*
X12767786Y-18467072D01*
X12767786Y-18624214D01*
X13353500Y-18309929D02*
X13096357Y-18695643D01*
X13739214Y-18324214D02*
X13767786Y-18324214D01*
X13796357Y-18338500D01*
X13810643Y-18352786D01*
X13824928Y-18381357D01*
X13839214Y-18438500D01*
X13839214Y-18509929D01*
X13824928Y-18567072D01*
X13810643Y-18595643D01*
X13796357Y-18609929D01*
X13767786Y-18624214D01*
X13739214Y-18624214D01*
X13710643Y-18609929D01*
X13696357Y-18595643D01*
X13682071Y-18567072D01*
X13667786Y-18509929D01*
X13667786Y-18438500D01*
X13682071Y-18381357D01*
X13696357Y-18352786D01*
X13710643Y-18338500D01*
X13739214Y-18324214D01*
X13967786Y-18595643D02*
X13982071Y-18609929D01*
X13967786Y-18624214D01*
X13953500Y-18609929D01*
X13967786Y-18595643D01*
X13967786Y-18624214D01*
X14267786Y-18624214D02*
X14096357Y-18624214D01*
X14182071Y-18624214D02*
X14182071Y-18324214D01*
X14153500Y-18367072D01*
X14124928Y-18395643D01*
X14096357Y-18409929D01*
X14382071Y-18352786D02*
X14396357Y-18338500D01*
X14424928Y-18324214D01*
X14496357Y-18324214D01*
X14524928Y-18338500D01*
X14539214Y-18352786D01*
X14553500Y-18381357D01*
X14553500Y-18409929D01*
X14539214Y-18452786D01*
X14367786Y-18624214D01*
X14553500Y-18624214D01*
X14810643Y-18324214D02*
X14753500Y-18324214D01*
X14724928Y-18338500D01*
X14710643Y-18352786D01*
X14682071Y-18395643D01*
X14667786Y-18452786D01*
X14667786Y-18567072D01*
X14682071Y-18595643D01*
X14696357Y-18609929D01*
X14724928Y-18624214D01*
X14782071Y-18624214D01*
X14810643Y-18609929D01*
X14824928Y-18595643D01*
X14839214Y-18567072D01*
X14839214Y-18495643D01*
X14824928Y-18467072D01*
X14810643Y-18452786D01*
X14782071Y-18438500D01*
X14724928Y-18438500D01*
X14696357Y-18452786D01*
X14682071Y-18467072D01*
X14667786Y-18495643D01*
X15024928Y-18324214D02*
X15053500Y-18324214D01*
X15082071Y-18338500D01*
X15096357Y-18352786D01*
X15110643Y-18381357D01*
X15124928Y-18438500D01*
X15124928Y-18509929D01*
X15110643Y-18567072D01*
X15096357Y-18595643D01*
X15082071Y-18609929D01*
X15053500Y-18624214D01*
X15024928Y-18624214D01*
X14996357Y-18609929D01*
X14982071Y-18595643D01*
X14967786Y-18567072D01*
X14953500Y-18509929D01*
X14953500Y-18438500D01*
X14967786Y-18381357D01*
X14982071Y-18352786D01*
X14996357Y-18338500D01*
X15024928Y-18324214D01*
X15239214Y-18324214D02*
X15239214Y-18381357D01*
X15353500Y-18324214D02*
X15353500Y-18381357D01*
X15796357Y-18738500D02*
X15782071Y-18724214D01*
X15753500Y-18681357D01*
X15739214Y-18652786D01*
X15724928Y-18609929D01*
X15710643Y-18538500D01*
X15710643Y-18481357D01*
X15724928Y-18409929D01*
X15739214Y-18367072D01*
X15753500Y-18338500D01*
X15782071Y-18295643D01*
X15796357Y-18281357D01*
X16039214Y-18424214D02*
X16039214Y-18624214D01*
X15967786Y-18309929D02*
X15896357Y-18524214D01*
X16082071Y-18524214D01*
X16424928Y-18624214D02*
X16424928Y-18324214D01*
X16553500Y-18624214D02*
X16553500Y-18467072D01*
X16539214Y-18438500D01*
X16510643Y-18424214D01*
X16467786Y-18424214D01*
X16439214Y-18438500D01*
X16424928Y-18452786D01*
X16739214Y-18624214D02*
X16710643Y-18609929D01*
X16696357Y-18595643D01*
X16682071Y-18567072D01*
X16682071Y-18481357D01*
X16696357Y-18452786D01*
X16710643Y-18438500D01*
X16739214Y-18424214D01*
X16782071Y-18424214D01*
X16810643Y-18438500D01*
X16824928Y-18452786D01*
X16839214Y-18481357D01*
X16839214Y-18567072D01*
X16824928Y-18595643D01*
X16810643Y-18609929D01*
X16782071Y-18624214D01*
X16739214Y-18624214D01*
X17010643Y-18624214D02*
X16982071Y-18609929D01*
X16967786Y-18581357D01*
X16967786Y-18324214D01*
X17239214Y-18609929D02*
X17210643Y-18624214D01*
X17153500Y-18624214D01*
X17124928Y-18609929D01*
X17110643Y-18581357D01*
X17110643Y-18467072D01*
X17124928Y-18438500D01*
X17153500Y-18424214D01*
X17210643Y-18424214D01*
X17239214Y-18438500D01*
X17253500Y-18467072D01*
X17253500Y-18495643D01*
X17110643Y-18524214D01*
X17367786Y-18609929D02*
X17396357Y-18624214D01*
X17453500Y-18624214D01*
X17482071Y-18609929D01*
X17496357Y-18581357D01*
X17496357Y-18567072D01*
X17482071Y-18538500D01*
X17453500Y-18524214D01*
X17410643Y-18524214D01*
X17382071Y-18509929D01*
X17367786Y-18481357D01*
X17367786Y-18467072D01*
X17382071Y-18438500D01*
X17410643Y-18424214D01*
X17453500Y-18424214D01*
X17482071Y-18438500D01*
X17596357Y-18738500D02*
X17610643Y-18724214D01*
X17639214Y-18681357D01*
X17653500Y-18652786D01*
X17667786Y-18609929D01*
X17682071Y-18538500D01*
X17682071Y-18481357D01*
X17667786Y-18409929D01*
X17653500Y-18367072D01*
X17639214Y-18338500D01*
X17610643Y-18295643D01*
X17596357Y-18281357D01*
X18139214Y-18738500D02*
X18124928Y-18724214D01*
X18096357Y-18681357D01*
X18082071Y-18652786D01*
X18067786Y-18609929D01*
X18053500Y-18538500D01*
X18053500Y-18481357D01*
X18067786Y-18409929D01*
X18082071Y-18367072D01*
X18096357Y-18338500D01*
X18124928Y-18295643D01*
X18139214Y-18281357D01*
X18253500Y-18424214D02*
X18253500Y-18624214D01*
X18253500Y-18452786D02*
X18267786Y-18438500D01*
X18296357Y-18424214D01*
X18339214Y-18424214D01*
X18367786Y-18438500D01*
X18382071Y-18467072D01*
X18382071Y-18624214D01*
X18567786Y-18624214D02*
X18539214Y-18609929D01*
X18524928Y-18595643D01*
X18510643Y-18567072D01*
X18510643Y-18481357D01*
X18524928Y-18452786D01*
X18539214Y-18438500D01*
X18567786Y-18424214D01*
X18610643Y-18424214D01*
X18639214Y-18438500D01*
X18653500Y-18452786D01*
X18667786Y-18481357D01*
X18667786Y-18567072D01*
X18653500Y-18595643D01*
X18639214Y-18609929D01*
X18610643Y-18624214D01*
X18567786Y-18624214D01*
X18753500Y-18424214D02*
X18867786Y-18424214D01*
X18796357Y-18324214D02*
X18796357Y-18581357D01*
X18810643Y-18609929D01*
X18839214Y-18624214D01*
X18867786Y-18624214D01*
X19196357Y-18424214D02*
X19196357Y-18724214D01*
X19196357Y-18438500D02*
X19224928Y-18424214D01*
X19282071Y-18424214D01*
X19310643Y-18438500D01*
X19324928Y-18452786D01*
X19339214Y-18481357D01*
X19339214Y-18567072D01*
X19324928Y-18595643D01*
X19310643Y-18609929D01*
X19282071Y-18624214D01*
X19224928Y-18624214D01*
X19196357Y-18609929D01*
X19510643Y-18624214D02*
X19482071Y-18609929D01*
X19467786Y-18581357D01*
X19467786Y-18324214D01*
X19753500Y-18624214D02*
X19753500Y-18467072D01*
X19739214Y-18438500D01*
X19710643Y-18424214D01*
X19653500Y-18424214D01*
X19624928Y-18438500D01*
X19753500Y-18609929D02*
X19724928Y-18624214D01*
X19653500Y-18624214D01*
X19624928Y-18609929D01*
X19610643Y-18581357D01*
X19610643Y-18552786D01*
X19624928Y-18524214D01*
X19653500Y-18509929D01*
X19724928Y-18509929D01*
X19753500Y-18495643D01*
X19853500Y-18424214D02*
X19967786Y-18424214D01*
X19896357Y-18324214D02*
X19896357Y-18581357D01*
X19910643Y-18609929D01*
X19939214Y-18624214D01*
X19967786Y-18624214D01*
X20182071Y-18609929D02*
X20153500Y-18624214D01*
X20096357Y-18624214D01*
X20067786Y-18609929D01*
X20053500Y-18581357D01*
X20053500Y-18467072D01*
X20067786Y-18438500D01*
X20096357Y-18424214D01*
X20153500Y-18424214D01*
X20182071Y-18438500D01*
X20196357Y-18467072D01*
X20196357Y-18495643D01*
X20053500Y-18524214D01*
X20453500Y-18624214D02*
X20453500Y-18324214D01*
X20453500Y-18609929D02*
X20424928Y-18624214D01*
X20367786Y-18624214D01*
X20339214Y-18609929D01*
X20324928Y-18595643D01*
X20310643Y-18567072D01*
X20310643Y-18481357D01*
X20324928Y-18452786D01*
X20339214Y-18438500D01*
X20367786Y-18424214D01*
X20424928Y-18424214D01*
X20453500Y-18438500D01*
X20567786Y-18738500D02*
X20582071Y-18724214D01*
X20610643Y-18681357D01*
X20624928Y-18652786D01*
X20639214Y-18609929D01*
X20653500Y-18538500D01*
X20653500Y-18481357D01*
X20639214Y-18409929D01*
X20624928Y-18367072D01*
X20610643Y-18338500D01*
X20582071Y-18295643D01*
X20567786Y-18281357D01*
M02*
