%TF.GenerationSoftware,KiCad,Pcbnew,5.1.10*%
%TF.CreationDate,2021-12-10T15:48:24+01:00*%
%TF.ProjectId,Voeding,566f6564-696e-4672-9e6b-696361645f70,rev?*%
%TF.SameCoordinates,Original*%
%TF.FileFunction,Copper,L2,Bot*%
%TF.FilePolarity,Positive*%
%FSLAX46Y46*%
G04 Gerber Fmt 4.6, Leading zero omitted, Abs format (unit mm)*
G04 Created by KiCad (PCBNEW 5.1.10) date 2021-12-10 15:48:24*
%MOMM*%
%LPD*%
G01*
G04 APERTURE LIST*
%TA.AperFunction,ComponentPad*%
%ADD10C,2.000000*%
%TD*%
%TA.AperFunction,ComponentPad*%
%ADD11R,2.000000X2.000000*%
%TD*%
%TA.AperFunction,ComponentPad*%
%ADD12O,1.600000X1.600000*%
%TD*%
%TA.AperFunction,ComponentPad*%
%ADD13R,1.600000X1.600000*%
%TD*%
%TA.AperFunction,ComponentPad*%
%ADD14O,1.700000X1.700000*%
%TD*%
%TA.AperFunction,ComponentPad*%
%ADD15R,1.700000X1.700000*%
%TD*%
%TA.AperFunction,ComponentPad*%
%ADD16C,4.000000*%
%TD*%
%TA.AperFunction,ComponentPad*%
%ADD17C,1.600000*%
%TD*%
%TA.AperFunction,ViaPad*%
%ADD18C,0.800000*%
%TD*%
%TA.AperFunction,Conductor*%
%ADD19C,0.250000*%
%TD*%
%TA.AperFunction,Conductor*%
%ADD20C,1.000000*%
%TD*%
%TA.AperFunction,Conductor*%
%ADD21C,0.500000*%
%TD*%
%TA.AperFunction,Conductor*%
%ADD22C,0.254000*%
%TD*%
%TA.AperFunction,Conductor*%
%ADD23C,0.150000*%
%TD*%
G04 APERTURE END LIST*
D10*
%TO.P,C2,2*%
%TO.N,GND*%
X110277920Y-64455040D03*
D11*
%TO.P,C2,1*%
%TO.N,VDC*%
X105277920Y-64455040D03*
%TD*%
D12*
%TO.P,U12,4*%
%TO.N,~3.3V_ISO_OV*%
X125310000Y-66900000D03*
%TO.P,U12,2*%
%TO.N,Earth*%
X122770000Y-59280000D03*
%TO.P,U12,3*%
%TO.N,GND*%
X122770000Y-66900000D03*
D13*
%TO.P,U12,1*%
%TO.N,Net-(R18-Pad1)*%
X125310000Y-59280000D03*
%TD*%
D12*
%TO.P,U11,4*%
%TO.N,+3.3V_ISO_UV*%
X131823000Y-66980001D03*
%TO.P,U11,2*%
%TO.N,Earth*%
X129283000Y-59360001D03*
%TO.P,U11,3*%
%TO.N,GND*%
X129283000Y-66980001D03*
D13*
%TO.P,U11,1*%
%TO.N,Net-(R16-Pad1)*%
X131823000Y-59360001D03*
%TD*%
D12*
%TO.P,U10,4*%
%TO.N,+3.3V_ISO_present*%
X138446000Y-67020000D03*
%TO.P,U10,2*%
%TO.N,Earth*%
X135906000Y-59400000D03*
%TO.P,U10,3*%
%TO.N,GND*%
X135906000Y-67020000D03*
D13*
%TO.P,U10,1*%
%TO.N,Net-(R13-Pad2)*%
X138446000Y-59400000D03*
%TD*%
%TO.P,R18,2*%
%TO.N,3.9OVLO*%
%TA.AperFunction,SMDPad,CuDef*%
G36*
G01*
X125547500Y-56017500D02*
X125072500Y-56017500D01*
G75*
G02*
X124835000Y-55780000I0J237500D01*
G01*
X124835000Y-55280000D01*
G75*
G02*
X125072500Y-55042500I237500J0D01*
G01*
X125547500Y-55042500D01*
G75*
G02*
X125785000Y-55280000I0J-237500D01*
G01*
X125785000Y-55780000D01*
G75*
G02*
X125547500Y-56017500I-237500J0D01*
G01*
G37*
%TD.AperFunction*%
%TO.P,R18,1*%
%TO.N,Net-(R18-Pad1)*%
%TA.AperFunction,SMDPad,CuDef*%
G36*
G01*
X125547500Y-57842500D02*
X125072500Y-57842500D01*
G75*
G02*
X124835000Y-57605000I0J237500D01*
G01*
X124835000Y-57105000D01*
G75*
G02*
X125072500Y-56867500I237500J0D01*
G01*
X125547500Y-56867500D01*
G75*
G02*
X125785000Y-57105000I0J-237500D01*
G01*
X125785000Y-57605000D01*
G75*
G02*
X125547500Y-57842500I-237500J0D01*
G01*
G37*
%TD.AperFunction*%
%TD*%
%TO.P,R16,2*%
%TO.N,3.3UVLO*%
%TA.AperFunction,SMDPad,CuDef*%
G36*
G01*
X131927500Y-56015000D02*
X131452500Y-56015000D01*
G75*
G02*
X131215000Y-55777500I0J237500D01*
G01*
X131215000Y-55277500D01*
G75*
G02*
X131452500Y-55040000I237500J0D01*
G01*
X131927500Y-55040000D01*
G75*
G02*
X132165000Y-55277500I0J-237500D01*
G01*
X132165000Y-55777500D01*
G75*
G02*
X131927500Y-56015000I-237500J0D01*
G01*
G37*
%TD.AperFunction*%
%TO.P,R16,1*%
%TO.N,Net-(R16-Pad1)*%
%TA.AperFunction,SMDPad,CuDef*%
G36*
G01*
X131927500Y-57840000D02*
X131452500Y-57840000D01*
G75*
G02*
X131215000Y-57602500I0J237500D01*
G01*
X131215000Y-57102500D01*
G75*
G02*
X131452500Y-56865000I237500J0D01*
G01*
X131927500Y-56865000D01*
G75*
G02*
X132165000Y-57102500I0J-237500D01*
G01*
X132165000Y-57602500D01*
G75*
G02*
X131927500Y-57840000I-237500J0D01*
G01*
G37*
%TD.AperFunction*%
%TD*%
%TO.P,R13,2*%
%TO.N,Net-(R13-Pad2)*%
%TA.AperFunction,SMDPad,CuDef*%
G36*
G01*
X138187500Y-56937500D02*
X138662500Y-56937500D01*
G75*
G02*
X138900000Y-57175000I0J-237500D01*
G01*
X138900000Y-57675000D01*
G75*
G02*
X138662500Y-57912500I-237500J0D01*
G01*
X138187500Y-57912500D01*
G75*
G02*
X137950000Y-57675000I0J237500D01*
G01*
X137950000Y-57175000D01*
G75*
G02*
X138187500Y-56937500I237500J0D01*
G01*
G37*
%TD.AperFunction*%
%TO.P,R13,1*%
%TO.N,+3.3VP*%
%TA.AperFunction,SMDPad,CuDef*%
G36*
G01*
X138187500Y-55112500D02*
X138662500Y-55112500D01*
G75*
G02*
X138900000Y-55350000I0J-237500D01*
G01*
X138900000Y-55850000D01*
G75*
G02*
X138662500Y-56087500I-237500J0D01*
G01*
X138187500Y-56087500D01*
G75*
G02*
X137950000Y-55850000I0J237500D01*
G01*
X137950000Y-55350000D01*
G75*
G02*
X138187500Y-55112500I237500J0D01*
G01*
G37*
%TD.AperFunction*%
%TD*%
%TO.P,R6,2*%
%TO.N,GND*%
%TA.AperFunction,SMDPad,CuDef*%
G36*
G01*
X91826280Y-74919560D02*
X92301280Y-74919560D01*
G75*
G02*
X92538780Y-75157060I0J-237500D01*
G01*
X92538780Y-75657060D01*
G75*
G02*
X92301280Y-75894560I-237500J0D01*
G01*
X91826280Y-75894560D01*
G75*
G02*
X91588780Y-75657060I0J237500D01*
G01*
X91588780Y-75157060D01*
G75*
G02*
X91826280Y-74919560I237500J0D01*
G01*
G37*
%TD.AperFunction*%
%TO.P,R6,1*%
%TO.N,V_FB*%
%TA.AperFunction,SMDPad,CuDef*%
G36*
G01*
X91826280Y-73094560D02*
X92301280Y-73094560D01*
G75*
G02*
X92538780Y-73332060I0J-237500D01*
G01*
X92538780Y-73832060D01*
G75*
G02*
X92301280Y-74069560I-237500J0D01*
G01*
X91826280Y-74069560D01*
G75*
G02*
X91588780Y-73832060I0J237500D01*
G01*
X91588780Y-73332060D01*
G75*
G02*
X91826280Y-73094560I237500J0D01*
G01*
G37*
%TD.AperFunction*%
%TD*%
%TO.P,R5,2*%
%TO.N,V_FB*%
%TA.AperFunction,SMDPad,CuDef*%
G36*
G01*
X91771460Y-71548180D02*
X92246460Y-71548180D01*
G75*
G02*
X92483960Y-71785680I0J-237500D01*
G01*
X92483960Y-72285680D01*
G75*
G02*
X92246460Y-72523180I-237500J0D01*
G01*
X91771460Y-72523180D01*
G75*
G02*
X91533960Y-72285680I0J237500D01*
G01*
X91533960Y-71785680D01*
G75*
G02*
X91771460Y-71548180I237500J0D01*
G01*
G37*
%TD.AperFunction*%
%TO.P,R5,1*%
%TO.N,+3V3*%
%TA.AperFunction,SMDPad,CuDef*%
G36*
G01*
X91771460Y-69723180D02*
X92246460Y-69723180D01*
G75*
G02*
X92483960Y-69960680I0J-237500D01*
G01*
X92483960Y-70460680D01*
G75*
G02*
X92246460Y-70698180I-237500J0D01*
G01*
X91771460Y-70698180D01*
G75*
G02*
X91533960Y-70460680I0J237500D01*
G01*
X91533960Y-69960680D01*
G75*
G02*
X91771460Y-69723180I237500J0D01*
G01*
G37*
%TD.AperFunction*%
%TD*%
D14*
%TO.P,J8,3*%
%TO.N,+3.3V_ISO_present*%
X143010000Y-67020000D03*
%TO.P,J8,2*%
%TO.N,+3.3V_ISO_UV*%
X143010000Y-69560000D03*
D15*
%TO.P,J8,1*%
%TO.N,~3.3V_ISO_OV*%
X143010000Y-72100000D03*
%TD*%
%TO.P,J7,1*%
%TO.N,3.3UVLO_m*%
X125704600Y-71516240D03*
%TD*%
D16*
%TO.P,J6,1*%
%TO.N,GND*%
X84780120Y-73466960D03*
%TD*%
%TO.P,J5,1*%
%TO.N,+3.3VA*%
X143103600Y-78313280D03*
%TD*%
%TO.P,J4,1*%
%TO.N,+3.3VP*%
X143484600Y-48374300D03*
%TD*%
%TO.P,J3,1*%
%TO.N,Net-(J3-Pad1)*%
X143484600Y-55905400D03*
%TD*%
%TO.P,J2,1*%
%TO.N,GND*%
X143159480Y-86141560D03*
%TD*%
%TO.P,J1,1*%
%TO.N,Net-(D6-Pad2)*%
X84729320Y-65130680D03*
%TD*%
D17*
%TO.P,C8,2*%
%TO.N,GND*%
X97942400Y-57999000D03*
D13*
%TO.P,C8,1*%
%TO.N,Net-(C8-Pad1)*%
X97942400Y-55499000D03*
%TD*%
D10*
%TO.P,C3,2*%
%TO.N,GND*%
X119593360Y-69865240D03*
D11*
%TO.P,C3,1*%
%TO.N,+3V3*%
X114593360Y-69865240D03*
%TD*%
D18*
%TO.N,GND*%
X99959160Y-80205580D03*
X98846640Y-79054960D03*
X103520240Y-79105760D03*
X103489760Y-80197960D03*
X102265480Y-80137000D03*
X101137720Y-80197960D03*
X102184200Y-79054960D03*
X101061520Y-79054960D03*
X99933760Y-79070200D03*
X98856800Y-80228440D03*
X97759520Y-80197960D03*
X97774760Y-79054960D03*
X96713040Y-80137000D03*
X96667320Y-79039720D03*
X95585280Y-79024480D03*
X95585280Y-80101440D03*
X94427040Y-78978760D03*
X94477840Y-80101440D03*
X96890840Y-73599040D03*
X98064320Y-73644760D03*
X99364800Y-73741280D03*
X100807520Y-73720960D03*
X102219760Y-73675240D03*
X103510080Y-73675240D03*
X94604840Y-72577960D03*
X95676720Y-72603360D03*
X96829880Y-72577960D03*
X98079560Y-72567800D03*
X99349560Y-72583040D03*
X100807520Y-72547480D03*
X102189280Y-72583040D03*
X103474520Y-72644000D03*
X94620080Y-73578720D03*
X95666560Y-73599040D03*
X123220480Y-78729840D03*
X123108720Y-79852520D03*
X123083320Y-77500480D03*
X117962680Y-77581760D03*
X117937280Y-79039720D03*
X118003320Y-80314800D03*
X118049040Y-81544160D03*
X123017280Y-80970120D03*
X133131560Y-74625200D03*
X134484561Y-70680000D03*
X92811600Y-48417480D03*
X92796360Y-47482760D03*
X91805760Y-47447200D03*
X92811600Y-46471840D03*
X136070782Y-79756000D03*
%TO.N,+3.3VP*%
X139750000Y-52190000D03*
%TO.N,V_FB*%
X100695760Y-82245200D03*
%TO.N,3.3UVLO_m*%
X128847653Y-76917653D03*
%TO.N,UVL_OVL_3.3_m_MOSF*%
X138100000Y-76550000D03*
X128700000Y-77970000D03*
%TO.N,Net-(R10-Pad2)*%
X134610000Y-77715000D03*
X137150000Y-81550000D03*
%TO.N,3.3UVLO*%
X136200000Y-49400000D03*
%TO.N,3.9OVLO*%
X134950000Y-45350000D03*
%TO.N,+3V3*%
X113248620Y-77002820D03*
%TD*%
D19*
%TO.N,GND*%
X134484561Y-70680000D02*
X134548641Y-70744080D01*
X134548641Y-70744080D02*
X145313400Y-70744080D01*
X135906000Y-67020000D02*
X135906000Y-67879720D01*
X135906000Y-67879720D02*
X136433560Y-68407280D01*
X141011720Y-68407280D02*
X141164120Y-68254880D01*
X136433560Y-68407280D02*
X141011720Y-68407280D01*
X141164120Y-68254880D02*
X146024600Y-68254880D01*
X136433560Y-68407280D02*
X135341360Y-68407280D01*
D20*
%TO.N,+3.3VP*%
X138425000Y-55600000D02*
X138425000Y-55125000D01*
X139687500Y-53862500D02*
X139687500Y-49962500D01*
X138425000Y-55125000D02*
X139687500Y-53862500D01*
X139687500Y-49962500D02*
X143400000Y-46250000D01*
D19*
%TO.N,V_FB*%
X92008960Y-73527240D02*
X92063780Y-73582060D01*
X92008960Y-72035680D02*
X92008960Y-73527240D01*
X93301641Y-73328361D02*
X93301641Y-73850321D01*
X92008960Y-72035680D02*
X93301641Y-73328361D01*
X100797360Y-82143600D02*
X100695760Y-82245200D01*
X100797360Y-82138520D02*
X100797360Y-82143600D01*
X94180660Y-74729340D02*
X94180660Y-76438760D01*
X93301641Y-73850321D02*
X94180660Y-74729340D01*
X94180660Y-76438760D02*
X92763340Y-77856080D01*
X92763340Y-77856080D02*
X92763340Y-80995520D01*
X94013020Y-82245200D02*
X100695760Y-82245200D01*
X92763340Y-80995520D02*
X94013020Y-82245200D01*
D21*
%TO.N,3.3UVLO_m*%
X125710000Y-73780000D02*
X128847653Y-76917653D01*
X125710000Y-71760000D02*
X125710000Y-73780000D01*
D20*
%TO.N,~3.3V_ISO_OV*%
X130510000Y-72100000D02*
X143010000Y-72100000D01*
X125310000Y-66900000D02*
X130510000Y-72100000D01*
%TO.N,+3.3V_ISO_UV*%
X136225998Y-69560000D02*
X136205998Y-69580000D01*
X143010000Y-69560000D02*
X136225998Y-69560000D01*
X134422999Y-69580000D02*
X131823000Y-66980001D01*
X136205998Y-69580000D02*
X134422999Y-69580000D01*
D21*
%TO.N,UVL_OVL_3.3_m_MOSF*%
X138100000Y-76550000D02*
X134270000Y-76550000D01*
X134270000Y-76550000D02*
X134260000Y-76560000D01*
X128700000Y-77970000D02*
X129890000Y-77970000D01*
X130915000Y-76915000D02*
X131270000Y-76560000D01*
X134260000Y-76560000D02*
X131270000Y-76560000D01*
X130915000Y-76945000D02*
X130915000Y-76915000D01*
X129890000Y-77970000D02*
X130915000Y-76945000D01*
%TO.N,Net-(R10-Pad2)*%
X134094880Y-78230120D02*
X134610000Y-77715000D01*
X137150000Y-81550000D02*
X136271760Y-81550000D01*
X136271760Y-81550000D02*
X134094880Y-79373120D01*
X134094880Y-79373120D02*
X134094880Y-78230120D01*
D20*
%TO.N,Net-(R13-Pad2)*%
X138425000Y-59379000D02*
X138446000Y-59400000D01*
X138425000Y-57425000D02*
X138425000Y-59379000D01*
%TO.N,3.3UVLO*%
X131690000Y-53910000D02*
X136200000Y-49400000D01*
X131690000Y-55527500D02*
X131690000Y-53910000D01*
%TO.N,3.9OVLO*%
X125310000Y-54990000D02*
X134950000Y-45350000D01*
X125310000Y-55530000D02*
X125310000Y-54990000D01*
%TO.N,Net-(R16-Pad1)*%
X131690000Y-59227001D02*
X131823000Y-59360001D01*
X131690000Y-57352500D02*
X131690000Y-59227001D01*
%TO.N,Net-(R18-Pad1)*%
X125310000Y-57355000D02*
X125310000Y-59280000D01*
D19*
%TO.N,+3V3*%
X109961680Y-74848720D02*
X111617760Y-76504800D01*
X107929680Y-70210680D02*
X92008960Y-70210680D01*
X109509560Y-71790560D02*
X109509560Y-71795640D01*
X109509560Y-71795640D02*
X109961680Y-72247760D01*
X109961680Y-72247760D02*
X109961680Y-74848720D01*
X109509560Y-71790560D02*
X107929680Y-70210680D01*
X112750600Y-76504800D02*
X113248620Y-77002820D01*
X111617760Y-76504800D02*
X112750600Y-76504800D01*
%TD*%
D22*
%TO.N,GND*%
X101071693Y-56989289D02*
X101074494Y-57014027D01*
X101082067Y-57037744D01*
X101094122Y-57059527D01*
X101110194Y-57078540D01*
X101129667Y-57094053D01*
X101151792Y-57105468D01*
X101175719Y-57112347D01*
X101197887Y-57114438D01*
X111650696Y-57179737D01*
X112181880Y-65803967D01*
X112185839Y-65828547D01*
X112194517Y-65851882D01*
X112207581Y-65873076D01*
X112224528Y-65891313D01*
X112244708Y-65905894D01*
X112267344Y-65916259D01*
X112291568Y-65922007D01*
X112308088Y-65923159D01*
X121691006Y-65963937D01*
X121617615Y-66044869D01*
X121472930Y-66286119D01*
X121378091Y-66550960D01*
X121499376Y-66773000D01*
X122643000Y-66773000D01*
X122643000Y-66753000D01*
X122897000Y-66753000D01*
X122897000Y-66773000D01*
X122917000Y-66773000D01*
X122917000Y-67027000D01*
X122897000Y-67027000D01*
X122897000Y-68169915D01*
X123119039Y-68291904D01*
X123253087Y-68251246D01*
X123507420Y-68131037D01*
X123733414Y-67963519D01*
X123922385Y-67755131D01*
X124033933Y-67569135D01*
X124038320Y-67579727D01*
X124195363Y-67814759D01*
X124395241Y-68014637D01*
X124630273Y-68171680D01*
X124891426Y-68279853D01*
X125132718Y-68327850D01*
X129668013Y-72863146D01*
X129703551Y-72906449D01*
X129746854Y-72941987D01*
X129746856Y-72941989D01*
X129876377Y-73048284D01*
X130073553Y-73153676D01*
X130287501Y-73218577D01*
X130510000Y-73240491D01*
X130565752Y-73235000D01*
X141592317Y-73235000D01*
X141629463Y-73304494D01*
X141708815Y-73401185D01*
X141805506Y-73480537D01*
X141915820Y-73539502D01*
X142035518Y-73575812D01*
X142160000Y-73588072D01*
X143860000Y-73588072D01*
X143984482Y-73575812D01*
X144104180Y-73539502D01*
X144214494Y-73480537D01*
X144311185Y-73401185D01*
X144390537Y-73304494D01*
X144449502Y-73194180D01*
X144485812Y-73074482D01*
X144498072Y-72950000D01*
X144498072Y-71250000D01*
X144485812Y-71125518D01*
X144449502Y-71005820D01*
X144390537Y-70895506D01*
X144311185Y-70798815D01*
X144214494Y-70719463D01*
X144104180Y-70660498D01*
X144031620Y-70638487D01*
X144163475Y-70506632D01*
X144325990Y-70263411D01*
X144437932Y-69993158D01*
X144495000Y-69706260D01*
X144495000Y-69413740D01*
X144437932Y-69126842D01*
X144325990Y-68856589D01*
X144163475Y-68613368D01*
X143956632Y-68406525D01*
X143782240Y-68290000D01*
X143956632Y-68173475D01*
X144163475Y-67966632D01*
X144325990Y-67723411D01*
X144437932Y-67453158D01*
X144495000Y-67166260D01*
X144495000Y-66873740D01*
X144437932Y-66586842D01*
X144325990Y-66316589D01*
X144163475Y-66073368D01*
X144151658Y-66061551D01*
X147654814Y-66076775D01*
X147625926Y-92354345D01*
X82798520Y-92309536D01*
X82798520Y-90255816D01*
X82799604Y-89213272D01*
X83439200Y-89213272D01*
X83439200Y-89653528D01*
X83525090Y-90085325D01*
X83693569Y-90492069D01*
X83938162Y-90858129D01*
X84249471Y-91169438D01*
X84615531Y-91414031D01*
X85022275Y-91582510D01*
X85454072Y-91668400D01*
X85894328Y-91668400D01*
X86326125Y-91582510D01*
X86732869Y-91414031D01*
X87098929Y-91169438D01*
X87410238Y-90858129D01*
X87654831Y-90492069D01*
X87823310Y-90085325D01*
X87909200Y-89653528D01*
X87909200Y-89213272D01*
X87825836Y-88794172D01*
X133769300Y-88794172D01*
X133769300Y-89234428D01*
X133855190Y-89666225D01*
X134023669Y-90072969D01*
X134268262Y-90439029D01*
X134579571Y-90750338D01*
X134945631Y-90994931D01*
X135352375Y-91163410D01*
X135784172Y-91249300D01*
X136224428Y-91249300D01*
X136656225Y-91163410D01*
X137062969Y-90994931D01*
X137429029Y-90750338D01*
X137740338Y-90439029D01*
X137984931Y-90072969D01*
X138153410Y-89666225D01*
X138239300Y-89234428D01*
X138239300Y-88794172D01*
X138153410Y-88362375D01*
X137998778Y-87989059D01*
X141491586Y-87989059D01*
X141707708Y-88355818D01*
X142167585Y-88596498D01*
X142665578Y-88742835D01*
X143182551Y-88789208D01*
X143698639Y-88733833D01*
X144194006Y-88578839D01*
X144611252Y-88355818D01*
X144827374Y-87989059D01*
X143159480Y-86321165D01*
X141491586Y-87989059D01*
X137998778Y-87989059D01*
X137984931Y-87955631D01*
X137740338Y-87589571D01*
X137429029Y-87278262D01*
X137062969Y-87033669D01*
X136656225Y-86865190D01*
X136224428Y-86779300D01*
X135784172Y-86779300D01*
X135352375Y-86865190D01*
X134945631Y-87033669D01*
X134579571Y-87278262D01*
X134268262Y-87589571D01*
X134023669Y-87955631D01*
X133855190Y-88362375D01*
X133769300Y-88794172D01*
X87825836Y-88794172D01*
X87823310Y-88781475D01*
X87654831Y-88374731D01*
X87410238Y-88008671D01*
X87098929Y-87697362D01*
X86732869Y-87452769D01*
X86326125Y-87284290D01*
X85894328Y-87198400D01*
X85454072Y-87198400D01*
X85022275Y-87284290D01*
X84615531Y-87452769D01*
X84249471Y-87697362D01*
X83938162Y-88008671D01*
X83693569Y-88374731D01*
X83525090Y-88781475D01*
X83439200Y-89213272D01*
X82799604Y-89213272D01*
X82802775Y-86164631D01*
X140511832Y-86164631D01*
X140567207Y-86680719D01*
X140722201Y-87176086D01*
X140945222Y-87593332D01*
X141311981Y-87809454D01*
X142979875Y-86141560D01*
X143339085Y-86141560D01*
X145006979Y-87809454D01*
X145373738Y-87593332D01*
X145614418Y-87133455D01*
X145760755Y-86635462D01*
X145807128Y-86118489D01*
X145751753Y-85602401D01*
X145596759Y-85107034D01*
X145373738Y-84689788D01*
X145006979Y-84473666D01*
X143339085Y-86141560D01*
X142979875Y-86141560D01*
X141311981Y-84473666D01*
X140945222Y-84689788D01*
X140704542Y-85149665D01*
X140558205Y-85647658D01*
X140511832Y-86164631D01*
X82802775Y-86164631D01*
X82804720Y-84294061D01*
X141491586Y-84294061D01*
X143159480Y-85961955D01*
X144827374Y-84294061D01*
X144611252Y-83927302D01*
X144151375Y-83686622D01*
X143653382Y-83540285D01*
X143136409Y-83493912D01*
X142620321Y-83549287D01*
X142124954Y-83704281D01*
X141707708Y-83927302D01*
X141491586Y-84294061D01*
X82804720Y-84294061D01*
X82814061Y-75314459D01*
X83112226Y-75314459D01*
X83328348Y-75681218D01*
X83788225Y-75921898D01*
X84286218Y-76068235D01*
X84803191Y-76114608D01*
X85319279Y-76059233D01*
X85814646Y-75904239D01*
X85832754Y-75894560D01*
X90950708Y-75894560D01*
X90962968Y-76019042D01*
X90999278Y-76138740D01*
X91058243Y-76249054D01*
X91137595Y-76345745D01*
X91234286Y-76425097D01*
X91344600Y-76484062D01*
X91464298Y-76520372D01*
X91588780Y-76532632D01*
X91778030Y-76529560D01*
X91936780Y-76370810D01*
X91936780Y-75534060D01*
X92190780Y-75534060D01*
X92190780Y-76370810D01*
X92349530Y-76529560D01*
X92538780Y-76532632D01*
X92663262Y-76520372D01*
X92782960Y-76484062D01*
X92893274Y-76425097D01*
X92989965Y-76345745D01*
X93069317Y-76249054D01*
X93128282Y-76138740D01*
X93164592Y-76019042D01*
X93176852Y-75894560D01*
X93173780Y-75692810D01*
X93015030Y-75534060D01*
X92190780Y-75534060D01*
X91936780Y-75534060D01*
X91112530Y-75534060D01*
X90953780Y-75692810D01*
X90950708Y-75894560D01*
X85832754Y-75894560D01*
X86231892Y-75681218D01*
X86448014Y-75314459D01*
X84780120Y-73646565D01*
X83112226Y-75314459D01*
X82814061Y-75314459D01*
X82814321Y-75065143D01*
X82932621Y-75134854D01*
X84600515Y-73466960D01*
X84959725Y-73466960D01*
X86627619Y-75134854D01*
X86994378Y-74918732D01*
X87235058Y-74458855D01*
X87381395Y-73960862D01*
X87427768Y-73443889D01*
X87372393Y-72927801D01*
X87217399Y-72432434D01*
X86994378Y-72015188D01*
X86627619Y-71799066D01*
X84959725Y-73466960D01*
X84600515Y-73466960D01*
X82932621Y-71799066D01*
X82817648Y-71866817D01*
X82817905Y-71619461D01*
X83112226Y-71619461D01*
X84780120Y-73287355D01*
X86448014Y-71619461D01*
X86231892Y-71252702D01*
X85772015Y-71012022D01*
X85274022Y-70865685D01*
X84757049Y-70819312D01*
X84240961Y-70874687D01*
X83745594Y-71029681D01*
X83328348Y-71252702D01*
X83112226Y-71619461D01*
X82817905Y-71619461D01*
X82819630Y-69960680D01*
X90895888Y-69960680D01*
X90895888Y-70460680D01*
X90912712Y-70631496D01*
X90962537Y-70795747D01*
X91043448Y-70947122D01*
X91152337Y-71079803D01*
X91205192Y-71123180D01*
X91152337Y-71166557D01*
X91043448Y-71299238D01*
X90962537Y-71450613D01*
X90912712Y-71614864D01*
X90895888Y-71785680D01*
X90895888Y-72285680D01*
X90912712Y-72456496D01*
X90962537Y-72620747D01*
X91043448Y-72772122D01*
X91101016Y-72842269D01*
X91098268Y-72845618D01*
X91017357Y-72996993D01*
X90967532Y-73161244D01*
X90950708Y-73332060D01*
X90950708Y-73832060D01*
X90967532Y-74002876D01*
X91017357Y-74167127D01*
X91098268Y-74318502D01*
X91187592Y-74427343D01*
X91137595Y-74468375D01*
X91058243Y-74565066D01*
X90999278Y-74675380D01*
X90962968Y-74795078D01*
X90950708Y-74919560D01*
X90953780Y-75121310D01*
X91112530Y-75280060D01*
X91936780Y-75280060D01*
X91936780Y-75260060D01*
X92190780Y-75260060D01*
X92190780Y-75280060D01*
X93015030Y-75280060D01*
X93173780Y-75121310D01*
X93176852Y-74919560D01*
X93164592Y-74795078D01*
X93161542Y-74785023D01*
X93420660Y-75044142D01*
X93420661Y-76123957D01*
X92252343Y-77292276D01*
X92223339Y-77316079D01*
X92177784Y-77371589D01*
X92128366Y-77431804D01*
X92095615Y-77493076D01*
X92057794Y-77563834D01*
X92014337Y-77707095D01*
X92003340Y-77818748D01*
X92003340Y-77818758D01*
X91999664Y-77856080D01*
X92003340Y-77893403D01*
X92003341Y-80958188D01*
X91999664Y-80995520D01*
X92014338Y-81144505D01*
X92057794Y-81287766D01*
X92128366Y-81419796D01*
X92197099Y-81503546D01*
X92223340Y-81535521D01*
X92252338Y-81559319D01*
X93449225Y-82756208D01*
X93473019Y-82785201D01*
X93502012Y-82808995D01*
X93502016Y-82808999D01*
X93550936Y-82849146D01*
X93588744Y-82880174D01*
X93720773Y-82950746D01*
X93864034Y-82994203D01*
X93975687Y-83005200D01*
X93975696Y-83005200D01*
X94013019Y-83008876D01*
X94050342Y-83005200D01*
X99992049Y-83005200D01*
X100035986Y-83049137D01*
X100205504Y-83162405D01*
X100393862Y-83240426D01*
X100593821Y-83280200D01*
X100797699Y-83280200D01*
X100997658Y-83240426D01*
X101186016Y-83162405D01*
X101355534Y-83049137D01*
X101499697Y-82904974D01*
X101612965Y-82735456D01*
X101690986Y-82547098D01*
X101730760Y-82347139D01*
X101730760Y-82143261D01*
X101690986Y-81943302D01*
X101612965Y-81754944D01*
X101499697Y-81585426D01*
X101355534Y-81441263D01*
X101186016Y-81327995D01*
X100997658Y-81249974D01*
X100797699Y-81210200D01*
X100593821Y-81210200D01*
X100393862Y-81249974D01*
X100205504Y-81327995D01*
X100035986Y-81441263D01*
X99992049Y-81485200D01*
X94327823Y-81485200D01*
X93523340Y-80680719D01*
X93523340Y-78170881D01*
X94691663Y-77002559D01*
X94720661Y-76978761D01*
X94815634Y-76863036D01*
X94886206Y-76731007D01*
X94929663Y-76587746D01*
X94940660Y-76476093D01*
X94940660Y-76476084D01*
X94944336Y-76438761D01*
X94940660Y-76401438D01*
X94940660Y-74766673D01*
X94944337Y-74729340D01*
X94929663Y-74580354D01*
X94886206Y-74437093D01*
X94815634Y-74305064D01*
X94744459Y-74218337D01*
X94720661Y-74189339D01*
X94691664Y-74165542D01*
X94061641Y-73535520D01*
X94061641Y-73365683D01*
X94065317Y-73328360D01*
X94061641Y-73291038D01*
X94061641Y-73291028D01*
X94050644Y-73179375D01*
X94007187Y-73036114D01*
X93983635Y-72992052D01*
X93936615Y-72904084D01*
X93865440Y-72817358D01*
X93841642Y-72788360D01*
X93812645Y-72764563D01*
X93122032Y-72073951D01*
X93122032Y-71785680D01*
X93105208Y-71614864D01*
X93055383Y-71450613D01*
X92974472Y-71299238D01*
X92865583Y-71166557D01*
X92812728Y-71123180D01*
X92865583Y-71079803D01*
X92955138Y-70970680D01*
X107614879Y-70970680D01*
X108922512Y-72278314D01*
X108969559Y-72335641D01*
X108998562Y-72359443D01*
X109201680Y-72562561D01*
X109201681Y-74811388D01*
X109198004Y-74848720D01*
X109212678Y-74997705D01*
X109256134Y-75140966D01*
X109326706Y-75272996D01*
X109397881Y-75359722D01*
X109421680Y-75388721D01*
X109450678Y-75412519D01*
X111053960Y-77015802D01*
X111077759Y-77044801D01*
X111193484Y-77139774D01*
X111325513Y-77210346D01*
X111468774Y-77253803D01*
X111580427Y-77264800D01*
X111580435Y-77264800D01*
X111617760Y-77268476D01*
X111655085Y-77264800D01*
X112245454Y-77264800D01*
X112253394Y-77304718D01*
X112331415Y-77493076D01*
X112444683Y-77662594D01*
X112588846Y-77806757D01*
X112758364Y-77920025D01*
X112946722Y-77998046D01*
X113146681Y-78037820D01*
X113350559Y-78037820D01*
X113550518Y-77998046D01*
X113738876Y-77920025D01*
X113908394Y-77806757D01*
X114052557Y-77662594D01*
X114165825Y-77493076D01*
X114243846Y-77304718D01*
X114283620Y-77104759D01*
X114283620Y-76900881D01*
X114243846Y-76700922D01*
X114165825Y-76512564D01*
X114052557Y-76343046D01*
X113908394Y-76198883D01*
X113738876Y-76085615D01*
X113550518Y-76007594D01*
X113350559Y-75967820D01*
X113293080Y-75967820D01*
X113290601Y-75964799D01*
X113174876Y-75869826D01*
X113042847Y-75799254D01*
X112899586Y-75755797D01*
X112787933Y-75744800D01*
X112787922Y-75744800D01*
X112750600Y-75741124D01*
X112713278Y-75744800D01*
X111932562Y-75744800D01*
X110721680Y-74533919D01*
X110721680Y-72285082D01*
X110725356Y-72247759D01*
X110721680Y-72210436D01*
X110721680Y-72210427D01*
X110710683Y-72098774D01*
X110667226Y-71955513D01*
X110596654Y-71823484D01*
X110501681Y-71707759D01*
X110472678Y-71683957D01*
X110096613Y-71307892D01*
X110049561Y-71250559D01*
X110020564Y-71226762D01*
X108493484Y-69699683D01*
X108469681Y-69670679D01*
X108353956Y-69575706D01*
X108221927Y-69505134D01*
X108078666Y-69461677D01*
X107967013Y-69450680D01*
X107967002Y-69450680D01*
X107929680Y-69447004D01*
X107892358Y-69450680D01*
X92955138Y-69450680D01*
X92865583Y-69341557D01*
X92732902Y-69232668D01*
X92581527Y-69151757D01*
X92417276Y-69101932D01*
X92246460Y-69085108D01*
X91771460Y-69085108D01*
X91600644Y-69101932D01*
X91436393Y-69151757D01*
X91285018Y-69232668D01*
X91152337Y-69341557D01*
X91043448Y-69474238D01*
X90962537Y-69625613D01*
X90912712Y-69789864D01*
X90895888Y-69960680D01*
X82819630Y-69960680D01*
X82820769Y-68865240D01*
X112955288Y-68865240D01*
X112955288Y-70865240D01*
X112967548Y-70989722D01*
X113003858Y-71109420D01*
X113062823Y-71219734D01*
X113142175Y-71316425D01*
X113238866Y-71395777D01*
X113349180Y-71454742D01*
X113468878Y-71491052D01*
X113593360Y-71503312D01*
X115593360Y-71503312D01*
X115717842Y-71491052D01*
X115837540Y-71454742D01*
X115947854Y-71395777D01*
X116044545Y-71316425D01*
X116123897Y-71219734D01*
X116182862Y-71109420D01*
X116215856Y-71000653D01*
X118637552Y-71000653D01*
X118733316Y-71265054D01*
X119022931Y-71405944D01*
X119334468Y-71487624D01*
X119655955Y-71506958D01*
X119975035Y-71463201D01*
X120279448Y-71358035D01*
X120453404Y-71265054D01*
X120549168Y-71000653D01*
X119593360Y-70044845D01*
X118637552Y-71000653D01*
X116215856Y-71000653D01*
X116219172Y-70989722D01*
X116231432Y-70865240D01*
X116231432Y-69927835D01*
X117951642Y-69927835D01*
X117995399Y-70246915D01*
X118100565Y-70551328D01*
X118193546Y-70725284D01*
X118457947Y-70821048D01*
X119413755Y-69865240D01*
X119772965Y-69865240D01*
X120728773Y-70821048D01*
X120993174Y-70725284D01*
X121021897Y-70666240D01*
X124216528Y-70666240D01*
X124216528Y-72366240D01*
X124228788Y-72490722D01*
X124265098Y-72610420D01*
X124324063Y-72720734D01*
X124403415Y-72817425D01*
X124500106Y-72896777D01*
X124610420Y-72955742D01*
X124730118Y-72992052D01*
X124825001Y-73001397D01*
X124825001Y-73736521D01*
X124820719Y-73780000D01*
X124837805Y-73953490D01*
X124888412Y-74120313D01*
X124970590Y-74274059D01*
X125053468Y-74375046D01*
X125053471Y-74375049D01*
X125081184Y-74408817D01*
X125114951Y-74436529D01*
X127841118Y-77162697D01*
X127852427Y-77219551D01*
X127892312Y-77315840D01*
X127782795Y-77479744D01*
X127704774Y-77668102D01*
X127665000Y-77868061D01*
X127665000Y-78071939D01*
X127704774Y-78271898D01*
X127782795Y-78460256D01*
X127896063Y-78629774D01*
X128040226Y-78773937D01*
X128209744Y-78887205D01*
X128398102Y-78965226D01*
X128598061Y-79005000D01*
X128801939Y-79005000D01*
X129001898Y-78965226D01*
X129190256Y-78887205D01*
X129238454Y-78855000D01*
X129846531Y-78855000D01*
X129890000Y-78859281D01*
X129933469Y-78855000D01*
X129933477Y-78855000D01*
X130063490Y-78842195D01*
X130230313Y-78791589D01*
X130384059Y-78709411D01*
X130518817Y-78598817D01*
X130546534Y-78565044D01*
X131510050Y-77601529D01*
X131543817Y-77573817D01*
X131621022Y-77479744D01*
X131649535Y-77445000D01*
X133608429Y-77445000D01*
X133603465Y-77469957D01*
X133499832Y-77573590D01*
X133466064Y-77601303D01*
X133438351Y-77635071D01*
X133438348Y-77635074D01*
X133355470Y-77736061D01*
X133273292Y-77889807D01*
X133222685Y-78056630D01*
X133205599Y-78230120D01*
X133209881Y-78273598D01*
X133209880Y-79329650D01*
X133205599Y-79373120D01*
X133209880Y-79416589D01*
X133209880Y-79416596D01*
X133222685Y-79546609D01*
X133273291Y-79713432D01*
X133355469Y-79867178D01*
X133466063Y-80001937D01*
X133499836Y-80029654D01*
X135615230Y-82145049D01*
X135642943Y-82178817D01*
X135676711Y-82206530D01*
X135676713Y-82206532D01*
X135723829Y-82245199D01*
X135777701Y-82289411D01*
X135931447Y-82371589D01*
X136098270Y-82422195D01*
X136228283Y-82435000D01*
X136228293Y-82435000D01*
X136271759Y-82439281D01*
X136315225Y-82435000D01*
X136611546Y-82435000D01*
X136659744Y-82467205D01*
X136848102Y-82545226D01*
X137048061Y-82585000D01*
X137251939Y-82585000D01*
X137451898Y-82545226D01*
X137640256Y-82467205D01*
X137809774Y-82353937D01*
X137953937Y-82209774D01*
X138067205Y-82040256D01*
X138145226Y-81851898D01*
X138185000Y-81651939D01*
X138185000Y-81448061D01*
X138145226Y-81248102D01*
X138067205Y-81059744D01*
X137953937Y-80890226D01*
X137809774Y-80746063D01*
X137640256Y-80632795D01*
X137451898Y-80554774D01*
X137251939Y-80515000D01*
X137048061Y-80515000D01*
X136848102Y-80554774D01*
X136659744Y-80632795D01*
X136627607Y-80654268D01*
X134979880Y-79006542D01*
X134979880Y-78682067D01*
X135100256Y-78632205D01*
X135269774Y-78518937D01*
X135413937Y-78374774D01*
X135527205Y-78205256D01*
X135589959Y-78053755D01*
X140468600Y-78053755D01*
X140468600Y-78572805D01*
X140569861Y-79081881D01*
X140768493Y-79561421D01*
X141056862Y-79992995D01*
X141423885Y-80360018D01*
X141855459Y-80648387D01*
X142334999Y-80847019D01*
X142844075Y-80948280D01*
X143363125Y-80948280D01*
X143872201Y-80847019D01*
X144351741Y-80648387D01*
X144783315Y-80360018D01*
X145150338Y-79992995D01*
X145438707Y-79561421D01*
X145637339Y-79081881D01*
X145738600Y-78572805D01*
X145738600Y-78053755D01*
X145637339Y-77544679D01*
X145438707Y-77065139D01*
X145150338Y-76633565D01*
X144783315Y-76266542D01*
X144351741Y-75978173D01*
X143872201Y-75779541D01*
X143363125Y-75678280D01*
X142844075Y-75678280D01*
X142334999Y-75779541D01*
X141855459Y-75978173D01*
X141423885Y-76266542D01*
X141056862Y-76633565D01*
X140768493Y-77065139D01*
X140569861Y-77544679D01*
X140468600Y-78053755D01*
X135589959Y-78053755D01*
X135605226Y-78016898D01*
X135645000Y-77816939D01*
X135645000Y-77613061D01*
X135609582Y-77435000D01*
X137561546Y-77435000D01*
X137609744Y-77467205D01*
X137798102Y-77545226D01*
X137998061Y-77585000D01*
X138201939Y-77585000D01*
X138401898Y-77545226D01*
X138590256Y-77467205D01*
X138759774Y-77353937D01*
X138903937Y-77209774D01*
X139017205Y-77040256D01*
X139095226Y-76851898D01*
X139135000Y-76651939D01*
X139135000Y-76448061D01*
X139095226Y-76248102D01*
X139017205Y-76059744D01*
X138903937Y-75890226D01*
X138759774Y-75746063D01*
X138590256Y-75632795D01*
X138401898Y-75554774D01*
X138201939Y-75515000D01*
X137998061Y-75515000D01*
X137798102Y-75554774D01*
X137609744Y-75632795D01*
X137561546Y-75665000D01*
X134313465Y-75665000D01*
X134269999Y-75660719D01*
X134226533Y-75665000D01*
X134226523Y-75665000D01*
X134124990Y-75675000D01*
X131313469Y-75675000D01*
X131270000Y-75670719D01*
X131226531Y-75675000D01*
X131226523Y-75675000D01*
X131096510Y-75687805D01*
X130929687Y-75738411D01*
X130775941Y-75820589D01*
X130641183Y-75931183D01*
X130613468Y-75964954D01*
X130319955Y-76258467D01*
X130286183Y-76286183D01*
X130175589Y-76420941D01*
X130161935Y-76446486D01*
X129867730Y-76740691D01*
X129842879Y-76615755D01*
X129764858Y-76427397D01*
X129651590Y-76257879D01*
X129507427Y-76113716D01*
X129337909Y-76000448D01*
X129149551Y-75922427D01*
X129092697Y-75911118D01*
X126595000Y-73413422D01*
X126595000Y-73000333D01*
X126679082Y-72992052D01*
X126798780Y-72955742D01*
X126909094Y-72896777D01*
X127005785Y-72817425D01*
X127085137Y-72720734D01*
X127144102Y-72610420D01*
X127180412Y-72490722D01*
X127192672Y-72366240D01*
X127192672Y-70666240D01*
X127180412Y-70541758D01*
X127144102Y-70422060D01*
X127085137Y-70311746D01*
X127005785Y-70215055D01*
X126909094Y-70135703D01*
X126798780Y-70076738D01*
X126679082Y-70040428D01*
X126554600Y-70028168D01*
X124854600Y-70028168D01*
X124730118Y-70040428D01*
X124610420Y-70076738D01*
X124500106Y-70135703D01*
X124403415Y-70215055D01*
X124324063Y-70311746D01*
X124265098Y-70422060D01*
X124228788Y-70541758D01*
X124216528Y-70666240D01*
X121021897Y-70666240D01*
X121134064Y-70435669D01*
X121215744Y-70124132D01*
X121235078Y-69802645D01*
X121191321Y-69483565D01*
X121086155Y-69179152D01*
X120993174Y-69005196D01*
X120728773Y-68909432D01*
X119772965Y-69865240D01*
X119413755Y-69865240D01*
X118457947Y-68909432D01*
X118193546Y-69005196D01*
X118052656Y-69294811D01*
X117970976Y-69606348D01*
X117951642Y-69927835D01*
X116231432Y-69927835D01*
X116231432Y-68865240D01*
X116219172Y-68740758D01*
X116215857Y-68729827D01*
X118637552Y-68729827D01*
X119593360Y-69685635D01*
X120549168Y-68729827D01*
X120453404Y-68465426D01*
X120163789Y-68324536D01*
X119852252Y-68242856D01*
X119530765Y-68223522D01*
X119211685Y-68267279D01*
X118907272Y-68372445D01*
X118733316Y-68465426D01*
X118637552Y-68729827D01*
X116215857Y-68729827D01*
X116182862Y-68621060D01*
X116123897Y-68510746D01*
X116044545Y-68414055D01*
X115947854Y-68334703D01*
X115837540Y-68275738D01*
X115717842Y-68239428D01*
X115593360Y-68227168D01*
X113593360Y-68227168D01*
X113468878Y-68239428D01*
X113349180Y-68275738D01*
X113238866Y-68334703D01*
X113142175Y-68414055D01*
X113062823Y-68510746D01*
X113003858Y-68621060D01*
X112967548Y-68740758D01*
X112955288Y-68865240D01*
X82820769Y-68865240D01*
X82822761Y-66950574D01*
X83049605Y-67177418D01*
X83481179Y-67465787D01*
X83960719Y-67664419D01*
X84469795Y-67765680D01*
X84988845Y-67765680D01*
X85497921Y-67664419D01*
X85977461Y-67465787D01*
X86301845Y-67249040D01*
X121378091Y-67249040D01*
X121472930Y-67513881D01*
X121617615Y-67755131D01*
X121806586Y-67963519D01*
X122032580Y-68131037D01*
X122286913Y-68251246D01*
X122420961Y-68291904D01*
X122643000Y-68169915D01*
X122643000Y-67027000D01*
X121499376Y-67027000D01*
X121378091Y-67249040D01*
X86301845Y-67249040D01*
X86409035Y-67177418D01*
X86776058Y-66810395D01*
X87064427Y-66378821D01*
X87263059Y-65899281D01*
X87364320Y-65390205D01*
X87364320Y-64871155D01*
X87263059Y-64362079D01*
X87064427Y-63882539D01*
X86778781Y-63455040D01*
X103639848Y-63455040D01*
X103639848Y-65455040D01*
X103652108Y-65579522D01*
X103688418Y-65699220D01*
X103747383Y-65809534D01*
X103826735Y-65906225D01*
X103923426Y-65985577D01*
X104033740Y-66044542D01*
X104153438Y-66080852D01*
X104277920Y-66093112D01*
X106277920Y-66093112D01*
X106402402Y-66080852D01*
X106522100Y-66044542D01*
X106632414Y-65985577D01*
X106729105Y-65906225D01*
X106808457Y-65809534D01*
X106867422Y-65699220D01*
X106900416Y-65590453D01*
X109322112Y-65590453D01*
X109417876Y-65854854D01*
X109707491Y-65995744D01*
X110019028Y-66077424D01*
X110340515Y-66096758D01*
X110659595Y-66053001D01*
X110964008Y-65947835D01*
X111137964Y-65854854D01*
X111233728Y-65590453D01*
X110277920Y-64634645D01*
X109322112Y-65590453D01*
X106900416Y-65590453D01*
X106903732Y-65579522D01*
X106915992Y-65455040D01*
X106915992Y-64517635D01*
X108636202Y-64517635D01*
X108679959Y-64836715D01*
X108785125Y-65141128D01*
X108878106Y-65315084D01*
X109142507Y-65410848D01*
X110098315Y-64455040D01*
X110457525Y-64455040D01*
X111413333Y-65410848D01*
X111677734Y-65315084D01*
X111818624Y-65025469D01*
X111900304Y-64713932D01*
X111919638Y-64392445D01*
X111875881Y-64073365D01*
X111770715Y-63768952D01*
X111677734Y-63594996D01*
X111413333Y-63499232D01*
X110457525Y-64455040D01*
X110098315Y-64455040D01*
X109142507Y-63499232D01*
X108878106Y-63594996D01*
X108737216Y-63884611D01*
X108655536Y-64196148D01*
X108636202Y-64517635D01*
X106915992Y-64517635D01*
X106915992Y-63455040D01*
X106903732Y-63330558D01*
X106900417Y-63319627D01*
X109322112Y-63319627D01*
X110277920Y-64275435D01*
X111233728Y-63319627D01*
X111137964Y-63055226D01*
X110848349Y-62914336D01*
X110536812Y-62832656D01*
X110215325Y-62813322D01*
X109896245Y-62857079D01*
X109591832Y-62962245D01*
X109417876Y-63055226D01*
X109322112Y-63319627D01*
X106900417Y-63319627D01*
X106867422Y-63210860D01*
X106808457Y-63100546D01*
X106729105Y-63003855D01*
X106632414Y-62924503D01*
X106522100Y-62865538D01*
X106402402Y-62829228D01*
X106277920Y-62816968D01*
X104277920Y-62816968D01*
X104153438Y-62829228D01*
X104033740Y-62865538D01*
X103923426Y-62924503D01*
X103826735Y-63003855D01*
X103747383Y-63100546D01*
X103688418Y-63210860D01*
X103652108Y-63330558D01*
X103639848Y-63455040D01*
X86778781Y-63455040D01*
X86776058Y-63450965D01*
X86409035Y-63083942D01*
X85977461Y-62795573D01*
X85497921Y-62596941D01*
X84988845Y-62495680D01*
X84469795Y-62495680D01*
X83960719Y-62596941D01*
X83481179Y-62795573D01*
X83049605Y-63083942D01*
X82826551Y-63306996D01*
X82831038Y-58991702D01*
X97129303Y-58991702D01*
X97200886Y-59235671D01*
X97456396Y-59356571D01*
X97730584Y-59425300D01*
X98012912Y-59439217D01*
X98292530Y-59397787D01*
X98558692Y-59302603D01*
X98683914Y-59235671D01*
X98755497Y-58991702D01*
X97942400Y-58178605D01*
X97129303Y-58991702D01*
X82831038Y-58991702D01*
X82831998Y-58069512D01*
X96502183Y-58069512D01*
X96543613Y-58349130D01*
X96638797Y-58615292D01*
X96705729Y-58740514D01*
X96949698Y-58812097D01*
X97762795Y-57999000D01*
X98122005Y-57999000D01*
X98935102Y-58812097D01*
X99179071Y-58740514D01*
X99299971Y-58485004D01*
X99368700Y-58210816D01*
X99382617Y-57928488D01*
X99341187Y-57648870D01*
X99246003Y-57382708D01*
X99179071Y-57257486D01*
X98935102Y-57185903D01*
X98122005Y-57999000D01*
X97762795Y-57999000D01*
X96949698Y-57185903D01*
X96705729Y-57257486D01*
X96584829Y-57512996D01*
X96516100Y-57787184D01*
X96502183Y-58069512D01*
X82831998Y-58069512D01*
X82835503Y-54699000D01*
X96504328Y-54699000D01*
X96504328Y-56299000D01*
X96516588Y-56423482D01*
X96552898Y-56543180D01*
X96611863Y-56653494D01*
X96691215Y-56750185D01*
X96787906Y-56829537D01*
X96898220Y-56888502D01*
X97017918Y-56924812D01*
X97142400Y-56937072D01*
X97149615Y-56937072D01*
X97129303Y-57006298D01*
X97942400Y-57819395D01*
X98755497Y-57006298D01*
X98735185Y-56937072D01*
X98742400Y-56937072D01*
X98866882Y-56924812D01*
X98986580Y-56888502D01*
X99096894Y-56829537D01*
X99193585Y-56750185D01*
X99272937Y-56653494D01*
X99331902Y-56543180D01*
X99368212Y-56423482D01*
X99380472Y-56299000D01*
X99380472Y-54699000D01*
X99368212Y-54574518D01*
X99331902Y-54454820D01*
X99272937Y-54344506D01*
X99193585Y-54247815D01*
X99096894Y-54168463D01*
X98986580Y-54109498D01*
X98866882Y-54073188D01*
X98742400Y-54060928D01*
X97142400Y-54060928D01*
X97017918Y-54073188D01*
X96898220Y-54109498D01*
X96787906Y-54168463D01*
X96691215Y-54247815D01*
X96611863Y-54344506D01*
X96552898Y-54454820D01*
X96516588Y-54574518D01*
X96504328Y-54699000D01*
X82835503Y-54699000D01*
X82847186Y-43467872D01*
X83490000Y-43467872D01*
X83490000Y-43908128D01*
X83575890Y-44339925D01*
X83744369Y-44746669D01*
X83988962Y-45112729D01*
X84300271Y-45424038D01*
X84666331Y-45668631D01*
X85073075Y-45837110D01*
X85504872Y-45923000D01*
X85945128Y-45923000D01*
X86376925Y-45837110D01*
X86783669Y-45668631D01*
X87149729Y-45424038D01*
X87461038Y-45112729D01*
X87705631Y-44746669D01*
X87874110Y-44339925D01*
X87960000Y-43908128D01*
X87960000Y-43467872D01*
X87874110Y-43036075D01*
X87705631Y-42629331D01*
X87461038Y-42263271D01*
X87149729Y-41951962D01*
X86783669Y-41707369D01*
X86376925Y-41538890D01*
X85945128Y-41453000D01*
X85504872Y-41453000D01*
X85073075Y-41538890D01*
X84666331Y-41707369D01*
X84300271Y-41951962D01*
X83988962Y-42263271D01*
X83744369Y-42629331D01*
X83575890Y-43036075D01*
X83490000Y-43467872D01*
X82847186Y-43467872D01*
X82849315Y-41421793D01*
X82856201Y-40882440D01*
X100836797Y-40854820D01*
X101071693Y-56989289D01*
%TA.AperFunction,Conductor*%
D23*
G36*
X101071693Y-56989289D02*
G01*
X101074494Y-57014027D01*
X101082067Y-57037744D01*
X101094122Y-57059527D01*
X101110194Y-57078540D01*
X101129667Y-57094053D01*
X101151792Y-57105468D01*
X101175719Y-57112347D01*
X101197887Y-57114438D01*
X111650696Y-57179737D01*
X112181880Y-65803967D01*
X112185839Y-65828547D01*
X112194517Y-65851882D01*
X112207581Y-65873076D01*
X112224528Y-65891313D01*
X112244708Y-65905894D01*
X112267344Y-65916259D01*
X112291568Y-65922007D01*
X112308088Y-65923159D01*
X121691006Y-65963937D01*
X121617615Y-66044869D01*
X121472930Y-66286119D01*
X121378091Y-66550960D01*
X121499376Y-66773000D01*
X122643000Y-66773000D01*
X122643000Y-66753000D01*
X122897000Y-66753000D01*
X122897000Y-66773000D01*
X122917000Y-66773000D01*
X122917000Y-67027000D01*
X122897000Y-67027000D01*
X122897000Y-68169915D01*
X123119039Y-68291904D01*
X123253087Y-68251246D01*
X123507420Y-68131037D01*
X123733414Y-67963519D01*
X123922385Y-67755131D01*
X124033933Y-67569135D01*
X124038320Y-67579727D01*
X124195363Y-67814759D01*
X124395241Y-68014637D01*
X124630273Y-68171680D01*
X124891426Y-68279853D01*
X125132718Y-68327850D01*
X129668013Y-72863146D01*
X129703551Y-72906449D01*
X129746854Y-72941987D01*
X129746856Y-72941989D01*
X129876377Y-73048284D01*
X130073553Y-73153676D01*
X130287501Y-73218577D01*
X130510000Y-73240491D01*
X130565752Y-73235000D01*
X141592317Y-73235000D01*
X141629463Y-73304494D01*
X141708815Y-73401185D01*
X141805506Y-73480537D01*
X141915820Y-73539502D01*
X142035518Y-73575812D01*
X142160000Y-73588072D01*
X143860000Y-73588072D01*
X143984482Y-73575812D01*
X144104180Y-73539502D01*
X144214494Y-73480537D01*
X144311185Y-73401185D01*
X144390537Y-73304494D01*
X144449502Y-73194180D01*
X144485812Y-73074482D01*
X144498072Y-72950000D01*
X144498072Y-71250000D01*
X144485812Y-71125518D01*
X144449502Y-71005820D01*
X144390537Y-70895506D01*
X144311185Y-70798815D01*
X144214494Y-70719463D01*
X144104180Y-70660498D01*
X144031620Y-70638487D01*
X144163475Y-70506632D01*
X144325990Y-70263411D01*
X144437932Y-69993158D01*
X144495000Y-69706260D01*
X144495000Y-69413740D01*
X144437932Y-69126842D01*
X144325990Y-68856589D01*
X144163475Y-68613368D01*
X143956632Y-68406525D01*
X143782240Y-68290000D01*
X143956632Y-68173475D01*
X144163475Y-67966632D01*
X144325990Y-67723411D01*
X144437932Y-67453158D01*
X144495000Y-67166260D01*
X144495000Y-66873740D01*
X144437932Y-66586842D01*
X144325990Y-66316589D01*
X144163475Y-66073368D01*
X144151658Y-66061551D01*
X147654814Y-66076775D01*
X147625926Y-92354345D01*
X82798520Y-92309536D01*
X82798520Y-90255816D01*
X82799604Y-89213272D01*
X83439200Y-89213272D01*
X83439200Y-89653528D01*
X83525090Y-90085325D01*
X83693569Y-90492069D01*
X83938162Y-90858129D01*
X84249471Y-91169438D01*
X84615531Y-91414031D01*
X85022275Y-91582510D01*
X85454072Y-91668400D01*
X85894328Y-91668400D01*
X86326125Y-91582510D01*
X86732869Y-91414031D01*
X87098929Y-91169438D01*
X87410238Y-90858129D01*
X87654831Y-90492069D01*
X87823310Y-90085325D01*
X87909200Y-89653528D01*
X87909200Y-89213272D01*
X87825836Y-88794172D01*
X133769300Y-88794172D01*
X133769300Y-89234428D01*
X133855190Y-89666225D01*
X134023669Y-90072969D01*
X134268262Y-90439029D01*
X134579571Y-90750338D01*
X134945631Y-90994931D01*
X135352375Y-91163410D01*
X135784172Y-91249300D01*
X136224428Y-91249300D01*
X136656225Y-91163410D01*
X137062969Y-90994931D01*
X137429029Y-90750338D01*
X137740338Y-90439029D01*
X137984931Y-90072969D01*
X138153410Y-89666225D01*
X138239300Y-89234428D01*
X138239300Y-88794172D01*
X138153410Y-88362375D01*
X137998778Y-87989059D01*
X141491586Y-87989059D01*
X141707708Y-88355818D01*
X142167585Y-88596498D01*
X142665578Y-88742835D01*
X143182551Y-88789208D01*
X143698639Y-88733833D01*
X144194006Y-88578839D01*
X144611252Y-88355818D01*
X144827374Y-87989059D01*
X143159480Y-86321165D01*
X141491586Y-87989059D01*
X137998778Y-87989059D01*
X137984931Y-87955631D01*
X137740338Y-87589571D01*
X137429029Y-87278262D01*
X137062969Y-87033669D01*
X136656225Y-86865190D01*
X136224428Y-86779300D01*
X135784172Y-86779300D01*
X135352375Y-86865190D01*
X134945631Y-87033669D01*
X134579571Y-87278262D01*
X134268262Y-87589571D01*
X134023669Y-87955631D01*
X133855190Y-88362375D01*
X133769300Y-88794172D01*
X87825836Y-88794172D01*
X87823310Y-88781475D01*
X87654831Y-88374731D01*
X87410238Y-88008671D01*
X87098929Y-87697362D01*
X86732869Y-87452769D01*
X86326125Y-87284290D01*
X85894328Y-87198400D01*
X85454072Y-87198400D01*
X85022275Y-87284290D01*
X84615531Y-87452769D01*
X84249471Y-87697362D01*
X83938162Y-88008671D01*
X83693569Y-88374731D01*
X83525090Y-88781475D01*
X83439200Y-89213272D01*
X82799604Y-89213272D01*
X82802775Y-86164631D01*
X140511832Y-86164631D01*
X140567207Y-86680719D01*
X140722201Y-87176086D01*
X140945222Y-87593332D01*
X141311981Y-87809454D01*
X142979875Y-86141560D01*
X143339085Y-86141560D01*
X145006979Y-87809454D01*
X145373738Y-87593332D01*
X145614418Y-87133455D01*
X145760755Y-86635462D01*
X145807128Y-86118489D01*
X145751753Y-85602401D01*
X145596759Y-85107034D01*
X145373738Y-84689788D01*
X145006979Y-84473666D01*
X143339085Y-86141560D01*
X142979875Y-86141560D01*
X141311981Y-84473666D01*
X140945222Y-84689788D01*
X140704542Y-85149665D01*
X140558205Y-85647658D01*
X140511832Y-86164631D01*
X82802775Y-86164631D01*
X82804720Y-84294061D01*
X141491586Y-84294061D01*
X143159480Y-85961955D01*
X144827374Y-84294061D01*
X144611252Y-83927302D01*
X144151375Y-83686622D01*
X143653382Y-83540285D01*
X143136409Y-83493912D01*
X142620321Y-83549287D01*
X142124954Y-83704281D01*
X141707708Y-83927302D01*
X141491586Y-84294061D01*
X82804720Y-84294061D01*
X82814061Y-75314459D01*
X83112226Y-75314459D01*
X83328348Y-75681218D01*
X83788225Y-75921898D01*
X84286218Y-76068235D01*
X84803191Y-76114608D01*
X85319279Y-76059233D01*
X85814646Y-75904239D01*
X85832754Y-75894560D01*
X90950708Y-75894560D01*
X90962968Y-76019042D01*
X90999278Y-76138740D01*
X91058243Y-76249054D01*
X91137595Y-76345745D01*
X91234286Y-76425097D01*
X91344600Y-76484062D01*
X91464298Y-76520372D01*
X91588780Y-76532632D01*
X91778030Y-76529560D01*
X91936780Y-76370810D01*
X91936780Y-75534060D01*
X92190780Y-75534060D01*
X92190780Y-76370810D01*
X92349530Y-76529560D01*
X92538780Y-76532632D01*
X92663262Y-76520372D01*
X92782960Y-76484062D01*
X92893274Y-76425097D01*
X92989965Y-76345745D01*
X93069317Y-76249054D01*
X93128282Y-76138740D01*
X93164592Y-76019042D01*
X93176852Y-75894560D01*
X93173780Y-75692810D01*
X93015030Y-75534060D01*
X92190780Y-75534060D01*
X91936780Y-75534060D01*
X91112530Y-75534060D01*
X90953780Y-75692810D01*
X90950708Y-75894560D01*
X85832754Y-75894560D01*
X86231892Y-75681218D01*
X86448014Y-75314459D01*
X84780120Y-73646565D01*
X83112226Y-75314459D01*
X82814061Y-75314459D01*
X82814321Y-75065143D01*
X82932621Y-75134854D01*
X84600515Y-73466960D01*
X84959725Y-73466960D01*
X86627619Y-75134854D01*
X86994378Y-74918732D01*
X87235058Y-74458855D01*
X87381395Y-73960862D01*
X87427768Y-73443889D01*
X87372393Y-72927801D01*
X87217399Y-72432434D01*
X86994378Y-72015188D01*
X86627619Y-71799066D01*
X84959725Y-73466960D01*
X84600515Y-73466960D01*
X82932621Y-71799066D01*
X82817648Y-71866817D01*
X82817905Y-71619461D01*
X83112226Y-71619461D01*
X84780120Y-73287355D01*
X86448014Y-71619461D01*
X86231892Y-71252702D01*
X85772015Y-71012022D01*
X85274022Y-70865685D01*
X84757049Y-70819312D01*
X84240961Y-70874687D01*
X83745594Y-71029681D01*
X83328348Y-71252702D01*
X83112226Y-71619461D01*
X82817905Y-71619461D01*
X82819630Y-69960680D01*
X90895888Y-69960680D01*
X90895888Y-70460680D01*
X90912712Y-70631496D01*
X90962537Y-70795747D01*
X91043448Y-70947122D01*
X91152337Y-71079803D01*
X91205192Y-71123180D01*
X91152337Y-71166557D01*
X91043448Y-71299238D01*
X90962537Y-71450613D01*
X90912712Y-71614864D01*
X90895888Y-71785680D01*
X90895888Y-72285680D01*
X90912712Y-72456496D01*
X90962537Y-72620747D01*
X91043448Y-72772122D01*
X91101016Y-72842269D01*
X91098268Y-72845618D01*
X91017357Y-72996993D01*
X90967532Y-73161244D01*
X90950708Y-73332060D01*
X90950708Y-73832060D01*
X90967532Y-74002876D01*
X91017357Y-74167127D01*
X91098268Y-74318502D01*
X91187592Y-74427343D01*
X91137595Y-74468375D01*
X91058243Y-74565066D01*
X90999278Y-74675380D01*
X90962968Y-74795078D01*
X90950708Y-74919560D01*
X90953780Y-75121310D01*
X91112530Y-75280060D01*
X91936780Y-75280060D01*
X91936780Y-75260060D01*
X92190780Y-75260060D01*
X92190780Y-75280060D01*
X93015030Y-75280060D01*
X93173780Y-75121310D01*
X93176852Y-74919560D01*
X93164592Y-74795078D01*
X93161542Y-74785023D01*
X93420660Y-75044142D01*
X93420661Y-76123957D01*
X92252343Y-77292276D01*
X92223339Y-77316079D01*
X92177784Y-77371589D01*
X92128366Y-77431804D01*
X92095615Y-77493076D01*
X92057794Y-77563834D01*
X92014337Y-77707095D01*
X92003340Y-77818748D01*
X92003340Y-77818758D01*
X91999664Y-77856080D01*
X92003340Y-77893403D01*
X92003341Y-80958188D01*
X91999664Y-80995520D01*
X92014338Y-81144505D01*
X92057794Y-81287766D01*
X92128366Y-81419796D01*
X92197099Y-81503546D01*
X92223340Y-81535521D01*
X92252338Y-81559319D01*
X93449225Y-82756208D01*
X93473019Y-82785201D01*
X93502012Y-82808995D01*
X93502016Y-82808999D01*
X93550936Y-82849146D01*
X93588744Y-82880174D01*
X93720773Y-82950746D01*
X93864034Y-82994203D01*
X93975687Y-83005200D01*
X93975696Y-83005200D01*
X94013019Y-83008876D01*
X94050342Y-83005200D01*
X99992049Y-83005200D01*
X100035986Y-83049137D01*
X100205504Y-83162405D01*
X100393862Y-83240426D01*
X100593821Y-83280200D01*
X100797699Y-83280200D01*
X100997658Y-83240426D01*
X101186016Y-83162405D01*
X101355534Y-83049137D01*
X101499697Y-82904974D01*
X101612965Y-82735456D01*
X101690986Y-82547098D01*
X101730760Y-82347139D01*
X101730760Y-82143261D01*
X101690986Y-81943302D01*
X101612965Y-81754944D01*
X101499697Y-81585426D01*
X101355534Y-81441263D01*
X101186016Y-81327995D01*
X100997658Y-81249974D01*
X100797699Y-81210200D01*
X100593821Y-81210200D01*
X100393862Y-81249974D01*
X100205504Y-81327995D01*
X100035986Y-81441263D01*
X99992049Y-81485200D01*
X94327823Y-81485200D01*
X93523340Y-80680719D01*
X93523340Y-78170881D01*
X94691663Y-77002559D01*
X94720661Y-76978761D01*
X94815634Y-76863036D01*
X94886206Y-76731007D01*
X94929663Y-76587746D01*
X94940660Y-76476093D01*
X94940660Y-76476084D01*
X94944336Y-76438761D01*
X94940660Y-76401438D01*
X94940660Y-74766673D01*
X94944337Y-74729340D01*
X94929663Y-74580354D01*
X94886206Y-74437093D01*
X94815634Y-74305064D01*
X94744459Y-74218337D01*
X94720661Y-74189339D01*
X94691664Y-74165542D01*
X94061641Y-73535520D01*
X94061641Y-73365683D01*
X94065317Y-73328360D01*
X94061641Y-73291038D01*
X94061641Y-73291028D01*
X94050644Y-73179375D01*
X94007187Y-73036114D01*
X93983635Y-72992052D01*
X93936615Y-72904084D01*
X93865440Y-72817358D01*
X93841642Y-72788360D01*
X93812645Y-72764563D01*
X93122032Y-72073951D01*
X93122032Y-71785680D01*
X93105208Y-71614864D01*
X93055383Y-71450613D01*
X92974472Y-71299238D01*
X92865583Y-71166557D01*
X92812728Y-71123180D01*
X92865583Y-71079803D01*
X92955138Y-70970680D01*
X107614879Y-70970680D01*
X108922512Y-72278314D01*
X108969559Y-72335641D01*
X108998562Y-72359443D01*
X109201680Y-72562561D01*
X109201681Y-74811388D01*
X109198004Y-74848720D01*
X109212678Y-74997705D01*
X109256134Y-75140966D01*
X109326706Y-75272996D01*
X109397881Y-75359722D01*
X109421680Y-75388721D01*
X109450678Y-75412519D01*
X111053960Y-77015802D01*
X111077759Y-77044801D01*
X111193484Y-77139774D01*
X111325513Y-77210346D01*
X111468774Y-77253803D01*
X111580427Y-77264800D01*
X111580435Y-77264800D01*
X111617760Y-77268476D01*
X111655085Y-77264800D01*
X112245454Y-77264800D01*
X112253394Y-77304718D01*
X112331415Y-77493076D01*
X112444683Y-77662594D01*
X112588846Y-77806757D01*
X112758364Y-77920025D01*
X112946722Y-77998046D01*
X113146681Y-78037820D01*
X113350559Y-78037820D01*
X113550518Y-77998046D01*
X113738876Y-77920025D01*
X113908394Y-77806757D01*
X114052557Y-77662594D01*
X114165825Y-77493076D01*
X114243846Y-77304718D01*
X114283620Y-77104759D01*
X114283620Y-76900881D01*
X114243846Y-76700922D01*
X114165825Y-76512564D01*
X114052557Y-76343046D01*
X113908394Y-76198883D01*
X113738876Y-76085615D01*
X113550518Y-76007594D01*
X113350559Y-75967820D01*
X113293080Y-75967820D01*
X113290601Y-75964799D01*
X113174876Y-75869826D01*
X113042847Y-75799254D01*
X112899586Y-75755797D01*
X112787933Y-75744800D01*
X112787922Y-75744800D01*
X112750600Y-75741124D01*
X112713278Y-75744800D01*
X111932562Y-75744800D01*
X110721680Y-74533919D01*
X110721680Y-72285082D01*
X110725356Y-72247759D01*
X110721680Y-72210436D01*
X110721680Y-72210427D01*
X110710683Y-72098774D01*
X110667226Y-71955513D01*
X110596654Y-71823484D01*
X110501681Y-71707759D01*
X110472678Y-71683957D01*
X110096613Y-71307892D01*
X110049561Y-71250559D01*
X110020564Y-71226762D01*
X108493484Y-69699683D01*
X108469681Y-69670679D01*
X108353956Y-69575706D01*
X108221927Y-69505134D01*
X108078666Y-69461677D01*
X107967013Y-69450680D01*
X107967002Y-69450680D01*
X107929680Y-69447004D01*
X107892358Y-69450680D01*
X92955138Y-69450680D01*
X92865583Y-69341557D01*
X92732902Y-69232668D01*
X92581527Y-69151757D01*
X92417276Y-69101932D01*
X92246460Y-69085108D01*
X91771460Y-69085108D01*
X91600644Y-69101932D01*
X91436393Y-69151757D01*
X91285018Y-69232668D01*
X91152337Y-69341557D01*
X91043448Y-69474238D01*
X90962537Y-69625613D01*
X90912712Y-69789864D01*
X90895888Y-69960680D01*
X82819630Y-69960680D01*
X82820769Y-68865240D01*
X112955288Y-68865240D01*
X112955288Y-70865240D01*
X112967548Y-70989722D01*
X113003858Y-71109420D01*
X113062823Y-71219734D01*
X113142175Y-71316425D01*
X113238866Y-71395777D01*
X113349180Y-71454742D01*
X113468878Y-71491052D01*
X113593360Y-71503312D01*
X115593360Y-71503312D01*
X115717842Y-71491052D01*
X115837540Y-71454742D01*
X115947854Y-71395777D01*
X116044545Y-71316425D01*
X116123897Y-71219734D01*
X116182862Y-71109420D01*
X116215856Y-71000653D01*
X118637552Y-71000653D01*
X118733316Y-71265054D01*
X119022931Y-71405944D01*
X119334468Y-71487624D01*
X119655955Y-71506958D01*
X119975035Y-71463201D01*
X120279448Y-71358035D01*
X120453404Y-71265054D01*
X120549168Y-71000653D01*
X119593360Y-70044845D01*
X118637552Y-71000653D01*
X116215856Y-71000653D01*
X116219172Y-70989722D01*
X116231432Y-70865240D01*
X116231432Y-69927835D01*
X117951642Y-69927835D01*
X117995399Y-70246915D01*
X118100565Y-70551328D01*
X118193546Y-70725284D01*
X118457947Y-70821048D01*
X119413755Y-69865240D01*
X119772965Y-69865240D01*
X120728773Y-70821048D01*
X120993174Y-70725284D01*
X121021897Y-70666240D01*
X124216528Y-70666240D01*
X124216528Y-72366240D01*
X124228788Y-72490722D01*
X124265098Y-72610420D01*
X124324063Y-72720734D01*
X124403415Y-72817425D01*
X124500106Y-72896777D01*
X124610420Y-72955742D01*
X124730118Y-72992052D01*
X124825001Y-73001397D01*
X124825001Y-73736521D01*
X124820719Y-73780000D01*
X124837805Y-73953490D01*
X124888412Y-74120313D01*
X124970590Y-74274059D01*
X125053468Y-74375046D01*
X125053471Y-74375049D01*
X125081184Y-74408817D01*
X125114951Y-74436529D01*
X127841118Y-77162697D01*
X127852427Y-77219551D01*
X127892312Y-77315840D01*
X127782795Y-77479744D01*
X127704774Y-77668102D01*
X127665000Y-77868061D01*
X127665000Y-78071939D01*
X127704774Y-78271898D01*
X127782795Y-78460256D01*
X127896063Y-78629774D01*
X128040226Y-78773937D01*
X128209744Y-78887205D01*
X128398102Y-78965226D01*
X128598061Y-79005000D01*
X128801939Y-79005000D01*
X129001898Y-78965226D01*
X129190256Y-78887205D01*
X129238454Y-78855000D01*
X129846531Y-78855000D01*
X129890000Y-78859281D01*
X129933469Y-78855000D01*
X129933477Y-78855000D01*
X130063490Y-78842195D01*
X130230313Y-78791589D01*
X130384059Y-78709411D01*
X130518817Y-78598817D01*
X130546534Y-78565044D01*
X131510050Y-77601529D01*
X131543817Y-77573817D01*
X131621022Y-77479744D01*
X131649535Y-77445000D01*
X133608429Y-77445000D01*
X133603465Y-77469957D01*
X133499832Y-77573590D01*
X133466064Y-77601303D01*
X133438351Y-77635071D01*
X133438348Y-77635074D01*
X133355470Y-77736061D01*
X133273292Y-77889807D01*
X133222685Y-78056630D01*
X133205599Y-78230120D01*
X133209881Y-78273598D01*
X133209880Y-79329650D01*
X133205599Y-79373120D01*
X133209880Y-79416589D01*
X133209880Y-79416596D01*
X133222685Y-79546609D01*
X133273291Y-79713432D01*
X133355469Y-79867178D01*
X133466063Y-80001937D01*
X133499836Y-80029654D01*
X135615230Y-82145049D01*
X135642943Y-82178817D01*
X135676711Y-82206530D01*
X135676713Y-82206532D01*
X135723829Y-82245199D01*
X135777701Y-82289411D01*
X135931447Y-82371589D01*
X136098270Y-82422195D01*
X136228283Y-82435000D01*
X136228293Y-82435000D01*
X136271759Y-82439281D01*
X136315225Y-82435000D01*
X136611546Y-82435000D01*
X136659744Y-82467205D01*
X136848102Y-82545226D01*
X137048061Y-82585000D01*
X137251939Y-82585000D01*
X137451898Y-82545226D01*
X137640256Y-82467205D01*
X137809774Y-82353937D01*
X137953937Y-82209774D01*
X138067205Y-82040256D01*
X138145226Y-81851898D01*
X138185000Y-81651939D01*
X138185000Y-81448061D01*
X138145226Y-81248102D01*
X138067205Y-81059744D01*
X137953937Y-80890226D01*
X137809774Y-80746063D01*
X137640256Y-80632795D01*
X137451898Y-80554774D01*
X137251939Y-80515000D01*
X137048061Y-80515000D01*
X136848102Y-80554774D01*
X136659744Y-80632795D01*
X136627607Y-80654268D01*
X134979880Y-79006542D01*
X134979880Y-78682067D01*
X135100256Y-78632205D01*
X135269774Y-78518937D01*
X135413937Y-78374774D01*
X135527205Y-78205256D01*
X135589959Y-78053755D01*
X140468600Y-78053755D01*
X140468600Y-78572805D01*
X140569861Y-79081881D01*
X140768493Y-79561421D01*
X141056862Y-79992995D01*
X141423885Y-80360018D01*
X141855459Y-80648387D01*
X142334999Y-80847019D01*
X142844075Y-80948280D01*
X143363125Y-80948280D01*
X143872201Y-80847019D01*
X144351741Y-80648387D01*
X144783315Y-80360018D01*
X145150338Y-79992995D01*
X145438707Y-79561421D01*
X145637339Y-79081881D01*
X145738600Y-78572805D01*
X145738600Y-78053755D01*
X145637339Y-77544679D01*
X145438707Y-77065139D01*
X145150338Y-76633565D01*
X144783315Y-76266542D01*
X144351741Y-75978173D01*
X143872201Y-75779541D01*
X143363125Y-75678280D01*
X142844075Y-75678280D01*
X142334999Y-75779541D01*
X141855459Y-75978173D01*
X141423885Y-76266542D01*
X141056862Y-76633565D01*
X140768493Y-77065139D01*
X140569861Y-77544679D01*
X140468600Y-78053755D01*
X135589959Y-78053755D01*
X135605226Y-78016898D01*
X135645000Y-77816939D01*
X135645000Y-77613061D01*
X135609582Y-77435000D01*
X137561546Y-77435000D01*
X137609744Y-77467205D01*
X137798102Y-77545226D01*
X137998061Y-77585000D01*
X138201939Y-77585000D01*
X138401898Y-77545226D01*
X138590256Y-77467205D01*
X138759774Y-77353937D01*
X138903937Y-77209774D01*
X139017205Y-77040256D01*
X139095226Y-76851898D01*
X139135000Y-76651939D01*
X139135000Y-76448061D01*
X139095226Y-76248102D01*
X139017205Y-76059744D01*
X138903937Y-75890226D01*
X138759774Y-75746063D01*
X138590256Y-75632795D01*
X138401898Y-75554774D01*
X138201939Y-75515000D01*
X137998061Y-75515000D01*
X137798102Y-75554774D01*
X137609744Y-75632795D01*
X137561546Y-75665000D01*
X134313465Y-75665000D01*
X134269999Y-75660719D01*
X134226533Y-75665000D01*
X134226523Y-75665000D01*
X134124990Y-75675000D01*
X131313469Y-75675000D01*
X131270000Y-75670719D01*
X131226531Y-75675000D01*
X131226523Y-75675000D01*
X131096510Y-75687805D01*
X130929687Y-75738411D01*
X130775941Y-75820589D01*
X130641183Y-75931183D01*
X130613468Y-75964954D01*
X130319955Y-76258467D01*
X130286183Y-76286183D01*
X130175589Y-76420941D01*
X130161935Y-76446486D01*
X129867730Y-76740691D01*
X129842879Y-76615755D01*
X129764858Y-76427397D01*
X129651590Y-76257879D01*
X129507427Y-76113716D01*
X129337909Y-76000448D01*
X129149551Y-75922427D01*
X129092697Y-75911118D01*
X126595000Y-73413422D01*
X126595000Y-73000333D01*
X126679082Y-72992052D01*
X126798780Y-72955742D01*
X126909094Y-72896777D01*
X127005785Y-72817425D01*
X127085137Y-72720734D01*
X127144102Y-72610420D01*
X127180412Y-72490722D01*
X127192672Y-72366240D01*
X127192672Y-70666240D01*
X127180412Y-70541758D01*
X127144102Y-70422060D01*
X127085137Y-70311746D01*
X127005785Y-70215055D01*
X126909094Y-70135703D01*
X126798780Y-70076738D01*
X126679082Y-70040428D01*
X126554600Y-70028168D01*
X124854600Y-70028168D01*
X124730118Y-70040428D01*
X124610420Y-70076738D01*
X124500106Y-70135703D01*
X124403415Y-70215055D01*
X124324063Y-70311746D01*
X124265098Y-70422060D01*
X124228788Y-70541758D01*
X124216528Y-70666240D01*
X121021897Y-70666240D01*
X121134064Y-70435669D01*
X121215744Y-70124132D01*
X121235078Y-69802645D01*
X121191321Y-69483565D01*
X121086155Y-69179152D01*
X120993174Y-69005196D01*
X120728773Y-68909432D01*
X119772965Y-69865240D01*
X119413755Y-69865240D01*
X118457947Y-68909432D01*
X118193546Y-69005196D01*
X118052656Y-69294811D01*
X117970976Y-69606348D01*
X117951642Y-69927835D01*
X116231432Y-69927835D01*
X116231432Y-68865240D01*
X116219172Y-68740758D01*
X116215857Y-68729827D01*
X118637552Y-68729827D01*
X119593360Y-69685635D01*
X120549168Y-68729827D01*
X120453404Y-68465426D01*
X120163789Y-68324536D01*
X119852252Y-68242856D01*
X119530765Y-68223522D01*
X119211685Y-68267279D01*
X118907272Y-68372445D01*
X118733316Y-68465426D01*
X118637552Y-68729827D01*
X116215857Y-68729827D01*
X116182862Y-68621060D01*
X116123897Y-68510746D01*
X116044545Y-68414055D01*
X115947854Y-68334703D01*
X115837540Y-68275738D01*
X115717842Y-68239428D01*
X115593360Y-68227168D01*
X113593360Y-68227168D01*
X113468878Y-68239428D01*
X113349180Y-68275738D01*
X113238866Y-68334703D01*
X113142175Y-68414055D01*
X113062823Y-68510746D01*
X113003858Y-68621060D01*
X112967548Y-68740758D01*
X112955288Y-68865240D01*
X82820769Y-68865240D01*
X82822761Y-66950574D01*
X83049605Y-67177418D01*
X83481179Y-67465787D01*
X83960719Y-67664419D01*
X84469795Y-67765680D01*
X84988845Y-67765680D01*
X85497921Y-67664419D01*
X85977461Y-67465787D01*
X86301845Y-67249040D01*
X121378091Y-67249040D01*
X121472930Y-67513881D01*
X121617615Y-67755131D01*
X121806586Y-67963519D01*
X122032580Y-68131037D01*
X122286913Y-68251246D01*
X122420961Y-68291904D01*
X122643000Y-68169915D01*
X122643000Y-67027000D01*
X121499376Y-67027000D01*
X121378091Y-67249040D01*
X86301845Y-67249040D01*
X86409035Y-67177418D01*
X86776058Y-66810395D01*
X87064427Y-66378821D01*
X87263059Y-65899281D01*
X87364320Y-65390205D01*
X87364320Y-64871155D01*
X87263059Y-64362079D01*
X87064427Y-63882539D01*
X86778781Y-63455040D01*
X103639848Y-63455040D01*
X103639848Y-65455040D01*
X103652108Y-65579522D01*
X103688418Y-65699220D01*
X103747383Y-65809534D01*
X103826735Y-65906225D01*
X103923426Y-65985577D01*
X104033740Y-66044542D01*
X104153438Y-66080852D01*
X104277920Y-66093112D01*
X106277920Y-66093112D01*
X106402402Y-66080852D01*
X106522100Y-66044542D01*
X106632414Y-65985577D01*
X106729105Y-65906225D01*
X106808457Y-65809534D01*
X106867422Y-65699220D01*
X106900416Y-65590453D01*
X109322112Y-65590453D01*
X109417876Y-65854854D01*
X109707491Y-65995744D01*
X110019028Y-66077424D01*
X110340515Y-66096758D01*
X110659595Y-66053001D01*
X110964008Y-65947835D01*
X111137964Y-65854854D01*
X111233728Y-65590453D01*
X110277920Y-64634645D01*
X109322112Y-65590453D01*
X106900416Y-65590453D01*
X106903732Y-65579522D01*
X106915992Y-65455040D01*
X106915992Y-64517635D01*
X108636202Y-64517635D01*
X108679959Y-64836715D01*
X108785125Y-65141128D01*
X108878106Y-65315084D01*
X109142507Y-65410848D01*
X110098315Y-64455040D01*
X110457525Y-64455040D01*
X111413333Y-65410848D01*
X111677734Y-65315084D01*
X111818624Y-65025469D01*
X111900304Y-64713932D01*
X111919638Y-64392445D01*
X111875881Y-64073365D01*
X111770715Y-63768952D01*
X111677734Y-63594996D01*
X111413333Y-63499232D01*
X110457525Y-64455040D01*
X110098315Y-64455040D01*
X109142507Y-63499232D01*
X108878106Y-63594996D01*
X108737216Y-63884611D01*
X108655536Y-64196148D01*
X108636202Y-64517635D01*
X106915992Y-64517635D01*
X106915992Y-63455040D01*
X106903732Y-63330558D01*
X106900417Y-63319627D01*
X109322112Y-63319627D01*
X110277920Y-64275435D01*
X111233728Y-63319627D01*
X111137964Y-63055226D01*
X110848349Y-62914336D01*
X110536812Y-62832656D01*
X110215325Y-62813322D01*
X109896245Y-62857079D01*
X109591832Y-62962245D01*
X109417876Y-63055226D01*
X109322112Y-63319627D01*
X106900417Y-63319627D01*
X106867422Y-63210860D01*
X106808457Y-63100546D01*
X106729105Y-63003855D01*
X106632414Y-62924503D01*
X106522100Y-62865538D01*
X106402402Y-62829228D01*
X106277920Y-62816968D01*
X104277920Y-62816968D01*
X104153438Y-62829228D01*
X104033740Y-62865538D01*
X103923426Y-62924503D01*
X103826735Y-63003855D01*
X103747383Y-63100546D01*
X103688418Y-63210860D01*
X103652108Y-63330558D01*
X103639848Y-63455040D01*
X86778781Y-63455040D01*
X86776058Y-63450965D01*
X86409035Y-63083942D01*
X85977461Y-62795573D01*
X85497921Y-62596941D01*
X84988845Y-62495680D01*
X84469795Y-62495680D01*
X83960719Y-62596941D01*
X83481179Y-62795573D01*
X83049605Y-63083942D01*
X82826551Y-63306996D01*
X82831038Y-58991702D01*
X97129303Y-58991702D01*
X97200886Y-59235671D01*
X97456396Y-59356571D01*
X97730584Y-59425300D01*
X98012912Y-59439217D01*
X98292530Y-59397787D01*
X98558692Y-59302603D01*
X98683914Y-59235671D01*
X98755497Y-58991702D01*
X97942400Y-58178605D01*
X97129303Y-58991702D01*
X82831038Y-58991702D01*
X82831998Y-58069512D01*
X96502183Y-58069512D01*
X96543613Y-58349130D01*
X96638797Y-58615292D01*
X96705729Y-58740514D01*
X96949698Y-58812097D01*
X97762795Y-57999000D01*
X98122005Y-57999000D01*
X98935102Y-58812097D01*
X99179071Y-58740514D01*
X99299971Y-58485004D01*
X99368700Y-58210816D01*
X99382617Y-57928488D01*
X99341187Y-57648870D01*
X99246003Y-57382708D01*
X99179071Y-57257486D01*
X98935102Y-57185903D01*
X98122005Y-57999000D01*
X97762795Y-57999000D01*
X96949698Y-57185903D01*
X96705729Y-57257486D01*
X96584829Y-57512996D01*
X96516100Y-57787184D01*
X96502183Y-58069512D01*
X82831998Y-58069512D01*
X82835503Y-54699000D01*
X96504328Y-54699000D01*
X96504328Y-56299000D01*
X96516588Y-56423482D01*
X96552898Y-56543180D01*
X96611863Y-56653494D01*
X96691215Y-56750185D01*
X96787906Y-56829537D01*
X96898220Y-56888502D01*
X97017918Y-56924812D01*
X97142400Y-56937072D01*
X97149615Y-56937072D01*
X97129303Y-57006298D01*
X97942400Y-57819395D01*
X98755497Y-57006298D01*
X98735185Y-56937072D01*
X98742400Y-56937072D01*
X98866882Y-56924812D01*
X98986580Y-56888502D01*
X99096894Y-56829537D01*
X99193585Y-56750185D01*
X99272937Y-56653494D01*
X99331902Y-56543180D01*
X99368212Y-56423482D01*
X99380472Y-56299000D01*
X99380472Y-54699000D01*
X99368212Y-54574518D01*
X99331902Y-54454820D01*
X99272937Y-54344506D01*
X99193585Y-54247815D01*
X99096894Y-54168463D01*
X98986580Y-54109498D01*
X98866882Y-54073188D01*
X98742400Y-54060928D01*
X97142400Y-54060928D01*
X97017918Y-54073188D01*
X96898220Y-54109498D01*
X96787906Y-54168463D01*
X96691215Y-54247815D01*
X96611863Y-54344506D01*
X96552898Y-54454820D01*
X96516588Y-54574518D01*
X96504328Y-54699000D01*
X82835503Y-54699000D01*
X82847186Y-43467872D01*
X83490000Y-43467872D01*
X83490000Y-43908128D01*
X83575890Y-44339925D01*
X83744369Y-44746669D01*
X83988962Y-45112729D01*
X84300271Y-45424038D01*
X84666331Y-45668631D01*
X85073075Y-45837110D01*
X85504872Y-45923000D01*
X85945128Y-45923000D01*
X86376925Y-45837110D01*
X86783669Y-45668631D01*
X87149729Y-45424038D01*
X87461038Y-45112729D01*
X87705631Y-44746669D01*
X87874110Y-44339925D01*
X87960000Y-43908128D01*
X87960000Y-43467872D01*
X87874110Y-43036075D01*
X87705631Y-42629331D01*
X87461038Y-42263271D01*
X87149729Y-41951962D01*
X86783669Y-41707369D01*
X86376925Y-41538890D01*
X85945128Y-41453000D01*
X85504872Y-41453000D01*
X85073075Y-41538890D01*
X84666331Y-41707369D01*
X84300271Y-41951962D01*
X83988962Y-42263271D01*
X83744369Y-42629331D01*
X83575890Y-43036075D01*
X83490000Y-43467872D01*
X82847186Y-43467872D01*
X82849315Y-41421793D01*
X82856201Y-40882440D01*
X100836797Y-40854820D01*
X101071693Y-56989289D01*
G37*
%TD.AperFunction*%
D22*
X128250701Y-65992445D02*
X128130615Y-66124870D01*
X127985930Y-66366120D01*
X127891091Y-66630961D01*
X128012376Y-66853001D01*
X129156000Y-66853001D01*
X129156000Y-66833001D01*
X129410000Y-66833001D01*
X129410000Y-66853001D01*
X129430000Y-66853001D01*
X129430000Y-67107001D01*
X129410000Y-67107001D01*
X129410000Y-68249916D01*
X129632039Y-68371905D01*
X129766087Y-68331247D01*
X130020420Y-68211038D01*
X130246414Y-68043520D01*
X130435385Y-67835132D01*
X130546933Y-67649136D01*
X130551320Y-67659728D01*
X130708363Y-67894760D01*
X130908241Y-68094638D01*
X131143273Y-68251681D01*
X131404426Y-68359854D01*
X131645718Y-68407851D01*
X133581008Y-70343141D01*
X133616550Y-70386449D01*
X133789376Y-70528284D01*
X133986552Y-70633676D01*
X134200500Y-70698577D01*
X134351764Y-70713475D01*
X134422999Y-70720491D01*
X134478751Y-70715000D01*
X136150247Y-70715000D01*
X136205998Y-70720491D01*
X136261749Y-70715000D01*
X136261750Y-70715000D01*
X136428497Y-70698577D01*
X136440289Y-70695000D01*
X141851272Y-70695000D01*
X141805506Y-70719463D01*
X141708815Y-70798815D01*
X141629463Y-70895506D01*
X141592317Y-70965000D01*
X130980133Y-70965000D01*
X127344174Y-67329041D01*
X127891091Y-67329041D01*
X127985930Y-67593882D01*
X128130615Y-67835132D01*
X128319586Y-68043520D01*
X128545580Y-68211038D01*
X128799913Y-68331247D01*
X128933961Y-68371905D01*
X129156000Y-68249916D01*
X129156000Y-67107001D01*
X128012376Y-67107001D01*
X127891091Y-67329041D01*
X127344174Y-67329041D01*
X126737850Y-66722718D01*
X126689853Y-66481426D01*
X126581680Y-66220273D01*
X126424637Y-65985241D01*
X126423902Y-65984506D01*
X128250701Y-65992445D01*
%TA.AperFunction,Conductor*%
D23*
G36*
X128250701Y-65992445D02*
G01*
X128130615Y-66124870D01*
X127985930Y-66366120D01*
X127891091Y-66630961D01*
X128012376Y-66853001D01*
X129156000Y-66853001D01*
X129156000Y-66833001D01*
X129410000Y-66833001D01*
X129410000Y-66853001D01*
X129430000Y-66853001D01*
X129430000Y-67107001D01*
X129410000Y-67107001D01*
X129410000Y-68249916D01*
X129632039Y-68371905D01*
X129766087Y-68331247D01*
X130020420Y-68211038D01*
X130246414Y-68043520D01*
X130435385Y-67835132D01*
X130546933Y-67649136D01*
X130551320Y-67659728D01*
X130708363Y-67894760D01*
X130908241Y-68094638D01*
X131143273Y-68251681D01*
X131404426Y-68359854D01*
X131645718Y-68407851D01*
X133581008Y-70343141D01*
X133616550Y-70386449D01*
X133789376Y-70528284D01*
X133986552Y-70633676D01*
X134200500Y-70698577D01*
X134351764Y-70713475D01*
X134422999Y-70720491D01*
X134478751Y-70715000D01*
X136150247Y-70715000D01*
X136205998Y-70720491D01*
X136261749Y-70715000D01*
X136261750Y-70715000D01*
X136428497Y-70698577D01*
X136440289Y-70695000D01*
X141851272Y-70695000D01*
X141805506Y-70719463D01*
X141708815Y-70798815D01*
X141629463Y-70895506D01*
X141592317Y-70965000D01*
X130980133Y-70965000D01*
X127344174Y-67329041D01*
X127891091Y-67329041D01*
X127985930Y-67593882D01*
X128130615Y-67835132D01*
X128319586Y-68043520D01*
X128545580Y-68211038D01*
X128799913Y-68331247D01*
X128933961Y-68371905D01*
X129156000Y-68249916D01*
X129156000Y-67107001D01*
X128012376Y-67107001D01*
X127891091Y-67329041D01*
X127344174Y-67329041D01*
X126737850Y-66722718D01*
X126689853Y-66481426D01*
X126581680Y-66220273D01*
X126424637Y-65985241D01*
X126423902Y-65984506D01*
X128250701Y-65992445D01*
G37*
%TD.AperFunction*%
D22*
X134883831Y-66021273D02*
X134753615Y-66164869D01*
X134608930Y-66406119D01*
X134514091Y-66670960D01*
X134635376Y-66893000D01*
X135779000Y-66893000D01*
X135779000Y-66873000D01*
X136033000Y-66873000D01*
X136033000Y-66893000D01*
X136053000Y-66893000D01*
X136053000Y-67147000D01*
X136033000Y-67147000D01*
X136033000Y-67167000D01*
X135779000Y-67167000D01*
X135779000Y-67147000D01*
X134635376Y-67147000D01*
X134514091Y-67369040D01*
X134608930Y-67633881D01*
X134753615Y-67875131D01*
X134942586Y-68083519D01*
X135168580Y-68251037D01*
X135422913Y-68371246D01*
X135556961Y-68411904D01*
X135778998Y-68289916D01*
X135778998Y-68445000D01*
X134893131Y-68445000D01*
X133250850Y-66802719D01*
X133202853Y-66561427D01*
X133094680Y-66300274D01*
X132937637Y-66065242D01*
X132884981Y-66012586D01*
X134883831Y-66021273D01*
%TA.AperFunction,Conductor*%
D23*
G36*
X134883831Y-66021273D02*
G01*
X134753615Y-66164869D01*
X134608930Y-66406119D01*
X134514091Y-66670960D01*
X134635376Y-66893000D01*
X135779000Y-66893000D01*
X135779000Y-66873000D01*
X136033000Y-66873000D01*
X136033000Y-66893000D01*
X136053000Y-66893000D01*
X136053000Y-67147000D01*
X136033000Y-67147000D01*
X136033000Y-67167000D01*
X135779000Y-67167000D01*
X135779000Y-67147000D01*
X134635376Y-67147000D01*
X134514091Y-67369040D01*
X134608930Y-67633881D01*
X134753615Y-67875131D01*
X134942586Y-68083519D01*
X135168580Y-68251037D01*
X135422913Y-68371246D01*
X135556961Y-68411904D01*
X135778998Y-68289916D01*
X135778998Y-68445000D01*
X134893131Y-68445000D01*
X133250850Y-66802719D01*
X133202853Y-66561427D01*
X133094680Y-66300274D01*
X132937637Y-66065242D01*
X132884981Y-66012586D01*
X134883831Y-66021273D01*
G37*
%TD.AperFunction*%
D22*
X137174320Y-67699727D02*
X137331363Y-67934759D01*
X137531241Y-68134637D01*
X137766273Y-68291680D01*
X138027426Y-68399853D01*
X138153847Y-68425000D01*
X136281739Y-68425000D01*
X136225997Y-68419510D01*
X136170256Y-68425000D01*
X136170246Y-68425000D01*
X136033002Y-68438517D01*
X136033002Y-68289916D01*
X136255039Y-68411904D01*
X136389087Y-68371246D01*
X136643420Y-68251037D01*
X136869414Y-68083519D01*
X137058385Y-67875131D01*
X137169933Y-67689135D01*
X137174320Y-67699727D01*
%TA.AperFunction,Conductor*%
D23*
G36*
X137174320Y-67699727D02*
G01*
X137331363Y-67934759D01*
X137531241Y-68134637D01*
X137766273Y-68291680D01*
X138027426Y-68399853D01*
X138153847Y-68425000D01*
X136281739Y-68425000D01*
X136225997Y-68419510D01*
X136170256Y-68425000D01*
X136170246Y-68425000D01*
X136033002Y-68438517D01*
X136033002Y-68289916D01*
X136255039Y-68411904D01*
X136389087Y-68371246D01*
X136643420Y-68251037D01*
X136869414Y-68083519D01*
X137058385Y-67875131D01*
X137169933Y-67689135D01*
X137174320Y-67699727D01*
G37*
%TD.AperFunction*%
D22*
X141878223Y-66051670D02*
X141856525Y-66073368D01*
X141694010Y-66316589D01*
X141582068Y-66586842D01*
X141525000Y-66873740D01*
X141525000Y-67166260D01*
X141582068Y-67453158D01*
X141694010Y-67723411D01*
X141856525Y-67966632D01*
X142063368Y-68173475D01*
X142237760Y-68290000D01*
X142063368Y-68406525D01*
X142044893Y-68425000D01*
X138738153Y-68425000D01*
X138864574Y-68399853D01*
X139125727Y-68291680D01*
X139360759Y-68134637D01*
X139560637Y-67934759D01*
X139717680Y-67699727D01*
X139825853Y-67438574D01*
X139881000Y-67161335D01*
X139881000Y-66878665D01*
X139825853Y-66601426D01*
X139717680Y-66340273D01*
X139560637Y-66105241D01*
X139496716Y-66041320D01*
X141878223Y-66051670D01*
%TA.AperFunction,Conductor*%
D23*
G36*
X141878223Y-66051670D02*
G01*
X141856525Y-66073368D01*
X141694010Y-66316589D01*
X141582068Y-66586842D01*
X141525000Y-66873740D01*
X141525000Y-67166260D01*
X141582068Y-67453158D01*
X141694010Y-67723411D01*
X141856525Y-67966632D01*
X142063368Y-68173475D01*
X142237760Y-68290000D01*
X142063368Y-68406525D01*
X142044893Y-68425000D01*
X138738153Y-68425000D01*
X138864574Y-68399853D01*
X139125727Y-68291680D01*
X139360759Y-68134637D01*
X139560637Y-67934759D01*
X139717680Y-67699727D01*
X139825853Y-67438574D01*
X139881000Y-67161335D01*
X139881000Y-66878665D01*
X139825853Y-66601426D01*
X139717680Y-66340273D01*
X139560637Y-66105241D01*
X139496716Y-66041320D01*
X141878223Y-66051670D01*
G37*
%TD.AperFunction*%
%TD*%
D22*
%TO.N,Earth*%
X147681162Y-42150729D02*
X147681117Y-42151176D01*
X147681082Y-42183052D01*
X147681003Y-42215113D01*
X147681046Y-42215563D01*
X147661179Y-60287527D01*
X139874220Y-60300033D01*
X139884072Y-60200000D01*
X139884072Y-58600000D01*
X139871812Y-58475518D01*
X139835502Y-58355820D01*
X139776537Y-58245506D01*
X139697185Y-58148815D01*
X139600494Y-58069463D01*
X139560000Y-58047818D01*
X139560000Y-57369248D01*
X139543577Y-57202501D01*
X139538072Y-57184354D01*
X139538072Y-57175000D01*
X139521248Y-57004184D01*
X139471423Y-56839933D01*
X139390512Y-56688558D01*
X139281623Y-56555877D01*
X139228768Y-56512500D01*
X139281623Y-56469123D01*
X139390512Y-56336442D01*
X139471423Y-56185067D01*
X139521248Y-56020816D01*
X139538072Y-55850000D01*
X139538072Y-55840646D01*
X139543577Y-55822499D01*
X139560000Y-55655752D01*
X139560000Y-55645875D01*
X140849600Y-55645875D01*
X140849600Y-56164925D01*
X140950861Y-56674001D01*
X141149493Y-57153541D01*
X141437862Y-57585115D01*
X141804885Y-57952138D01*
X142236459Y-58240507D01*
X142715999Y-58439139D01*
X143225075Y-58540400D01*
X143744125Y-58540400D01*
X144253201Y-58439139D01*
X144732741Y-58240507D01*
X145164315Y-57952138D01*
X145531338Y-57585115D01*
X145819707Y-57153541D01*
X146018339Y-56674001D01*
X146119600Y-56164925D01*
X146119600Y-55645875D01*
X146018339Y-55136799D01*
X145819707Y-54657259D01*
X145531338Y-54225685D01*
X145164315Y-53858662D01*
X144732741Y-53570293D01*
X144253201Y-53371661D01*
X143744125Y-53270400D01*
X143225075Y-53270400D01*
X142715999Y-53371661D01*
X142236459Y-53570293D01*
X141804885Y-53858662D01*
X141437862Y-54225685D01*
X141149493Y-54657259D01*
X140950861Y-55136799D01*
X140849600Y-55645875D01*
X139560000Y-55645875D01*
X139560000Y-55595132D01*
X140450646Y-54704487D01*
X140493949Y-54668949D01*
X140588652Y-54553554D01*
X140635784Y-54496123D01*
X140741176Y-54298947D01*
X140806077Y-54084999D01*
X140827991Y-53862500D01*
X140822500Y-53806748D01*
X140822500Y-50432631D01*
X141343035Y-49912096D01*
X141437862Y-50054015D01*
X141804885Y-50421038D01*
X142236459Y-50709407D01*
X142715999Y-50908039D01*
X143225075Y-51009300D01*
X143744125Y-51009300D01*
X144253201Y-50908039D01*
X144732741Y-50709407D01*
X145164315Y-50421038D01*
X145531338Y-50054015D01*
X145819707Y-49622441D01*
X146018339Y-49142901D01*
X146119600Y-48633825D01*
X146119600Y-48114775D01*
X146018339Y-47605699D01*
X145819707Y-47126159D01*
X145531338Y-46694585D01*
X145164315Y-46327562D01*
X144732741Y-46039193D01*
X144491856Y-45939415D01*
X144453676Y-45813554D01*
X144348284Y-45616378D01*
X144301359Y-45559200D01*
X144597972Y-45618200D01*
X145038228Y-45618200D01*
X145470025Y-45532310D01*
X145876769Y-45363831D01*
X146242829Y-45119238D01*
X146554138Y-44807929D01*
X146798731Y-44441869D01*
X146967210Y-44035125D01*
X147053100Y-43603328D01*
X147053100Y-43163072D01*
X146967210Y-42731275D01*
X146798731Y-42324531D01*
X146554138Y-41958471D01*
X146242829Y-41647162D01*
X145876769Y-41402569D01*
X145470025Y-41234090D01*
X145038228Y-41148200D01*
X144597972Y-41148200D01*
X144166175Y-41234090D01*
X143759431Y-41402569D01*
X143393371Y-41647162D01*
X143082062Y-41958471D01*
X142837469Y-42324531D01*
X142668990Y-42731275D01*
X142583100Y-43163072D01*
X142583100Y-43603328D01*
X142668990Y-44035125D01*
X142837469Y-44441869D01*
X143082062Y-44807929D01*
X143385109Y-45110976D01*
X143177501Y-45131423D01*
X142963553Y-45196324D01*
X142766377Y-45301716D01*
X142636856Y-45408012D01*
X138924360Y-49120509D01*
X138881052Y-49156051D01*
X138739217Y-49328877D01*
X138701201Y-49400001D01*
X138633824Y-49526054D01*
X138568923Y-49740002D01*
X138547009Y-49962500D01*
X138552501Y-50018261D01*
X138552500Y-53392367D01*
X137661860Y-54283009D01*
X137618552Y-54318551D01*
X137476717Y-54491377D01*
X137371324Y-54688553D01*
X137306423Y-54902501D01*
X137306423Y-54902502D01*
X137284509Y-55125000D01*
X137290000Y-55180751D01*
X137290000Y-55655751D01*
X137306423Y-55822498D01*
X137311928Y-55840645D01*
X137311928Y-55850000D01*
X137328752Y-56020816D01*
X137378577Y-56185067D01*
X137459488Y-56336442D01*
X137568377Y-56469123D01*
X137621232Y-56512500D01*
X137568377Y-56555877D01*
X137459488Y-56688558D01*
X137378577Y-56839933D01*
X137328752Y-57004184D01*
X137311928Y-57175000D01*
X137311928Y-57184355D01*
X137306423Y-57202502D01*
X137290000Y-57369249D01*
X137290000Y-58070699D01*
X137194815Y-58148815D01*
X137115463Y-58245506D01*
X137056498Y-58355820D01*
X137020188Y-58475518D01*
X137017769Y-58500080D01*
X136869414Y-58336481D01*
X136643420Y-58168963D01*
X136389087Y-58048754D01*
X136255039Y-58008096D01*
X136033000Y-58130085D01*
X136033000Y-59273000D01*
X136053000Y-59273000D01*
X136053000Y-59527000D01*
X136033000Y-59527000D01*
X136033000Y-59547000D01*
X135779000Y-59547000D01*
X135779000Y-59527000D01*
X134635376Y-59527000D01*
X134514091Y-59749040D01*
X134608930Y-60013881D01*
X134753615Y-60255131D01*
X134801720Y-60308179D01*
X133240863Y-60310686D01*
X133248812Y-60284483D01*
X133261072Y-60160001D01*
X133261072Y-59050960D01*
X134514091Y-59050960D01*
X134635376Y-59273000D01*
X135779000Y-59273000D01*
X135779000Y-58130085D01*
X135556961Y-58008096D01*
X135422913Y-58048754D01*
X135168580Y-58168963D01*
X134942586Y-58336481D01*
X134753615Y-58544869D01*
X134608930Y-58786119D01*
X134514091Y-59050960D01*
X133261072Y-59050960D01*
X133261072Y-58560001D01*
X133248812Y-58435519D01*
X133212502Y-58315821D01*
X133153537Y-58205507D01*
X133074185Y-58108816D01*
X132977494Y-58029464D01*
X132867180Y-57970499D01*
X132825000Y-57957704D01*
X132825000Y-57296748D01*
X132808577Y-57130001D01*
X132803072Y-57111854D01*
X132803072Y-57102500D01*
X132786248Y-56931684D01*
X132736423Y-56767433D01*
X132655512Y-56616058D01*
X132546623Y-56483377D01*
X132493768Y-56440000D01*
X132546623Y-56396623D01*
X132655512Y-56263942D01*
X132736423Y-56112567D01*
X132786248Y-55948316D01*
X132803072Y-55777500D01*
X132803072Y-55768146D01*
X132808577Y-55749999D01*
X132825000Y-55583252D01*
X132825000Y-54380131D01*
X137041988Y-50163144D01*
X137148283Y-50033623D01*
X137253675Y-49836447D01*
X137318577Y-49622500D01*
X137340490Y-49400001D01*
X137318577Y-49177502D01*
X137253675Y-48963554D01*
X137148283Y-48766378D01*
X137006448Y-48593552D01*
X136833622Y-48451717D01*
X136636446Y-48346325D01*
X136422498Y-48281423D01*
X136199999Y-48259510D01*
X135977500Y-48281423D01*
X135763553Y-48346325D01*
X135566377Y-48451717D01*
X135436856Y-48558012D01*
X130926860Y-53068009D01*
X130883552Y-53103551D01*
X130741717Y-53276377D01*
X130690787Y-53371661D01*
X130636324Y-53473554D01*
X130571423Y-53687502D01*
X130549509Y-53910000D01*
X130555000Y-53965751D01*
X130555000Y-55583251D01*
X130571423Y-55749998D01*
X130576928Y-55768145D01*
X130576928Y-55777500D01*
X130593752Y-55948316D01*
X130643577Y-56112567D01*
X130724488Y-56263942D01*
X130833377Y-56396623D01*
X130886232Y-56440000D01*
X130833377Y-56483377D01*
X130724488Y-56616058D01*
X130643577Y-56767433D01*
X130593752Y-56931684D01*
X130576928Y-57102500D01*
X130576928Y-57111855D01*
X130571423Y-57130002D01*
X130555000Y-57296749D01*
X130555000Y-58129305D01*
X130492463Y-58205507D01*
X130433498Y-58315821D01*
X130397188Y-58435519D01*
X130394769Y-58460081D01*
X130246414Y-58296482D01*
X130020420Y-58128964D01*
X129766087Y-58008755D01*
X129632039Y-57968097D01*
X129410000Y-58090086D01*
X129410000Y-59233001D01*
X129430000Y-59233001D01*
X129430000Y-59487001D01*
X129410000Y-59487001D01*
X129410000Y-59507001D01*
X129156000Y-59507001D01*
X129156000Y-59487001D01*
X128012376Y-59487001D01*
X127891091Y-59709041D01*
X127985930Y-59973882D01*
X128130615Y-60215132D01*
X128224571Y-60318742D01*
X126700409Y-60321190D01*
X126735812Y-60204482D01*
X126748072Y-60080000D01*
X126748072Y-59010961D01*
X127891091Y-59010961D01*
X128012376Y-59233001D01*
X129156000Y-59233001D01*
X129156000Y-58090086D01*
X128933961Y-57968097D01*
X128799913Y-58008755D01*
X128545580Y-58128964D01*
X128319586Y-58296482D01*
X128130615Y-58504870D01*
X127985930Y-58746120D01*
X127891091Y-59010961D01*
X126748072Y-59010961D01*
X126748072Y-58480000D01*
X126735812Y-58355518D01*
X126699502Y-58235820D01*
X126640537Y-58125506D01*
X126561185Y-58028815D01*
X126464494Y-57949463D01*
X126445000Y-57939043D01*
X126445000Y-57299248D01*
X126428577Y-57132501D01*
X126423072Y-57114354D01*
X126423072Y-57105000D01*
X126406248Y-56934184D01*
X126356423Y-56769933D01*
X126275512Y-56618558D01*
X126166623Y-56485877D01*
X126113768Y-56442500D01*
X126166623Y-56399123D01*
X126275512Y-56266442D01*
X126356423Y-56115067D01*
X126406248Y-55950816D01*
X126423072Y-55780000D01*
X126423072Y-55770646D01*
X126428577Y-55752499D01*
X126445000Y-55585752D01*
X126445000Y-55460131D01*
X135791988Y-46113144D01*
X135898284Y-45983623D01*
X136003676Y-45786447D01*
X136068577Y-45572499D01*
X136090491Y-45350000D01*
X136068577Y-45127501D01*
X136003676Y-44913554D01*
X135898284Y-44716377D01*
X135756449Y-44543551D01*
X135583623Y-44401716D01*
X135386446Y-44296324D01*
X135172499Y-44231423D01*
X134950000Y-44209509D01*
X134727501Y-44231423D01*
X134513553Y-44296324D01*
X134316377Y-44401716D01*
X134186856Y-44508012D01*
X124546860Y-54148009D01*
X124503552Y-54183551D01*
X124361717Y-54356377D01*
X124256324Y-54553553D01*
X124221319Y-54668949D01*
X124191423Y-54767502D01*
X124169509Y-54990000D01*
X124175000Y-55045751D01*
X124175000Y-55585751D01*
X124191423Y-55752498D01*
X124196928Y-55770645D01*
X124196928Y-55780000D01*
X124213752Y-55950816D01*
X124263577Y-56115067D01*
X124344488Y-56266442D01*
X124453377Y-56399123D01*
X124506232Y-56442500D01*
X124453377Y-56485877D01*
X124344488Y-56618558D01*
X124263577Y-56769933D01*
X124213752Y-56934184D01*
X124196928Y-57105000D01*
X124196928Y-57114355D01*
X124191423Y-57132502D01*
X124175000Y-57299249D01*
X124175000Y-57939043D01*
X124155506Y-57949463D01*
X124058815Y-58028815D01*
X123979463Y-58125506D01*
X123920498Y-58235820D01*
X123884188Y-58355518D01*
X123881769Y-58380080D01*
X123733414Y-58216481D01*
X123507420Y-58048963D01*
X123253087Y-57928754D01*
X123119039Y-57888096D01*
X122897000Y-58010085D01*
X122897000Y-59153000D01*
X122917000Y-59153000D01*
X122917000Y-59407000D01*
X122897000Y-59407000D01*
X122897000Y-59427000D01*
X122643000Y-59427000D01*
X122643000Y-59407000D01*
X121499376Y-59407000D01*
X121378091Y-59629040D01*
X121472930Y-59893881D01*
X121617615Y-60135131D01*
X121793484Y-60329070D01*
X119683529Y-60332459D01*
X119452762Y-59360930D01*
X119444662Y-59337389D01*
X119432125Y-59315879D01*
X119415632Y-59297229D01*
X119395818Y-59282155D01*
X119373444Y-59271236D01*
X119349370Y-59264892D01*
X119324520Y-59263366D01*
X119299850Y-59266718D01*
X119276309Y-59274818D01*
X119254799Y-59287355D01*
X119236149Y-59303848D01*
X119221075Y-59323662D01*
X119210156Y-59346036D01*
X119203812Y-59370110D01*
X119202244Y-59386948D01*
X119154728Y-61197300D01*
X114961880Y-61148088D01*
X114905066Y-58930960D01*
X121378091Y-58930960D01*
X121499376Y-59153000D01*
X122643000Y-59153000D01*
X122643000Y-58010085D01*
X122420961Y-57888096D01*
X122286913Y-57928754D01*
X122032580Y-58048963D01*
X121806586Y-58216481D01*
X121617615Y-58424869D01*
X121472930Y-58666119D01*
X121378091Y-58930960D01*
X114905066Y-58930960D01*
X114862050Y-57252353D01*
X123928354Y-57127128D01*
X123953094Y-57124346D01*
X123976817Y-57116790D01*
X123998609Y-57104752D01*
X124017634Y-57088694D01*
X124033161Y-57069232D01*
X124044593Y-57047116D01*
X124051490Y-57023194D01*
X124053600Y-56999871D01*
X124019335Y-40819209D01*
X147684530Y-40782857D01*
X147681162Y-42150729D01*
%TA.AperFunction,Conductor*%
D23*
G36*
X147681162Y-42150729D02*
G01*
X147681117Y-42151176D01*
X147681082Y-42183052D01*
X147681003Y-42215113D01*
X147681046Y-42215563D01*
X147661179Y-60287527D01*
X139874220Y-60300033D01*
X139884072Y-60200000D01*
X139884072Y-58600000D01*
X139871812Y-58475518D01*
X139835502Y-58355820D01*
X139776537Y-58245506D01*
X139697185Y-58148815D01*
X139600494Y-58069463D01*
X139560000Y-58047818D01*
X139560000Y-57369248D01*
X139543577Y-57202501D01*
X139538072Y-57184354D01*
X139538072Y-57175000D01*
X139521248Y-57004184D01*
X139471423Y-56839933D01*
X139390512Y-56688558D01*
X139281623Y-56555877D01*
X139228768Y-56512500D01*
X139281623Y-56469123D01*
X139390512Y-56336442D01*
X139471423Y-56185067D01*
X139521248Y-56020816D01*
X139538072Y-55850000D01*
X139538072Y-55840646D01*
X139543577Y-55822499D01*
X139560000Y-55655752D01*
X139560000Y-55645875D01*
X140849600Y-55645875D01*
X140849600Y-56164925D01*
X140950861Y-56674001D01*
X141149493Y-57153541D01*
X141437862Y-57585115D01*
X141804885Y-57952138D01*
X142236459Y-58240507D01*
X142715999Y-58439139D01*
X143225075Y-58540400D01*
X143744125Y-58540400D01*
X144253201Y-58439139D01*
X144732741Y-58240507D01*
X145164315Y-57952138D01*
X145531338Y-57585115D01*
X145819707Y-57153541D01*
X146018339Y-56674001D01*
X146119600Y-56164925D01*
X146119600Y-55645875D01*
X146018339Y-55136799D01*
X145819707Y-54657259D01*
X145531338Y-54225685D01*
X145164315Y-53858662D01*
X144732741Y-53570293D01*
X144253201Y-53371661D01*
X143744125Y-53270400D01*
X143225075Y-53270400D01*
X142715999Y-53371661D01*
X142236459Y-53570293D01*
X141804885Y-53858662D01*
X141437862Y-54225685D01*
X141149493Y-54657259D01*
X140950861Y-55136799D01*
X140849600Y-55645875D01*
X139560000Y-55645875D01*
X139560000Y-55595132D01*
X140450646Y-54704487D01*
X140493949Y-54668949D01*
X140588652Y-54553554D01*
X140635784Y-54496123D01*
X140741176Y-54298947D01*
X140806077Y-54084999D01*
X140827991Y-53862500D01*
X140822500Y-53806748D01*
X140822500Y-50432631D01*
X141343035Y-49912096D01*
X141437862Y-50054015D01*
X141804885Y-50421038D01*
X142236459Y-50709407D01*
X142715999Y-50908039D01*
X143225075Y-51009300D01*
X143744125Y-51009300D01*
X144253201Y-50908039D01*
X144732741Y-50709407D01*
X145164315Y-50421038D01*
X145531338Y-50054015D01*
X145819707Y-49622441D01*
X146018339Y-49142901D01*
X146119600Y-48633825D01*
X146119600Y-48114775D01*
X146018339Y-47605699D01*
X145819707Y-47126159D01*
X145531338Y-46694585D01*
X145164315Y-46327562D01*
X144732741Y-46039193D01*
X144491856Y-45939415D01*
X144453676Y-45813554D01*
X144348284Y-45616378D01*
X144301359Y-45559200D01*
X144597972Y-45618200D01*
X145038228Y-45618200D01*
X145470025Y-45532310D01*
X145876769Y-45363831D01*
X146242829Y-45119238D01*
X146554138Y-44807929D01*
X146798731Y-44441869D01*
X146967210Y-44035125D01*
X147053100Y-43603328D01*
X147053100Y-43163072D01*
X146967210Y-42731275D01*
X146798731Y-42324531D01*
X146554138Y-41958471D01*
X146242829Y-41647162D01*
X145876769Y-41402569D01*
X145470025Y-41234090D01*
X145038228Y-41148200D01*
X144597972Y-41148200D01*
X144166175Y-41234090D01*
X143759431Y-41402569D01*
X143393371Y-41647162D01*
X143082062Y-41958471D01*
X142837469Y-42324531D01*
X142668990Y-42731275D01*
X142583100Y-43163072D01*
X142583100Y-43603328D01*
X142668990Y-44035125D01*
X142837469Y-44441869D01*
X143082062Y-44807929D01*
X143385109Y-45110976D01*
X143177501Y-45131423D01*
X142963553Y-45196324D01*
X142766377Y-45301716D01*
X142636856Y-45408012D01*
X138924360Y-49120509D01*
X138881052Y-49156051D01*
X138739217Y-49328877D01*
X138701201Y-49400001D01*
X138633824Y-49526054D01*
X138568923Y-49740002D01*
X138547009Y-49962500D01*
X138552501Y-50018261D01*
X138552500Y-53392367D01*
X137661860Y-54283009D01*
X137618552Y-54318551D01*
X137476717Y-54491377D01*
X137371324Y-54688553D01*
X137306423Y-54902501D01*
X137306423Y-54902502D01*
X137284509Y-55125000D01*
X137290000Y-55180751D01*
X137290000Y-55655751D01*
X137306423Y-55822498D01*
X137311928Y-55840645D01*
X137311928Y-55850000D01*
X137328752Y-56020816D01*
X137378577Y-56185067D01*
X137459488Y-56336442D01*
X137568377Y-56469123D01*
X137621232Y-56512500D01*
X137568377Y-56555877D01*
X137459488Y-56688558D01*
X137378577Y-56839933D01*
X137328752Y-57004184D01*
X137311928Y-57175000D01*
X137311928Y-57184355D01*
X137306423Y-57202502D01*
X137290000Y-57369249D01*
X137290000Y-58070699D01*
X137194815Y-58148815D01*
X137115463Y-58245506D01*
X137056498Y-58355820D01*
X137020188Y-58475518D01*
X137017769Y-58500080D01*
X136869414Y-58336481D01*
X136643420Y-58168963D01*
X136389087Y-58048754D01*
X136255039Y-58008096D01*
X136033000Y-58130085D01*
X136033000Y-59273000D01*
X136053000Y-59273000D01*
X136053000Y-59527000D01*
X136033000Y-59527000D01*
X136033000Y-59547000D01*
X135779000Y-59547000D01*
X135779000Y-59527000D01*
X134635376Y-59527000D01*
X134514091Y-59749040D01*
X134608930Y-60013881D01*
X134753615Y-60255131D01*
X134801720Y-60308179D01*
X133240863Y-60310686D01*
X133248812Y-60284483D01*
X133261072Y-60160001D01*
X133261072Y-59050960D01*
X134514091Y-59050960D01*
X134635376Y-59273000D01*
X135779000Y-59273000D01*
X135779000Y-58130085D01*
X135556961Y-58008096D01*
X135422913Y-58048754D01*
X135168580Y-58168963D01*
X134942586Y-58336481D01*
X134753615Y-58544869D01*
X134608930Y-58786119D01*
X134514091Y-59050960D01*
X133261072Y-59050960D01*
X133261072Y-58560001D01*
X133248812Y-58435519D01*
X133212502Y-58315821D01*
X133153537Y-58205507D01*
X133074185Y-58108816D01*
X132977494Y-58029464D01*
X132867180Y-57970499D01*
X132825000Y-57957704D01*
X132825000Y-57296748D01*
X132808577Y-57130001D01*
X132803072Y-57111854D01*
X132803072Y-57102500D01*
X132786248Y-56931684D01*
X132736423Y-56767433D01*
X132655512Y-56616058D01*
X132546623Y-56483377D01*
X132493768Y-56440000D01*
X132546623Y-56396623D01*
X132655512Y-56263942D01*
X132736423Y-56112567D01*
X132786248Y-55948316D01*
X132803072Y-55777500D01*
X132803072Y-55768146D01*
X132808577Y-55749999D01*
X132825000Y-55583252D01*
X132825000Y-54380131D01*
X137041988Y-50163144D01*
X137148283Y-50033623D01*
X137253675Y-49836447D01*
X137318577Y-49622500D01*
X137340490Y-49400001D01*
X137318577Y-49177502D01*
X137253675Y-48963554D01*
X137148283Y-48766378D01*
X137006448Y-48593552D01*
X136833622Y-48451717D01*
X136636446Y-48346325D01*
X136422498Y-48281423D01*
X136199999Y-48259510D01*
X135977500Y-48281423D01*
X135763553Y-48346325D01*
X135566377Y-48451717D01*
X135436856Y-48558012D01*
X130926860Y-53068009D01*
X130883552Y-53103551D01*
X130741717Y-53276377D01*
X130690787Y-53371661D01*
X130636324Y-53473554D01*
X130571423Y-53687502D01*
X130549509Y-53910000D01*
X130555000Y-53965751D01*
X130555000Y-55583251D01*
X130571423Y-55749998D01*
X130576928Y-55768145D01*
X130576928Y-55777500D01*
X130593752Y-55948316D01*
X130643577Y-56112567D01*
X130724488Y-56263942D01*
X130833377Y-56396623D01*
X130886232Y-56440000D01*
X130833377Y-56483377D01*
X130724488Y-56616058D01*
X130643577Y-56767433D01*
X130593752Y-56931684D01*
X130576928Y-57102500D01*
X130576928Y-57111855D01*
X130571423Y-57130002D01*
X130555000Y-57296749D01*
X130555000Y-58129305D01*
X130492463Y-58205507D01*
X130433498Y-58315821D01*
X130397188Y-58435519D01*
X130394769Y-58460081D01*
X130246414Y-58296482D01*
X130020420Y-58128964D01*
X129766087Y-58008755D01*
X129632039Y-57968097D01*
X129410000Y-58090086D01*
X129410000Y-59233001D01*
X129430000Y-59233001D01*
X129430000Y-59487001D01*
X129410000Y-59487001D01*
X129410000Y-59507001D01*
X129156000Y-59507001D01*
X129156000Y-59487001D01*
X128012376Y-59487001D01*
X127891091Y-59709041D01*
X127985930Y-59973882D01*
X128130615Y-60215132D01*
X128224571Y-60318742D01*
X126700409Y-60321190D01*
X126735812Y-60204482D01*
X126748072Y-60080000D01*
X126748072Y-59010961D01*
X127891091Y-59010961D01*
X128012376Y-59233001D01*
X129156000Y-59233001D01*
X129156000Y-58090086D01*
X128933961Y-57968097D01*
X128799913Y-58008755D01*
X128545580Y-58128964D01*
X128319586Y-58296482D01*
X128130615Y-58504870D01*
X127985930Y-58746120D01*
X127891091Y-59010961D01*
X126748072Y-59010961D01*
X126748072Y-58480000D01*
X126735812Y-58355518D01*
X126699502Y-58235820D01*
X126640537Y-58125506D01*
X126561185Y-58028815D01*
X126464494Y-57949463D01*
X126445000Y-57939043D01*
X126445000Y-57299248D01*
X126428577Y-57132501D01*
X126423072Y-57114354D01*
X126423072Y-57105000D01*
X126406248Y-56934184D01*
X126356423Y-56769933D01*
X126275512Y-56618558D01*
X126166623Y-56485877D01*
X126113768Y-56442500D01*
X126166623Y-56399123D01*
X126275512Y-56266442D01*
X126356423Y-56115067D01*
X126406248Y-55950816D01*
X126423072Y-55780000D01*
X126423072Y-55770646D01*
X126428577Y-55752499D01*
X126445000Y-55585752D01*
X126445000Y-55460131D01*
X135791988Y-46113144D01*
X135898284Y-45983623D01*
X136003676Y-45786447D01*
X136068577Y-45572499D01*
X136090491Y-45350000D01*
X136068577Y-45127501D01*
X136003676Y-44913554D01*
X135898284Y-44716377D01*
X135756449Y-44543551D01*
X135583623Y-44401716D01*
X135386446Y-44296324D01*
X135172499Y-44231423D01*
X134950000Y-44209509D01*
X134727501Y-44231423D01*
X134513553Y-44296324D01*
X134316377Y-44401716D01*
X134186856Y-44508012D01*
X124546860Y-54148009D01*
X124503552Y-54183551D01*
X124361717Y-54356377D01*
X124256324Y-54553553D01*
X124221319Y-54668949D01*
X124191423Y-54767502D01*
X124169509Y-54990000D01*
X124175000Y-55045751D01*
X124175000Y-55585751D01*
X124191423Y-55752498D01*
X124196928Y-55770645D01*
X124196928Y-55780000D01*
X124213752Y-55950816D01*
X124263577Y-56115067D01*
X124344488Y-56266442D01*
X124453377Y-56399123D01*
X124506232Y-56442500D01*
X124453377Y-56485877D01*
X124344488Y-56618558D01*
X124263577Y-56769933D01*
X124213752Y-56934184D01*
X124196928Y-57105000D01*
X124196928Y-57114355D01*
X124191423Y-57132502D01*
X124175000Y-57299249D01*
X124175000Y-57939043D01*
X124155506Y-57949463D01*
X124058815Y-58028815D01*
X123979463Y-58125506D01*
X123920498Y-58235820D01*
X123884188Y-58355518D01*
X123881769Y-58380080D01*
X123733414Y-58216481D01*
X123507420Y-58048963D01*
X123253087Y-57928754D01*
X123119039Y-57888096D01*
X122897000Y-58010085D01*
X122897000Y-59153000D01*
X122917000Y-59153000D01*
X122917000Y-59407000D01*
X122897000Y-59407000D01*
X122897000Y-59427000D01*
X122643000Y-59427000D01*
X122643000Y-59407000D01*
X121499376Y-59407000D01*
X121378091Y-59629040D01*
X121472930Y-59893881D01*
X121617615Y-60135131D01*
X121793484Y-60329070D01*
X119683529Y-60332459D01*
X119452762Y-59360930D01*
X119444662Y-59337389D01*
X119432125Y-59315879D01*
X119415632Y-59297229D01*
X119395818Y-59282155D01*
X119373444Y-59271236D01*
X119349370Y-59264892D01*
X119324520Y-59263366D01*
X119299850Y-59266718D01*
X119276309Y-59274818D01*
X119254799Y-59287355D01*
X119236149Y-59303848D01*
X119221075Y-59323662D01*
X119210156Y-59346036D01*
X119203812Y-59370110D01*
X119202244Y-59386948D01*
X119154728Y-61197300D01*
X114961880Y-61148088D01*
X114905066Y-58930960D01*
X121378091Y-58930960D01*
X121499376Y-59153000D01*
X122643000Y-59153000D01*
X122643000Y-58010085D01*
X122420961Y-57888096D01*
X122286913Y-57928754D01*
X122032580Y-58048963D01*
X121806586Y-58216481D01*
X121617615Y-58424869D01*
X121472930Y-58666119D01*
X121378091Y-58930960D01*
X114905066Y-58930960D01*
X114862050Y-57252353D01*
X123928354Y-57127128D01*
X123953094Y-57124346D01*
X123976817Y-57116790D01*
X123998609Y-57104752D01*
X124017634Y-57088694D01*
X124033161Y-57069232D01*
X124044593Y-57047116D01*
X124051490Y-57023194D01*
X124053600Y-56999871D01*
X124019335Y-40819209D01*
X147684530Y-40782857D01*
X147681162Y-42150729D01*
G37*
%TD.AperFunction*%
%TD*%
M02*
