%TF.GenerationSoftware,KiCad,Pcbnew,5.1.10*%
%TF.CreationDate,2021-12-10T15:48:24+01:00*%
%TF.ProjectId,Voeding,566f6564-696e-4672-9e6b-696361645f70,rev?*%
%TF.SameCoordinates,Original*%
%TF.FileFunction,Copper,L1,Top*%
%TF.FilePolarity,Positive*%
%FSLAX46Y46*%
G04 Gerber Fmt 4.6, Leading zero omitted, Abs format (unit mm)*
G04 Created by KiCad (PCBNEW 5.1.10) date 2021-12-10 15:48:24*
%MOMM*%
%LPD*%
G01*
G04 APERTURE LIST*
%TA.AperFunction,SMDPad,CuDef*%
%ADD10R,0.889000X0.812800*%
%TD*%
%TA.AperFunction,ComponentPad*%
%ADD11C,2.000000*%
%TD*%
%TA.AperFunction,ComponentPad*%
%ADD12R,2.000000X2.000000*%
%TD*%
%TA.AperFunction,ComponentPad*%
%ADD13O,1.600000X1.600000*%
%TD*%
%TA.AperFunction,ComponentPad*%
%ADD14R,1.600000X1.600000*%
%TD*%
%TA.AperFunction,SMDPad,CuDef*%
%ADD15R,1.500000X0.400000*%
%TD*%
%TA.AperFunction,SMDPad,CuDef*%
%ADD16R,0.812800X0.889000*%
%TD*%
%TA.AperFunction,SMDPad,CuDef*%
%ADD17R,10.800000X9.400000*%
%TD*%
%TA.AperFunction,SMDPad,CuDef*%
%ADD18R,1.100000X4.600000*%
%TD*%
%TA.AperFunction,SMDPad,CuDef*%
%ADD19R,1.599999X0.650001*%
%TD*%
%TA.AperFunction,SMDPad,CuDef*%
%ADD20R,2.080000X1.070000*%
%TD*%
%TA.AperFunction,SMDPad,CuDef*%
%ADD21R,0.900000X0.800000*%
%TD*%
%TA.AperFunction,SMDPad,CuDef*%
%ADD22R,5.300000X2.000000*%
%TD*%
%TA.AperFunction,SMDPad,CuDef*%
%ADD23R,3.600000X2.700000*%
%TD*%
%TA.AperFunction,ComponentPad*%
%ADD24O,1.700000X1.700000*%
%TD*%
%TA.AperFunction,ComponentPad*%
%ADD25R,1.700000X1.700000*%
%TD*%
%TA.AperFunction,ComponentPad*%
%ADD26C,4.000000*%
%TD*%
%TA.AperFunction,SMDPad,CuDef*%
%ADD27R,0.900000X1.200000*%
%TD*%
%TA.AperFunction,SMDPad,CuDef*%
%ADD28R,1.100000X1.100000*%
%TD*%
%TA.AperFunction,SMDPad,CuDef*%
%ADD29R,3.300000X4.500000*%
%TD*%
%TA.AperFunction,SMDPad,CuDef*%
%ADD30R,1.500000X1.050000*%
%TD*%
%TA.AperFunction,SMDPad,CuDef*%
%ADD31R,1.500000X2.400000*%
%TD*%
%TA.AperFunction,SMDPad,CuDef*%
%ADD32R,1.000000X1.000000*%
%TD*%
%TA.AperFunction,ComponentPad*%
%ADD33C,1.600000*%
%TD*%
%TA.AperFunction,SMDPad,CuDef*%
%ADD34R,0.800000X0.900000*%
%TD*%
%TA.AperFunction,SMDPad,CuDef*%
%ADD35R,4.500000X3.300000*%
%TD*%
%TA.AperFunction,ViaPad*%
%ADD36C,0.800000*%
%TD*%
%TA.AperFunction,Conductor*%
%ADD37C,0.250000*%
%TD*%
%TA.AperFunction,Conductor*%
%ADD38C,1.000000*%
%TD*%
%TA.AperFunction,Conductor*%
%ADD39C,0.500000*%
%TD*%
%TA.AperFunction,Conductor*%
%ADD40C,3.000000*%
%TD*%
%TA.AperFunction,Conductor*%
%ADD41C,0.254000*%
%TD*%
%TA.AperFunction,Conductor*%
%ADD42C,0.150000*%
%TD*%
G04 APERTURE END LIST*
D10*
%TO.P,U3,1*%
%TO.N,GND*%
X136916279Y-80435559D03*
%TO.P,U3,2*%
%TO.N,3.9OVLO_m*%
X136916279Y-78385561D03*
%TO.P,U3,3*%
%TO.N,+3V3*%
X135026280Y-79410560D03*
%TD*%
D11*
%TO.P,C2,2*%
%TO.N,GND*%
X110277920Y-64455040D03*
D12*
%TO.P,C2,1*%
%TO.N,VDC*%
X105277920Y-64455040D03*
%TD*%
D10*
%TO.P,U8,3*%
%TO.N,+3.3VP*%
X136453641Y-53933199D03*
%TO.P,U8,2*%
%TO.N,3.3UVLO*%
X138343640Y-52908200D03*
%TO.P,U8,1*%
%TO.N,Earth*%
X138343640Y-54958198D03*
%TD*%
D13*
%TO.P,U12,4*%
%TO.N,~3.3V_ISO_OV*%
X125310000Y-66900000D03*
%TO.P,U12,2*%
%TO.N,Earth*%
X122770000Y-59280000D03*
%TO.P,U12,3*%
%TO.N,GND*%
X122770000Y-66900000D03*
D14*
%TO.P,U12,1*%
%TO.N,Net-(R18-Pad1)*%
X125310000Y-59280000D03*
%TD*%
D13*
%TO.P,U11,4*%
%TO.N,+3.3V_ISO_UV*%
X131823000Y-66980001D03*
%TO.P,U11,2*%
%TO.N,Earth*%
X129283000Y-59360001D03*
%TO.P,U11,3*%
%TO.N,GND*%
X129283000Y-66980001D03*
D14*
%TO.P,U11,1*%
%TO.N,Net-(R16-Pad1)*%
X131823000Y-59360001D03*
%TD*%
D13*
%TO.P,U10,4*%
%TO.N,+3.3V_ISO_present*%
X138446000Y-67020000D03*
%TO.P,U10,2*%
%TO.N,Earth*%
X135906000Y-59400000D03*
%TO.P,U10,3*%
%TO.N,GND*%
X135906000Y-67020000D03*
D14*
%TO.P,U10,1*%
%TO.N,Net-(R13-Pad2)*%
X138446000Y-59400000D03*
%TD*%
D15*
%TO.P,U6,6*%
%TO.N,Net-(R9-Pad1)*%
X130501080Y-79542400D03*
%TO.P,U6,5*%
%TO.N,+3V3*%
X130501080Y-78892400D03*
%TO.P,U6,4*%
%TO.N,UVL_OVL_3.3_m_MOSF*%
X130501080Y-78242400D03*
%TO.P,U6,3*%
%TO.N,Net-(R10-Pad2)*%
X133161080Y-78242400D03*
%TO.P,U6,2*%
%TO.N,GND*%
X133161080Y-78892400D03*
%TO.P,U6,1*%
%TO.N,+3V3*%
X133161080Y-79542400D03*
%TD*%
%TO.P,U5,6*%
%TO.N,3.3UVLO_m*%
X130480760Y-76484240D03*
%TO.P,U5,5*%
%TO.N,+3V3*%
X130480760Y-75834240D03*
%TO.P,U5,4*%
%TO.N,Net-(R9-Pad1)*%
X130480760Y-75184240D03*
%TO.P,U5,3*%
%TO.N,GND*%
X133140760Y-75184240D03*
%TO.P,U5,2*%
X133140760Y-75834240D03*
%TO.P,U5,1*%
%TO.N,3.9OVLO_m*%
X133140760Y-76484240D03*
%TD*%
D16*
%TO.P,U4,1*%
%TO.N,GND*%
X133502400Y-71561960D03*
%TO.P,U4,2*%
%TO.N,3.3UVLO_m*%
X131452402Y-71561960D03*
%TO.P,U4,3*%
%TO.N,+3V3*%
X132477401Y-73451959D03*
%TD*%
D17*
%TO.P,U2,3*%
%TO.N,GND*%
X99079000Y-76346000D03*
D18*
%TO.P,U2,5*%
X102479000Y-85496000D03*
%TO.P,U2,4*%
%TO.N,V_FB*%
X100779000Y-85496000D03*
%TO.P,U2,3*%
%TO.N,GND*%
X99079000Y-85496000D03*
%TO.P,U2,2*%
%TO.N,Net-(D3-Pad1)*%
X97379000Y-85496000D03*
%TO.P,U2,1*%
%TO.N,VDC*%
X95679000Y-85496000D03*
%TD*%
D19*
%TO.P,U1,5*%
%TO.N,Net-(C8-Pad1)*%
X99625000Y-47674999D03*
%TO.P,U1,4*%
%TO.N,Net-(D2-Pad2)*%
X99625000Y-49574998D03*
%TO.P,U1,3*%
%TO.N,Net-(R3-Pad2)*%
X97125000Y-49574998D03*
%TO.P,U1,2*%
%TO.N,GND*%
X97125000Y-48624999D03*
%TO.P,U1,1*%
%TO.N,Net-(R1-Pad2)*%
X97125000Y-47674999D03*
%TD*%
D20*
%TO.P,T1,1*%
%TO.N,Net-(D2-Pad2)*%
X106440001Y-52455001D03*
%TO.P,T1,2*%
%TO.N,N/C*%
X106440001Y-49965001D03*
%TO.P,T1,3*%
X106440001Y-47475001D03*
%TO.P,T1,4*%
%TO.N,Net-(C8-Pad1)*%
X106440001Y-44985001D03*
%TO.P,T1,5*%
%TO.N,Net-(D4-Pad2)*%
X120000001Y-44985001D03*
%TO.P,T1,6*%
X120000001Y-47475001D03*
%TO.P,T1,7*%
%TO.N,Earth*%
X120000001Y-49965001D03*
%TO.P,T1,8*%
X120000001Y-52455001D03*
%TD*%
%TO.P,R20,2*%
%TO.N,+3.3V_ISO_present*%
%TA.AperFunction,SMDPad,CuDef*%
G36*
G01*
X137942500Y-69757500D02*
X137942500Y-69282500D01*
G75*
G02*
X138180000Y-69045000I237500J0D01*
G01*
X138680000Y-69045000D01*
G75*
G02*
X138917500Y-69282500I0J-237500D01*
G01*
X138917500Y-69757500D01*
G75*
G02*
X138680000Y-69995000I-237500J0D01*
G01*
X138180000Y-69995000D01*
G75*
G02*
X137942500Y-69757500I0J237500D01*
G01*
G37*
%TD.AperFunction*%
%TO.P,R20,1*%
%TO.N,+3.3VA*%
%TA.AperFunction,SMDPad,CuDef*%
G36*
G01*
X136117500Y-69757500D02*
X136117500Y-69282500D01*
G75*
G02*
X136355000Y-69045000I237500J0D01*
G01*
X136855000Y-69045000D01*
G75*
G02*
X137092500Y-69282500I0J-237500D01*
G01*
X137092500Y-69757500D01*
G75*
G02*
X136855000Y-69995000I-237500J0D01*
G01*
X136355000Y-69995000D01*
G75*
G02*
X136117500Y-69757500I0J237500D01*
G01*
G37*
%TD.AperFunction*%
%TD*%
%TO.P,R19,2*%
%TO.N,~3.3V_ISO_OV*%
%TA.AperFunction,SMDPad,CuDef*%
G36*
G01*
X125802500Y-68682500D02*
X125802500Y-69157500D01*
G75*
G02*
X125565000Y-69395000I-237500J0D01*
G01*
X125065000Y-69395000D01*
G75*
G02*
X124827500Y-69157500I0J237500D01*
G01*
X124827500Y-68682500D01*
G75*
G02*
X125065000Y-68445000I237500J0D01*
G01*
X125565000Y-68445000D01*
G75*
G02*
X125802500Y-68682500I0J-237500D01*
G01*
G37*
%TD.AperFunction*%
%TO.P,R19,1*%
%TO.N,+3.3VA*%
%TA.AperFunction,SMDPad,CuDef*%
G36*
G01*
X127627500Y-68682500D02*
X127627500Y-69157500D01*
G75*
G02*
X127390000Y-69395000I-237500J0D01*
G01*
X126890000Y-69395000D01*
G75*
G02*
X126652500Y-69157500I0J237500D01*
G01*
X126652500Y-68682500D01*
G75*
G02*
X126890000Y-68445000I237500J0D01*
G01*
X127390000Y-68445000D01*
G75*
G02*
X127627500Y-68682500I0J-237500D01*
G01*
G37*
%TD.AperFunction*%
%TD*%
%TO.P,R17,2*%
%TO.N,+3.3V_ISO_UV*%
%TA.AperFunction,SMDPad,CuDef*%
G36*
G01*
X132442500Y-68992500D02*
X132442500Y-69467500D01*
G75*
G02*
X132205000Y-69705000I-237500J0D01*
G01*
X131705000Y-69705000D01*
G75*
G02*
X131467500Y-69467500I0J237500D01*
G01*
X131467500Y-68992500D01*
G75*
G02*
X131705000Y-68755000I237500J0D01*
G01*
X132205000Y-68755000D01*
G75*
G02*
X132442500Y-68992500I0J-237500D01*
G01*
G37*
%TD.AperFunction*%
%TO.P,R17,1*%
%TO.N,+3.3VA*%
%TA.AperFunction,SMDPad,CuDef*%
G36*
G01*
X134267500Y-68992500D02*
X134267500Y-69467500D01*
G75*
G02*
X134030000Y-69705000I-237500J0D01*
G01*
X133530000Y-69705000D01*
G75*
G02*
X133292500Y-69467500I0J237500D01*
G01*
X133292500Y-68992500D01*
G75*
G02*
X133530000Y-68755000I237500J0D01*
G01*
X134030000Y-68755000D01*
G75*
G02*
X134267500Y-68992500I0J-237500D01*
G01*
G37*
%TD.AperFunction*%
%TD*%
%TO.P,R15,2*%
%TO.N,+3.3VP*%
%TA.AperFunction,SMDPad,CuDef*%
G36*
G01*
X134737500Y-48187500D02*
X135212500Y-48187500D01*
G75*
G02*
X135450000Y-48425000I0J-237500D01*
G01*
X135450000Y-48925000D01*
G75*
G02*
X135212500Y-49162500I-237500J0D01*
G01*
X134737500Y-49162500D01*
G75*
G02*
X134500000Y-48925000I0J237500D01*
G01*
X134500000Y-48425000D01*
G75*
G02*
X134737500Y-48187500I237500J0D01*
G01*
G37*
%TD.AperFunction*%
%TO.P,R15,1*%
%TO.N,3.9OVLO*%
%TA.AperFunction,SMDPad,CuDef*%
G36*
G01*
X134737500Y-46362500D02*
X135212500Y-46362500D01*
G75*
G02*
X135450000Y-46600000I0J-237500D01*
G01*
X135450000Y-47100000D01*
G75*
G02*
X135212500Y-47337500I-237500J0D01*
G01*
X134737500Y-47337500D01*
G75*
G02*
X134500000Y-47100000I0J237500D01*
G01*
X134500000Y-46600000D01*
G75*
G02*
X134737500Y-46362500I237500J0D01*
G01*
G37*
%TD.AperFunction*%
%TD*%
%TO.P,R14,2*%
%TO.N,+3.3VP*%
%TA.AperFunction,SMDPad,CuDef*%
G36*
G01*
X137637500Y-50037500D02*
X137162500Y-50037500D01*
G75*
G02*
X136925000Y-49800000I0J237500D01*
G01*
X136925000Y-49300000D01*
G75*
G02*
X137162500Y-49062500I237500J0D01*
G01*
X137637500Y-49062500D01*
G75*
G02*
X137875000Y-49300000I0J-237500D01*
G01*
X137875000Y-49800000D01*
G75*
G02*
X137637500Y-50037500I-237500J0D01*
G01*
G37*
%TD.AperFunction*%
%TO.P,R14,1*%
%TO.N,3.3UVLO*%
%TA.AperFunction,SMDPad,CuDef*%
G36*
G01*
X137637500Y-51862500D02*
X137162500Y-51862500D01*
G75*
G02*
X136925000Y-51625000I0J237500D01*
G01*
X136925000Y-51125000D01*
G75*
G02*
X137162500Y-50887500I237500J0D01*
G01*
X137637500Y-50887500D01*
G75*
G02*
X137875000Y-51125000I0J-237500D01*
G01*
X137875000Y-51625000D01*
G75*
G02*
X137637500Y-51862500I-237500J0D01*
G01*
G37*
%TD.AperFunction*%
%TD*%
%TO.P,R12,2*%
%TO.N,Earth*%
%TA.AperFunction,SMDPad,CuDef*%
G36*
G01*
X134887500Y-54387500D02*
X135362500Y-54387500D01*
G75*
G02*
X135600000Y-54625000I0J-237500D01*
G01*
X135600000Y-55125000D01*
G75*
G02*
X135362500Y-55362500I-237500J0D01*
G01*
X134887500Y-55362500D01*
G75*
G02*
X134650000Y-55125000I0J237500D01*
G01*
X134650000Y-54625000D01*
G75*
G02*
X134887500Y-54387500I237500J0D01*
G01*
G37*
%TD.AperFunction*%
%TO.P,R12,1*%
%TO.N,UVL_OVL_MOSF*%
%TA.AperFunction,SMDPad,CuDef*%
G36*
G01*
X134887500Y-52562500D02*
X135362500Y-52562500D01*
G75*
G02*
X135600000Y-52800000I0J-237500D01*
G01*
X135600000Y-53300000D01*
G75*
G02*
X135362500Y-53537500I-237500J0D01*
G01*
X134887500Y-53537500D01*
G75*
G02*
X134650000Y-53300000I0J237500D01*
G01*
X134650000Y-52800000D01*
G75*
G02*
X134887500Y-52562500I237500J0D01*
G01*
G37*
%TD.AperFunction*%
%TD*%
%TO.P,R11,2*%
%TO.N,+3V3*%
%TA.AperFunction,SMDPad,CuDef*%
G36*
G01*
X138352500Y-79392500D02*
X138827500Y-79392500D01*
G75*
G02*
X139065000Y-79630000I0J-237500D01*
G01*
X139065000Y-80130000D01*
G75*
G02*
X138827500Y-80367500I-237500J0D01*
G01*
X138352500Y-80367500D01*
G75*
G02*
X138115000Y-80130000I0J237500D01*
G01*
X138115000Y-79630000D01*
G75*
G02*
X138352500Y-79392500I237500J0D01*
G01*
G37*
%TD.AperFunction*%
%TO.P,R11,1*%
%TO.N,UVL_OVL_3.3_m_MOSF*%
%TA.AperFunction,SMDPad,CuDef*%
G36*
G01*
X138352500Y-77567500D02*
X138827500Y-77567500D01*
G75*
G02*
X139065000Y-77805000I0J-237500D01*
G01*
X139065000Y-78305000D01*
G75*
G02*
X138827500Y-78542500I-237500J0D01*
G01*
X138352500Y-78542500D01*
G75*
G02*
X138115000Y-78305000I0J237500D01*
G01*
X138115000Y-77805000D01*
G75*
G02*
X138352500Y-77567500I237500J0D01*
G01*
G37*
%TD.AperFunction*%
%TD*%
%TO.P,R10,2*%
%TO.N,Net-(R10-Pad2)*%
%TA.AperFunction,SMDPad,CuDef*%
G36*
G01*
X139067500Y-81242500D02*
X139067500Y-81717500D01*
G75*
G02*
X138830000Y-81955000I-237500J0D01*
G01*
X138330000Y-81955000D01*
G75*
G02*
X138092500Y-81717500I0J237500D01*
G01*
X138092500Y-81242500D01*
G75*
G02*
X138330000Y-81005000I237500J0D01*
G01*
X138830000Y-81005000D01*
G75*
G02*
X139067500Y-81242500I0J-237500D01*
G01*
G37*
%TD.AperFunction*%
%TO.P,R10,1*%
%TO.N,+3V3*%
%TA.AperFunction,SMDPad,CuDef*%
G36*
G01*
X140892500Y-81242500D02*
X140892500Y-81717500D01*
G75*
G02*
X140655000Y-81955000I-237500J0D01*
G01*
X140155000Y-81955000D01*
G75*
G02*
X139917500Y-81717500I0J237500D01*
G01*
X139917500Y-81242500D01*
G75*
G02*
X140155000Y-81005000I237500J0D01*
G01*
X140655000Y-81005000D01*
G75*
G02*
X140892500Y-81242500I0J-237500D01*
G01*
G37*
%TD.AperFunction*%
%TD*%
%TO.P,R9,2*%
%TO.N,GND*%
%TA.AperFunction,SMDPad,CuDef*%
G36*
G01*
X132222420Y-81573380D02*
X132222420Y-81098380D01*
G75*
G02*
X132459920Y-80860880I237500J0D01*
G01*
X132959920Y-80860880D01*
G75*
G02*
X133197420Y-81098380I0J-237500D01*
G01*
X133197420Y-81573380D01*
G75*
G02*
X132959920Y-81810880I-237500J0D01*
G01*
X132459920Y-81810880D01*
G75*
G02*
X132222420Y-81573380I0J237500D01*
G01*
G37*
%TD.AperFunction*%
%TO.P,R9,1*%
%TO.N,Net-(R9-Pad1)*%
%TA.AperFunction,SMDPad,CuDef*%
G36*
G01*
X130397420Y-81573380D02*
X130397420Y-81098380D01*
G75*
G02*
X130634920Y-80860880I237500J0D01*
G01*
X131134920Y-80860880D01*
G75*
G02*
X131372420Y-81098380I0J-237500D01*
G01*
X131372420Y-81573380D01*
G75*
G02*
X131134920Y-81810880I-237500J0D01*
G01*
X130634920Y-81810880D01*
G75*
G02*
X130397420Y-81573380I0J237500D01*
G01*
G37*
%TD.AperFunction*%
%TD*%
%TO.P,R8,2*%
%TO.N,+3V3*%
%TA.AperFunction,SMDPad,CuDef*%
G36*
G01*
X128235700Y-73087420D02*
X128710700Y-73087420D01*
G75*
G02*
X128948200Y-73324920I0J-237500D01*
G01*
X128948200Y-73824920D01*
G75*
G02*
X128710700Y-74062420I-237500J0D01*
G01*
X128235700Y-74062420D01*
G75*
G02*
X127998200Y-73824920I0J237500D01*
G01*
X127998200Y-73324920D01*
G75*
G02*
X128235700Y-73087420I237500J0D01*
G01*
G37*
%TD.AperFunction*%
%TO.P,R8,1*%
%TO.N,3.3UVLO_m*%
%TA.AperFunction,SMDPad,CuDef*%
G36*
G01*
X128235700Y-71262420D02*
X128710700Y-71262420D01*
G75*
G02*
X128948200Y-71499920I0J-237500D01*
G01*
X128948200Y-71999920D01*
G75*
G02*
X128710700Y-72237420I-237500J0D01*
G01*
X128235700Y-72237420D01*
G75*
G02*
X127998200Y-71999920I0J237500D01*
G01*
X127998200Y-71499920D01*
G75*
G02*
X128235700Y-71262420I237500J0D01*
G01*
G37*
%TD.AperFunction*%
%TD*%
%TO.P,R7,2*%
%TO.N,+3V3*%
%TA.AperFunction,SMDPad,CuDef*%
G36*
G01*
X136122420Y-71746560D02*
X135647420Y-71746560D01*
G75*
G02*
X135409920Y-71509060I0J237500D01*
G01*
X135409920Y-71009060D01*
G75*
G02*
X135647420Y-70771560I237500J0D01*
G01*
X136122420Y-70771560D01*
G75*
G02*
X136359920Y-71009060I0J-237500D01*
G01*
X136359920Y-71509060D01*
G75*
G02*
X136122420Y-71746560I-237500J0D01*
G01*
G37*
%TD.AperFunction*%
%TO.P,R7,1*%
%TO.N,3.9OVLO_m*%
%TA.AperFunction,SMDPad,CuDef*%
G36*
G01*
X136122420Y-73571560D02*
X135647420Y-73571560D01*
G75*
G02*
X135409920Y-73334060I0J237500D01*
G01*
X135409920Y-72834060D01*
G75*
G02*
X135647420Y-72596560I237500J0D01*
G01*
X136122420Y-72596560D01*
G75*
G02*
X136359920Y-72834060I0J-237500D01*
G01*
X136359920Y-73334060D01*
G75*
G02*
X136122420Y-73571560I-237500J0D01*
G01*
G37*
%TD.AperFunction*%
%TD*%
%TO.P,R4,2*%
%TO.N,Net-(R3-Pad1)*%
%TA.AperFunction,SMDPad,CuDef*%
G36*
G01*
X99062500Y-51212500D02*
X99062500Y-51687500D01*
G75*
G02*
X98825000Y-51925000I-237500J0D01*
G01*
X98325000Y-51925000D01*
G75*
G02*
X98087500Y-51687500I0J237500D01*
G01*
X98087500Y-51212500D01*
G75*
G02*
X98325000Y-50975000I237500J0D01*
G01*
X98825000Y-50975000D01*
G75*
G02*
X99062500Y-51212500I0J-237500D01*
G01*
G37*
%TD.AperFunction*%
%TO.P,R4,1*%
%TO.N,Net-(D2-Pad2)*%
%TA.AperFunction,SMDPad,CuDef*%
G36*
G01*
X100887500Y-51212500D02*
X100887500Y-51687500D01*
G75*
G02*
X100650000Y-51925000I-237500J0D01*
G01*
X100150000Y-51925000D01*
G75*
G02*
X99912500Y-51687500I0J237500D01*
G01*
X99912500Y-51212500D01*
G75*
G02*
X100150000Y-50975000I237500J0D01*
G01*
X100650000Y-50975000D01*
G75*
G02*
X100887500Y-51212500I0J-237500D01*
G01*
G37*
%TD.AperFunction*%
%TD*%
%TO.P,R3,2*%
%TO.N,Net-(R3-Pad2)*%
%TA.AperFunction,SMDPad,CuDef*%
G36*
G01*
X95737500Y-51237500D02*
X95737500Y-51712500D01*
G75*
G02*
X95500000Y-51950000I-237500J0D01*
G01*
X95000000Y-51950000D01*
G75*
G02*
X94762500Y-51712500I0J237500D01*
G01*
X94762500Y-51237500D01*
G75*
G02*
X95000000Y-51000000I237500J0D01*
G01*
X95500000Y-51000000D01*
G75*
G02*
X95737500Y-51237500I0J-237500D01*
G01*
G37*
%TD.AperFunction*%
%TO.P,R3,1*%
%TO.N,Net-(R3-Pad1)*%
%TA.AperFunction,SMDPad,CuDef*%
G36*
G01*
X97562500Y-51237500D02*
X97562500Y-51712500D01*
G75*
G02*
X97325000Y-51950000I-237500J0D01*
G01*
X96825000Y-51950000D01*
G75*
G02*
X96587500Y-51712500I0J237500D01*
G01*
X96587500Y-51237500D01*
G75*
G02*
X96825000Y-51000000I237500J0D01*
G01*
X97325000Y-51000000D01*
G75*
G02*
X97562500Y-51237500I0J-237500D01*
G01*
G37*
%TD.AperFunction*%
%TD*%
%TO.P,R2,2*%
%TO.N,GND*%
%TA.AperFunction,SMDPad,CuDef*%
G36*
G01*
X94112500Y-48825000D02*
X94587500Y-48825000D01*
G75*
G02*
X94825000Y-49062500I0J-237500D01*
G01*
X94825000Y-49562500D01*
G75*
G02*
X94587500Y-49800000I-237500J0D01*
G01*
X94112500Y-49800000D01*
G75*
G02*
X93875000Y-49562500I0J237500D01*
G01*
X93875000Y-49062500D01*
G75*
G02*
X94112500Y-48825000I237500J0D01*
G01*
G37*
%TD.AperFunction*%
%TO.P,R2,1*%
%TO.N,Net-(R1-Pad2)*%
%TA.AperFunction,SMDPad,CuDef*%
G36*
G01*
X94112500Y-47000000D02*
X94587500Y-47000000D01*
G75*
G02*
X94825000Y-47237500I0J-237500D01*
G01*
X94825000Y-47737500D01*
G75*
G02*
X94587500Y-47975000I-237500J0D01*
G01*
X94112500Y-47975000D01*
G75*
G02*
X93875000Y-47737500I0J237500D01*
G01*
X93875000Y-47237500D01*
G75*
G02*
X94112500Y-47000000I237500J0D01*
G01*
G37*
%TD.AperFunction*%
%TD*%
%TO.P,R1,2*%
%TO.N,Net-(R1-Pad2)*%
%TA.AperFunction,SMDPad,CuDef*%
G36*
G01*
X96312500Y-45787500D02*
X96312500Y-46262500D01*
G75*
G02*
X96075000Y-46500000I-237500J0D01*
G01*
X95575000Y-46500000D01*
G75*
G02*
X95337500Y-46262500I0J237500D01*
G01*
X95337500Y-45787500D01*
G75*
G02*
X95575000Y-45550000I237500J0D01*
G01*
X96075000Y-45550000D01*
G75*
G02*
X96312500Y-45787500I0J-237500D01*
G01*
G37*
%TD.AperFunction*%
%TO.P,R1,1*%
%TO.N,Net-(C8-Pad1)*%
%TA.AperFunction,SMDPad,CuDef*%
G36*
G01*
X98137500Y-45787500D02*
X98137500Y-46262500D01*
G75*
G02*
X97900000Y-46500000I-237500J0D01*
G01*
X97400000Y-46500000D01*
G75*
G02*
X97162500Y-46262500I0J237500D01*
G01*
X97162500Y-45787500D01*
G75*
G02*
X97400000Y-45550000I237500J0D01*
G01*
X97900000Y-45550000D01*
G75*
G02*
X98137500Y-45787500I0J-237500D01*
G01*
G37*
%TD.AperFunction*%
%TD*%
D21*
%TO.P,Q1,3*%
%TO.N,+3V3*%
X134975000Y-75650000D03*
%TO.P,Q1,2*%
%TO.N,+3.3VA*%
X136975000Y-74700000D03*
%TO.P,Q1,1*%
%TO.N,UVL_OVL_3.3_m_MOSF*%
X136975000Y-76600000D03*
%TD*%
D22*
%TO.P,L2,1*%
%TO.N,Net-(C7-Pad1)*%
X87889080Y-52298480D03*
%TO.P,L2,2*%
%TO.N,Net-(C8-Pad1)*%
X87889080Y-48798480D03*
%TD*%
D23*
%TO.P,L1,2*%
%TO.N,+3V3*%
X111566960Y-78684480D03*
%TO.P,L1,1*%
%TO.N,Net-(D3-Pad1)*%
X111566960Y-86984480D03*
%TD*%
D24*
%TO.P,J8,3*%
%TO.N,+3.3V_ISO_present*%
X143010000Y-67020000D03*
%TO.P,J8,2*%
%TO.N,+3.3V_ISO_UV*%
X143010000Y-69560000D03*
D25*
%TO.P,J8,1*%
%TO.N,~3.3V_ISO_OV*%
X143010000Y-72100000D03*
%TD*%
%TO.P,J7,1*%
%TO.N,3.3UVLO_m*%
X125704600Y-71516240D03*
%TD*%
D26*
%TO.P,J6,1*%
%TO.N,GND*%
X84780120Y-73466960D03*
%TD*%
%TO.P,J5,1*%
%TO.N,+3.3VA*%
X143103600Y-78313280D03*
%TD*%
%TO.P,J4,1*%
%TO.N,+3.3VP*%
X143484600Y-48374300D03*
%TD*%
%TO.P,J3,1*%
%TO.N,Net-(J3-Pad1)*%
X143484600Y-55905400D03*
%TD*%
%TO.P,J2,1*%
%TO.N,GND*%
X143159480Y-86141560D03*
%TD*%
%TO.P,J1,1*%
%TO.N,Net-(D6-Pad2)*%
X84729320Y-65130680D03*
%TD*%
%TO.P,FB1,2*%
%TO.N,VDC*%
%TA.AperFunction,SMDPad,CuDef*%
G36*
G01*
X99669040Y-61029001D02*
X99669040Y-60128999D01*
G75*
G02*
X99919039Y-59879000I249999J0D01*
G01*
X100619041Y-59879000D01*
G75*
G02*
X100869040Y-60128999I0J-249999D01*
G01*
X100869040Y-61029001D01*
G75*
G02*
X100619041Y-61279000I-249999J0D01*
G01*
X99919039Y-61279000D01*
G75*
G02*
X99669040Y-61029001I0J249999D01*
G01*
G37*
%TD.AperFunction*%
%TO.P,FB1,1*%
%TO.N,Net-(C7-Pad1)*%
%TA.AperFunction,SMDPad,CuDef*%
G36*
G01*
X97669040Y-61029001D02*
X97669040Y-60128999D01*
G75*
G02*
X97919039Y-59879000I249999J0D01*
G01*
X98619041Y-59879000D01*
G75*
G02*
X98869040Y-60128999I0J-249999D01*
G01*
X98869040Y-61029001D01*
G75*
G02*
X98619041Y-61279000I-249999J0D01*
G01*
X97919039Y-61279000D01*
G75*
G02*
X97669040Y-61029001I0J249999D01*
G01*
G37*
%TD.AperFunction*%
%TD*%
%TO.P,F1,2*%
%TO.N,Net-(C4-Pad1)*%
%TA.AperFunction,SMDPad,CuDef*%
G36*
G01*
X129687500Y-45193750D02*
X129687500Y-45706250D01*
G75*
G02*
X129468750Y-45925000I-218750J0D01*
G01*
X129031250Y-45925000D01*
G75*
G02*
X128812500Y-45706250I0J218750D01*
G01*
X128812500Y-45193750D01*
G75*
G02*
X129031250Y-44975000I218750J0D01*
G01*
X129468750Y-44975000D01*
G75*
G02*
X129687500Y-45193750I0J-218750D01*
G01*
G37*
%TD.AperFunction*%
%TO.P,F1,1*%
%TO.N,+3.3VP*%
%TA.AperFunction,SMDPad,CuDef*%
G36*
G01*
X131262500Y-45193750D02*
X131262500Y-45706250D01*
G75*
G02*
X131043750Y-45925000I-218750J0D01*
G01*
X130606250Y-45925000D01*
G75*
G02*
X130387500Y-45706250I0J218750D01*
G01*
X130387500Y-45193750D01*
G75*
G02*
X130606250Y-44975000I218750J0D01*
G01*
X131043750Y-44975000D01*
G75*
G02*
X131262500Y-45193750I0J-218750D01*
G01*
G37*
%TD.AperFunction*%
%TD*%
D27*
%TO.P,D5,2*%
%TO.N,Earth*%
X125475000Y-47400000D03*
%TO.P,D5,1*%
%TO.N,Net-(C4-Pad1)*%
X128775000Y-47400000D03*
%TD*%
D28*
%TO.P,D4,2*%
%TO.N,Net-(D4-Pad2)*%
X123600000Y-45000000D03*
%TO.P,D4,1*%
%TO.N,Net-(C4-Pad1)*%
X126400000Y-45000000D03*
%TD*%
D29*
%TO.P,D3,2*%
%TO.N,GND*%
X120629680Y-79394600D03*
%TO.P,D3,1*%
%TO.N,Net-(D3-Pad1)*%
X120629680Y-88194600D03*
%TD*%
D30*
%TO.P,D2,2*%
%TO.N,Net-(D2-Pad2)*%
X102600000Y-52525000D03*
D31*
%TO.P,D2,1*%
%TO.N,Net-(D1-Pad1)*%
X102600000Y-50150000D03*
%TD*%
D32*
%TO.P,D1,2*%
%TO.N,Net-(C8-Pad1)*%
X102600000Y-44950000D03*
%TO.P,D1,1*%
%TO.N,Net-(D1-Pad1)*%
X102600000Y-47450000D03*
%TD*%
%TO.P,C13,2*%
%TO.N,Earth*%
%TA.AperFunction,SMDPad,CuDef*%
G36*
G01*
X137911720Y-48228260D02*
X137911720Y-47753260D01*
G75*
G02*
X138149220Y-47515760I237500J0D01*
G01*
X138749220Y-47515760D01*
G75*
G02*
X138986720Y-47753260I0J-237500D01*
G01*
X138986720Y-48228260D01*
G75*
G02*
X138749220Y-48465760I-237500J0D01*
G01*
X138149220Y-48465760D01*
G75*
G02*
X137911720Y-48228260I0J237500D01*
G01*
G37*
%TD.AperFunction*%
%TO.P,C13,1*%
%TO.N,+3.3VP*%
%TA.AperFunction,SMDPad,CuDef*%
G36*
G01*
X136186720Y-48228260D02*
X136186720Y-47753260D01*
G75*
G02*
X136424220Y-47515760I237500J0D01*
G01*
X137024220Y-47515760D01*
G75*
G02*
X137261720Y-47753260I0J-237500D01*
G01*
X137261720Y-48228260D01*
G75*
G02*
X137024220Y-48465760I-237500J0D01*
G01*
X136424220Y-48465760D01*
G75*
G02*
X136186720Y-48228260I0J237500D01*
G01*
G37*
%TD.AperFunction*%
%TD*%
%TO.P,C12,2*%
%TO.N,Earth*%
%TA.AperFunction,SMDPad,CuDef*%
G36*
G01*
X137933140Y-46648380D02*
X137933140Y-46173380D01*
G75*
G02*
X138170640Y-45935880I237500J0D01*
G01*
X138770640Y-45935880D01*
G75*
G02*
X139008140Y-46173380I0J-237500D01*
G01*
X139008140Y-46648380D01*
G75*
G02*
X138770640Y-46885880I-237500J0D01*
G01*
X138170640Y-46885880D01*
G75*
G02*
X137933140Y-46648380I0J237500D01*
G01*
G37*
%TD.AperFunction*%
%TO.P,C12,1*%
%TO.N,+3.3VP*%
%TA.AperFunction,SMDPad,CuDef*%
G36*
G01*
X136208140Y-46648380D02*
X136208140Y-46173380D01*
G75*
G02*
X136445640Y-45935880I237500J0D01*
G01*
X137045640Y-45935880D01*
G75*
G02*
X137283140Y-46173380I0J-237500D01*
G01*
X137283140Y-46648380D01*
G75*
G02*
X137045640Y-46885880I-237500J0D01*
G01*
X136445640Y-46885880D01*
G75*
G02*
X136208140Y-46648380I0J237500D01*
G01*
G37*
%TD.AperFunction*%
%TD*%
%TO.P,C11,2*%
%TO.N,Earth*%
%TA.AperFunction,SMDPad,CuDef*%
G36*
G01*
X129862500Y-43582500D02*
X129862500Y-44057500D01*
G75*
G02*
X129625000Y-44295000I-237500J0D01*
G01*
X129025000Y-44295000D01*
G75*
G02*
X128787500Y-44057500I0J237500D01*
G01*
X128787500Y-43582500D01*
G75*
G02*
X129025000Y-43345000I237500J0D01*
G01*
X129625000Y-43345000D01*
G75*
G02*
X129862500Y-43582500I0J-237500D01*
G01*
G37*
%TD.AperFunction*%
%TO.P,C11,1*%
%TO.N,+3.3VP*%
%TA.AperFunction,SMDPad,CuDef*%
G36*
G01*
X131587500Y-43582500D02*
X131587500Y-44057500D01*
G75*
G02*
X131350000Y-44295000I-237500J0D01*
G01*
X130750000Y-44295000D01*
G75*
G02*
X130512500Y-44057500I0J237500D01*
G01*
X130512500Y-43582500D01*
G75*
G02*
X130750000Y-43345000I237500J0D01*
G01*
X131350000Y-43345000D01*
G75*
G02*
X131587500Y-43582500I0J-237500D01*
G01*
G37*
%TD.AperFunction*%
%TD*%
%TO.P,C10,2*%
%TO.N,GND*%
%TA.AperFunction,SMDPad,CuDef*%
G36*
G01*
X112767140Y-58577719D02*
X112767140Y-59877721D01*
G75*
G02*
X112517141Y-60127720I-249999J0D01*
G01*
X111692139Y-60127720D01*
G75*
G02*
X111442140Y-59877721I0J249999D01*
G01*
X111442140Y-58577719D01*
G75*
G02*
X111692139Y-58327720I249999J0D01*
G01*
X112517141Y-58327720D01*
G75*
G02*
X112767140Y-58577719I0J-249999D01*
G01*
G37*
%TD.AperFunction*%
%TO.P,C10,1*%
%TO.N,Earth*%
%TA.AperFunction,SMDPad,CuDef*%
G36*
G01*
X115892140Y-58577719D02*
X115892140Y-59877721D01*
G75*
G02*
X115642141Y-60127720I-249999J0D01*
G01*
X114817139Y-60127720D01*
G75*
G02*
X114567140Y-59877721I0J249999D01*
G01*
X114567140Y-58577719D01*
G75*
G02*
X114817139Y-58327720I249999J0D01*
G01*
X115642141Y-58327720D01*
G75*
G02*
X115892140Y-58577719I0J-249999D01*
G01*
G37*
%TD.AperFunction*%
%TD*%
%TO.P,C9,2*%
%TO.N,GND*%
%TA.AperFunction,SMDPad,CuDef*%
G36*
G01*
X99862500Y-44687500D02*
X99387500Y-44687500D01*
G75*
G02*
X99150000Y-44450000I0J237500D01*
G01*
X99150000Y-43850000D01*
G75*
G02*
X99387500Y-43612500I237500J0D01*
G01*
X99862500Y-43612500D01*
G75*
G02*
X100100000Y-43850000I0J-237500D01*
G01*
X100100000Y-44450000D01*
G75*
G02*
X99862500Y-44687500I-237500J0D01*
G01*
G37*
%TD.AperFunction*%
%TO.P,C9,1*%
%TO.N,Net-(C8-Pad1)*%
%TA.AperFunction,SMDPad,CuDef*%
G36*
G01*
X99862500Y-46412500D02*
X99387500Y-46412500D01*
G75*
G02*
X99150000Y-46175000I0J237500D01*
G01*
X99150000Y-45575000D01*
G75*
G02*
X99387500Y-45337500I237500J0D01*
G01*
X99862500Y-45337500D01*
G75*
G02*
X100100000Y-45575000I0J-237500D01*
G01*
X100100000Y-46175000D01*
G75*
G02*
X99862500Y-46412500I-237500J0D01*
G01*
G37*
%TD.AperFunction*%
%TD*%
D33*
%TO.P,C8,2*%
%TO.N,GND*%
X97942400Y-57999000D03*
D14*
%TO.P,C8,1*%
%TO.N,Net-(C8-Pad1)*%
X97942400Y-55499000D03*
%TD*%
%TO.P,C7,2*%
%TO.N,GND*%
%TA.AperFunction,SMDPad,CuDef*%
G36*
G01*
X93711980Y-60473580D02*
X93711980Y-60948580D01*
G75*
G02*
X93474480Y-61186080I-237500J0D01*
G01*
X92874480Y-61186080D01*
G75*
G02*
X92636980Y-60948580I0J237500D01*
G01*
X92636980Y-60473580D01*
G75*
G02*
X92874480Y-60236080I237500J0D01*
G01*
X93474480Y-60236080D01*
G75*
G02*
X93711980Y-60473580I0J-237500D01*
G01*
G37*
%TD.AperFunction*%
%TO.P,C7,1*%
%TO.N,Net-(C7-Pad1)*%
%TA.AperFunction,SMDPad,CuDef*%
G36*
G01*
X95436980Y-60473580D02*
X95436980Y-60948580D01*
G75*
G02*
X95199480Y-61186080I-237500J0D01*
G01*
X94599480Y-61186080D01*
G75*
G02*
X94361980Y-60948580I0J237500D01*
G01*
X94361980Y-60473580D01*
G75*
G02*
X94599480Y-60236080I237500J0D01*
G01*
X95199480Y-60236080D01*
G75*
G02*
X95436980Y-60473580I0J-237500D01*
G01*
G37*
%TD.AperFunction*%
%TD*%
%TO.P,C6,2*%
%TO.N,Earth*%
%TA.AperFunction,SMDPad,CuDef*%
G36*
G01*
X127037500Y-53262500D02*
X127037500Y-53737500D01*
G75*
G02*
X126800000Y-53975000I-237500J0D01*
G01*
X126200000Y-53975000D01*
G75*
G02*
X125962500Y-53737500I0J237500D01*
G01*
X125962500Y-53262500D01*
G75*
G02*
X126200000Y-53025000I237500J0D01*
G01*
X126800000Y-53025000D01*
G75*
G02*
X127037500Y-53262500I0J-237500D01*
G01*
G37*
%TD.AperFunction*%
%TO.P,C6,1*%
%TO.N,Net-(C4-Pad1)*%
%TA.AperFunction,SMDPad,CuDef*%
G36*
G01*
X128762500Y-53262500D02*
X128762500Y-53737500D01*
G75*
G02*
X128525000Y-53975000I-237500J0D01*
G01*
X127925000Y-53975000D01*
G75*
G02*
X127687500Y-53737500I0J237500D01*
G01*
X127687500Y-53262500D01*
G75*
G02*
X127925000Y-53025000I237500J0D01*
G01*
X128525000Y-53025000D01*
G75*
G02*
X128762500Y-53262500I0J-237500D01*
G01*
G37*
%TD.AperFunction*%
%TD*%
%TO.P,C5,2*%
%TO.N,Earth*%
%TA.AperFunction,SMDPad,CuDef*%
G36*
G01*
X127075000Y-51762500D02*
X127075000Y-52237500D01*
G75*
G02*
X126837500Y-52475000I-237500J0D01*
G01*
X126237500Y-52475000D01*
G75*
G02*
X126000000Y-52237500I0J237500D01*
G01*
X126000000Y-51762500D01*
G75*
G02*
X126237500Y-51525000I237500J0D01*
G01*
X126837500Y-51525000D01*
G75*
G02*
X127075000Y-51762500I0J-237500D01*
G01*
G37*
%TD.AperFunction*%
%TO.P,C5,1*%
%TO.N,Net-(C4-Pad1)*%
%TA.AperFunction,SMDPad,CuDef*%
G36*
G01*
X128800000Y-51762500D02*
X128800000Y-52237500D01*
G75*
G02*
X128562500Y-52475000I-237500J0D01*
G01*
X127962500Y-52475000D01*
G75*
G02*
X127725000Y-52237500I0J237500D01*
G01*
X127725000Y-51762500D01*
G75*
G02*
X127962500Y-51525000I237500J0D01*
G01*
X128562500Y-51525000D01*
G75*
G02*
X128800000Y-51762500I0J-237500D01*
G01*
G37*
%TD.AperFunction*%
%TD*%
%TO.P,C4,2*%
%TO.N,Earth*%
%TA.AperFunction,SMDPad,CuDef*%
G36*
G01*
X126117380Y-49149239D02*
X126117380Y-50449241D01*
G75*
G02*
X125867381Y-50699240I-249999J0D01*
G01*
X125042379Y-50699240D01*
G75*
G02*
X124792380Y-50449241I0J249999D01*
G01*
X124792380Y-49149239D01*
G75*
G02*
X125042379Y-48899240I249999J0D01*
G01*
X125867381Y-48899240D01*
G75*
G02*
X126117380Y-49149239I0J-249999D01*
G01*
G37*
%TD.AperFunction*%
%TO.P,C4,1*%
%TO.N,Net-(C4-Pad1)*%
%TA.AperFunction,SMDPad,CuDef*%
G36*
G01*
X129242380Y-49149239D02*
X129242380Y-50449241D01*
G75*
G02*
X128992381Y-50699240I-249999J0D01*
G01*
X128167379Y-50699240D01*
G75*
G02*
X127917380Y-50449241I0J249999D01*
G01*
X127917380Y-49149239D01*
G75*
G02*
X128167379Y-48899240I249999J0D01*
G01*
X128992381Y-48899240D01*
G75*
G02*
X129242380Y-49149239I0J-249999D01*
G01*
G37*
%TD.AperFunction*%
%TD*%
D11*
%TO.P,C3,2*%
%TO.N,GND*%
X119593360Y-69865240D03*
D12*
%TO.P,C3,1*%
%TO.N,+3V3*%
X114593360Y-69865240D03*
%TD*%
%TO.P,C1,2*%
%TO.N,GND*%
%TA.AperFunction,SMDPad,CuDef*%
G36*
G01*
X92800180Y-83449280D02*
X92325180Y-83449280D01*
G75*
G02*
X92087680Y-83211780I0J237500D01*
G01*
X92087680Y-82611780D01*
G75*
G02*
X92325180Y-82374280I237500J0D01*
G01*
X92800180Y-82374280D01*
G75*
G02*
X93037680Y-82611780I0J-237500D01*
G01*
X93037680Y-83211780D01*
G75*
G02*
X92800180Y-83449280I-237500J0D01*
G01*
G37*
%TD.AperFunction*%
%TO.P,C1,1*%
%TO.N,VDC*%
%TA.AperFunction,SMDPad,CuDef*%
G36*
G01*
X92800180Y-85174280D02*
X92325180Y-85174280D01*
G75*
G02*
X92087680Y-84936780I0J237500D01*
G01*
X92087680Y-84336780D01*
G75*
G02*
X92325180Y-84099280I237500J0D01*
G01*
X92800180Y-84099280D01*
G75*
G02*
X93037680Y-84336780I0J-237500D01*
G01*
X93037680Y-84936780D01*
G75*
G02*
X92800180Y-85174280I-237500J0D01*
G01*
G37*
%TD.AperFunction*%
%TD*%
D34*
%TO.P,Q2,1*%
%TO.N,UVL_OVL_MOSF*%
X133525000Y-53725000D03*
%TO.P,Q2,2*%
%TO.N,Earth*%
X131625000Y-53725000D03*
%TO.P,Q2,3*%
%TO.N,Net-(J3-Pad1)*%
X132575000Y-55725000D03*
%TD*%
D16*
%TO.P,U9,1*%
%TO.N,Earth*%
X131025000Y-48614999D03*
%TO.P,U9,2*%
%TO.N,3.9OVLO*%
X133074998Y-48614999D03*
%TO.P,U9,3*%
%TO.N,+3.3VP*%
X132049999Y-46725000D03*
%TD*%
D15*
%TO.P,U7,1*%
%TO.N,3.9OVLO*%
X131695000Y-50225000D03*
%TO.P,U7,2*%
%TO.N,Earth*%
X131695000Y-50875000D03*
%TO.P,U7,3*%
X131695000Y-51525000D03*
%TO.P,U7,4*%
%TO.N,UVL_OVL_MOSF*%
X134355000Y-51525000D03*
%TO.P,U7,5*%
%TO.N,+3.3VP*%
X134355000Y-50875000D03*
%TO.P,U7,6*%
%TO.N,3.3UVLO*%
X134355000Y-50225000D03*
%TD*%
D35*
%TO.P,D6,1*%
%TO.N,VDC*%
X99954800Y-64983360D03*
%TO.P,D6,2*%
%TO.N,Net-(D6-Pad2)*%
X91154800Y-64983360D03*
%TD*%
D36*
%TO.N,GND*%
X99959160Y-80205580D03*
X98846640Y-79054960D03*
X103520240Y-79105760D03*
X103489760Y-80197960D03*
X102265480Y-80137000D03*
X101137720Y-80197960D03*
X102184200Y-79054960D03*
X101061520Y-79054960D03*
X99933760Y-79070200D03*
X98856800Y-80228440D03*
X97759520Y-80197960D03*
X97774760Y-79054960D03*
X96713040Y-80137000D03*
X96667320Y-79039720D03*
X95585280Y-79024480D03*
X95585280Y-80101440D03*
X94427040Y-78978760D03*
X94477840Y-80101440D03*
X96890840Y-73599040D03*
X98064320Y-73644760D03*
X99364800Y-73741280D03*
X100807520Y-73720960D03*
X102219760Y-73675240D03*
X103510080Y-73675240D03*
X94604840Y-72577960D03*
X95676720Y-72603360D03*
X96829880Y-72577960D03*
X98079560Y-72567800D03*
X99349560Y-72583040D03*
X100807520Y-72547480D03*
X102189280Y-72583040D03*
X103474520Y-72644000D03*
X94620080Y-73578720D03*
X95666560Y-73599040D03*
X123220480Y-78729840D03*
X123108720Y-79852520D03*
X123083320Y-77500480D03*
X117962680Y-77581760D03*
X117937280Y-79039720D03*
X118003320Y-80314800D03*
X118049040Y-81544160D03*
X123017280Y-80970120D03*
X133131560Y-74625200D03*
X134484561Y-70680000D03*
X92811600Y-48417480D03*
X92796360Y-47482760D03*
X91805760Y-47447200D03*
X92811600Y-46471840D03*
X136070782Y-79756000D03*
%TO.N,+3.3VP*%
X139750000Y-52190000D03*
%TO.N,V_FB*%
X100695760Y-82245200D03*
%TO.N,3.3UVLO_m*%
X128847653Y-76917653D03*
%TO.N,UVL_OVL_3.3_m_MOSF*%
X138100000Y-76550000D03*
X128700000Y-77970000D03*
%TO.N,Net-(R10-Pad2)*%
X134610000Y-77715000D03*
X137150000Y-81550000D03*
%TO.N,3.3UVLO*%
X136200000Y-49400000D03*
%TO.N,3.9OVLO*%
X134950000Y-45350000D03*
%TO.N,+3V3*%
X113248620Y-77002820D03*
%TD*%
D37*
%TO.N,GND*%
X99079000Y-76005640D02*
X95676720Y-72603360D01*
X99079000Y-76346000D02*
X99079000Y-76005640D01*
X99079000Y-74827080D02*
X96829880Y-72577960D01*
X99079000Y-76346000D02*
X99079000Y-74827080D01*
X99079000Y-73567240D02*
X98079560Y-72567800D01*
X99079000Y-76346000D02*
X99079000Y-73567240D01*
X99079000Y-72853600D02*
X99349560Y-72583040D01*
X99079000Y-76346000D02*
X99079000Y-72853600D01*
X99079000Y-74276000D02*
X100807520Y-72547480D01*
X99079000Y-76346000D02*
X99079000Y-74276000D01*
X99079000Y-75693320D02*
X102189280Y-72583040D01*
X99079000Y-76346000D02*
X99079000Y-75693320D01*
X99772520Y-76346000D02*
X103474520Y-72644000D01*
X99079000Y-76346000D02*
X99772520Y-76346000D01*
X97387360Y-76346000D02*
X94620080Y-73578720D01*
X99079000Y-76346000D02*
X97387360Y-76346000D01*
X98372880Y-76346000D02*
X95740220Y-73713340D01*
X99079000Y-76346000D02*
X98372880Y-76346000D01*
X95740220Y-73713340D02*
X94604840Y-72577960D01*
D38*
X99079000Y-85496000D02*
X99079000Y-76346000D01*
X102479000Y-79746000D02*
X99079000Y-76346000D01*
X102479000Y-85496000D02*
X102479000Y-79746000D01*
D39*
X122205200Y-80970120D02*
X120629680Y-79394600D01*
X123017280Y-80970120D02*
X122205200Y-80970120D01*
X121087600Y-79852520D02*
X120629680Y-79394600D01*
X123108720Y-79852520D02*
X121087600Y-79852520D01*
X121294440Y-78729840D02*
X120629680Y-79394600D01*
X123220480Y-78729840D02*
X121294440Y-78729840D01*
X119441680Y-78206600D02*
X120629680Y-79394600D01*
X120513560Y-79278480D02*
X120629680Y-79394600D01*
X119465640Y-80558640D02*
X120629680Y-79394600D01*
X120629680Y-80091280D02*
X120629680Y-79394600D01*
X119268240Y-81452720D02*
X120629680Y-80091280D01*
X120629680Y-79394600D02*
X120629680Y-78648560D01*
X121777760Y-77500480D02*
X123083320Y-77500480D01*
X120629680Y-78648560D02*
X121777760Y-77500480D01*
X118816840Y-77581760D02*
X120629680Y-79394600D01*
X117962680Y-77581760D02*
X118816840Y-77581760D01*
X120274800Y-79039720D02*
X120629680Y-79394600D01*
X117937280Y-79039720D02*
X120274800Y-79039720D01*
X119709480Y-80314800D02*
X120629680Y-79394600D01*
X118003320Y-80314800D02*
X119709480Y-80314800D01*
X118480120Y-81544160D02*
X120629680Y-79394600D01*
X118049040Y-81544160D02*
X118480120Y-81544160D01*
D38*
X92710000Y-82715000D02*
X99079000Y-76346000D01*
X92710000Y-82912880D02*
X92710000Y-82715000D01*
D37*
X133090000Y-74786400D02*
X133121400Y-74755000D01*
X133090000Y-75920000D02*
X133090000Y-74786400D01*
X133474999Y-71689562D02*
X134484561Y-70680000D01*
X133474999Y-71765001D02*
X133474999Y-71689562D01*
D39*
X95037501Y-48624999D02*
X94350000Y-49312500D01*
X97125000Y-48624999D02*
X95037501Y-48624999D01*
D38*
X93879340Y-49312500D02*
X92887800Y-48320960D01*
X94350000Y-49312500D02*
X93879340Y-49312500D01*
X92887800Y-47574200D02*
X92796360Y-47482760D01*
X92887800Y-48320960D02*
X92887800Y-47574200D01*
X91973400Y-47482760D02*
X91937840Y-47447200D01*
X92796360Y-47482760D02*
X91973400Y-47482760D01*
X92796360Y-46548040D02*
X92852240Y-46492160D01*
X92796360Y-47482760D02*
X92796360Y-46548040D01*
D37*
X134025250Y-78889990D02*
X133161080Y-78889990D01*
X134236081Y-78679159D02*
X134025250Y-78889990D01*
X135816279Y-78679159D02*
X134236081Y-78679159D01*
X136750341Y-80435559D02*
X136070782Y-79756000D01*
X136916279Y-80435559D02*
X136750341Y-80435559D01*
X136070782Y-78933662D02*
X135816279Y-78679159D01*
X136070782Y-79756000D02*
X136070782Y-78933662D01*
D38*
%TO.N,+3.3VP*%
X134914999Y-48614999D02*
X134975000Y-48675000D01*
D37*
X136725000Y-47105900D02*
X136725000Y-47200000D01*
X132900000Y-50475000D02*
X132900000Y-50144998D01*
X133300000Y-50875000D02*
X132900000Y-50475000D01*
X134355000Y-50875000D02*
X133300000Y-50875000D01*
X133459999Y-49584999D02*
X133990001Y-49584999D01*
X132900000Y-50144998D02*
X133459999Y-49584999D01*
X134900000Y-48675000D02*
X134975000Y-48675000D01*
X133990001Y-49584999D02*
X134900000Y-48675000D01*
D38*
X143400000Y-46250000D02*
X141075000Y-43925000D01*
X136725000Y-44150000D02*
X136500000Y-43925000D01*
X136725000Y-47500000D02*
X136725000Y-44150000D01*
X141075000Y-43925000D02*
X136500000Y-43925000D01*
D37*
X135355000Y-50875000D02*
X134355000Y-50875000D01*
X136400000Y-51920000D02*
X135355000Y-50875000D01*
X136400000Y-53925000D02*
X136400000Y-51920000D01*
D39*
X138925902Y-53925000D02*
X139525000Y-53325902D01*
X136400000Y-53925000D02*
X138925902Y-53925000D01*
X137800000Y-49550000D02*
X137400000Y-49550000D01*
X139525000Y-51275000D02*
X137800000Y-49550000D01*
X137400000Y-48775000D02*
X136750000Y-48125000D01*
X137400000Y-49550000D02*
X137400000Y-48775000D01*
D38*
X130825000Y-44045000D02*
X131050000Y-43820000D01*
X130825000Y-45450000D02*
X130825000Y-44045000D01*
X132049999Y-46674999D02*
X130825000Y-45450000D01*
X132049999Y-46725000D02*
X132049999Y-46674999D01*
X136395000Y-43820000D02*
X136500000Y-43925000D01*
X131050000Y-43820000D02*
X136395000Y-43820000D01*
D37*
X139665000Y-52275000D02*
X139750000Y-52190000D01*
X139525000Y-52275000D02*
X139665000Y-52275000D01*
D39*
X139525000Y-53325902D02*
X139525000Y-52275000D01*
X139525000Y-52275000D02*
X139525000Y-51275000D01*
D38*
X143400000Y-48289700D02*
X143484600Y-48374300D01*
X143400000Y-46250000D02*
X143400000Y-48289700D01*
%TO.N,Net-(D1-Pad1)*%
X102600000Y-47450000D02*
X102600000Y-50150000D01*
%TO.N,Net-(D2-Pad2)*%
X106370002Y-52525000D02*
X106440001Y-52455001D01*
X102600000Y-52525000D02*
X106370002Y-52525000D01*
X101475000Y-52525000D02*
X100400000Y-51450000D01*
X102600000Y-52525000D02*
X101475000Y-52525000D01*
X100400000Y-50349998D02*
X99625000Y-49574998D01*
X100400000Y-51450000D02*
X100400000Y-50349998D01*
%TO.N,Net-(D3-Pad1)*%
X97379000Y-87906002D02*
X97398840Y-87925842D01*
X97379000Y-85496000D02*
X97379000Y-87906002D01*
D40*
X98841560Y-90078560D02*
X106506920Y-90078560D01*
X98612960Y-89849960D02*
X98841560Y-90078560D01*
X120629680Y-88194600D02*
X111674360Y-88194600D01*
X108472880Y-90078560D02*
X111566960Y-86984480D01*
X106506920Y-90078560D02*
X108472880Y-90078560D01*
D38*
X97379000Y-88616000D02*
X97379000Y-85496000D01*
X98612960Y-89849960D02*
X97379000Y-88616000D01*
%TO.N,Net-(D4-Pad2)*%
X123585001Y-44985001D02*
X123600000Y-45000000D01*
X120000001Y-44985001D02*
X123585001Y-44985001D01*
X120000001Y-47475001D02*
X120000001Y-44985001D01*
D39*
%TO.N,Net-(R1-Pad2)*%
X97125000Y-47325000D02*
X95825000Y-46025000D01*
X97125000Y-47674999D02*
X97125000Y-47325000D01*
X94350000Y-47487500D02*
X94350000Y-46711440D01*
X95036440Y-46025000D02*
X95825000Y-46025000D01*
X94350000Y-46711440D02*
X95036440Y-46025000D01*
D38*
%TO.N,Net-(R3-Pad2)*%
X96599999Y-49650001D02*
X97125000Y-49650001D01*
X95250000Y-51000000D02*
X96599999Y-49650001D01*
X95250000Y-51475000D02*
X95250000Y-51000000D01*
%TO.N,Net-(R3-Pad1)*%
X97100000Y-51450000D02*
X97075000Y-51475000D01*
X98575000Y-51450000D02*
X97100000Y-51450000D01*
D37*
%TO.N,V_FB*%
X100695760Y-85412760D02*
X100779000Y-85496000D01*
X100695760Y-82245200D02*
X100695760Y-85412760D01*
D38*
%TO.N,Net-(C7-Pad1)*%
X95031560Y-60579000D02*
X94899480Y-60711080D01*
X98269040Y-60579000D02*
X95031560Y-60579000D01*
X94899480Y-60236080D02*
X94919800Y-60215760D01*
X94899480Y-60711080D02*
X94899480Y-60236080D01*
X94919800Y-60215760D02*
X94919800Y-58938160D01*
X93692920Y-57711280D02*
X91297760Y-57711280D01*
X94919800Y-58938160D02*
X93692920Y-57711280D01*
X87889080Y-54302600D02*
X91297760Y-57711280D01*
X87889080Y-52298480D02*
X87889080Y-54302600D01*
%TO.N,Net-(C8-Pad1)*%
X97942400Y-55499000D02*
X97942400Y-55260240D01*
X97942400Y-55260240D02*
X96893440Y-54211280D01*
X99475000Y-46025000D02*
X99625000Y-45875000D01*
X97650000Y-46025000D02*
X99475000Y-46025000D01*
X99625000Y-45875000D02*
X99773680Y-45875000D01*
X99625000Y-45875000D02*
X102415280Y-45875000D01*
X102600000Y-45690280D02*
X102600000Y-44950000D01*
X102415280Y-45875000D02*
X102600000Y-45690280D01*
X106405000Y-44950000D02*
X106440001Y-44985001D01*
X102600000Y-44950000D02*
X106405000Y-44950000D01*
X99625000Y-47674999D02*
X99625000Y-45875000D01*
X87417241Y-47573599D02*
X92095320Y-42895520D01*
X92095320Y-42895520D02*
X95981520Y-42895520D01*
X97650000Y-44564000D02*
X97650000Y-46025000D01*
X95981520Y-42895520D02*
X97650000Y-44564000D01*
X87889080Y-48798480D02*
X91485720Y-48798480D01*
X91485720Y-48798480D02*
X92821760Y-50134520D01*
X92821760Y-50134520D02*
X92821760Y-52694840D01*
X92821760Y-52694840D02*
X94338200Y-54211280D01*
X96893440Y-54211280D02*
X94338200Y-54211280D01*
X87417241Y-48326641D02*
X87889080Y-48798480D01*
X87417241Y-47573599D02*
X87417241Y-48326641D01*
%TO.N,Net-(C4-Pad1)*%
X128225000Y-50137500D02*
X128612500Y-49750000D01*
X128225000Y-53500000D02*
X128225000Y-50137500D01*
X128612500Y-47562500D02*
X128775000Y-47400000D01*
X128612500Y-49750000D02*
X128612500Y-47562500D01*
X128775000Y-47400000D02*
X127775000Y-47400000D01*
X126400000Y-46025000D02*
X126400000Y-45000000D01*
X127775000Y-47400000D02*
X126400000Y-46025000D01*
X128800000Y-45000000D02*
X129250000Y-45450000D01*
X126400000Y-45000000D02*
X128800000Y-45000000D01*
%TO.N,Net-(J3-Pad1)*%
X142565000Y-56825000D02*
X143484600Y-55905400D01*
X133675000Y-56825000D02*
X142565000Y-56825000D01*
X132575000Y-55725000D02*
X133675000Y-56825000D01*
D39*
%TO.N,+3.3VA*%
X133780000Y-69230000D02*
X136140000Y-69230000D01*
X136140000Y-69230000D02*
X136975000Y-70065000D01*
X127140000Y-68920000D02*
X127140000Y-69300000D01*
X127140000Y-69300000D02*
X128400000Y-70560000D01*
X128400000Y-70560000D02*
X133180000Y-70560000D01*
X133780000Y-69960000D02*
X133780000Y-69230000D01*
X133180000Y-70560000D02*
X133780000Y-69960000D01*
X136975000Y-69890000D02*
X136605000Y-69520000D01*
X136975000Y-70985000D02*
X136975000Y-69890000D01*
X136975000Y-70065000D02*
X136975000Y-70985000D01*
X136975000Y-70985000D02*
X136975000Y-74700000D01*
D38*
X140450000Y-74700000D02*
X142980000Y-77230000D01*
X136975000Y-74700000D02*
X140450000Y-74700000D01*
D37*
%TO.N,3.3UVLO_m*%
X128847653Y-76917653D02*
X129122347Y-76917653D01*
X129470000Y-76570000D02*
X130430000Y-76570000D01*
X129122347Y-76917653D02*
X129470000Y-76570000D01*
D39*
X131420000Y-71760000D02*
X131425001Y-71765001D01*
X125710000Y-71760000D02*
X131420000Y-71760000D01*
D38*
%TO.N,~3.3V_ISO_OV*%
X125310000Y-68915000D02*
X125315000Y-68920000D01*
X125310000Y-66900000D02*
X125310000Y-68915000D01*
D39*
%TO.N,+3.3V_ISO_UV*%
X131823000Y-69098000D02*
X131955000Y-69230000D01*
X131823000Y-66980001D02*
X131823000Y-69098000D01*
D38*
%TO.N,+3.3V_ISO_present*%
X143010000Y-67020000D02*
X138446000Y-67020000D01*
X138446000Y-69504000D02*
X138430000Y-69520000D01*
X138446000Y-67020000D02*
X138446000Y-69504000D01*
D37*
%TO.N,UVL_OVL_3.3_m_MOSF*%
X138050000Y-76600000D02*
X138100000Y-76550000D01*
X136975000Y-76600000D02*
X138050000Y-76600000D01*
D39*
X138590000Y-77040000D02*
X138100000Y-76550000D01*
X138590000Y-78055000D02*
X138590000Y-77040000D01*
D37*
X128700000Y-77970000D02*
X128700000Y-77991440D01*
X128950960Y-78242400D02*
X130501080Y-78242400D01*
X128700000Y-77991440D02*
X128950960Y-78242400D01*
%TO.N,UVL_OVL_MOSF*%
X134355000Y-51525000D02*
X134225000Y-51525000D01*
X133425000Y-52875000D02*
X133550000Y-53000000D01*
X133600000Y-53050000D02*
X133550000Y-53000000D01*
X135125000Y-53050000D02*
X133600000Y-53050000D01*
D39*
X133965000Y-51525000D02*
X133425000Y-52065000D01*
X134355000Y-51525000D02*
X133965000Y-51525000D01*
D37*
X133425000Y-52065000D02*
X133425000Y-52875000D01*
D39*
X133425000Y-53625000D02*
X133525000Y-53725000D01*
X133500000Y-53050000D02*
X133425000Y-53125000D01*
X135125000Y-53050000D02*
X133500000Y-53050000D01*
X133425000Y-53125000D02*
X133425000Y-53625000D01*
X133425000Y-52065000D02*
X133425000Y-53125000D01*
D37*
%TO.N,3.9OVLO_m*%
X135149998Y-76570000D02*
X133090000Y-76570000D01*
X135890000Y-77310002D02*
X135969999Y-77390001D01*
X135890000Y-73302500D02*
X135890000Y-77310002D01*
X135969999Y-77390001D02*
X135149998Y-76570000D01*
X136930000Y-78350002D02*
X135969999Y-77390001D01*
%TO.N,Net-(R9-Pad1)*%
X130430000Y-75270000D02*
X128830000Y-75270000D01*
X128830000Y-75270000D02*
X127640000Y-76460000D01*
X127640000Y-77983002D02*
X127630000Y-77993002D01*
X127640000Y-76460000D02*
X127640000Y-77983002D01*
X129179398Y-79542400D02*
X128892459Y-79255461D01*
X130501080Y-79542400D02*
X129179398Y-79542400D01*
X128892459Y-79255461D02*
X128976998Y-79340000D01*
X127630000Y-77993002D02*
X128892459Y-79255461D01*
X130501080Y-80952040D02*
X130884920Y-81335880D01*
X130501080Y-79542400D02*
X130501080Y-80952040D01*
%TO.N,Net-(R10-Pad2)*%
X133161080Y-78242400D02*
X133547880Y-78242400D01*
X134075280Y-77715000D02*
X134610000Y-77715000D01*
X133547880Y-78242400D02*
X134075280Y-77715000D01*
D39*
X138580000Y-81480000D02*
X137220000Y-81480000D01*
X137220000Y-81480000D02*
X137150000Y-81550000D01*
D37*
%TO.N,3.3UVLO*%
X138289999Y-52264999D02*
X137400000Y-51375000D01*
X138289999Y-52900001D02*
X138289999Y-52264999D01*
X136250000Y-50225000D02*
X134355000Y-50225000D01*
X137400000Y-51375000D02*
X136250000Y-50225000D01*
X136200000Y-50175000D02*
X136250000Y-50225000D01*
X136200000Y-49400000D02*
X136200000Y-50175000D01*
D38*
%TO.N,3.9OVLO*%
X134975000Y-46850000D02*
X133349999Y-48475001D01*
D39*
X133305001Y-48614999D02*
X131695000Y-50225000D01*
X133349999Y-48614999D02*
X133305001Y-48614999D01*
D38*
X134950000Y-46825000D02*
X134975000Y-46850000D01*
X134950000Y-45350000D02*
X134950000Y-46825000D01*
D37*
%TO.N,Earth*%
X138450000Y-47500000D02*
X138450000Y-47289998D01*
D38*
X135125000Y-54875000D02*
X135660000Y-55410000D01*
X137829998Y-55410000D02*
X138289999Y-54949999D01*
X135660000Y-55410000D02*
X137829998Y-55410000D01*
D37*
X131695000Y-50875000D02*
X131695000Y-51525000D01*
D38*
X120000001Y-52455001D02*
X120000001Y-49965001D01*
X125272499Y-49965001D02*
X125487500Y-49750000D01*
X120000001Y-49965001D02*
X125272499Y-49965001D01*
D37*
%TO.N,+3V3*%
X135005000Y-79340000D02*
X135040001Y-79375001D01*
X130430000Y-75920000D02*
X131230000Y-75920000D01*
X131975000Y-74130000D02*
X132450000Y-73655000D01*
X132450000Y-73655000D02*
X131880000Y-74225000D01*
X131750000Y-75920000D02*
X131230000Y-75920000D01*
X131880000Y-75790000D02*
X131750000Y-75920000D01*
X131880000Y-77260000D02*
X131627499Y-77512501D01*
X131880000Y-75650000D02*
X131880000Y-77260000D01*
X131880000Y-74225000D02*
X131880000Y-75650000D01*
X131880000Y-75650000D02*
X131880000Y-75790000D01*
D39*
X133712500Y-73655000D02*
X135890000Y-71477500D01*
D38*
X121978239Y-73601399D02*
X132396399Y-73601399D01*
X121230000Y-72853160D02*
X121978239Y-73601399D01*
D40*
X115941439Y-74310001D02*
X121985801Y-74310001D01*
X114593360Y-69865240D02*
X114593360Y-75658080D01*
X113248620Y-77002820D02*
X115941439Y-74310001D01*
X114593360Y-75658080D02*
X113248620Y-77002820D01*
X111566960Y-78684480D02*
X113248620Y-77002820D01*
D37*
X140190000Y-81480000D02*
X138590000Y-79880000D01*
X140405000Y-81480000D02*
X140190000Y-81480000D01*
X140405000Y-82429200D02*
X140405000Y-81480000D01*
X139684760Y-83149440D02*
X140405000Y-82429200D01*
X136992360Y-83149440D02*
X139684760Y-83149440D01*
X135040001Y-81197081D02*
X136992360Y-83149440D01*
X135040001Y-79375001D02*
X135040001Y-81197081D01*
D38*
X132490521Y-73438839D02*
X132477401Y-73451959D01*
X133669721Y-73438839D02*
X132490521Y-73438839D01*
X134975000Y-74744118D02*
X133669721Y-73438839D01*
X134975000Y-75650000D02*
X134975000Y-74744118D01*
D37*
X131627499Y-79008819D02*
X131627499Y-78659101D01*
X133161080Y-79542400D02*
X132161080Y-79542400D01*
X131627499Y-77512501D02*
X131627499Y-78659101D01*
X131511080Y-78892400D02*
X131693940Y-79075260D01*
X131693940Y-79075260D02*
X131627499Y-79008819D01*
X130501080Y-78892400D02*
X131511080Y-78892400D01*
X132161080Y-79542400D02*
X131693940Y-79075260D01*
X134894440Y-79542400D02*
X135026280Y-79410560D01*
X133161080Y-79542400D02*
X134894440Y-79542400D01*
D38*
%TO.N,VDC*%
X93568120Y-85496000D02*
X92710000Y-84637880D01*
X94462200Y-85496000D02*
X93568120Y-85496000D01*
X95679000Y-85496000D02*
X94462200Y-85496000D01*
D40*
X99156520Y-65338960D02*
X100009960Y-65338960D01*
X95463360Y-69032120D02*
X99156520Y-65338960D01*
X93232878Y-69032120D02*
X95463360Y-69032120D01*
X89448640Y-84322920D02*
X89448640Y-72816358D01*
X90621720Y-85496000D02*
X89448640Y-84322920D01*
X89448640Y-72816358D02*
X93232878Y-69032120D01*
X94462200Y-85496000D02*
X90621720Y-85496000D01*
D38*
X100269040Y-64669120D02*
X99954800Y-64983360D01*
X100269040Y-60579000D02*
X100269040Y-64669120D01*
D40*
X100472960Y-64465200D02*
X99954800Y-64983360D01*
X105100120Y-64465200D02*
X100472960Y-64465200D01*
%TO.N,Net-(D6-Pad2)*%
X91209960Y-65338960D02*
X88315800Y-65338960D01*
X85872320Y-64983360D02*
X85745320Y-64856360D01*
X91154800Y-64983360D02*
X85872320Y-64983360D01*
%TD*%
D41*
%TO.N,Earth*%
X147681162Y-42150729D02*
X147681117Y-42151176D01*
X147681082Y-42183052D01*
X147681003Y-42215113D01*
X147681046Y-42215563D01*
X147661191Y-60275923D01*
X139877526Y-60266465D01*
X139884072Y-60200000D01*
X139884072Y-58600000D01*
X139871812Y-58475518D01*
X139835502Y-58355820D01*
X139776537Y-58245506D01*
X139697185Y-58148815D01*
X139600494Y-58069463D01*
X139490180Y-58010498D01*
X139370482Y-57974188D01*
X139246000Y-57961928D01*
X137646000Y-57961928D01*
X137521518Y-57974188D01*
X137401820Y-58010498D01*
X137291506Y-58069463D01*
X137194815Y-58148815D01*
X137115463Y-58245506D01*
X137056498Y-58355820D01*
X137020188Y-58475518D01*
X137017769Y-58500080D01*
X136869414Y-58336481D01*
X136643420Y-58168963D01*
X136389087Y-58048754D01*
X136255039Y-58008096D01*
X136033000Y-58130085D01*
X136033000Y-59273000D01*
X136053000Y-59273000D01*
X136053000Y-59527000D01*
X136033000Y-59527000D01*
X136033000Y-59547000D01*
X135779000Y-59547000D01*
X135779000Y-59527000D01*
X134635376Y-59527000D01*
X134514091Y-59749040D01*
X134608930Y-60013881D01*
X134753615Y-60255131D01*
X134758253Y-60260245D01*
X133251379Y-60258414D01*
X133261072Y-60160001D01*
X133261072Y-59050960D01*
X134514091Y-59050960D01*
X134635376Y-59273000D01*
X135779000Y-59273000D01*
X135779000Y-58130085D01*
X135556961Y-58008096D01*
X135422913Y-58048754D01*
X135168580Y-58168963D01*
X134942586Y-58336481D01*
X134753615Y-58544869D01*
X134608930Y-58786119D01*
X134514091Y-59050960D01*
X133261072Y-59050960D01*
X133261072Y-58560001D01*
X133248812Y-58435519D01*
X133212502Y-58315821D01*
X133153537Y-58205507D01*
X133074185Y-58108816D01*
X132977494Y-58029464D01*
X132867180Y-57970499D01*
X132747482Y-57934189D01*
X132623000Y-57921929D01*
X131023000Y-57921929D01*
X130898518Y-57934189D01*
X130778820Y-57970499D01*
X130668506Y-58029464D01*
X130571815Y-58108816D01*
X130492463Y-58205507D01*
X130433498Y-58315821D01*
X130397188Y-58435519D01*
X130394769Y-58460081D01*
X130246414Y-58296482D01*
X130020420Y-58128964D01*
X129766087Y-58008755D01*
X129632039Y-57968097D01*
X129410000Y-58090086D01*
X129410000Y-59233001D01*
X129430000Y-59233001D01*
X129430000Y-59487001D01*
X129410000Y-59487001D01*
X129410000Y-59507001D01*
X129156000Y-59507001D01*
X129156000Y-59487001D01*
X128012376Y-59487001D01*
X127891091Y-59709041D01*
X127985930Y-59973882D01*
X128130615Y-60215132D01*
X128164259Y-60252233D01*
X126721859Y-60250480D01*
X126735812Y-60204482D01*
X126748072Y-60080000D01*
X126748072Y-59010961D01*
X127891091Y-59010961D01*
X128012376Y-59233001D01*
X129156000Y-59233001D01*
X129156000Y-58090086D01*
X128933961Y-57968097D01*
X128799913Y-58008755D01*
X128545580Y-58128964D01*
X128319586Y-58296482D01*
X128130615Y-58504870D01*
X127985930Y-58746120D01*
X127891091Y-59010961D01*
X126748072Y-59010961D01*
X126748072Y-58480000D01*
X126735812Y-58355518D01*
X126699502Y-58235820D01*
X126640537Y-58125506D01*
X126561185Y-58028815D01*
X126464494Y-57949463D01*
X126354180Y-57890498D01*
X126234482Y-57854188D01*
X126110000Y-57841928D01*
X124510000Y-57841928D01*
X124385518Y-57854188D01*
X124265820Y-57890498D01*
X124155506Y-57949463D01*
X124058815Y-58028815D01*
X123979463Y-58125506D01*
X123920498Y-58235820D01*
X123884188Y-58355518D01*
X123881769Y-58380080D01*
X123733414Y-58216481D01*
X123507420Y-58048963D01*
X123253087Y-57928754D01*
X123119039Y-57888096D01*
X122897000Y-58010085D01*
X122897000Y-59153000D01*
X122917000Y-59153000D01*
X122917000Y-59407000D01*
X122897000Y-59407000D01*
X122897000Y-59427000D01*
X122643000Y-59427000D01*
X122643000Y-59407000D01*
X121499376Y-59407000D01*
X121378091Y-59629040D01*
X121472930Y-59893881D01*
X121617615Y-60135131D01*
X121716702Y-60244399D01*
X119149894Y-60241280D01*
X119125115Y-60243690D01*
X119101282Y-60250888D01*
X119079311Y-60262598D01*
X119060047Y-60278368D01*
X119044229Y-60297594D01*
X119032466Y-60319537D01*
X119025210Y-60343352D01*
X119022740Y-60368126D01*
X119023578Y-60382847D01*
X119097300Y-61021333D01*
X115073015Y-60974539D01*
X115089767Y-60616843D01*
X115102640Y-60603970D01*
X115102640Y-60341960D01*
X115148874Y-59354720D01*
X115356640Y-59354720D01*
X115356640Y-60603970D01*
X115515390Y-60762720D01*
X115892140Y-60765792D01*
X116016622Y-60753532D01*
X116136320Y-60717222D01*
X116246634Y-60658257D01*
X116343325Y-60578905D01*
X116422677Y-60482214D01*
X116481642Y-60371900D01*
X116517952Y-60252202D01*
X116530212Y-60127720D01*
X116527140Y-59513470D01*
X116368390Y-59354720D01*
X115356640Y-59354720D01*
X115148874Y-59354720D01*
X115219274Y-57851470D01*
X115356640Y-57851470D01*
X115356640Y-59100720D01*
X116368390Y-59100720D01*
X116527140Y-58941970D01*
X116527195Y-58930960D01*
X121378091Y-58930960D01*
X121499376Y-59153000D01*
X122643000Y-59153000D01*
X122643000Y-58010085D01*
X122420961Y-57888096D01*
X122286913Y-57928754D01*
X122032580Y-58048963D01*
X121806586Y-58216481D01*
X121617615Y-58424869D01*
X121472930Y-58666119D01*
X121378091Y-58930960D01*
X116527195Y-58930960D01*
X116530212Y-58327720D01*
X116517952Y-58203238D01*
X116481642Y-58083540D01*
X116422677Y-57973226D01*
X116343325Y-57876535D01*
X116246634Y-57797183D01*
X116136320Y-57738218D01*
X116016622Y-57701908D01*
X115892140Y-57689648D01*
X115515390Y-57692720D01*
X115356640Y-57851470D01*
X115219274Y-57851470D01*
X115244263Y-57317904D01*
X124166940Y-57204070D01*
X124191683Y-57201314D01*
X124215414Y-57193783D01*
X124237219Y-57181768D01*
X124256261Y-57165730D01*
X124271808Y-57146285D01*
X124283263Y-57124180D01*
X124290186Y-57100265D01*
X124292315Y-57075937D01*
X124264409Y-53975000D01*
X125324428Y-53975000D01*
X125336688Y-54099482D01*
X125372998Y-54219180D01*
X125431963Y-54329494D01*
X125511315Y-54426185D01*
X125608006Y-54505537D01*
X125718320Y-54564502D01*
X125838018Y-54600812D01*
X125962500Y-54613072D01*
X126214250Y-54610000D01*
X126373000Y-54451250D01*
X126373000Y-53627000D01*
X125486250Y-53627000D01*
X125327500Y-53785750D01*
X125324428Y-53975000D01*
X124264409Y-53975000D01*
X124255860Y-53025000D01*
X125324428Y-53025000D01*
X125327500Y-53214250D01*
X125486250Y-53373000D01*
X126373000Y-53373000D01*
X126373000Y-52988750D01*
X126410500Y-52951250D01*
X126410500Y-52127000D01*
X125523750Y-52127000D01*
X125365000Y-52285750D01*
X125361928Y-52475000D01*
X125374188Y-52599482D01*
X125408850Y-52713747D01*
X125372998Y-52780820D01*
X125336688Y-52900518D01*
X125324428Y-53025000D01*
X124255860Y-53025000D01*
X124237712Y-51008588D01*
X124261843Y-51053734D01*
X124341195Y-51150425D01*
X124437886Y-51229777D01*
X124548200Y-51288742D01*
X124667898Y-51325052D01*
X124792380Y-51337312D01*
X125169130Y-51334240D01*
X125327878Y-51175492D01*
X125327878Y-51334240D01*
X125394293Y-51334240D01*
X125374188Y-51400518D01*
X125361928Y-51525000D01*
X125365000Y-51714250D01*
X125523750Y-51873000D01*
X126410500Y-51873000D01*
X126410500Y-51853000D01*
X126664500Y-51853000D01*
X126664500Y-51873000D01*
X126684500Y-51873000D01*
X126684500Y-52127000D01*
X126664500Y-52127000D01*
X126664500Y-52511250D01*
X126627000Y-52548750D01*
X126627000Y-53373000D01*
X126647000Y-53373000D01*
X126647000Y-53627000D01*
X126627000Y-53627000D01*
X126627000Y-54451250D01*
X126785750Y-54610000D01*
X127037500Y-54613072D01*
X127161982Y-54600812D01*
X127281680Y-54564502D01*
X127391994Y-54505537D01*
X127439894Y-54466226D01*
X127589933Y-54546423D01*
X127754184Y-54596248D01*
X127925000Y-54613072D01*
X127984354Y-54613072D01*
X128002501Y-54618577D01*
X128225000Y-54640491D01*
X128447498Y-54618577D01*
X128465645Y-54613072D01*
X128525000Y-54613072D01*
X128695816Y-54596248D01*
X128860067Y-54546423D01*
X129011442Y-54465512D01*
X129144123Y-54356623D01*
X129253012Y-54223942D01*
X129279171Y-54175000D01*
X130586928Y-54175000D01*
X130599188Y-54299482D01*
X130635498Y-54419180D01*
X130694463Y-54529494D01*
X130773815Y-54626185D01*
X130870506Y-54705537D01*
X130980820Y-54764502D01*
X131100518Y-54800812D01*
X131225000Y-54813072D01*
X131339250Y-54810000D01*
X131498000Y-54651250D01*
X131498000Y-53852000D01*
X130748750Y-53852000D01*
X130590000Y-54010750D01*
X130586928Y-54175000D01*
X129279171Y-54175000D01*
X129333923Y-54072567D01*
X129383748Y-53908316D01*
X129400572Y-53737500D01*
X129400572Y-53275000D01*
X130586928Y-53275000D01*
X130590000Y-53439250D01*
X130748750Y-53598000D01*
X131498000Y-53598000D01*
X131498000Y-52798750D01*
X131339250Y-52640000D01*
X131225000Y-52636928D01*
X131100518Y-52649188D01*
X130980820Y-52685498D01*
X130870506Y-52744463D01*
X130773815Y-52823815D01*
X130694463Y-52920506D01*
X130635498Y-53030820D01*
X130599188Y-53150518D01*
X130586928Y-53275000D01*
X129400572Y-53275000D01*
X129400572Y-53262500D01*
X129383748Y-53091684D01*
X129360000Y-53013397D01*
X129360000Y-52593938D01*
X129371423Y-52572567D01*
X129421248Y-52408316D01*
X129438072Y-52237500D01*
X129438072Y-51762500D01*
X129421248Y-51591684D01*
X129371423Y-51427433D01*
X129360000Y-51406062D01*
X129360000Y-51254869D01*
X129485767Y-51187645D01*
X129620342Y-51077202D01*
X129730785Y-50942627D01*
X129812852Y-50789091D01*
X129863388Y-50622495D01*
X129880452Y-50449241D01*
X129880452Y-49149239D01*
X129863388Y-48975985D01*
X129812852Y-48809389D01*
X129747500Y-48687124D01*
X129747500Y-48364287D01*
X129755537Y-48354494D01*
X129814502Y-48244180D01*
X129836852Y-48170499D01*
X129980528Y-48170499D01*
X129983600Y-48329249D01*
X130142350Y-48487999D01*
X130898000Y-48487999D01*
X130898000Y-47694249D01*
X130739250Y-47535499D01*
X130618600Y-47532427D01*
X130494118Y-47544687D01*
X130374420Y-47580997D01*
X130264106Y-47639962D01*
X130167415Y-47719314D01*
X130088063Y-47816005D01*
X130029098Y-47926319D01*
X129992788Y-48046017D01*
X129980528Y-48170499D01*
X129836852Y-48170499D01*
X129850812Y-48124482D01*
X129863072Y-48000000D01*
X129863072Y-47723060D01*
X129893577Y-47622499D01*
X129915491Y-47400000D01*
X129893577Y-47177501D01*
X129863072Y-47076940D01*
X129863072Y-46800000D01*
X129850812Y-46675518D01*
X129814502Y-46555820D01*
X129785347Y-46501276D01*
X129796642Y-46497850D01*
X129944775Y-46418671D01*
X130037500Y-46342574D01*
X130130225Y-46418671D01*
X130255502Y-46485633D01*
X131012755Y-47242886D01*
X131017787Y-47293982D01*
X131054097Y-47413680D01*
X131113062Y-47523994D01*
X131192414Y-47620685D01*
X131210622Y-47635627D01*
X131152000Y-47694249D01*
X131152000Y-48487999D01*
X131172000Y-48487999D01*
X131172000Y-48741999D01*
X131152000Y-48741999D01*
X131152000Y-48761999D01*
X130898000Y-48761999D01*
X130898000Y-48741999D01*
X130142350Y-48741999D01*
X129983600Y-48900749D01*
X129980528Y-49059499D01*
X129992788Y-49183981D01*
X130029098Y-49303679D01*
X130088063Y-49413993D01*
X130167415Y-49510684D01*
X130264106Y-49590036D01*
X130374420Y-49649001D01*
X130420612Y-49663013D01*
X130414463Y-49670506D01*
X130355498Y-49780820D01*
X130319188Y-49900518D01*
X130306928Y-50025000D01*
X130306928Y-50425000D01*
X130319188Y-50549482D01*
X130319940Y-50551962D01*
X130310000Y-50643250D01*
X130377968Y-50711218D01*
X130414463Y-50779494D01*
X130493382Y-50875658D01*
X130419792Y-50962657D01*
X130377222Y-51039528D01*
X130310000Y-51106750D01*
X130320154Y-51200000D01*
X130310000Y-51293250D01*
X130377222Y-51360472D01*
X130419792Y-51437343D01*
X130500574Y-51532844D01*
X130582418Y-51598000D01*
X130468750Y-51598000D01*
X130310000Y-51756750D01*
X130321109Y-51858773D01*
X130359194Y-51977918D01*
X130419792Y-52087343D01*
X130500574Y-52182844D01*
X130598434Y-52260750D01*
X130709613Y-52318067D01*
X130829838Y-52352593D01*
X130954488Y-52363001D01*
X131409250Y-52360000D01*
X131568000Y-52201250D01*
X131568000Y-51598000D01*
X131521250Y-51598000D01*
X131568000Y-51551250D01*
X131568000Y-51378000D01*
X131822000Y-51378000D01*
X131822000Y-51551250D01*
X131842000Y-51571250D01*
X131842000Y-51598000D01*
X131822000Y-51598000D01*
X131822000Y-52201250D01*
X131980750Y-52360000D01*
X132435512Y-52363001D01*
X132540000Y-52354276D01*
X132540001Y-52901575D01*
X132476185Y-52823815D01*
X132379494Y-52744463D01*
X132269180Y-52685498D01*
X132149482Y-52649188D01*
X132025000Y-52636928D01*
X131910750Y-52640000D01*
X131752000Y-52798750D01*
X131752000Y-53598000D01*
X131772000Y-53598000D01*
X131772000Y-53852000D01*
X131752000Y-53852000D01*
X131752000Y-54651250D01*
X131836607Y-54735857D01*
X131820506Y-54744463D01*
X131723815Y-54823815D01*
X131644463Y-54920506D01*
X131585498Y-55030820D01*
X131549188Y-55150518D01*
X131538816Y-55255829D01*
X131521324Y-55288554D01*
X131456423Y-55502502D01*
X131434509Y-55725000D01*
X131456423Y-55947498D01*
X131521324Y-56161446D01*
X131538816Y-56194171D01*
X131549188Y-56299482D01*
X131585498Y-56419180D01*
X131644463Y-56529494D01*
X131723815Y-56626185D01*
X131820506Y-56705537D01*
X131930820Y-56764502D01*
X132043574Y-56798706D01*
X132833008Y-57588140D01*
X132868551Y-57631449D01*
X133041377Y-57773284D01*
X133169802Y-57841928D01*
X133238553Y-57878676D01*
X133452501Y-57943577D01*
X133675000Y-57965491D01*
X133730751Y-57960000D01*
X141816651Y-57960000D01*
X142236459Y-58240507D01*
X142715999Y-58439139D01*
X143225075Y-58540400D01*
X143744125Y-58540400D01*
X144253201Y-58439139D01*
X144732741Y-58240507D01*
X145164315Y-57952138D01*
X145531338Y-57585115D01*
X145819707Y-57153541D01*
X146018339Y-56674001D01*
X146119600Y-56164925D01*
X146119600Y-55645875D01*
X146018339Y-55136799D01*
X145819707Y-54657259D01*
X145531338Y-54225685D01*
X145164315Y-53858662D01*
X144732741Y-53570293D01*
X144253201Y-53371661D01*
X143744125Y-53270400D01*
X143225075Y-53270400D01*
X142715999Y-53371661D01*
X142236459Y-53570293D01*
X141804885Y-53858662D01*
X141437862Y-54225685D01*
X141149493Y-54657259D01*
X140950861Y-55136799D01*
X140849600Y-55645875D01*
X140849600Y-55690000D01*
X139334227Y-55690000D01*
X139377642Y-55608778D01*
X139413952Y-55489080D01*
X139426212Y-55364598D01*
X139423140Y-55243948D01*
X139264390Y-55085198D01*
X138470640Y-55085198D01*
X138470640Y-55105198D01*
X138216640Y-55105198D01*
X138216640Y-55085198D01*
X137422890Y-55085198D01*
X137264140Y-55243948D01*
X137261068Y-55364598D01*
X137273328Y-55489080D01*
X137309638Y-55608778D01*
X137353053Y-55690000D01*
X136144966Y-55690000D01*
X136189502Y-55606680D01*
X136225812Y-55486982D01*
X136238072Y-55362500D01*
X136235000Y-55160750D01*
X136076252Y-55002002D01*
X136235000Y-55002002D01*
X136235000Y-54977671D01*
X136898141Y-54977671D01*
X137022623Y-54965411D01*
X137142321Y-54929101D01*
X137252635Y-54870136D01*
X137325911Y-54810000D01*
X137401692Y-54810000D01*
X137422890Y-54831198D01*
X138216640Y-54831198D01*
X138216640Y-54811198D01*
X138470640Y-54811198D01*
X138470640Y-54831198D01*
X139264390Y-54831198D01*
X139423140Y-54672448D01*
X139423417Y-54661575D01*
X139554719Y-54553817D01*
X139582436Y-54520044D01*
X140120050Y-53982431D01*
X140153817Y-53954719D01*
X140183031Y-53919123D01*
X140264411Y-53819961D01*
X140346589Y-53666216D01*
X140397195Y-53499392D01*
X140401911Y-53451510D01*
X140410000Y-53369379D01*
X140410000Y-53369371D01*
X140414281Y-53325902D01*
X140410000Y-53282433D01*
X140410000Y-52993711D01*
X140553937Y-52849774D01*
X140667205Y-52680256D01*
X140745226Y-52491898D01*
X140785000Y-52291939D01*
X140785000Y-52088061D01*
X140745226Y-51888102D01*
X140667205Y-51699744D01*
X140553937Y-51530226D01*
X140410000Y-51386289D01*
X140410000Y-51318465D01*
X140414281Y-51274999D01*
X140410000Y-51231533D01*
X140410000Y-51231523D01*
X140397195Y-51101510D01*
X140346589Y-50934687D01*
X140264411Y-50780941D01*
X140219333Y-50726014D01*
X140181532Y-50679953D01*
X140181530Y-50679951D01*
X140153817Y-50646183D01*
X140120049Y-50618470D01*
X138576222Y-49074644D01*
X138576222Y-48942012D01*
X138734970Y-49100760D01*
X138986720Y-49103832D01*
X139111202Y-49091572D01*
X139230900Y-49055262D01*
X139341214Y-48996297D01*
X139437905Y-48916945D01*
X139517257Y-48820254D01*
X139576222Y-48709940D01*
X139612532Y-48590242D01*
X139624792Y-48465760D01*
X139621720Y-48276510D01*
X139462970Y-48117760D01*
X138576220Y-48117760D01*
X138576220Y-48137760D01*
X138322220Y-48137760D01*
X138322220Y-48117760D01*
X138302220Y-48117760D01*
X138302220Y-47863760D01*
X138322220Y-47863760D01*
X138322220Y-47383550D01*
X138343640Y-47362130D01*
X138343640Y-47039510D01*
X138576220Y-47039510D01*
X138576220Y-47863760D01*
X139462970Y-47863760D01*
X139621720Y-47705010D01*
X139624792Y-47515760D01*
X139612532Y-47391278D01*
X139576222Y-47271580D01*
X139549109Y-47220857D01*
X139597642Y-47130060D01*
X139633952Y-47010362D01*
X139646212Y-46885880D01*
X139643140Y-46696630D01*
X139484390Y-46537880D01*
X138597640Y-46537880D01*
X138597640Y-47018090D01*
X138576220Y-47039510D01*
X138343640Y-47039510D01*
X138343640Y-46537880D01*
X138323640Y-46537880D01*
X138323640Y-46283880D01*
X138343640Y-46283880D01*
X138343640Y-45459630D01*
X138597640Y-45459630D01*
X138597640Y-46283880D01*
X139484390Y-46283880D01*
X139643140Y-46125130D01*
X139646212Y-45935880D01*
X139633952Y-45811398D01*
X139597642Y-45691700D01*
X139538677Y-45581386D01*
X139459325Y-45484695D01*
X139362634Y-45405343D01*
X139252320Y-45346378D01*
X139132622Y-45310068D01*
X139008140Y-45297808D01*
X138756390Y-45300880D01*
X138597640Y-45459630D01*
X138343640Y-45459630D01*
X138184890Y-45300880D01*
X137933140Y-45297808D01*
X137860000Y-45305011D01*
X137860000Y-45060000D01*
X140604869Y-45060000D01*
X141845375Y-46300507D01*
X141804885Y-46327562D01*
X141437862Y-46694585D01*
X141149493Y-47126159D01*
X140950861Y-47605699D01*
X140849600Y-48114775D01*
X140849600Y-48633825D01*
X140950861Y-49142901D01*
X141149493Y-49622441D01*
X141437862Y-50054015D01*
X141804885Y-50421038D01*
X142236459Y-50709407D01*
X142715999Y-50908039D01*
X143225075Y-51009300D01*
X143744125Y-51009300D01*
X144253201Y-50908039D01*
X144732741Y-50709407D01*
X145164315Y-50421038D01*
X145531338Y-50054015D01*
X145819707Y-49622441D01*
X146018339Y-49142901D01*
X146119600Y-48633825D01*
X146119600Y-48114775D01*
X146018339Y-47605699D01*
X145819707Y-47126159D01*
X145531338Y-46694585D01*
X145164315Y-46327562D01*
X144732741Y-46039193D01*
X144491856Y-45939415D01*
X144453676Y-45813553D01*
X144348284Y-45616377D01*
X144301360Y-45559200D01*
X144597972Y-45618200D01*
X145038228Y-45618200D01*
X145470025Y-45532310D01*
X145876769Y-45363831D01*
X146242829Y-45119238D01*
X146554138Y-44807929D01*
X146798731Y-44441869D01*
X146967210Y-44035125D01*
X147053100Y-43603328D01*
X147053100Y-43163072D01*
X146967210Y-42731275D01*
X146798731Y-42324531D01*
X146554138Y-41958471D01*
X146242829Y-41647162D01*
X145876769Y-41402569D01*
X145470025Y-41234090D01*
X145038228Y-41148200D01*
X144597972Y-41148200D01*
X144166175Y-41234090D01*
X143759431Y-41402569D01*
X143393371Y-41647162D01*
X143082062Y-41958471D01*
X142837469Y-42324531D01*
X142668990Y-42731275D01*
X142583100Y-43163072D01*
X142583100Y-43603328D01*
X142638879Y-43883747D01*
X141916996Y-43161864D01*
X141881449Y-43118551D01*
X141708623Y-42976716D01*
X141511447Y-42871324D01*
X141297499Y-42806423D01*
X141130752Y-42790000D01*
X141130751Y-42790000D01*
X141075000Y-42784509D01*
X141019249Y-42790000D01*
X136875742Y-42790000D01*
X136831447Y-42766324D01*
X136617499Y-42701423D01*
X136450752Y-42685000D01*
X136450751Y-42685000D01*
X136395000Y-42679509D01*
X136339249Y-42685000D01*
X131105751Y-42685000D01*
X131049999Y-42679509D01*
X130994248Y-42685000D01*
X130827501Y-42701423D01*
X130809354Y-42706928D01*
X130750000Y-42706928D01*
X130579184Y-42723752D01*
X130414933Y-42773577D01*
X130264894Y-42853774D01*
X130216994Y-42814463D01*
X130106680Y-42755498D01*
X129986982Y-42719188D01*
X129862500Y-42706928D01*
X129610750Y-42710000D01*
X129452000Y-42868750D01*
X129452000Y-43693000D01*
X129472000Y-43693000D01*
X129472000Y-43947000D01*
X129452000Y-43947000D01*
X129452000Y-43967000D01*
X129275129Y-43967000D01*
X129236447Y-43946324D01*
X129022499Y-43881423D01*
X128855752Y-43865000D01*
X128855751Y-43865000D01*
X128800000Y-43859509D01*
X128744249Y-43865000D01*
X127202603Y-43865000D01*
X127194180Y-43860498D01*
X127074482Y-43824188D01*
X126950000Y-43811928D01*
X125850000Y-43811928D01*
X125725518Y-43824188D01*
X125605820Y-43860498D01*
X125495506Y-43919463D01*
X125398815Y-43998815D01*
X125319463Y-44095506D01*
X125260498Y-44205820D01*
X125224188Y-44325518D01*
X125211928Y-44450000D01*
X125211928Y-45550000D01*
X125224188Y-45674482D01*
X125260498Y-45794180D01*
X125265000Y-45802603D01*
X125265000Y-45969249D01*
X125259509Y-46025000D01*
X125268866Y-46120001D01*
X125281423Y-46247498D01*
X125285636Y-46261386D01*
X125189250Y-46165000D01*
X125025000Y-46161928D01*
X124900518Y-46174188D01*
X124780820Y-46210498D01*
X124670506Y-46269463D01*
X124573815Y-46348815D01*
X124494463Y-46445506D01*
X124435498Y-46555820D01*
X124399188Y-46675518D01*
X124386928Y-46800000D01*
X124390000Y-47114250D01*
X124548750Y-47273000D01*
X125348000Y-47273000D01*
X125348000Y-47253000D01*
X125602000Y-47253000D01*
X125602000Y-47273000D01*
X125622000Y-47273000D01*
X125622000Y-47527000D01*
X125602000Y-47527000D01*
X125602000Y-48402870D01*
X125581880Y-48422990D01*
X125581880Y-49672240D01*
X126593630Y-49672240D01*
X126752380Y-49513490D01*
X126755452Y-48899240D01*
X126743192Y-48774758D01*
X126706882Y-48655060D01*
X126647917Y-48544746D01*
X126568565Y-48448055D01*
X126471874Y-48368703D01*
X126452413Y-48358301D01*
X126455537Y-48354494D01*
X126514502Y-48244180D01*
X126550812Y-48124482D01*
X126563072Y-48000000D01*
X126561030Y-47791163D01*
X126933013Y-48163146D01*
X126968551Y-48206449D01*
X127011854Y-48241987D01*
X127011856Y-48241989D01*
X127141377Y-48348284D01*
X127338553Y-48453676D01*
X127477501Y-48495826D01*
X127477501Y-48596725D01*
X127428975Y-48655853D01*
X127346908Y-48809389D01*
X127296372Y-48975985D01*
X127279308Y-49149239D01*
X127279308Y-49500720D01*
X127276717Y-49503877D01*
X127252064Y-49550000D01*
X127171324Y-49701054D01*
X127106423Y-49915002D01*
X127084509Y-50137500D01*
X127090001Y-50193261D01*
X127090001Y-50888405D01*
X127075000Y-50886928D01*
X126823250Y-50890000D01*
X126664502Y-51048748D01*
X126664502Y-51022706D01*
X126706882Y-50943420D01*
X126743192Y-50823722D01*
X126755452Y-50699240D01*
X126752380Y-50084990D01*
X126593630Y-49926240D01*
X125581880Y-49926240D01*
X125581880Y-49946240D01*
X125327880Y-49946240D01*
X125327880Y-49926240D01*
X125307880Y-49926240D01*
X125307880Y-49672240D01*
X125327880Y-49672240D01*
X125327880Y-48496370D01*
X125348000Y-48476250D01*
X125348000Y-47527000D01*
X124548750Y-47527000D01*
X124390000Y-47685750D01*
X124386928Y-48000000D01*
X124399188Y-48124482D01*
X124435498Y-48244180D01*
X124487798Y-48342024D01*
X124437886Y-48368703D01*
X124341195Y-48448055D01*
X124261843Y-48544746D01*
X124216305Y-48629940D01*
X124194290Y-46183710D01*
X124274482Y-46175812D01*
X124394180Y-46139502D01*
X124504494Y-46080537D01*
X124601185Y-46001185D01*
X124680537Y-45904494D01*
X124739502Y-45794180D01*
X124775812Y-45674482D01*
X124788072Y-45550000D01*
X124788072Y-44450000D01*
X124775812Y-44325518D01*
X124739502Y-44205820D01*
X124680537Y-44095506D01*
X124601185Y-43998815D01*
X124504494Y-43919463D01*
X124394180Y-43860498D01*
X124274482Y-43824188D01*
X124172966Y-43814190D01*
X124168744Y-43345000D01*
X128149428Y-43345000D01*
X128152500Y-43534250D01*
X128311250Y-43693000D01*
X129198000Y-43693000D01*
X129198000Y-42868750D01*
X129039250Y-42710000D01*
X128787500Y-42706928D01*
X128663018Y-42719188D01*
X128543320Y-42755498D01*
X128433006Y-42814463D01*
X128336315Y-42893815D01*
X128256963Y-42990506D01*
X128197998Y-43100820D01*
X128161688Y-43220518D01*
X128149428Y-43345000D01*
X124168744Y-43345000D01*
X124146011Y-40819015D01*
X147684530Y-40782857D01*
X147681162Y-42150729D01*
%TA.AperFunction,Conductor*%
D42*
G36*
X147681162Y-42150729D02*
G01*
X147681117Y-42151176D01*
X147681082Y-42183052D01*
X147681003Y-42215113D01*
X147681046Y-42215563D01*
X147661191Y-60275923D01*
X139877526Y-60266465D01*
X139884072Y-60200000D01*
X139884072Y-58600000D01*
X139871812Y-58475518D01*
X139835502Y-58355820D01*
X139776537Y-58245506D01*
X139697185Y-58148815D01*
X139600494Y-58069463D01*
X139490180Y-58010498D01*
X139370482Y-57974188D01*
X139246000Y-57961928D01*
X137646000Y-57961928D01*
X137521518Y-57974188D01*
X137401820Y-58010498D01*
X137291506Y-58069463D01*
X137194815Y-58148815D01*
X137115463Y-58245506D01*
X137056498Y-58355820D01*
X137020188Y-58475518D01*
X137017769Y-58500080D01*
X136869414Y-58336481D01*
X136643420Y-58168963D01*
X136389087Y-58048754D01*
X136255039Y-58008096D01*
X136033000Y-58130085D01*
X136033000Y-59273000D01*
X136053000Y-59273000D01*
X136053000Y-59527000D01*
X136033000Y-59527000D01*
X136033000Y-59547000D01*
X135779000Y-59547000D01*
X135779000Y-59527000D01*
X134635376Y-59527000D01*
X134514091Y-59749040D01*
X134608930Y-60013881D01*
X134753615Y-60255131D01*
X134758253Y-60260245D01*
X133251379Y-60258414D01*
X133261072Y-60160001D01*
X133261072Y-59050960D01*
X134514091Y-59050960D01*
X134635376Y-59273000D01*
X135779000Y-59273000D01*
X135779000Y-58130085D01*
X135556961Y-58008096D01*
X135422913Y-58048754D01*
X135168580Y-58168963D01*
X134942586Y-58336481D01*
X134753615Y-58544869D01*
X134608930Y-58786119D01*
X134514091Y-59050960D01*
X133261072Y-59050960D01*
X133261072Y-58560001D01*
X133248812Y-58435519D01*
X133212502Y-58315821D01*
X133153537Y-58205507D01*
X133074185Y-58108816D01*
X132977494Y-58029464D01*
X132867180Y-57970499D01*
X132747482Y-57934189D01*
X132623000Y-57921929D01*
X131023000Y-57921929D01*
X130898518Y-57934189D01*
X130778820Y-57970499D01*
X130668506Y-58029464D01*
X130571815Y-58108816D01*
X130492463Y-58205507D01*
X130433498Y-58315821D01*
X130397188Y-58435519D01*
X130394769Y-58460081D01*
X130246414Y-58296482D01*
X130020420Y-58128964D01*
X129766087Y-58008755D01*
X129632039Y-57968097D01*
X129410000Y-58090086D01*
X129410000Y-59233001D01*
X129430000Y-59233001D01*
X129430000Y-59487001D01*
X129410000Y-59487001D01*
X129410000Y-59507001D01*
X129156000Y-59507001D01*
X129156000Y-59487001D01*
X128012376Y-59487001D01*
X127891091Y-59709041D01*
X127985930Y-59973882D01*
X128130615Y-60215132D01*
X128164259Y-60252233D01*
X126721859Y-60250480D01*
X126735812Y-60204482D01*
X126748072Y-60080000D01*
X126748072Y-59010961D01*
X127891091Y-59010961D01*
X128012376Y-59233001D01*
X129156000Y-59233001D01*
X129156000Y-58090086D01*
X128933961Y-57968097D01*
X128799913Y-58008755D01*
X128545580Y-58128964D01*
X128319586Y-58296482D01*
X128130615Y-58504870D01*
X127985930Y-58746120D01*
X127891091Y-59010961D01*
X126748072Y-59010961D01*
X126748072Y-58480000D01*
X126735812Y-58355518D01*
X126699502Y-58235820D01*
X126640537Y-58125506D01*
X126561185Y-58028815D01*
X126464494Y-57949463D01*
X126354180Y-57890498D01*
X126234482Y-57854188D01*
X126110000Y-57841928D01*
X124510000Y-57841928D01*
X124385518Y-57854188D01*
X124265820Y-57890498D01*
X124155506Y-57949463D01*
X124058815Y-58028815D01*
X123979463Y-58125506D01*
X123920498Y-58235820D01*
X123884188Y-58355518D01*
X123881769Y-58380080D01*
X123733414Y-58216481D01*
X123507420Y-58048963D01*
X123253087Y-57928754D01*
X123119039Y-57888096D01*
X122897000Y-58010085D01*
X122897000Y-59153000D01*
X122917000Y-59153000D01*
X122917000Y-59407000D01*
X122897000Y-59407000D01*
X122897000Y-59427000D01*
X122643000Y-59427000D01*
X122643000Y-59407000D01*
X121499376Y-59407000D01*
X121378091Y-59629040D01*
X121472930Y-59893881D01*
X121617615Y-60135131D01*
X121716702Y-60244399D01*
X119149894Y-60241280D01*
X119125115Y-60243690D01*
X119101282Y-60250888D01*
X119079311Y-60262598D01*
X119060047Y-60278368D01*
X119044229Y-60297594D01*
X119032466Y-60319537D01*
X119025210Y-60343352D01*
X119022740Y-60368126D01*
X119023578Y-60382847D01*
X119097300Y-61021333D01*
X115073015Y-60974539D01*
X115089767Y-60616843D01*
X115102640Y-60603970D01*
X115102640Y-60341960D01*
X115148874Y-59354720D01*
X115356640Y-59354720D01*
X115356640Y-60603970D01*
X115515390Y-60762720D01*
X115892140Y-60765792D01*
X116016622Y-60753532D01*
X116136320Y-60717222D01*
X116246634Y-60658257D01*
X116343325Y-60578905D01*
X116422677Y-60482214D01*
X116481642Y-60371900D01*
X116517952Y-60252202D01*
X116530212Y-60127720D01*
X116527140Y-59513470D01*
X116368390Y-59354720D01*
X115356640Y-59354720D01*
X115148874Y-59354720D01*
X115219274Y-57851470D01*
X115356640Y-57851470D01*
X115356640Y-59100720D01*
X116368390Y-59100720D01*
X116527140Y-58941970D01*
X116527195Y-58930960D01*
X121378091Y-58930960D01*
X121499376Y-59153000D01*
X122643000Y-59153000D01*
X122643000Y-58010085D01*
X122420961Y-57888096D01*
X122286913Y-57928754D01*
X122032580Y-58048963D01*
X121806586Y-58216481D01*
X121617615Y-58424869D01*
X121472930Y-58666119D01*
X121378091Y-58930960D01*
X116527195Y-58930960D01*
X116530212Y-58327720D01*
X116517952Y-58203238D01*
X116481642Y-58083540D01*
X116422677Y-57973226D01*
X116343325Y-57876535D01*
X116246634Y-57797183D01*
X116136320Y-57738218D01*
X116016622Y-57701908D01*
X115892140Y-57689648D01*
X115515390Y-57692720D01*
X115356640Y-57851470D01*
X115219274Y-57851470D01*
X115244263Y-57317904D01*
X124166940Y-57204070D01*
X124191683Y-57201314D01*
X124215414Y-57193783D01*
X124237219Y-57181768D01*
X124256261Y-57165730D01*
X124271808Y-57146285D01*
X124283263Y-57124180D01*
X124290186Y-57100265D01*
X124292315Y-57075937D01*
X124264409Y-53975000D01*
X125324428Y-53975000D01*
X125336688Y-54099482D01*
X125372998Y-54219180D01*
X125431963Y-54329494D01*
X125511315Y-54426185D01*
X125608006Y-54505537D01*
X125718320Y-54564502D01*
X125838018Y-54600812D01*
X125962500Y-54613072D01*
X126214250Y-54610000D01*
X126373000Y-54451250D01*
X126373000Y-53627000D01*
X125486250Y-53627000D01*
X125327500Y-53785750D01*
X125324428Y-53975000D01*
X124264409Y-53975000D01*
X124255860Y-53025000D01*
X125324428Y-53025000D01*
X125327500Y-53214250D01*
X125486250Y-53373000D01*
X126373000Y-53373000D01*
X126373000Y-52988750D01*
X126410500Y-52951250D01*
X126410500Y-52127000D01*
X125523750Y-52127000D01*
X125365000Y-52285750D01*
X125361928Y-52475000D01*
X125374188Y-52599482D01*
X125408850Y-52713747D01*
X125372998Y-52780820D01*
X125336688Y-52900518D01*
X125324428Y-53025000D01*
X124255860Y-53025000D01*
X124237712Y-51008588D01*
X124261843Y-51053734D01*
X124341195Y-51150425D01*
X124437886Y-51229777D01*
X124548200Y-51288742D01*
X124667898Y-51325052D01*
X124792380Y-51337312D01*
X125169130Y-51334240D01*
X125327878Y-51175492D01*
X125327878Y-51334240D01*
X125394293Y-51334240D01*
X125374188Y-51400518D01*
X125361928Y-51525000D01*
X125365000Y-51714250D01*
X125523750Y-51873000D01*
X126410500Y-51873000D01*
X126410500Y-51853000D01*
X126664500Y-51853000D01*
X126664500Y-51873000D01*
X126684500Y-51873000D01*
X126684500Y-52127000D01*
X126664500Y-52127000D01*
X126664500Y-52511250D01*
X126627000Y-52548750D01*
X126627000Y-53373000D01*
X126647000Y-53373000D01*
X126647000Y-53627000D01*
X126627000Y-53627000D01*
X126627000Y-54451250D01*
X126785750Y-54610000D01*
X127037500Y-54613072D01*
X127161982Y-54600812D01*
X127281680Y-54564502D01*
X127391994Y-54505537D01*
X127439894Y-54466226D01*
X127589933Y-54546423D01*
X127754184Y-54596248D01*
X127925000Y-54613072D01*
X127984354Y-54613072D01*
X128002501Y-54618577D01*
X128225000Y-54640491D01*
X128447498Y-54618577D01*
X128465645Y-54613072D01*
X128525000Y-54613072D01*
X128695816Y-54596248D01*
X128860067Y-54546423D01*
X129011442Y-54465512D01*
X129144123Y-54356623D01*
X129253012Y-54223942D01*
X129279171Y-54175000D01*
X130586928Y-54175000D01*
X130599188Y-54299482D01*
X130635498Y-54419180D01*
X130694463Y-54529494D01*
X130773815Y-54626185D01*
X130870506Y-54705537D01*
X130980820Y-54764502D01*
X131100518Y-54800812D01*
X131225000Y-54813072D01*
X131339250Y-54810000D01*
X131498000Y-54651250D01*
X131498000Y-53852000D01*
X130748750Y-53852000D01*
X130590000Y-54010750D01*
X130586928Y-54175000D01*
X129279171Y-54175000D01*
X129333923Y-54072567D01*
X129383748Y-53908316D01*
X129400572Y-53737500D01*
X129400572Y-53275000D01*
X130586928Y-53275000D01*
X130590000Y-53439250D01*
X130748750Y-53598000D01*
X131498000Y-53598000D01*
X131498000Y-52798750D01*
X131339250Y-52640000D01*
X131225000Y-52636928D01*
X131100518Y-52649188D01*
X130980820Y-52685498D01*
X130870506Y-52744463D01*
X130773815Y-52823815D01*
X130694463Y-52920506D01*
X130635498Y-53030820D01*
X130599188Y-53150518D01*
X130586928Y-53275000D01*
X129400572Y-53275000D01*
X129400572Y-53262500D01*
X129383748Y-53091684D01*
X129360000Y-53013397D01*
X129360000Y-52593938D01*
X129371423Y-52572567D01*
X129421248Y-52408316D01*
X129438072Y-52237500D01*
X129438072Y-51762500D01*
X129421248Y-51591684D01*
X129371423Y-51427433D01*
X129360000Y-51406062D01*
X129360000Y-51254869D01*
X129485767Y-51187645D01*
X129620342Y-51077202D01*
X129730785Y-50942627D01*
X129812852Y-50789091D01*
X129863388Y-50622495D01*
X129880452Y-50449241D01*
X129880452Y-49149239D01*
X129863388Y-48975985D01*
X129812852Y-48809389D01*
X129747500Y-48687124D01*
X129747500Y-48364287D01*
X129755537Y-48354494D01*
X129814502Y-48244180D01*
X129836852Y-48170499D01*
X129980528Y-48170499D01*
X129983600Y-48329249D01*
X130142350Y-48487999D01*
X130898000Y-48487999D01*
X130898000Y-47694249D01*
X130739250Y-47535499D01*
X130618600Y-47532427D01*
X130494118Y-47544687D01*
X130374420Y-47580997D01*
X130264106Y-47639962D01*
X130167415Y-47719314D01*
X130088063Y-47816005D01*
X130029098Y-47926319D01*
X129992788Y-48046017D01*
X129980528Y-48170499D01*
X129836852Y-48170499D01*
X129850812Y-48124482D01*
X129863072Y-48000000D01*
X129863072Y-47723060D01*
X129893577Y-47622499D01*
X129915491Y-47400000D01*
X129893577Y-47177501D01*
X129863072Y-47076940D01*
X129863072Y-46800000D01*
X129850812Y-46675518D01*
X129814502Y-46555820D01*
X129785347Y-46501276D01*
X129796642Y-46497850D01*
X129944775Y-46418671D01*
X130037500Y-46342574D01*
X130130225Y-46418671D01*
X130255502Y-46485633D01*
X131012755Y-47242886D01*
X131017787Y-47293982D01*
X131054097Y-47413680D01*
X131113062Y-47523994D01*
X131192414Y-47620685D01*
X131210622Y-47635627D01*
X131152000Y-47694249D01*
X131152000Y-48487999D01*
X131172000Y-48487999D01*
X131172000Y-48741999D01*
X131152000Y-48741999D01*
X131152000Y-48761999D01*
X130898000Y-48761999D01*
X130898000Y-48741999D01*
X130142350Y-48741999D01*
X129983600Y-48900749D01*
X129980528Y-49059499D01*
X129992788Y-49183981D01*
X130029098Y-49303679D01*
X130088063Y-49413993D01*
X130167415Y-49510684D01*
X130264106Y-49590036D01*
X130374420Y-49649001D01*
X130420612Y-49663013D01*
X130414463Y-49670506D01*
X130355498Y-49780820D01*
X130319188Y-49900518D01*
X130306928Y-50025000D01*
X130306928Y-50425000D01*
X130319188Y-50549482D01*
X130319940Y-50551962D01*
X130310000Y-50643250D01*
X130377968Y-50711218D01*
X130414463Y-50779494D01*
X130493382Y-50875658D01*
X130419792Y-50962657D01*
X130377222Y-51039528D01*
X130310000Y-51106750D01*
X130320154Y-51200000D01*
X130310000Y-51293250D01*
X130377222Y-51360472D01*
X130419792Y-51437343D01*
X130500574Y-51532844D01*
X130582418Y-51598000D01*
X130468750Y-51598000D01*
X130310000Y-51756750D01*
X130321109Y-51858773D01*
X130359194Y-51977918D01*
X130419792Y-52087343D01*
X130500574Y-52182844D01*
X130598434Y-52260750D01*
X130709613Y-52318067D01*
X130829838Y-52352593D01*
X130954488Y-52363001D01*
X131409250Y-52360000D01*
X131568000Y-52201250D01*
X131568000Y-51598000D01*
X131521250Y-51598000D01*
X131568000Y-51551250D01*
X131568000Y-51378000D01*
X131822000Y-51378000D01*
X131822000Y-51551250D01*
X131842000Y-51571250D01*
X131842000Y-51598000D01*
X131822000Y-51598000D01*
X131822000Y-52201250D01*
X131980750Y-52360000D01*
X132435512Y-52363001D01*
X132540000Y-52354276D01*
X132540001Y-52901575D01*
X132476185Y-52823815D01*
X132379494Y-52744463D01*
X132269180Y-52685498D01*
X132149482Y-52649188D01*
X132025000Y-52636928D01*
X131910750Y-52640000D01*
X131752000Y-52798750D01*
X131752000Y-53598000D01*
X131772000Y-53598000D01*
X131772000Y-53852000D01*
X131752000Y-53852000D01*
X131752000Y-54651250D01*
X131836607Y-54735857D01*
X131820506Y-54744463D01*
X131723815Y-54823815D01*
X131644463Y-54920506D01*
X131585498Y-55030820D01*
X131549188Y-55150518D01*
X131538816Y-55255829D01*
X131521324Y-55288554D01*
X131456423Y-55502502D01*
X131434509Y-55725000D01*
X131456423Y-55947498D01*
X131521324Y-56161446D01*
X131538816Y-56194171D01*
X131549188Y-56299482D01*
X131585498Y-56419180D01*
X131644463Y-56529494D01*
X131723815Y-56626185D01*
X131820506Y-56705537D01*
X131930820Y-56764502D01*
X132043574Y-56798706D01*
X132833008Y-57588140D01*
X132868551Y-57631449D01*
X133041377Y-57773284D01*
X133169802Y-57841928D01*
X133238553Y-57878676D01*
X133452501Y-57943577D01*
X133675000Y-57965491D01*
X133730751Y-57960000D01*
X141816651Y-57960000D01*
X142236459Y-58240507D01*
X142715999Y-58439139D01*
X143225075Y-58540400D01*
X143744125Y-58540400D01*
X144253201Y-58439139D01*
X144732741Y-58240507D01*
X145164315Y-57952138D01*
X145531338Y-57585115D01*
X145819707Y-57153541D01*
X146018339Y-56674001D01*
X146119600Y-56164925D01*
X146119600Y-55645875D01*
X146018339Y-55136799D01*
X145819707Y-54657259D01*
X145531338Y-54225685D01*
X145164315Y-53858662D01*
X144732741Y-53570293D01*
X144253201Y-53371661D01*
X143744125Y-53270400D01*
X143225075Y-53270400D01*
X142715999Y-53371661D01*
X142236459Y-53570293D01*
X141804885Y-53858662D01*
X141437862Y-54225685D01*
X141149493Y-54657259D01*
X140950861Y-55136799D01*
X140849600Y-55645875D01*
X140849600Y-55690000D01*
X139334227Y-55690000D01*
X139377642Y-55608778D01*
X139413952Y-55489080D01*
X139426212Y-55364598D01*
X139423140Y-55243948D01*
X139264390Y-55085198D01*
X138470640Y-55085198D01*
X138470640Y-55105198D01*
X138216640Y-55105198D01*
X138216640Y-55085198D01*
X137422890Y-55085198D01*
X137264140Y-55243948D01*
X137261068Y-55364598D01*
X137273328Y-55489080D01*
X137309638Y-55608778D01*
X137353053Y-55690000D01*
X136144966Y-55690000D01*
X136189502Y-55606680D01*
X136225812Y-55486982D01*
X136238072Y-55362500D01*
X136235000Y-55160750D01*
X136076252Y-55002002D01*
X136235000Y-55002002D01*
X136235000Y-54977671D01*
X136898141Y-54977671D01*
X137022623Y-54965411D01*
X137142321Y-54929101D01*
X137252635Y-54870136D01*
X137325911Y-54810000D01*
X137401692Y-54810000D01*
X137422890Y-54831198D01*
X138216640Y-54831198D01*
X138216640Y-54811198D01*
X138470640Y-54811198D01*
X138470640Y-54831198D01*
X139264390Y-54831198D01*
X139423140Y-54672448D01*
X139423417Y-54661575D01*
X139554719Y-54553817D01*
X139582436Y-54520044D01*
X140120050Y-53982431D01*
X140153817Y-53954719D01*
X140183031Y-53919123D01*
X140264411Y-53819961D01*
X140346589Y-53666216D01*
X140397195Y-53499392D01*
X140401911Y-53451510D01*
X140410000Y-53369379D01*
X140410000Y-53369371D01*
X140414281Y-53325902D01*
X140410000Y-53282433D01*
X140410000Y-52993711D01*
X140553937Y-52849774D01*
X140667205Y-52680256D01*
X140745226Y-52491898D01*
X140785000Y-52291939D01*
X140785000Y-52088061D01*
X140745226Y-51888102D01*
X140667205Y-51699744D01*
X140553937Y-51530226D01*
X140410000Y-51386289D01*
X140410000Y-51318465D01*
X140414281Y-51274999D01*
X140410000Y-51231533D01*
X140410000Y-51231523D01*
X140397195Y-51101510D01*
X140346589Y-50934687D01*
X140264411Y-50780941D01*
X140219333Y-50726014D01*
X140181532Y-50679953D01*
X140181530Y-50679951D01*
X140153817Y-50646183D01*
X140120049Y-50618470D01*
X138576222Y-49074644D01*
X138576222Y-48942012D01*
X138734970Y-49100760D01*
X138986720Y-49103832D01*
X139111202Y-49091572D01*
X139230900Y-49055262D01*
X139341214Y-48996297D01*
X139437905Y-48916945D01*
X139517257Y-48820254D01*
X139576222Y-48709940D01*
X139612532Y-48590242D01*
X139624792Y-48465760D01*
X139621720Y-48276510D01*
X139462970Y-48117760D01*
X138576220Y-48117760D01*
X138576220Y-48137760D01*
X138322220Y-48137760D01*
X138322220Y-48117760D01*
X138302220Y-48117760D01*
X138302220Y-47863760D01*
X138322220Y-47863760D01*
X138322220Y-47383550D01*
X138343640Y-47362130D01*
X138343640Y-47039510D01*
X138576220Y-47039510D01*
X138576220Y-47863760D01*
X139462970Y-47863760D01*
X139621720Y-47705010D01*
X139624792Y-47515760D01*
X139612532Y-47391278D01*
X139576222Y-47271580D01*
X139549109Y-47220857D01*
X139597642Y-47130060D01*
X139633952Y-47010362D01*
X139646212Y-46885880D01*
X139643140Y-46696630D01*
X139484390Y-46537880D01*
X138597640Y-46537880D01*
X138597640Y-47018090D01*
X138576220Y-47039510D01*
X138343640Y-47039510D01*
X138343640Y-46537880D01*
X138323640Y-46537880D01*
X138323640Y-46283880D01*
X138343640Y-46283880D01*
X138343640Y-45459630D01*
X138597640Y-45459630D01*
X138597640Y-46283880D01*
X139484390Y-46283880D01*
X139643140Y-46125130D01*
X139646212Y-45935880D01*
X139633952Y-45811398D01*
X139597642Y-45691700D01*
X139538677Y-45581386D01*
X139459325Y-45484695D01*
X139362634Y-45405343D01*
X139252320Y-45346378D01*
X139132622Y-45310068D01*
X139008140Y-45297808D01*
X138756390Y-45300880D01*
X138597640Y-45459630D01*
X138343640Y-45459630D01*
X138184890Y-45300880D01*
X137933140Y-45297808D01*
X137860000Y-45305011D01*
X137860000Y-45060000D01*
X140604869Y-45060000D01*
X141845375Y-46300507D01*
X141804885Y-46327562D01*
X141437862Y-46694585D01*
X141149493Y-47126159D01*
X140950861Y-47605699D01*
X140849600Y-48114775D01*
X140849600Y-48633825D01*
X140950861Y-49142901D01*
X141149493Y-49622441D01*
X141437862Y-50054015D01*
X141804885Y-50421038D01*
X142236459Y-50709407D01*
X142715999Y-50908039D01*
X143225075Y-51009300D01*
X143744125Y-51009300D01*
X144253201Y-50908039D01*
X144732741Y-50709407D01*
X145164315Y-50421038D01*
X145531338Y-50054015D01*
X145819707Y-49622441D01*
X146018339Y-49142901D01*
X146119600Y-48633825D01*
X146119600Y-48114775D01*
X146018339Y-47605699D01*
X145819707Y-47126159D01*
X145531338Y-46694585D01*
X145164315Y-46327562D01*
X144732741Y-46039193D01*
X144491856Y-45939415D01*
X144453676Y-45813553D01*
X144348284Y-45616377D01*
X144301360Y-45559200D01*
X144597972Y-45618200D01*
X145038228Y-45618200D01*
X145470025Y-45532310D01*
X145876769Y-45363831D01*
X146242829Y-45119238D01*
X146554138Y-44807929D01*
X146798731Y-44441869D01*
X146967210Y-44035125D01*
X147053100Y-43603328D01*
X147053100Y-43163072D01*
X146967210Y-42731275D01*
X146798731Y-42324531D01*
X146554138Y-41958471D01*
X146242829Y-41647162D01*
X145876769Y-41402569D01*
X145470025Y-41234090D01*
X145038228Y-41148200D01*
X144597972Y-41148200D01*
X144166175Y-41234090D01*
X143759431Y-41402569D01*
X143393371Y-41647162D01*
X143082062Y-41958471D01*
X142837469Y-42324531D01*
X142668990Y-42731275D01*
X142583100Y-43163072D01*
X142583100Y-43603328D01*
X142638879Y-43883747D01*
X141916996Y-43161864D01*
X141881449Y-43118551D01*
X141708623Y-42976716D01*
X141511447Y-42871324D01*
X141297499Y-42806423D01*
X141130752Y-42790000D01*
X141130751Y-42790000D01*
X141075000Y-42784509D01*
X141019249Y-42790000D01*
X136875742Y-42790000D01*
X136831447Y-42766324D01*
X136617499Y-42701423D01*
X136450752Y-42685000D01*
X136450751Y-42685000D01*
X136395000Y-42679509D01*
X136339249Y-42685000D01*
X131105751Y-42685000D01*
X131049999Y-42679509D01*
X130994248Y-42685000D01*
X130827501Y-42701423D01*
X130809354Y-42706928D01*
X130750000Y-42706928D01*
X130579184Y-42723752D01*
X130414933Y-42773577D01*
X130264894Y-42853774D01*
X130216994Y-42814463D01*
X130106680Y-42755498D01*
X129986982Y-42719188D01*
X129862500Y-42706928D01*
X129610750Y-42710000D01*
X129452000Y-42868750D01*
X129452000Y-43693000D01*
X129472000Y-43693000D01*
X129472000Y-43947000D01*
X129452000Y-43947000D01*
X129452000Y-43967000D01*
X129275129Y-43967000D01*
X129236447Y-43946324D01*
X129022499Y-43881423D01*
X128855752Y-43865000D01*
X128855751Y-43865000D01*
X128800000Y-43859509D01*
X128744249Y-43865000D01*
X127202603Y-43865000D01*
X127194180Y-43860498D01*
X127074482Y-43824188D01*
X126950000Y-43811928D01*
X125850000Y-43811928D01*
X125725518Y-43824188D01*
X125605820Y-43860498D01*
X125495506Y-43919463D01*
X125398815Y-43998815D01*
X125319463Y-44095506D01*
X125260498Y-44205820D01*
X125224188Y-44325518D01*
X125211928Y-44450000D01*
X125211928Y-45550000D01*
X125224188Y-45674482D01*
X125260498Y-45794180D01*
X125265000Y-45802603D01*
X125265000Y-45969249D01*
X125259509Y-46025000D01*
X125268866Y-46120001D01*
X125281423Y-46247498D01*
X125285636Y-46261386D01*
X125189250Y-46165000D01*
X125025000Y-46161928D01*
X124900518Y-46174188D01*
X124780820Y-46210498D01*
X124670506Y-46269463D01*
X124573815Y-46348815D01*
X124494463Y-46445506D01*
X124435498Y-46555820D01*
X124399188Y-46675518D01*
X124386928Y-46800000D01*
X124390000Y-47114250D01*
X124548750Y-47273000D01*
X125348000Y-47273000D01*
X125348000Y-47253000D01*
X125602000Y-47253000D01*
X125602000Y-47273000D01*
X125622000Y-47273000D01*
X125622000Y-47527000D01*
X125602000Y-47527000D01*
X125602000Y-48402870D01*
X125581880Y-48422990D01*
X125581880Y-49672240D01*
X126593630Y-49672240D01*
X126752380Y-49513490D01*
X126755452Y-48899240D01*
X126743192Y-48774758D01*
X126706882Y-48655060D01*
X126647917Y-48544746D01*
X126568565Y-48448055D01*
X126471874Y-48368703D01*
X126452413Y-48358301D01*
X126455537Y-48354494D01*
X126514502Y-48244180D01*
X126550812Y-48124482D01*
X126563072Y-48000000D01*
X126561030Y-47791163D01*
X126933013Y-48163146D01*
X126968551Y-48206449D01*
X127011854Y-48241987D01*
X127011856Y-48241989D01*
X127141377Y-48348284D01*
X127338553Y-48453676D01*
X127477501Y-48495826D01*
X127477501Y-48596725D01*
X127428975Y-48655853D01*
X127346908Y-48809389D01*
X127296372Y-48975985D01*
X127279308Y-49149239D01*
X127279308Y-49500720D01*
X127276717Y-49503877D01*
X127252064Y-49550000D01*
X127171324Y-49701054D01*
X127106423Y-49915002D01*
X127084509Y-50137500D01*
X127090001Y-50193261D01*
X127090001Y-50888405D01*
X127075000Y-50886928D01*
X126823250Y-50890000D01*
X126664502Y-51048748D01*
X126664502Y-51022706D01*
X126706882Y-50943420D01*
X126743192Y-50823722D01*
X126755452Y-50699240D01*
X126752380Y-50084990D01*
X126593630Y-49926240D01*
X125581880Y-49926240D01*
X125581880Y-49946240D01*
X125327880Y-49946240D01*
X125327880Y-49926240D01*
X125307880Y-49926240D01*
X125307880Y-49672240D01*
X125327880Y-49672240D01*
X125327880Y-48496370D01*
X125348000Y-48476250D01*
X125348000Y-47527000D01*
X124548750Y-47527000D01*
X124390000Y-47685750D01*
X124386928Y-48000000D01*
X124399188Y-48124482D01*
X124435498Y-48244180D01*
X124487798Y-48342024D01*
X124437886Y-48368703D01*
X124341195Y-48448055D01*
X124261843Y-48544746D01*
X124216305Y-48629940D01*
X124194290Y-46183710D01*
X124274482Y-46175812D01*
X124394180Y-46139502D01*
X124504494Y-46080537D01*
X124601185Y-46001185D01*
X124680537Y-45904494D01*
X124739502Y-45794180D01*
X124775812Y-45674482D01*
X124788072Y-45550000D01*
X124788072Y-44450000D01*
X124775812Y-44325518D01*
X124739502Y-44205820D01*
X124680537Y-44095506D01*
X124601185Y-43998815D01*
X124504494Y-43919463D01*
X124394180Y-43860498D01*
X124274482Y-43824188D01*
X124172966Y-43814190D01*
X124168744Y-43345000D01*
X128149428Y-43345000D01*
X128152500Y-43534250D01*
X128311250Y-43693000D01*
X129198000Y-43693000D01*
X129198000Y-42868750D01*
X129039250Y-42710000D01*
X128787500Y-42706928D01*
X128663018Y-42719188D01*
X128543320Y-42755498D01*
X128433006Y-42814463D01*
X128336315Y-42893815D01*
X128256963Y-42990506D01*
X128197998Y-43100820D01*
X128161688Y-43220518D01*
X128149428Y-43345000D01*
X124168744Y-43345000D01*
X124146011Y-40819015D01*
X147684530Y-40782857D01*
X147681162Y-42150729D01*
G37*
%TD.AperFunction*%
D41*
X135252000Y-54748000D02*
X135272000Y-54748000D01*
X135272000Y-55002000D01*
X135252000Y-55002000D01*
X135252000Y-55022000D01*
X134998000Y-55022000D01*
X134998000Y-55002000D01*
X134173750Y-55002000D01*
X134015000Y-55160750D01*
X134011928Y-55362500D01*
X134024188Y-55486982D01*
X134059926Y-55604794D01*
X133598706Y-55143574D01*
X133564502Y-55030820D01*
X133505537Y-54920506D01*
X133426185Y-54823815D01*
X133413095Y-54813072D01*
X133925000Y-54813072D01*
X134049482Y-54800812D01*
X134169180Y-54764502D01*
X134200053Y-54748000D01*
X134998000Y-54748000D01*
X134998000Y-54728000D01*
X135252000Y-54728000D01*
X135252000Y-54748000D01*
%TA.AperFunction,Conductor*%
D42*
G36*
X135252000Y-54748000D02*
G01*
X135272000Y-54748000D01*
X135272000Y-55002000D01*
X135252000Y-55002000D01*
X135252000Y-55022000D01*
X134998000Y-55022000D01*
X134998000Y-55002000D01*
X134173750Y-55002000D01*
X134015000Y-55160750D01*
X134011928Y-55362500D01*
X134024188Y-55486982D01*
X134059926Y-55604794D01*
X133598706Y-55143574D01*
X133564502Y-55030820D01*
X133505537Y-54920506D01*
X133426185Y-54823815D01*
X133413095Y-54813072D01*
X133925000Y-54813072D01*
X134049482Y-54800812D01*
X134169180Y-54764502D01*
X134200053Y-54748000D01*
X134998000Y-54748000D01*
X134998000Y-54728000D01*
X135252000Y-54728000D01*
X135252000Y-54748000D01*
G37*
%TD.AperFunction*%
%TD*%
D41*
%TO.N,GND*%
X100832380Y-44740000D02*
X100732901Y-44740000D01*
X100738072Y-44687500D01*
X100735000Y-44435750D01*
X100576250Y-44277000D01*
X99752000Y-44277000D01*
X99752000Y-44297000D01*
X99498000Y-44297000D01*
X99498000Y-44277000D01*
X99478000Y-44277000D01*
X99478000Y-44023000D01*
X99498000Y-44023000D01*
X99498000Y-43136250D01*
X99752000Y-43136250D01*
X99752000Y-44023000D01*
X100576250Y-44023000D01*
X100735000Y-43864250D01*
X100738072Y-43612500D01*
X100725812Y-43488018D01*
X100689502Y-43368320D01*
X100630537Y-43258006D01*
X100551185Y-43161315D01*
X100454494Y-43081963D01*
X100344180Y-43022998D01*
X100224482Y-42986688D01*
X100100000Y-42974428D01*
X99910750Y-42977500D01*
X99752000Y-43136250D01*
X99498000Y-43136250D01*
X99339250Y-42977500D01*
X99150000Y-42974428D01*
X99025518Y-42986688D01*
X98905820Y-43022998D01*
X98795506Y-43081963D01*
X98698815Y-43161315D01*
X98619463Y-43258006D01*
X98560498Y-43368320D01*
X98524188Y-43488018D01*
X98511928Y-43612500D01*
X98514562Y-43828362D01*
X98456449Y-43757551D01*
X98413140Y-43722009D01*
X96823516Y-42132385D01*
X96787969Y-42089071D01*
X96615143Y-41947236D01*
X96417967Y-41841844D01*
X96204019Y-41776943D01*
X96037272Y-41760520D01*
X96037271Y-41760520D01*
X95981520Y-41755029D01*
X95925769Y-41760520D01*
X92151072Y-41760520D01*
X92095320Y-41755029D01*
X92039568Y-41760520D01*
X91872821Y-41776943D01*
X91658873Y-41841844D01*
X91461697Y-41947236D01*
X91288871Y-42089071D01*
X91253329Y-42132379D01*
X86654106Y-46731603D01*
X86610792Y-46767150D01*
X86468957Y-46939976D01*
X86369441Y-47126159D01*
X86363565Y-47137153D01*
X86356511Y-47160408D01*
X85239080Y-47160408D01*
X85114598Y-47172668D01*
X84994900Y-47208978D01*
X84884586Y-47267943D01*
X84787895Y-47347295D01*
X84708543Y-47443986D01*
X84649578Y-47554300D01*
X84613268Y-47673998D01*
X84601008Y-47798480D01*
X84601008Y-49798480D01*
X84613268Y-49922962D01*
X84649578Y-50042660D01*
X84708543Y-50152974D01*
X84787895Y-50249665D01*
X84884586Y-50329017D01*
X84994900Y-50387982D01*
X85114598Y-50424292D01*
X85239080Y-50436552D01*
X90539080Y-50436552D01*
X90663562Y-50424292D01*
X90783260Y-50387982D01*
X90893574Y-50329017D01*
X90990265Y-50249665D01*
X91069617Y-50152974D01*
X91127254Y-50045145D01*
X91686760Y-50604652D01*
X91686761Y-52639079D01*
X91681269Y-52694840D01*
X91703183Y-52917338D01*
X91768084Y-53131286D01*
X91814511Y-53218144D01*
X91873477Y-53328463D01*
X92015312Y-53501289D01*
X92058620Y-53536831D01*
X93496208Y-54974420D01*
X93531751Y-55017729D01*
X93704577Y-55159564D01*
X93875426Y-55250884D01*
X93901753Y-55264956D01*
X94115701Y-55329857D01*
X94338199Y-55351771D01*
X94393951Y-55346280D01*
X96423309Y-55346280D01*
X96504328Y-55427299D01*
X96504328Y-56299000D01*
X96516588Y-56423482D01*
X96552898Y-56543180D01*
X96611863Y-56653494D01*
X96691215Y-56750185D01*
X96787906Y-56829537D01*
X96898220Y-56888502D01*
X97017918Y-56924812D01*
X97142400Y-56937072D01*
X97149615Y-56937072D01*
X97129303Y-57006298D01*
X97942400Y-57819395D01*
X98755497Y-57006298D01*
X98735185Y-56937072D01*
X98742400Y-56937072D01*
X98866882Y-56924812D01*
X98986580Y-56888502D01*
X99096894Y-56829537D01*
X99193585Y-56750185D01*
X99272937Y-56653494D01*
X99331902Y-56543180D01*
X99368212Y-56423482D01*
X99380472Y-56299000D01*
X99380472Y-54699000D01*
X99368212Y-54574518D01*
X99331902Y-54454820D01*
X99272937Y-54344506D01*
X99193585Y-54247815D01*
X99096894Y-54168463D01*
X98986580Y-54109498D01*
X98866882Y-54073188D01*
X98742400Y-54060928D01*
X98348220Y-54060928D01*
X97735436Y-53448144D01*
X97699889Y-53404831D01*
X97527063Y-53262996D01*
X97329887Y-53157604D01*
X97115939Y-53092703D01*
X96949192Y-53076280D01*
X96949191Y-53076280D01*
X96893440Y-53070789D01*
X96837689Y-53076280D01*
X94808332Y-53076280D01*
X93956760Y-52224709D01*
X93956760Y-50436745D01*
X94064250Y-50435000D01*
X94222998Y-50276252D01*
X94222998Y-50435000D01*
X94265037Y-50435000D01*
X94196324Y-50563553D01*
X94131423Y-50777501D01*
X94118566Y-50908039D01*
X94109509Y-51000000D01*
X94115000Y-51055751D01*
X94115000Y-51530751D01*
X94124428Y-51626476D01*
X94124428Y-51712500D01*
X94141252Y-51883316D01*
X94191077Y-52047567D01*
X94271988Y-52198942D01*
X94380877Y-52331623D01*
X94513558Y-52440512D01*
X94664933Y-52521423D01*
X94829184Y-52571248D01*
X95000000Y-52588072D01*
X95009354Y-52588072D01*
X95027501Y-52593577D01*
X95250000Y-52615491D01*
X95472498Y-52593577D01*
X95490645Y-52588072D01*
X95500000Y-52588072D01*
X95670816Y-52571248D01*
X95835067Y-52521423D01*
X95986442Y-52440512D01*
X96119123Y-52331623D01*
X96162500Y-52278768D01*
X96205877Y-52331623D01*
X96338558Y-52440512D01*
X96489933Y-52521423D01*
X96654184Y-52571248D01*
X96825000Y-52588072D01*
X96834355Y-52588072D01*
X96852502Y-52593577D01*
X97075000Y-52615491D01*
X97297498Y-52593577D01*
X97315645Y-52588072D01*
X97325000Y-52588072D01*
X97356190Y-52585000D01*
X98630752Y-52585000D01*
X98797499Y-52568577D01*
X98815646Y-52563072D01*
X98825000Y-52563072D01*
X98995816Y-52546248D01*
X99160067Y-52496423D01*
X99311442Y-52415512D01*
X99444123Y-52306623D01*
X99487500Y-52253768D01*
X99530877Y-52306623D01*
X99663558Y-52415512D01*
X99814933Y-52496423D01*
X99852769Y-52507900D01*
X100633013Y-53288146D01*
X100668551Y-53331449D01*
X100711854Y-53366987D01*
X100711856Y-53366989D01*
X100836333Y-53469145D01*
X100838000Y-57150058D01*
X100840452Y-57174833D01*
X100847689Y-57198654D01*
X100859435Y-57220605D01*
X100875238Y-57239843D01*
X100894490Y-57255629D01*
X100916452Y-57267355D01*
X100940280Y-57274571D01*
X100966316Y-57276993D01*
X112122778Y-57161408D01*
X112231640Y-59050942D01*
X112231640Y-59100720D01*
X112234508Y-59100720D01*
X112249142Y-59354720D01*
X112231640Y-59354720D01*
X112231640Y-60603970D01*
X112326585Y-60698915D01*
X112613650Y-65681545D01*
X112617512Y-65706140D01*
X112626097Y-65729509D01*
X112639076Y-65750754D01*
X112655951Y-65769059D01*
X112676073Y-65783720D01*
X112698668Y-65794174D01*
X112722869Y-65800019D01*
X112737994Y-65801216D01*
X120911714Y-65958696D01*
X120913597Y-65958719D01*
X121692607Y-65962171D01*
X121617615Y-66044869D01*
X121472930Y-66286119D01*
X121378091Y-66550960D01*
X121499376Y-66773000D01*
X122643000Y-66773000D01*
X122643000Y-66753000D01*
X122897000Y-66753000D01*
X122897000Y-66773000D01*
X122917000Y-66773000D01*
X122917000Y-67027000D01*
X122897000Y-67027000D01*
X122897000Y-68169915D01*
X123119039Y-68291904D01*
X123253087Y-68251246D01*
X123507420Y-68131037D01*
X123733414Y-67963519D01*
X123922385Y-67755131D01*
X124033933Y-67569135D01*
X124038320Y-67579727D01*
X124175000Y-67784284D01*
X124175001Y-68859239D01*
X124169509Y-68915000D01*
X124189428Y-69117242D01*
X124189428Y-69157500D01*
X124206252Y-69328316D01*
X124256077Y-69492567D01*
X124336988Y-69643942D01*
X124445877Y-69776623D01*
X124578558Y-69885512D01*
X124729933Y-69966423D01*
X124894184Y-70016248D01*
X125015209Y-70028168D01*
X124854600Y-70028168D01*
X124730118Y-70040428D01*
X124610420Y-70076738D01*
X124500106Y-70135703D01*
X124403415Y-70215055D01*
X124324063Y-70311746D01*
X124265098Y-70422060D01*
X124228788Y-70541758D01*
X124216528Y-70666240D01*
X124216528Y-72366240D01*
X124226392Y-72466399D01*
X123065757Y-72466399D01*
X122806783Y-72327975D01*
X122404334Y-72205893D01*
X122164214Y-72182243D01*
X121993143Y-72011172D01*
X121863622Y-71904877D01*
X121666446Y-71799484D01*
X121452498Y-71734583D01*
X121230000Y-71712669D01*
X121007502Y-71734583D01*
X120793554Y-71799484D01*
X120596378Y-71904877D01*
X120423552Y-72046712D01*
X120318268Y-72175001D01*
X116728360Y-72175001D01*
X116728360Y-71000653D01*
X118637552Y-71000653D01*
X118733316Y-71265054D01*
X119022931Y-71405944D01*
X119334468Y-71487624D01*
X119655955Y-71506958D01*
X119975035Y-71463201D01*
X120279448Y-71358035D01*
X120453404Y-71265054D01*
X120549168Y-71000653D01*
X119593360Y-70044845D01*
X118637552Y-71000653D01*
X116728360Y-71000653D01*
X116728360Y-69927835D01*
X117951642Y-69927835D01*
X117995399Y-70246915D01*
X118100565Y-70551328D01*
X118193546Y-70725284D01*
X118457947Y-70821048D01*
X119413755Y-69865240D01*
X119772965Y-69865240D01*
X120728773Y-70821048D01*
X120993174Y-70725284D01*
X121134064Y-70435669D01*
X121215744Y-70124132D01*
X121235078Y-69802645D01*
X121191321Y-69483565D01*
X121086155Y-69179152D01*
X120993174Y-69005196D01*
X120728773Y-68909432D01*
X119772965Y-69865240D01*
X119413755Y-69865240D01*
X118457947Y-68909432D01*
X118193546Y-69005196D01*
X118052656Y-69294811D01*
X117970976Y-69606348D01*
X117951642Y-69927835D01*
X116728360Y-69927835D01*
X116728360Y-69760358D01*
X116697468Y-69446707D01*
X116575386Y-69044258D01*
X116407320Y-68729827D01*
X118637552Y-68729827D01*
X119593360Y-69685635D01*
X120549168Y-68729827D01*
X120453404Y-68465426D01*
X120163789Y-68324536D01*
X119852252Y-68242856D01*
X119530765Y-68223522D01*
X119211685Y-68267279D01*
X118907272Y-68372445D01*
X118733316Y-68465426D01*
X118637552Y-68729827D01*
X116407320Y-68729827D01*
X116377137Y-68673359D01*
X116110337Y-68348263D01*
X115785241Y-68081463D01*
X115414341Y-67883214D01*
X115011892Y-67761132D01*
X114593360Y-67719910D01*
X114174827Y-67761132D01*
X113772378Y-67883214D01*
X113401479Y-68081463D01*
X113076383Y-68348263D01*
X112809583Y-68673359D01*
X112611334Y-69044259D01*
X112489252Y-69446708D01*
X112458360Y-69760359D01*
X112458361Y-74773734D01*
X111813114Y-75418981D01*
X111813109Y-75418985D01*
X110535687Y-76696408D01*
X109766960Y-76696408D01*
X109642478Y-76708668D01*
X109522780Y-76744978D01*
X109412466Y-76803943D01*
X109315775Y-76883295D01*
X109236423Y-76979986D01*
X109177458Y-77090300D01*
X109141148Y-77209998D01*
X109128888Y-77334480D01*
X109128888Y-80034480D01*
X109141148Y-80158962D01*
X109177458Y-80278660D01*
X109236423Y-80388974D01*
X109315775Y-80485665D01*
X109412466Y-80565017D01*
X109522780Y-80623982D01*
X109642478Y-80660292D01*
X109766960Y-80672552D01*
X110765912Y-80672552D01*
X111148427Y-80788587D01*
X111566960Y-80829809D01*
X111985493Y-80788587D01*
X112368008Y-80672552D01*
X113366960Y-80672552D01*
X113491442Y-80660292D01*
X113611140Y-80623982D01*
X113721454Y-80565017D01*
X113818145Y-80485665D01*
X113897497Y-80388974D01*
X113956462Y-80278660D01*
X113992772Y-80158962D01*
X114005032Y-80034480D01*
X114005032Y-79265754D01*
X114832455Y-78438331D01*
X114832460Y-78438325D01*
X116028868Y-77241917D01*
X116110337Y-77175057D01*
X116135332Y-77144600D01*
X118341608Y-77144600D01*
X118344680Y-79108850D01*
X118503430Y-79267600D01*
X120502680Y-79267600D01*
X120502680Y-76668350D01*
X120756680Y-76668350D01*
X120756680Y-79267600D01*
X122755930Y-79267600D01*
X122914680Y-79108850D01*
X122917752Y-77144600D01*
X122905492Y-77020118D01*
X122869182Y-76900420D01*
X122810217Y-76790106D01*
X122730865Y-76693415D01*
X122634174Y-76614063D01*
X122523860Y-76555098D01*
X122404162Y-76518788D01*
X122279680Y-76506528D01*
X120915430Y-76509600D01*
X120756680Y-76668350D01*
X120502680Y-76668350D01*
X120343930Y-76509600D01*
X118979680Y-76506528D01*
X118855198Y-76518788D01*
X118735500Y-76555098D01*
X118625186Y-76614063D01*
X118528495Y-76693415D01*
X118449143Y-76790106D01*
X118390178Y-76900420D01*
X118353868Y-77020118D01*
X118341608Y-77144600D01*
X116135332Y-77144600D01*
X116177195Y-77093591D01*
X116825785Y-76445001D01*
X122090683Y-76445001D01*
X122404334Y-76414109D01*
X122806783Y-76292027D01*
X123177682Y-76093778D01*
X123502778Y-75826978D01*
X123769578Y-75501882D01*
X123967827Y-75130983D01*
X124087523Y-74736399D01*
X128284747Y-74736399D01*
X128266201Y-74758997D01*
X127129003Y-75896196D01*
X127099999Y-75919999D01*
X127070602Y-75955820D01*
X127005026Y-76035724D01*
X126956920Y-76125724D01*
X126934454Y-76167754D01*
X126890997Y-76311015D01*
X126880000Y-76422668D01*
X126880000Y-76422678D01*
X126876324Y-76460000D01*
X126880000Y-76497323D01*
X126880001Y-77854141D01*
X126866324Y-77993002D01*
X126880998Y-78141987D01*
X126924454Y-78285248D01*
X126995026Y-78417278D01*
X127089999Y-78533003D01*
X127119003Y-78556806D01*
X128381456Y-79819260D01*
X128381462Y-79819265D01*
X128615594Y-80053397D01*
X128639397Y-80082401D01*
X128755122Y-80177374D01*
X128887151Y-80247946D01*
X129030412Y-80291403D01*
X129142065Y-80302400D01*
X129142074Y-80302400D01*
X129179397Y-80306076D01*
X129216720Y-80302400D01*
X129451707Y-80302400D01*
X129506900Y-80331902D01*
X129626598Y-80368212D01*
X129741081Y-80379487D01*
X129741081Y-80914708D01*
X129737404Y-80952040D01*
X129741081Y-80989373D01*
X129752078Y-81101026D01*
X129759348Y-81124992D01*
X129759348Y-81573380D01*
X129776172Y-81744196D01*
X129825997Y-81908447D01*
X129906908Y-82059822D01*
X130015797Y-82192503D01*
X130148478Y-82301392D01*
X130299853Y-82382303D01*
X130464104Y-82432128D01*
X130634920Y-82448952D01*
X131134920Y-82448952D01*
X131305736Y-82432128D01*
X131469987Y-82382303D01*
X131621362Y-82301392D01*
X131730203Y-82212068D01*
X131771235Y-82262065D01*
X131867926Y-82341417D01*
X131978240Y-82400382D01*
X132097938Y-82436692D01*
X132222420Y-82448952D01*
X132424170Y-82445880D01*
X132582920Y-82287130D01*
X132582920Y-81462880D01*
X132836920Y-81462880D01*
X132836920Y-82287130D01*
X132995670Y-82445880D01*
X133197420Y-82448952D01*
X133321902Y-82436692D01*
X133441600Y-82400382D01*
X133551914Y-82341417D01*
X133648605Y-82262065D01*
X133727957Y-82165374D01*
X133786922Y-82055060D01*
X133823232Y-81935362D01*
X133835492Y-81810880D01*
X133832420Y-81621630D01*
X133673670Y-81462880D01*
X132836920Y-81462880D01*
X132582920Y-81462880D01*
X132562920Y-81462880D01*
X132562920Y-81208880D01*
X132582920Y-81208880D01*
X132582920Y-81188880D01*
X132836920Y-81188880D01*
X132836920Y-81208880D01*
X133673670Y-81208880D01*
X133832420Y-81050130D01*
X133835492Y-80860880D01*
X133823232Y-80736398D01*
X133786922Y-80616700D01*
X133727957Y-80506386D01*
X133648605Y-80409695D01*
X133612997Y-80380472D01*
X133911080Y-80380472D01*
X134035562Y-80368212D01*
X134155260Y-80331902D01*
X134187370Y-80314739D01*
X134227286Y-80347497D01*
X134280002Y-80375674D01*
X134280002Y-81159749D01*
X134276325Y-81197081D01*
X134280002Y-81234414D01*
X134285787Y-81293144D01*
X134290999Y-81346066D01*
X134334455Y-81489327D01*
X134405027Y-81621357D01*
X134473835Y-81705199D01*
X134500001Y-81737082D01*
X134528999Y-81760880D01*
X136428561Y-83660443D01*
X136452359Y-83689441D01*
X136481357Y-83713239D01*
X136568084Y-83784414D01*
X136700113Y-83854986D01*
X136843374Y-83898443D01*
X136992360Y-83913117D01*
X137029693Y-83909440D01*
X139647438Y-83909440D01*
X139684760Y-83913116D01*
X139722082Y-83909440D01*
X139722093Y-83909440D01*
X139833746Y-83898443D01*
X139977007Y-83854986D01*
X140109036Y-83784414D01*
X140224761Y-83689441D01*
X140248563Y-83660438D01*
X140916004Y-82992998D01*
X140945001Y-82969201D01*
X141039974Y-82853476D01*
X141110546Y-82721447D01*
X141154003Y-82578186D01*
X141165000Y-82466533D01*
X141165000Y-82466524D01*
X141168676Y-82429201D01*
X141168126Y-82423613D01*
X141274123Y-82336623D01*
X141383012Y-82203942D01*
X141463923Y-82052567D01*
X141513748Y-81888316D01*
X141530572Y-81717500D01*
X141530572Y-81242500D01*
X141513748Y-81071684D01*
X141463923Y-80907433D01*
X141383012Y-80756058D01*
X141274123Y-80623377D01*
X141141442Y-80514488D01*
X140990067Y-80433577D01*
X140825816Y-80383752D01*
X140655000Y-80366928D01*
X140155000Y-80366928D01*
X140152023Y-80367221D01*
X139703072Y-79918271D01*
X139703072Y-79630000D01*
X139686248Y-79459184D01*
X139636423Y-79294933D01*
X139555512Y-79143558D01*
X139446623Y-79010877D01*
X139393768Y-78967500D01*
X139446623Y-78924123D01*
X139555512Y-78791442D01*
X139636423Y-78640067D01*
X139686248Y-78475816D01*
X139703072Y-78305000D01*
X139703072Y-77805000D01*
X139686248Y-77634184D01*
X139636423Y-77469933D01*
X139555512Y-77318558D01*
X139475000Y-77220454D01*
X139475000Y-77083469D01*
X139479281Y-77040000D01*
X139475000Y-76996531D01*
X139475000Y-76996523D01*
X139462195Y-76866510D01*
X139457175Y-76849961D01*
X139411589Y-76699686D01*
X139366727Y-76615755D01*
X139329411Y-76545941D01*
X139218817Y-76411183D01*
X139185044Y-76383466D01*
X139106535Y-76304957D01*
X139095226Y-76248102D01*
X139017205Y-76059744D01*
X138903937Y-75890226D01*
X138848711Y-75835000D01*
X139979869Y-75835000D01*
X140945339Y-76800471D01*
X140768493Y-77065139D01*
X140569861Y-77544679D01*
X140468600Y-78053755D01*
X140468600Y-78572805D01*
X140569861Y-79081881D01*
X140768493Y-79561421D01*
X141056862Y-79992995D01*
X141423885Y-80360018D01*
X141855459Y-80648387D01*
X142334999Y-80847019D01*
X142844075Y-80948280D01*
X143363125Y-80948280D01*
X143872201Y-80847019D01*
X144351741Y-80648387D01*
X144783315Y-80360018D01*
X145150338Y-79992995D01*
X145438707Y-79561421D01*
X145637339Y-79081881D01*
X145738600Y-78572805D01*
X145738600Y-78053755D01*
X145637339Y-77544679D01*
X145438707Y-77065139D01*
X145150338Y-76633565D01*
X144783315Y-76266542D01*
X144351741Y-75978173D01*
X143872201Y-75779541D01*
X143363125Y-75678280D01*
X143033412Y-75678280D01*
X141291996Y-73936865D01*
X141256449Y-73893551D01*
X141083623Y-73751716D01*
X140886447Y-73646324D01*
X140672499Y-73581423D01*
X140505752Y-73565000D01*
X140505751Y-73565000D01*
X140450000Y-73559509D01*
X140394249Y-73565000D01*
X137860000Y-73565000D01*
X137860000Y-70570994D01*
X138009184Y-70616248D01*
X138180000Y-70633072D01*
X138189355Y-70633072D01*
X138207502Y-70638577D01*
X138430000Y-70660491D01*
X138652498Y-70638577D01*
X138670645Y-70633072D01*
X138680000Y-70633072D01*
X138850816Y-70616248D01*
X139015067Y-70566423D01*
X139166442Y-70485512D01*
X139299123Y-70376623D01*
X139408012Y-70243942D01*
X139488923Y-70092567D01*
X139538748Y-69928316D01*
X139555572Y-69757500D01*
X139555572Y-69756184D01*
X139564577Y-69726499D01*
X139581000Y-69559752D01*
X139581000Y-69559742D01*
X139586490Y-69504001D01*
X139581000Y-69448259D01*
X139581000Y-68155000D01*
X142044893Y-68155000D01*
X142063368Y-68173475D01*
X142237760Y-68290000D01*
X142063368Y-68406525D01*
X141856525Y-68613368D01*
X141694010Y-68856589D01*
X141582068Y-69126842D01*
X141525000Y-69413740D01*
X141525000Y-69706260D01*
X141582068Y-69993158D01*
X141694010Y-70263411D01*
X141856525Y-70506632D01*
X141988380Y-70638487D01*
X141915820Y-70660498D01*
X141805506Y-70719463D01*
X141708815Y-70798815D01*
X141629463Y-70895506D01*
X141570498Y-71005820D01*
X141534188Y-71125518D01*
X141521928Y-71250000D01*
X141521928Y-72950000D01*
X141534188Y-73074482D01*
X141570498Y-73194180D01*
X141629463Y-73304494D01*
X141708815Y-73401185D01*
X141805506Y-73480537D01*
X141915820Y-73539502D01*
X142035518Y-73575812D01*
X142160000Y-73588072D01*
X143860000Y-73588072D01*
X143984482Y-73575812D01*
X144104180Y-73539502D01*
X144214494Y-73480537D01*
X144311185Y-73401185D01*
X144390537Y-73304494D01*
X144449502Y-73194180D01*
X144485812Y-73074482D01*
X144498072Y-72950000D01*
X144498072Y-71250000D01*
X144485812Y-71125518D01*
X144449502Y-71005820D01*
X144390537Y-70895506D01*
X144311185Y-70798815D01*
X144214494Y-70719463D01*
X144104180Y-70660498D01*
X144031620Y-70638487D01*
X144163475Y-70506632D01*
X144325990Y-70263411D01*
X144437932Y-69993158D01*
X144495000Y-69706260D01*
X144495000Y-69413740D01*
X144437932Y-69126842D01*
X144325990Y-68856589D01*
X144163475Y-68613368D01*
X143956632Y-68406525D01*
X143782240Y-68290000D01*
X143956632Y-68173475D01*
X144163475Y-67966632D01*
X144325990Y-67723411D01*
X144437932Y-67453158D01*
X144495000Y-67166260D01*
X144495000Y-66873740D01*
X144437932Y-66586842D01*
X144325990Y-66316589D01*
X144163475Y-66073368D01*
X144151802Y-66061695D01*
X147654814Y-66077217D01*
X147625926Y-92354345D01*
X82798520Y-92309536D01*
X82798520Y-90255816D01*
X82799604Y-89213272D01*
X83439200Y-89213272D01*
X83439200Y-89653528D01*
X83525090Y-90085325D01*
X83693569Y-90492069D01*
X83938162Y-90858129D01*
X84249471Y-91169438D01*
X84615531Y-91414031D01*
X85022275Y-91582510D01*
X85454072Y-91668400D01*
X85894328Y-91668400D01*
X86326125Y-91582510D01*
X86732869Y-91414031D01*
X87098929Y-91169438D01*
X87410238Y-90858129D01*
X87654831Y-90492069D01*
X87823310Y-90085325D01*
X87909200Y-89653528D01*
X87909200Y-89213272D01*
X87823310Y-88781475D01*
X87654831Y-88374731D01*
X87410238Y-88008671D01*
X87098929Y-87697362D01*
X86732869Y-87452769D01*
X86326125Y-87284290D01*
X85894328Y-87198400D01*
X85454072Y-87198400D01*
X85022275Y-87284290D01*
X84615531Y-87452769D01*
X84249471Y-87697362D01*
X83938162Y-88008671D01*
X83693569Y-88374731D01*
X83525090Y-88781475D01*
X83439200Y-89213272D01*
X82799604Y-89213272D01*
X82814061Y-75314459D01*
X83112226Y-75314459D01*
X83328348Y-75681218D01*
X83788225Y-75921898D01*
X84286218Y-76068235D01*
X84803191Y-76114608D01*
X85319279Y-76059233D01*
X85814646Y-75904239D01*
X86231892Y-75681218D01*
X86448014Y-75314459D01*
X84780120Y-73646565D01*
X83112226Y-75314459D01*
X82814061Y-75314459D01*
X82814321Y-75065143D01*
X82932621Y-75134854D01*
X84600515Y-73466960D01*
X82932621Y-71799066D01*
X82817648Y-71866817D01*
X82817905Y-71619461D01*
X83112226Y-71619461D01*
X84780120Y-73287355D01*
X86448014Y-71619461D01*
X86231892Y-71252702D01*
X85772015Y-71012022D01*
X85274022Y-70865685D01*
X84757049Y-70819312D01*
X84240961Y-70874687D01*
X83745594Y-71029681D01*
X83328348Y-71252702D01*
X83112226Y-71619461D01*
X82817905Y-71619461D01*
X82822761Y-66950574D01*
X83049605Y-67177418D01*
X83481179Y-67465787D01*
X83960719Y-67664419D01*
X84469795Y-67765680D01*
X84988845Y-67765680D01*
X85497921Y-67664419D01*
X85977461Y-67465787D01*
X86409035Y-67177418D01*
X86468093Y-67118360D01*
X87118586Y-67118360D01*
X87123919Y-67122737D01*
X87494818Y-67320986D01*
X87897267Y-67443068D01*
X88210918Y-67473960D01*
X91314842Y-67473960D01*
X91628493Y-67443068D01*
X91906475Y-67358743D01*
X91715901Y-67515143D01*
X91649043Y-67596610D01*
X88013128Y-71232525D01*
X87931664Y-71299381D01*
X87864808Y-71380845D01*
X87864805Y-71380848D01*
X87664864Y-71624477D01*
X87466615Y-71995376D01*
X87344533Y-72397825D01*
X87311502Y-72733192D01*
X87217399Y-72432434D01*
X86994378Y-72015188D01*
X86627619Y-71799066D01*
X84959725Y-73466960D01*
X86627619Y-75134854D01*
X86994378Y-74918732D01*
X87235058Y-74458855D01*
X87313641Y-74191433D01*
X87313640Y-84218048D01*
X87303311Y-84322920D01*
X87313640Y-84427792D01*
X87313640Y-84427801D01*
X87344532Y-84741452D01*
X87466614Y-85143901D01*
X87664863Y-85514801D01*
X87931663Y-85839897D01*
X88013132Y-85906757D01*
X89037883Y-86931508D01*
X89104743Y-87012977D01*
X89429839Y-87279777D01*
X89784892Y-87469556D01*
X89800738Y-87478026D01*
X90203186Y-87600108D01*
X90240721Y-87603805D01*
X90516838Y-87631000D01*
X90516845Y-87631000D01*
X90621720Y-87641329D01*
X90726594Y-87631000D01*
X94490928Y-87631000D01*
X94490928Y-87796000D01*
X94503188Y-87920482D01*
X94539498Y-88040180D01*
X94598463Y-88150494D01*
X94677815Y-88247185D01*
X94774506Y-88326537D01*
X94884820Y-88385502D01*
X95004518Y-88421812D01*
X95129000Y-88434072D01*
X96229000Y-88434072D01*
X96244000Y-88432595D01*
X96244000Y-88560248D01*
X96238509Y-88616000D01*
X96250114Y-88733833D01*
X96260423Y-88838498D01*
X96325324Y-89052446D01*
X96430716Y-89249623D01*
X96528032Y-89368203D01*
X96508853Y-89431427D01*
X96467631Y-89849960D01*
X96508853Y-90268493D01*
X96630935Y-90670942D01*
X96829184Y-91041841D01*
X97029125Y-91285470D01*
X97257723Y-91514068D01*
X97324583Y-91595537D01*
X97649679Y-91862337D01*
X98020578Y-92060586D01*
X98423027Y-92182668D01*
X98736678Y-92213560D01*
X98736687Y-92213560D01*
X98841559Y-92223889D01*
X98946431Y-92213560D01*
X108368008Y-92213560D01*
X108472880Y-92223889D01*
X108577752Y-92213560D01*
X108577762Y-92213560D01*
X108891413Y-92182668D01*
X109293862Y-92060586D01*
X109664761Y-91862337D01*
X109989857Y-91595537D01*
X110056717Y-91514068D01*
X111270620Y-90300165D01*
X111569478Y-90329600D01*
X118341608Y-90329600D01*
X118341608Y-90444600D01*
X118353868Y-90569082D01*
X118390178Y-90688780D01*
X118449143Y-90799094D01*
X118528495Y-90895785D01*
X118625186Y-90975137D01*
X118735500Y-91034102D01*
X118855198Y-91070412D01*
X118979680Y-91082672D01*
X122279680Y-91082672D01*
X122404162Y-91070412D01*
X122523860Y-91034102D01*
X122634174Y-90975137D01*
X122730865Y-90895785D01*
X122810217Y-90799094D01*
X122869182Y-90688780D01*
X122905492Y-90569082D01*
X122917752Y-90444600D01*
X122917752Y-88794172D01*
X133769300Y-88794172D01*
X133769300Y-89234428D01*
X133855190Y-89666225D01*
X134023669Y-90072969D01*
X134268262Y-90439029D01*
X134579571Y-90750338D01*
X134945631Y-90994931D01*
X135352375Y-91163410D01*
X135784172Y-91249300D01*
X136224428Y-91249300D01*
X136656225Y-91163410D01*
X137062969Y-90994931D01*
X137429029Y-90750338D01*
X137740338Y-90439029D01*
X137984931Y-90072969D01*
X138153410Y-89666225D01*
X138239300Y-89234428D01*
X138239300Y-88794172D01*
X138153410Y-88362375D01*
X137998778Y-87989059D01*
X141491586Y-87989059D01*
X141707708Y-88355818D01*
X142167585Y-88596498D01*
X142665578Y-88742835D01*
X143182551Y-88789208D01*
X143698639Y-88733833D01*
X144194006Y-88578839D01*
X144611252Y-88355818D01*
X144827374Y-87989059D01*
X143159480Y-86321165D01*
X141491586Y-87989059D01*
X137998778Y-87989059D01*
X137984931Y-87955631D01*
X137740338Y-87589571D01*
X137429029Y-87278262D01*
X137062969Y-87033669D01*
X136656225Y-86865190D01*
X136224428Y-86779300D01*
X135784172Y-86779300D01*
X135352375Y-86865190D01*
X134945631Y-87033669D01*
X134579571Y-87278262D01*
X134268262Y-87589571D01*
X134023669Y-87955631D01*
X133855190Y-88362375D01*
X133769300Y-88794172D01*
X122917752Y-88794172D01*
X122917752Y-86164631D01*
X140511832Y-86164631D01*
X140567207Y-86680719D01*
X140722201Y-87176086D01*
X140945222Y-87593332D01*
X141311981Y-87809454D01*
X142979875Y-86141560D01*
X143339085Y-86141560D01*
X145006979Y-87809454D01*
X145373738Y-87593332D01*
X145614418Y-87133455D01*
X145760755Y-86635462D01*
X145807128Y-86118489D01*
X145751753Y-85602401D01*
X145596759Y-85107034D01*
X145373738Y-84689788D01*
X145006979Y-84473666D01*
X143339085Y-86141560D01*
X142979875Y-86141560D01*
X141311981Y-84473666D01*
X140945222Y-84689788D01*
X140704542Y-85149665D01*
X140558205Y-85647658D01*
X140511832Y-86164631D01*
X122917752Y-86164631D01*
X122917752Y-85944600D01*
X122905492Y-85820118D01*
X122869182Y-85700420D01*
X122810217Y-85590106D01*
X122730865Y-85493415D01*
X122634174Y-85414063D01*
X122523860Y-85355098D01*
X122404162Y-85318788D01*
X122279680Y-85306528D01*
X118979680Y-85306528D01*
X118855198Y-85318788D01*
X118735500Y-85355098D01*
X118625186Y-85414063D01*
X118528495Y-85493415D01*
X118449143Y-85590106D01*
X118390178Y-85700420D01*
X118353868Y-85820118D01*
X118341608Y-85944600D01*
X118341608Y-86059600D01*
X114005032Y-86059600D01*
X114005032Y-85634480D01*
X113992772Y-85509998D01*
X113956462Y-85390300D01*
X113897497Y-85279986D01*
X113818145Y-85183295D01*
X113721454Y-85103943D01*
X113611140Y-85044978D01*
X113491442Y-85008668D01*
X113366960Y-84996408D01*
X112368011Y-84996408D01*
X111985493Y-84880372D01*
X111566960Y-84839151D01*
X111148426Y-84880372D01*
X110765908Y-84996408D01*
X109766960Y-84996408D01*
X109642478Y-85008668D01*
X109522780Y-85044978D01*
X109412466Y-85103943D01*
X109315775Y-85183295D01*
X109236423Y-85279986D01*
X109177458Y-85390300D01*
X109141148Y-85509998D01*
X109128888Y-85634480D01*
X109128888Y-86403206D01*
X107588535Y-87943560D01*
X103647811Y-87943560D01*
X103654812Y-87920482D01*
X103667072Y-87796000D01*
X103664000Y-85781750D01*
X103505250Y-85623000D01*
X102606000Y-85623000D01*
X102606000Y-85643000D01*
X102352000Y-85643000D01*
X102352000Y-85623000D01*
X102332000Y-85623000D01*
X102332000Y-85369000D01*
X102352000Y-85369000D01*
X102352000Y-82719750D01*
X102606000Y-82719750D01*
X102606000Y-85369000D01*
X103505250Y-85369000D01*
X103664000Y-85210250D01*
X103665397Y-84294061D01*
X141491586Y-84294061D01*
X143159480Y-85961955D01*
X144827374Y-84294061D01*
X144611252Y-83927302D01*
X144151375Y-83686622D01*
X143653382Y-83540285D01*
X143136409Y-83493912D01*
X142620321Y-83549287D01*
X142124954Y-83704281D01*
X141707708Y-83927302D01*
X141491586Y-84294061D01*
X103665397Y-84294061D01*
X103667072Y-83196000D01*
X103654812Y-83071518D01*
X103618502Y-82951820D01*
X103559537Y-82841506D01*
X103480185Y-82744815D01*
X103383494Y-82665463D01*
X103273180Y-82606498D01*
X103153482Y-82570188D01*
X103029000Y-82557928D01*
X102764750Y-82561000D01*
X102606000Y-82719750D01*
X102352000Y-82719750D01*
X102193250Y-82561000D01*
X101929000Y-82557928D01*
X101804518Y-82570188D01*
X101684820Y-82606498D01*
X101661138Y-82619156D01*
X101690986Y-82547098D01*
X101730760Y-82347139D01*
X101730760Y-82143261D01*
X101690986Y-81943302D01*
X101612965Y-81754944D01*
X101564440Y-81682321D01*
X104479000Y-81684072D01*
X104603482Y-81671812D01*
X104693187Y-81644600D01*
X118341608Y-81644600D01*
X118353868Y-81769082D01*
X118390178Y-81888780D01*
X118449143Y-81999094D01*
X118528495Y-82095785D01*
X118625186Y-82175137D01*
X118735500Y-82234102D01*
X118855198Y-82270412D01*
X118979680Y-82282672D01*
X120343930Y-82279600D01*
X120502680Y-82120850D01*
X120502680Y-79521600D01*
X120756680Y-79521600D01*
X120756680Y-82120850D01*
X120915430Y-82279600D01*
X122279680Y-82282672D01*
X122404162Y-82270412D01*
X122523860Y-82234102D01*
X122634174Y-82175137D01*
X122730865Y-82095785D01*
X122810217Y-81999094D01*
X122869182Y-81888780D01*
X122905492Y-81769082D01*
X122917752Y-81644600D01*
X122914680Y-79680350D01*
X122755930Y-79521600D01*
X120756680Y-79521600D01*
X120502680Y-79521600D01*
X118503430Y-79521600D01*
X118344680Y-79680350D01*
X118341608Y-81644600D01*
X104693187Y-81644600D01*
X104723180Y-81635502D01*
X104833494Y-81576537D01*
X104930185Y-81497185D01*
X105009537Y-81400494D01*
X105068502Y-81290180D01*
X105104812Y-81170482D01*
X105117072Y-81046000D01*
X105114000Y-76631750D01*
X104955250Y-76473000D01*
X99206000Y-76473000D01*
X99206000Y-81522250D01*
X99364750Y-81681000D01*
X99827777Y-81681278D01*
X99778555Y-81754944D01*
X99700534Y-81943302D01*
X99660760Y-82143261D01*
X99660760Y-82347139D01*
X99700534Y-82547098D01*
X99708253Y-82565733D01*
X99629000Y-82557928D01*
X99364750Y-82561000D01*
X99206000Y-82719750D01*
X99206000Y-85369000D01*
X99226000Y-85369000D01*
X99226000Y-85623000D01*
X99206000Y-85623000D01*
X99206000Y-85643000D01*
X98952000Y-85643000D01*
X98952000Y-85623000D01*
X98932000Y-85623000D01*
X98932000Y-85369000D01*
X98952000Y-85369000D01*
X98952000Y-82719750D01*
X98793250Y-82561000D01*
X98529000Y-82557928D01*
X98404518Y-82570188D01*
X98284820Y-82606498D01*
X98229000Y-82636335D01*
X98173180Y-82606498D01*
X98053482Y-82570188D01*
X97929000Y-82557928D01*
X96829000Y-82557928D01*
X96704518Y-82570188D01*
X96584820Y-82606498D01*
X96529000Y-82636335D01*
X96473180Y-82606498D01*
X96353482Y-82570188D01*
X96229000Y-82557928D01*
X95129000Y-82557928D01*
X95004518Y-82570188D01*
X94884820Y-82606498D01*
X94774506Y-82665463D01*
X94677815Y-82744815D01*
X94598463Y-82841506D01*
X94539498Y-82951820D01*
X94503188Y-83071518D01*
X94490928Y-83196000D01*
X94490928Y-83361000D01*
X93674675Y-83361000D01*
X93672680Y-83197530D01*
X93513930Y-83038780D01*
X92689680Y-83038780D01*
X92689680Y-83058780D01*
X92435680Y-83058780D01*
X92435680Y-83038780D01*
X92415680Y-83038780D01*
X92415680Y-82784780D01*
X92435680Y-82784780D01*
X92435680Y-81898030D01*
X92689680Y-81898030D01*
X92689680Y-82784780D01*
X93513930Y-82784780D01*
X93672680Y-82626030D01*
X93675752Y-82374280D01*
X93663492Y-82249798D01*
X93627182Y-82130100D01*
X93568217Y-82019786D01*
X93488865Y-81923095D01*
X93392174Y-81843743D01*
X93281860Y-81784778D01*
X93162162Y-81748468D01*
X93037680Y-81736208D01*
X92848430Y-81739280D01*
X92689680Y-81898030D01*
X92435680Y-81898030D01*
X92276930Y-81739280D01*
X92087680Y-81736208D01*
X91963198Y-81748468D01*
X91843500Y-81784778D01*
X91733186Y-81843743D01*
X91636495Y-81923095D01*
X91583640Y-81987499D01*
X91583640Y-81046000D01*
X93040928Y-81046000D01*
X93053188Y-81170482D01*
X93089498Y-81290180D01*
X93148463Y-81400494D01*
X93227815Y-81497185D01*
X93324506Y-81576537D01*
X93434820Y-81635502D01*
X93554518Y-81671812D01*
X93679000Y-81684072D01*
X98793250Y-81681000D01*
X98952000Y-81522250D01*
X98952000Y-76473000D01*
X93202750Y-76473000D01*
X93044000Y-76631750D01*
X93040928Y-81046000D01*
X91583640Y-81046000D01*
X91583640Y-73700703D01*
X93041343Y-72243000D01*
X93044000Y-76060250D01*
X93202750Y-76219000D01*
X98952000Y-76219000D01*
X98952000Y-71169750D01*
X99206000Y-71169750D01*
X99206000Y-76219000D01*
X104955250Y-76219000D01*
X105114000Y-76060250D01*
X105117072Y-71646000D01*
X105104812Y-71521518D01*
X105068502Y-71401820D01*
X105009537Y-71291506D01*
X104930185Y-71194815D01*
X104833494Y-71115463D01*
X104723180Y-71056498D01*
X104603482Y-71020188D01*
X104479000Y-71007928D01*
X99364750Y-71011000D01*
X99206000Y-71169750D01*
X98952000Y-71169750D01*
X98793250Y-71011000D01*
X96293037Y-71009498D01*
X96655241Y-70815897D01*
X96980337Y-70549097D01*
X97047197Y-70467628D01*
X100040866Y-67473960D01*
X100114842Y-67473960D01*
X100428493Y-67443068D01*
X100830942Y-67320986D01*
X100923651Y-67271432D01*
X102204800Y-67271432D01*
X102329282Y-67259172D01*
X102362682Y-67249040D01*
X121378091Y-67249040D01*
X121472930Y-67513881D01*
X121617615Y-67755131D01*
X121806586Y-67963519D01*
X122032580Y-68131037D01*
X122286913Y-68251246D01*
X122420961Y-68291904D01*
X122643000Y-68169915D01*
X122643000Y-67027000D01*
X121499376Y-67027000D01*
X121378091Y-67249040D01*
X102362682Y-67249040D01*
X102448980Y-67222862D01*
X102559294Y-67163897D01*
X102655985Y-67084545D01*
X102735337Y-66987854D01*
X102794302Y-66877540D01*
X102830612Y-66757842D01*
X102842872Y-66633360D01*
X102842872Y-66600200D01*
X105205002Y-66600200D01*
X105518653Y-66569308D01*
X105921102Y-66447226D01*
X106292001Y-66248977D01*
X106576605Y-66015408D01*
X106632414Y-65985577D01*
X106729105Y-65906225D01*
X106808457Y-65809534D01*
X106867422Y-65699220D01*
X106878040Y-65664218D01*
X106883897Y-65657081D01*
X106919510Y-65590453D01*
X109322112Y-65590453D01*
X109417876Y-65854854D01*
X109707491Y-65995744D01*
X110019028Y-66077424D01*
X110340515Y-66096758D01*
X110659595Y-66053001D01*
X110964008Y-65947835D01*
X111137964Y-65854854D01*
X111233728Y-65590453D01*
X110277920Y-64634645D01*
X109322112Y-65590453D01*
X106919510Y-65590453D01*
X107082146Y-65286182D01*
X107204228Y-64883733D01*
X107240285Y-64517635D01*
X108636202Y-64517635D01*
X108679959Y-64836715D01*
X108785125Y-65141128D01*
X108878106Y-65315084D01*
X109142507Y-65410848D01*
X110098315Y-64455040D01*
X110457525Y-64455040D01*
X111413333Y-65410848D01*
X111677734Y-65315084D01*
X111818624Y-65025469D01*
X111900304Y-64713932D01*
X111919638Y-64392445D01*
X111875881Y-64073365D01*
X111770715Y-63768952D01*
X111677734Y-63594996D01*
X111413333Y-63499232D01*
X110457525Y-64455040D01*
X110098315Y-64455040D01*
X109142507Y-63499232D01*
X108878106Y-63594996D01*
X108737216Y-63884611D01*
X108655536Y-64196148D01*
X108636202Y-64517635D01*
X107240285Y-64517635D01*
X107245450Y-64465200D01*
X107204228Y-64046667D01*
X107082146Y-63644218D01*
X106908649Y-63319627D01*
X109322112Y-63319627D01*
X110277920Y-64275435D01*
X111233728Y-63319627D01*
X111137964Y-63055226D01*
X110848349Y-62914336D01*
X110536812Y-62832656D01*
X110215325Y-62813322D01*
X109896245Y-62857079D01*
X109591832Y-62962245D01*
X109417876Y-63055226D01*
X109322112Y-63319627D01*
X106908649Y-63319627D01*
X106889612Y-63284012D01*
X106867422Y-63210860D01*
X106808457Y-63100546D01*
X106729105Y-63003855D01*
X106632414Y-62924503D01*
X106522100Y-62865538D01*
X106512971Y-62862769D01*
X106292001Y-62681423D01*
X105921102Y-62483174D01*
X105518653Y-62361092D01*
X105205002Y-62330200D01*
X101404040Y-62330200D01*
X101404040Y-61435214D01*
X101439512Y-61368851D01*
X101490048Y-61202255D01*
X101507112Y-61029001D01*
X101507112Y-60128999D01*
X101506987Y-60127720D01*
X110804068Y-60127720D01*
X110816328Y-60252202D01*
X110852638Y-60371900D01*
X110911603Y-60482214D01*
X110990955Y-60578905D01*
X111087646Y-60658257D01*
X111197960Y-60717222D01*
X111317658Y-60753532D01*
X111442140Y-60765792D01*
X111818890Y-60762720D01*
X111977640Y-60603970D01*
X111977640Y-59354720D01*
X110965890Y-59354720D01*
X110807140Y-59513470D01*
X110804068Y-60127720D01*
X101506987Y-60127720D01*
X101490048Y-59955745D01*
X101439512Y-59789149D01*
X101357445Y-59635613D01*
X101247002Y-59501038D01*
X101112427Y-59390595D01*
X100958891Y-59308528D01*
X100792295Y-59257992D01*
X100619041Y-59240928D01*
X99919039Y-59240928D01*
X99745785Y-59257992D01*
X99579189Y-59308528D01*
X99425653Y-59390595D01*
X99291078Y-59501038D01*
X99269040Y-59527891D01*
X99247002Y-59501038D01*
X99112427Y-59390595D01*
X98958891Y-59308528D01*
X98792295Y-59257992D01*
X98665515Y-59245505D01*
X98683914Y-59235671D01*
X98755497Y-58991702D01*
X97942400Y-58178605D01*
X97129303Y-58991702D01*
X97200886Y-59235671D01*
X97456396Y-59356571D01*
X97478800Y-59362187D01*
X97425653Y-59390595D01*
X97360579Y-59444000D01*
X96054800Y-59444000D01*
X96054800Y-58993901D01*
X96060290Y-58938159D01*
X96054800Y-58882417D01*
X96054800Y-58882408D01*
X96038377Y-58715661D01*
X95973476Y-58501713D01*
X95868084Y-58304537D01*
X95726249Y-58131711D01*
X95682940Y-58096168D01*
X95656284Y-58069512D01*
X96502183Y-58069512D01*
X96543613Y-58349130D01*
X96638797Y-58615292D01*
X96705729Y-58740514D01*
X96949698Y-58812097D01*
X97762795Y-57999000D01*
X98122005Y-57999000D01*
X98935102Y-58812097D01*
X99179071Y-58740514D01*
X99299971Y-58485004D01*
X99339396Y-58327720D01*
X110804068Y-58327720D01*
X110807140Y-58941970D01*
X110965890Y-59100720D01*
X111977640Y-59100720D01*
X111977640Y-57851470D01*
X111818890Y-57692720D01*
X111442140Y-57689648D01*
X111317658Y-57701908D01*
X111197960Y-57738218D01*
X111087646Y-57797183D01*
X110990955Y-57876535D01*
X110911603Y-57973226D01*
X110852638Y-58083540D01*
X110816328Y-58203238D01*
X110804068Y-58327720D01*
X99339396Y-58327720D01*
X99368700Y-58210816D01*
X99382617Y-57928488D01*
X99341187Y-57648870D01*
X99246003Y-57382708D01*
X99179071Y-57257486D01*
X98935102Y-57185903D01*
X98122005Y-57999000D01*
X97762795Y-57999000D01*
X96949698Y-57185903D01*
X96705729Y-57257486D01*
X96584829Y-57512996D01*
X96516100Y-57787184D01*
X96502183Y-58069512D01*
X95656284Y-58069512D01*
X94534916Y-56948145D01*
X94499369Y-56904831D01*
X94326543Y-56762996D01*
X94129367Y-56657604D01*
X93915419Y-56592703D01*
X93748672Y-56576280D01*
X93748671Y-56576280D01*
X93692920Y-56570789D01*
X93637169Y-56576280D01*
X91767892Y-56576280D01*
X89128163Y-53936552D01*
X90539080Y-53936552D01*
X90663562Y-53924292D01*
X90783260Y-53887982D01*
X90893574Y-53829017D01*
X90990265Y-53749665D01*
X91069617Y-53652974D01*
X91128582Y-53542660D01*
X91164892Y-53422962D01*
X91177152Y-53298480D01*
X91177152Y-51298480D01*
X91164892Y-51173998D01*
X91128582Y-51054300D01*
X91069617Y-50943986D01*
X90990265Y-50847295D01*
X90893574Y-50767943D01*
X90783260Y-50708978D01*
X90663562Y-50672668D01*
X90539080Y-50660408D01*
X85239080Y-50660408D01*
X85114598Y-50672668D01*
X84994900Y-50708978D01*
X84884586Y-50767943D01*
X84787895Y-50847295D01*
X84708543Y-50943986D01*
X84649578Y-51054300D01*
X84613268Y-51173998D01*
X84601008Y-51298480D01*
X84601008Y-53298480D01*
X84613268Y-53422962D01*
X84649578Y-53542660D01*
X84708543Y-53652974D01*
X84787895Y-53749665D01*
X84884586Y-53829017D01*
X84994900Y-53887982D01*
X85114598Y-53924292D01*
X85239080Y-53936552D01*
X86754081Y-53936552D01*
X86754081Y-54246839D01*
X86748589Y-54302600D01*
X86770503Y-54525098D01*
X86835404Y-54739046D01*
X86868419Y-54800812D01*
X86940797Y-54936223D01*
X87082632Y-55109049D01*
X87125940Y-55144591D01*
X90455769Y-58474421D01*
X90491311Y-58517729D01*
X90664137Y-58659564D01*
X90861313Y-58764956D01*
X91075261Y-58829857D01*
X91242008Y-58846280D01*
X91242017Y-58846280D01*
X91297759Y-58851770D01*
X91353501Y-58846280D01*
X93222789Y-58846280D01*
X93784800Y-59408292D01*
X93784800Y-59605180D01*
X93711980Y-59598008D01*
X93460230Y-59601080D01*
X93301480Y-59759830D01*
X93301480Y-60584080D01*
X93321480Y-60584080D01*
X93321480Y-60838080D01*
X93301480Y-60838080D01*
X93301480Y-61662330D01*
X93460230Y-61821080D01*
X93711980Y-61824152D01*
X93836462Y-61811892D01*
X93956160Y-61775582D01*
X94066474Y-61716617D01*
X94114374Y-61677306D01*
X94264413Y-61757503D01*
X94428664Y-61807328D01*
X94599480Y-61824152D01*
X94658834Y-61824152D01*
X94676981Y-61829657D01*
X94899480Y-61851571D01*
X95121978Y-61829657D01*
X95140125Y-61824152D01*
X95199480Y-61824152D01*
X95370296Y-61807328D01*
X95534547Y-61757503D01*
X95615936Y-61714000D01*
X97360579Y-61714000D01*
X97425653Y-61767405D01*
X97579189Y-61849472D01*
X97745785Y-61900008D01*
X97919039Y-61917072D01*
X98619041Y-61917072D01*
X98792295Y-61900008D01*
X98958891Y-61849472D01*
X99112427Y-61767405D01*
X99134040Y-61749667D01*
X99134041Y-62695288D01*
X97704800Y-62695288D01*
X97580318Y-62707548D01*
X97460620Y-62743858D01*
X97350306Y-62802823D01*
X97253615Y-62882175D01*
X97174263Y-62978866D01*
X97115298Y-63089180D01*
X97078988Y-63208878D01*
X97066728Y-63333360D01*
X97066728Y-64409406D01*
X94579015Y-66897120D01*
X93983836Y-66897120D01*
X93994302Y-66877540D01*
X94030612Y-66757842D01*
X94042872Y-66633360D01*
X94042872Y-63333360D01*
X94030612Y-63208878D01*
X93994302Y-63089180D01*
X93935337Y-62978866D01*
X93855985Y-62882175D01*
X93759294Y-62802823D01*
X93648980Y-62743858D01*
X93529282Y-62707548D01*
X93404800Y-62695288D01*
X88904800Y-62695288D01*
X88780318Y-62707548D01*
X88660620Y-62743858D01*
X88550306Y-62802823D01*
X88494819Y-62848360D01*
X86480674Y-62848360D01*
X86163853Y-62752253D01*
X85782105Y-62714654D01*
X85497921Y-62596941D01*
X84988845Y-62495680D01*
X84469795Y-62495680D01*
X83960719Y-62596941D01*
X83481179Y-62795573D01*
X83049605Y-63083942D01*
X82826551Y-63306996D01*
X82828756Y-61186080D01*
X91998908Y-61186080D01*
X92011168Y-61310562D01*
X92047478Y-61430260D01*
X92106443Y-61540574D01*
X92185795Y-61637265D01*
X92282486Y-61716617D01*
X92392800Y-61775582D01*
X92512498Y-61811892D01*
X92636980Y-61824152D01*
X92888730Y-61821080D01*
X93047480Y-61662330D01*
X93047480Y-60838080D01*
X92160730Y-60838080D01*
X92001980Y-60996830D01*
X91998908Y-61186080D01*
X82828756Y-61186080D01*
X82829744Y-60236080D01*
X91998908Y-60236080D01*
X92001980Y-60425330D01*
X92160730Y-60584080D01*
X93047480Y-60584080D01*
X93047480Y-59759830D01*
X92888730Y-59601080D01*
X92636980Y-59598008D01*
X92512498Y-59610268D01*
X92392800Y-59646578D01*
X92282486Y-59705543D01*
X92185795Y-59784895D01*
X92106443Y-59881586D01*
X92047478Y-59991900D01*
X92011168Y-60111598D01*
X91998908Y-60236080D01*
X82829744Y-60236080D01*
X82847186Y-43467872D01*
X83490000Y-43467872D01*
X83490000Y-43908128D01*
X83575890Y-44339925D01*
X83744369Y-44746669D01*
X83988962Y-45112729D01*
X84300271Y-45424038D01*
X84666331Y-45668631D01*
X85073075Y-45837110D01*
X85504872Y-45923000D01*
X85945128Y-45923000D01*
X86376925Y-45837110D01*
X86783669Y-45668631D01*
X87149729Y-45424038D01*
X87461038Y-45112729D01*
X87705631Y-44746669D01*
X87874110Y-44339925D01*
X87960000Y-43908128D01*
X87960000Y-43467872D01*
X87874110Y-43036075D01*
X87705631Y-42629331D01*
X87461038Y-42263271D01*
X87149729Y-41951962D01*
X86783669Y-41707369D01*
X86376925Y-41538890D01*
X85945128Y-41453000D01*
X85504872Y-41453000D01*
X85073075Y-41538890D01*
X84666331Y-41707369D01*
X84300271Y-41951962D01*
X83988962Y-42263271D01*
X83744369Y-42629331D01*
X83575890Y-43036075D01*
X83490000Y-43467872D01*
X82847186Y-43467872D01*
X82849315Y-41421793D01*
X82856201Y-40882440D01*
X100830621Y-40854829D01*
X100832380Y-44740000D01*
%TA.AperFunction,Conductor*%
D42*
G36*
X100832380Y-44740000D02*
G01*
X100732901Y-44740000D01*
X100738072Y-44687500D01*
X100735000Y-44435750D01*
X100576250Y-44277000D01*
X99752000Y-44277000D01*
X99752000Y-44297000D01*
X99498000Y-44297000D01*
X99498000Y-44277000D01*
X99478000Y-44277000D01*
X99478000Y-44023000D01*
X99498000Y-44023000D01*
X99498000Y-43136250D01*
X99752000Y-43136250D01*
X99752000Y-44023000D01*
X100576250Y-44023000D01*
X100735000Y-43864250D01*
X100738072Y-43612500D01*
X100725812Y-43488018D01*
X100689502Y-43368320D01*
X100630537Y-43258006D01*
X100551185Y-43161315D01*
X100454494Y-43081963D01*
X100344180Y-43022998D01*
X100224482Y-42986688D01*
X100100000Y-42974428D01*
X99910750Y-42977500D01*
X99752000Y-43136250D01*
X99498000Y-43136250D01*
X99339250Y-42977500D01*
X99150000Y-42974428D01*
X99025518Y-42986688D01*
X98905820Y-43022998D01*
X98795506Y-43081963D01*
X98698815Y-43161315D01*
X98619463Y-43258006D01*
X98560498Y-43368320D01*
X98524188Y-43488018D01*
X98511928Y-43612500D01*
X98514562Y-43828362D01*
X98456449Y-43757551D01*
X98413140Y-43722009D01*
X96823516Y-42132385D01*
X96787969Y-42089071D01*
X96615143Y-41947236D01*
X96417967Y-41841844D01*
X96204019Y-41776943D01*
X96037272Y-41760520D01*
X96037271Y-41760520D01*
X95981520Y-41755029D01*
X95925769Y-41760520D01*
X92151072Y-41760520D01*
X92095320Y-41755029D01*
X92039568Y-41760520D01*
X91872821Y-41776943D01*
X91658873Y-41841844D01*
X91461697Y-41947236D01*
X91288871Y-42089071D01*
X91253329Y-42132379D01*
X86654106Y-46731603D01*
X86610792Y-46767150D01*
X86468957Y-46939976D01*
X86369441Y-47126159D01*
X86363565Y-47137153D01*
X86356511Y-47160408D01*
X85239080Y-47160408D01*
X85114598Y-47172668D01*
X84994900Y-47208978D01*
X84884586Y-47267943D01*
X84787895Y-47347295D01*
X84708543Y-47443986D01*
X84649578Y-47554300D01*
X84613268Y-47673998D01*
X84601008Y-47798480D01*
X84601008Y-49798480D01*
X84613268Y-49922962D01*
X84649578Y-50042660D01*
X84708543Y-50152974D01*
X84787895Y-50249665D01*
X84884586Y-50329017D01*
X84994900Y-50387982D01*
X85114598Y-50424292D01*
X85239080Y-50436552D01*
X90539080Y-50436552D01*
X90663562Y-50424292D01*
X90783260Y-50387982D01*
X90893574Y-50329017D01*
X90990265Y-50249665D01*
X91069617Y-50152974D01*
X91127254Y-50045145D01*
X91686760Y-50604652D01*
X91686761Y-52639079D01*
X91681269Y-52694840D01*
X91703183Y-52917338D01*
X91768084Y-53131286D01*
X91814511Y-53218144D01*
X91873477Y-53328463D01*
X92015312Y-53501289D01*
X92058620Y-53536831D01*
X93496208Y-54974420D01*
X93531751Y-55017729D01*
X93704577Y-55159564D01*
X93875426Y-55250884D01*
X93901753Y-55264956D01*
X94115701Y-55329857D01*
X94338199Y-55351771D01*
X94393951Y-55346280D01*
X96423309Y-55346280D01*
X96504328Y-55427299D01*
X96504328Y-56299000D01*
X96516588Y-56423482D01*
X96552898Y-56543180D01*
X96611863Y-56653494D01*
X96691215Y-56750185D01*
X96787906Y-56829537D01*
X96898220Y-56888502D01*
X97017918Y-56924812D01*
X97142400Y-56937072D01*
X97149615Y-56937072D01*
X97129303Y-57006298D01*
X97942400Y-57819395D01*
X98755497Y-57006298D01*
X98735185Y-56937072D01*
X98742400Y-56937072D01*
X98866882Y-56924812D01*
X98986580Y-56888502D01*
X99096894Y-56829537D01*
X99193585Y-56750185D01*
X99272937Y-56653494D01*
X99331902Y-56543180D01*
X99368212Y-56423482D01*
X99380472Y-56299000D01*
X99380472Y-54699000D01*
X99368212Y-54574518D01*
X99331902Y-54454820D01*
X99272937Y-54344506D01*
X99193585Y-54247815D01*
X99096894Y-54168463D01*
X98986580Y-54109498D01*
X98866882Y-54073188D01*
X98742400Y-54060928D01*
X98348220Y-54060928D01*
X97735436Y-53448144D01*
X97699889Y-53404831D01*
X97527063Y-53262996D01*
X97329887Y-53157604D01*
X97115939Y-53092703D01*
X96949192Y-53076280D01*
X96949191Y-53076280D01*
X96893440Y-53070789D01*
X96837689Y-53076280D01*
X94808332Y-53076280D01*
X93956760Y-52224709D01*
X93956760Y-50436745D01*
X94064250Y-50435000D01*
X94222998Y-50276252D01*
X94222998Y-50435000D01*
X94265037Y-50435000D01*
X94196324Y-50563553D01*
X94131423Y-50777501D01*
X94118566Y-50908039D01*
X94109509Y-51000000D01*
X94115000Y-51055751D01*
X94115000Y-51530751D01*
X94124428Y-51626476D01*
X94124428Y-51712500D01*
X94141252Y-51883316D01*
X94191077Y-52047567D01*
X94271988Y-52198942D01*
X94380877Y-52331623D01*
X94513558Y-52440512D01*
X94664933Y-52521423D01*
X94829184Y-52571248D01*
X95000000Y-52588072D01*
X95009354Y-52588072D01*
X95027501Y-52593577D01*
X95250000Y-52615491D01*
X95472498Y-52593577D01*
X95490645Y-52588072D01*
X95500000Y-52588072D01*
X95670816Y-52571248D01*
X95835067Y-52521423D01*
X95986442Y-52440512D01*
X96119123Y-52331623D01*
X96162500Y-52278768D01*
X96205877Y-52331623D01*
X96338558Y-52440512D01*
X96489933Y-52521423D01*
X96654184Y-52571248D01*
X96825000Y-52588072D01*
X96834355Y-52588072D01*
X96852502Y-52593577D01*
X97075000Y-52615491D01*
X97297498Y-52593577D01*
X97315645Y-52588072D01*
X97325000Y-52588072D01*
X97356190Y-52585000D01*
X98630752Y-52585000D01*
X98797499Y-52568577D01*
X98815646Y-52563072D01*
X98825000Y-52563072D01*
X98995816Y-52546248D01*
X99160067Y-52496423D01*
X99311442Y-52415512D01*
X99444123Y-52306623D01*
X99487500Y-52253768D01*
X99530877Y-52306623D01*
X99663558Y-52415512D01*
X99814933Y-52496423D01*
X99852769Y-52507900D01*
X100633013Y-53288146D01*
X100668551Y-53331449D01*
X100711854Y-53366987D01*
X100711856Y-53366989D01*
X100836333Y-53469145D01*
X100838000Y-57150058D01*
X100840452Y-57174833D01*
X100847689Y-57198654D01*
X100859435Y-57220605D01*
X100875238Y-57239843D01*
X100894490Y-57255629D01*
X100916452Y-57267355D01*
X100940280Y-57274571D01*
X100966316Y-57276993D01*
X112122778Y-57161408D01*
X112231640Y-59050942D01*
X112231640Y-59100720D01*
X112234508Y-59100720D01*
X112249142Y-59354720D01*
X112231640Y-59354720D01*
X112231640Y-60603970D01*
X112326585Y-60698915D01*
X112613650Y-65681545D01*
X112617512Y-65706140D01*
X112626097Y-65729509D01*
X112639076Y-65750754D01*
X112655951Y-65769059D01*
X112676073Y-65783720D01*
X112698668Y-65794174D01*
X112722869Y-65800019D01*
X112737994Y-65801216D01*
X120911714Y-65958696D01*
X120913597Y-65958719D01*
X121692607Y-65962171D01*
X121617615Y-66044869D01*
X121472930Y-66286119D01*
X121378091Y-66550960D01*
X121499376Y-66773000D01*
X122643000Y-66773000D01*
X122643000Y-66753000D01*
X122897000Y-66753000D01*
X122897000Y-66773000D01*
X122917000Y-66773000D01*
X122917000Y-67027000D01*
X122897000Y-67027000D01*
X122897000Y-68169915D01*
X123119039Y-68291904D01*
X123253087Y-68251246D01*
X123507420Y-68131037D01*
X123733414Y-67963519D01*
X123922385Y-67755131D01*
X124033933Y-67569135D01*
X124038320Y-67579727D01*
X124175000Y-67784284D01*
X124175001Y-68859239D01*
X124169509Y-68915000D01*
X124189428Y-69117242D01*
X124189428Y-69157500D01*
X124206252Y-69328316D01*
X124256077Y-69492567D01*
X124336988Y-69643942D01*
X124445877Y-69776623D01*
X124578558Y-69885512D01*
X124729933Y-69966423D01*
X124894184Y-70016248D01*
X125015209Y-70028168D01*
X124854600Y-70028168D01*
X124730118Y-70040428D01*
X124610420Y-70076738D01*
X124500106Y-70135703D01*
X124403415Y-70215055D01*
X124324063Y-70311746D01*
X124265098Y-70422060D01*
X124228788Y-70541758D01*
X124216528Y-70666240D01*
X124216528Y-72366240D01*
X124226392Y-72466399D01*
X123065757Y-72466399D01*
X122806783Y-72327975D01*
X122404334Y-72205893D01*
X122164214Y-72182243D01*
X121993143Y-72011172D01*
X121863622Y-71904877D01*
X121666446Y-71799484D01*
X121452498Y-71734583D01*
X121230000Y-71712669D01*
X121007502Y-71734583D01*
X120793554Y-71799484D01*
X120596378Y-71904877D01*
X120423552Y-72046712D01*
X120318268Y-72175001D01*
X116728360Y-72175001D01*
X116728360Y-71000653D01*
X118637552Y-71000653D01*
X118733316Y-71265054D01*
X119022931Y-71405944D01*
X119334468Y-71487624D01*
X119655955Y-71506958D01*
X119975035Y-71463201D01*
X120279448Y-71358035D01*
X120453404Y-71265054D01*
X120549168Y-71000653D01*
X119593360Y-70044845D01*
X118637552Y-71000653D01*
X116728360Y-71000653D01*
X116728360Y-69927835D01*
X117951642Y-69927835D01*
X117995399Y-70246915D01*
X118100565Y-70551328D01*
X118193546Y-70725284D01*
X118457947Y-70821048D01*
X119413755Y-69865240D01*
X119772965Y-69865240D01*
X120728773Y-70821048D01*
X120993174Y-70725284D01*
X121134064Y-70435669D01*
X121215744Y-70124132D01*
X121235078Y-69802645D01*
X121191321Y-69483565D01*
X121086155Y-69179152D01*
X120993174Y-69005196D01*
X120728773Y-68909432D01*
X119772965Y-69865240D01*
X119413755Y-69865240D01*
X118457947Y-68909432D01*
X118193546Y-69005196D01*
X118052656Y-69294811D01*
X117970976Y-69606348D01*
X117951642Y-69927835D01*
X116728360Y-69927835D01*
X116728360Y-69760358D01*
X116697468Y-69446707D01*
X116575386Y-69044258D01*
X116407320Y-68729827D01*
X118637552Y-68729827D01*
X119593360Y-69685635D01*
X120549168Y-68729827D01*
X120453404Y-68465426D01*
X120163789Y-68324536D01*
X119852252Y-68242856D01*
X119530765Y-68223522D01*
X119211685Y-68267279D01*
X118907272Y-68372445D01*
X118733316Y-68465426D01*
X118637552Y-68729827D01*
X116407320Y-68729827D01*
X116377137Y-68673359D01*
X116110337Y-68348263D01*
X115785241Y-68081463D01*
X115414341Y-67883214D01*
X115011892Y-67761132D01*
X114593360Y-67719910D01*
X114174827Y-67761132D01*
X113772378Y-67883214D01*
X113401479Y-68081463D01*
X113076383Y-68348263D01*
X112809583Y-68673359D01*
X112611334Y-69044259D01*
X112489252Y-69446708D01*
X112458360Y-69760359D01*
X112458361Y-74773734D01*
X111813114Y-75418981D01*
X111813109Y-75418985D01*
X110535687Y-76696408D01*
X109766960Y-76696408D01*
X109642478Y-76708668D01*
X109522780Y-76744978D01*
X109412466Y-76803943D01*
X109315775Y-76883295D01*
X109236423Y-76979986D01*
X109177458Y-77090300D01*
X109141148Y-77209998D01*
X109128888Y-77334480D01*
X109128888Y-80034480D01*
X109141148Y-80158962D01*
X109177458Y-80278660D01*
X109236423Y-80388974D01*
X109315775Y-80485665D01*
X109412466Y-80565017D01*
X109522780Y-80623982D01*
X109642478Y-80660292D01*
X109766960Y-80672552D01*
X110765912Y-80672552D01*
X111148427Y-80788587D01*
X111566960Y-80829809D01*
X111985493Y-80788587D01*
X112368008Y-80672552D01*
X113366960Y-80672552D01*
X113491442Y-80660292D01*
X113611140Y-80623982D01*
X113721454Y-80565017D01*
X113818145Y-80485665D01*
X113897497Y-80388974D01*
X113956462Y-80278660D01*
X113992772Y-80158962D01*
X114005032Y-80034480D01*
X114005032Y-79265754D01*
X114832455Y-78438331D01*
X114832460Y-78438325D01*
X116028868Y-77241917D01*
X116110337Y-77175057D01*
X116135332Y-77144600D01*
X118341608Y-77144600D01*
X118344680Y-79108850D01*
X118503430Y-79267600D01*
X120502680Y-79267600D01*
X120502680Y-76668350D01*
X120756680Y-76668350D01*
X120756680Y-79267600D01*
X122755930Y-79267600D01*
X122914680Y-79108850D01*
X122917752Y-77144600D01*
X122905492Y-77020118D01*
X122869182Y-76900420D01*
X122810217Y-76790106D01*
X122730865Y-76693415D01*
X122634174Y-76614063D01*
X122523860Y-76555098D01*
X122404162Y-76518788D01*
X122279680Y-76506528D01*
X120915430Y-76509600D01*
X120756680Y-76668350D01*
X120502680Y-76668350D01*
X120343930Y-76509600D01*
X118979680Y-76506528D01*
X118855198Y-76518788D01*
X118735500Y-76555098D01*
X118625186Y-76614063D01*
X118528495Y-76693415D01*
X118449143Y-76790106D01*
X118390178Y-76900420D01*
X118353868Y-77020118D01*
X118341608Y-77144600D01*
X116135332Y-77144600D01*
X116177195Y-77093591D01*
X116825785Y-76445001D01*
X122090683Y-76445001D01*
X122404334Y-76414109D01*
X122806783Y-76292027D01*
X123177682Y-76093778D01*
X123502778Y-75826978D01*
X123769578Y-75501882D01*
X123967827Y-75130983D01*
X124087523Y-74736399D01*
X128284747Y-74736399D01*
X128266201Y-74758997D01*
X127129003Y-75896196D01*
X127099999Y-75919999D01*
X127070602Y-75955820D01*
X127005026Y-76035724D01*
X126956920Y-76125724D01*
X126934454Y-76167754D01*
X126890997Y-76311015D01*
X126880000Y-76422668D01*
X126880000Y-76422678D01*
X126876324Y-76460000D01*
X126880000Y-76497323D01*
X126880001Y-77854141D01*
X126866324Y-77993002D01*
X126880998Y-78141987D01*
X126924454Y-78285248D01*
X126995026Y-78417278D01*
X127089999Y-78533003D01*
X127119003Y-78556806D01*
X128381456Y-79819260D01*
X128381462Y-79819265D01*
X128615594Y-80053397D01*
X128639397Y-80082401D01*
X128755122Y-80177374D01*
X128887151Y-80247946D01*
X129030412Y-80291403D01*
X129142065Y-80302400D01*
X129142074Y-80302400D01*
X129179397Y-80306076D01*
X129216720Y-80302400D01*
X129451707Y-80302400D01*
X129506900Y-80331902D01*
X129626598Y-80368212D01*
X129741081Y-80379487D01*
X129741081Y-80914708D01*
X129737404Y-80952040D01*
X129741081Y-80989373D01*
X129752078Y-81101026D01*
X129759348Y-81124992D01*
X129759348Y-81573380D01*
X129776172Y-81744196D01*
X129825997Y-81908447D01*
X129906908Y-82059822D01*
X130015797Y-82192503D01*
X130148478Y-82301392D01*
X130299853Y-82382303D01*
X130464104Y-82432128D01*
X130634920Y-82448952D01*
X131134920Y-82448952D01*
X131305736Y-82432128D01*
X131469987Y-82382303D01*
X131621362Y-82301392D01*
X131730203Y-82212068D01*
X131771235Y-82262065D01*
X131867926Y-82341417D01*
X131978240Y-82400382D01*
X132097938Y-82436692D01*
X132222420Y-82448952D01*
X132424170Y-82445880D01*
X132582920Y-82287130D01*
X132582920Y-81462880D01*
X132836920Y-81462880D01*
X132836920Y-82287130D01*
X132995670Y-82445880D01*
X133197420Y-82448952D01*
X133321902Y-82436692D01*
X133441600Y-82400382D01*
X133551914Y-82341417D01*
X133648605Y-82262065D01*
X133727957Y-82165374D01*
X133786922Y-82055060D01*
X133823232Y-81935362D01*
X133835492Y-81810880D01*
X133832420Y-81621630D01*
X133673670Y-81462880D01*
X132836920Y-81462880D01*
X132582920Y-81462880D01*
X132562920Y-81462880D01*
X132562920Y-81208880D01*
X132582920Y-81208880D01*
X132582920Y-81188880D01*
X132836920Y-81188880D01*
X132836920Y-81208880D01*
X133673670Y-81208880D01*
X133832420Y-81050130D01*
X133835492Y-80860880D01*
X133823232Y-80736398D01*
X133786922Y-80616700D01*
X133727957Y-80506386D01*
X133648605Y-80409695D01*
X133612997Y-80380472D01*
X133911080Y-80380472D01*
X134035562Y-80368212D01*
X134155260Y-80331902D01*
X134187370Y-80314739D01*
X134227286Y-80347497D01*
X134280002Y-80375674D01*
X134280002Y-81159749D01*
X134276325Y-81197081D01*
X134280002Y-81234414D01*
X134285787Y-81293144D01*
X134290999Y-81346066D01*
X134334455Y-81489327D01*
X134405027Y-81621357D01*
X134473835Y-81705199D01*
X134500001Y-81737082D01*
X134528999Y-81760880D01*
X136428561Y-83660443D01*
X136452359Y-83689441D01*
X136481357Y-83713239D01*
X136568084Y-83784414D01*
X136700113Y-83854986D01*
X136843374Y-83898443D01*
X136992360Y-83913117D01*
X137029693Y-83909440D01*
X139647438Y-83909440D01*
X139684760Y-83913116D01*
X139722082Y-83909440D01*
X139722093Y-83909440D01*
X139833746Y-83898443D01*
X139977007Y-83854986D01*
X140109036Y-83784414D01*
X140224761Y-83689441D01*
X140248563Y-83660438D01*
X140916004Y-82992998D01*
X140945001Y-82969201D01*
X141039974Y-82853476D01*
X141110546Y-82721447D01*
X141154003Y-82578186D01*
X141165000Y-82466533D01*
X141165000Y-82466524D01*
X141168676Y-82429201D01*
X141168126Y-82423613D01*
X141274123Y-82336623D01*
X141383012Y-82203942D01*
X141463923Y-82052567D01*
X141513748Y-81888316D01*
X141530572Y-81717500D01*
X141530572Y-81242500D01*
X141513748Y-81071684D01*
X141463923Y-80907433D01*
X141383012Y-80756058D01*
X141274123Y-80623377D01*
X141141442Y-80514488D01*
X140990067Y-80433577D01*
X140825816Y-80383752D01*
X140655000Y-80366928D01*
X140155000Y-80366928D01*
X140152023Y-80367221D01*
X139703072Y-79918271D01*
X139703072Y-79630000D01*
X139686248Y-79459184D01*
X139636423Y-79294933D01*
X139555512Y-79143558D01*
X139446623Y-79010877D01*
X139393768Y-78967500D01*
X139446623Y-78924123D01*
X139555512Y-78791442D01*
X139636423Y-78640067D01*
X139686248Y-78475816D01*
X139703072Y-78305000D01*
X139703072Y-77805000D01*
X139686248Y-77634184D01*
X139636423Y-77469933D01*
X139555512Y-77318558D01*
X139475000Y-77220454D01*
X139475000Y-77083469D01*
X139479281Y-77040000D01*
X139475000Y-76996531D01*
X139475000Y-76996523D01*
X139462195Y-76866510D01*
X139457175Y-76849961D01*
X139411589Y-76699686D01*
X139366727Y-76615755D01*
X139329411Y-76545941D01*
X139218817Y-76411183D01*
X139185044Y-76383466D01*
X139106535Y-76304957D01*
X139095226Y-76248102D01*
X139017205Y-76059744D01*
X138903937Y-75890226D01*
X138848711Y-75835000D01*
X139979869Y-75835000D01*
X140945339Y-76800471D01*
X140768493Y-77065139D01*
X140569861Y-77544679D01*
X140468600Y-78053755D01*
X140468600Y-78572805D01*
X140569861Y-79081881D01*
X140768493Y-79561421D01*
X141056862Y-79992995D01*
X141423885Y-80360018D01*
X141855459Y-80648387D01*
X142334999Y-80847019D01*
X142844075Y-80948280D01*
X143363125Y-80948280D01*
X143872201Y-80847019D01*
X144351741Y-80648387D01*
X144783315Y-80360018D01*
X145150338Y-79992995D01*
X145438707Y-79561421D01*
X145637339Y-79081881D01*
X145738600Y-78572805D01*
X145738600Y-78053755D01*
X145637339Y-77544679D01*
X145438707Y-77065139D01*
X145150338Y-76633565D01*
X144783315Y-76266542D01*
X144351741Y-75978173D01*
X143872201Y-75779541D01*
X143363125Y-75678280D01*
X143033412Y-75678280D01*
X141291996Y-73936865D01*
X141256449Y-73893551D01*
X141083623Y-73751716D01*
X140886447Y-73646324D01*
X140672499Y-73581423D01*
X140505752Y-73565000D01*
X140505751Y-73565000D01*
X140450000Y-73559509D01*
X140394249Y-73565000D01*
X137860000Y-73565000D01*
X137860000Y-70570994D01*
X138009184Y-70616248D01*
X138180000Y-70633072D01*
X138189355Y-70633072D01*
X138207502Y-70638577D01*
X138430000Y-70660491D01*
X138652498Y-70638577D01*
X138670645Y-70633072D01*
X138680000Y-70633072D01*
X138850816Y-70616248D01*
X139015067Y-70566423D01*
X139166442Y-70485512D01*
X139299123Y-70376623D01*
X139408012Y-70243942D01*
X139488923Y-70092567D01*
X139538748Y-69928316D01*
X139555572Y-69757500D01*
X139555572Y-69756184D01*
X139564577Y-69726499D01*
X139581000Y-69559752D01*
X139581000Y-69559742D01*
X139586490Y-69504001D01*
X139581000Y-69448259D01*
X139581000Y-68155000D01*
X142044893Y-68155000D01*
X142063368Y-68173475D01*
X142237760Y-68290000D01*
X142063368Y-68406525D01*
X141856525Y-68613368D01*
X141694010Y-68856589D01*
X141582068Y-69126842D01*
X141525000Y-69413740D01*
X141525000Y-69706260D01*
X141582068Y-69993158D01*
X141694010Y-70263411D01*
X141856525Y-70506632D01*
X141988380Y-70638487D01*
X141915820Y-70660498D01*
X141805506Y-70719463D01*
X141708815Y-70798815D01*
X141629463Y-70895506D01*
X141570498Y-71005820D01*
X141534188Y-71125518D01*
X141521928Y-71250000D01*
X141521928Y-72950000D01*
X141534188Y-73074482D01*
X141570498Y-73194180D01*
X141629463Y-73304494D01*
X141708815Y-73401185D01*
X141805506Y-73480537D01*
X141915820Y-73539502D01*
X142035518Y-73575812D01*
X142160000Y-73588072D01*
X143860000Y-73588072D01*
X143984482Y-73575812D01*
X144104180Y-73539502D01*
X144214494Y-73480537D01*
X144311185Y-73401185D01*
X144390537Y-73304494D01*
X144449502Y-73194180D01*
X144485812Y-73074482D01*
X144498072Y-72950000D01*
X144498072Y-71250000D01*
X144485812Y-71125518D01*
X144449502Y-71005820D01*
X144390537Y-70895506D01*
X144311185Y-70798815D01*
X144214494Y-70719463D01*
X144104180Y-70660498D01*
X144031620Y-70638487D01*
X144163475Y-70506632D01*
X144325990Y-70263411D01*
X144437932Y-69993158D01*
X144495000Y-69706260D01*
X144495000Y-69413740D01*
X144437932Y-69126842D01*
X144325990Y-68856589D01*
X144163475Y-68613368D01*
X143956632Y-68406525D01*
X143782240Y-68290000D01*
X143956632Y-68173475D01*
X144163475Y-67966632D01*
X144325990Y-67723411D01*
X144437932Y-67453158D01*
X144495000Y-67166260D01*
X144495000Y-66873740D01*
X144437932Y-66586842D01*
X144325990Y-66316589D01*
X144163475Y-66073368D01*
X144151802Y-66061695D01*
X147654814Y-66077217D01*
X147625926Y-92354345D01*
X82798520Y-92309536D01*
X82798520Y-90255816D01*
X82799604Y-89213272D01*
X83439200Y-89213272D01*
X83439200Y-89653528D01*
X83525090Y-90085325D01*
X83693569Y-90492069D01*
X83938162Y-90858129D01*
X84249471Y-91169438D01*
X84615531Y-91414031D01*
X85022275Y-91582510D01*
X85454072Y-91668400D01*
X85894328Y-91668400D01*
X86326125Y-91582510D01*
X86732869Y-91414031D01*
X87098929Y-91169438D01*
X87410238Y-90858129D01*
X87654831Y-90492069D01*
X87823310Y-90085325D01*
X87909200Y-89653528D01*
X87909200Y-89213272D01*
X87823310Y-88781475D01*
X87654831Y-88374731D01*
X87410238Y-88008671D01*
X87098929Y-87697362D01*
X86732869Y-87452769D01*
X86326125Y-87284290D01*
X85894328Y-87198400D01*
X85454072Y-87198400D01*
X85022275Y-87284290D01*
X84615531Y-87452769D01*
X84249471Y-87697362D01*
X83938162Y-88008671D01*
X83693569Y-88374731D01*
X83525090Y-88781475D01*
X83439200Y-89213272D01*
X82799604Y-89213272D01*
X82814061Y-75314459D01*
X83112226Y-75314459D01*
X83328348Y-75681218D01*
X83788225Y-75921898D01*
X84286218Y-76068235D01*
X84803191Y-76114608D01*
X85319279Y-76059233D01*
X85814646Y-75904239D01*
X86231892Y-75681218D01*
X86448014Y-75314459D01*
X84780120Y-73646565D01*
X83112226Y-75314459D01*
X82814061Y-75314459D01*
X82814321Y-75065143D01*
X82932621Y-75134854D01*
X84600515Y-73466960D01*
X82932621Y-71799066D01*
X82817648Y-71866817D01*
X82817905Y-71619461D01*
X83112226Y-71619461D01*
X84780120Y-73287355D01*
X86448014Y-71619461D01*
X86231892Y-71252702D01*
X85772015Y-71012022D01*
X85274022Y-70865685D01*
X84757049Y-70819312D01*
X84240961Y-70874687D01*
X83745594Y-71029681D01*
X83328348Y-71252702D01*
X83112226Y-71619461D01*
X82817905Y-71619461D01*
X82822761Y-66950574D01*
X83049605Y-67177418D01*
X83481179Y-67465787D01*
X83960719Y-67664419D01*
X84469795Y-67765680D01*
X84988845Y-67765680D01*
X85497921Y-67664419D01*
X85977461Y-67465787D01*
X86409035Y-67177418D01*
X86468093Y-67118360D01*
X87118586Y-67118360D01*
X87123919Y-67122737D01*
X87494818Y-67320986D01*
X87897267Y-67443068D01*
X88210918Y-67473960D01*
X91314842Y-67473960D01*
X91628493Y-67443068D01*
X91906475Y-67358743D01*
X91715901Y-67515143D01*
X91649043Y-67596610D01*
X88013128Y-71232525D01*
X87931664Y-71299381D01*
X87864808Y-71380845D01*
X87864805Y-71380848D01*
X87664864Y-71624477D01*
X87466615Y-71995376D01*
X87344533Y-72397825D01*
X87311502Y-72733192D01*
X87217399Y-72432434D01*
X86994378Y-72015188D01*
X86627619Y-71799066D01*
X84959725Y-73466960D01*
X86627619Y-75134854D01*
X86994378Y-74918732D01*
X87235058Y-74458855D01*
X87313641Y-74191433D01*
X87313640Y-84218048D01*
X87303311Y-84322920D01*
X87313640Y-84427792D01*
X87313640Y-84427801D01*
X87344532Y-84741452D01*
X87466614Y-85143901D01*
X87664863Y-85514801D01*
X87931663Y-85839897D01*
X88013132Y-85906757D01*
X89037883Y-86931508D01*
X89104743Y-87012977D01*
X89429839Y-87279777D01*
X89784892Y-87469556D01*
X89800738Y-87478026D01*
X90203186Y-87600108D01*
X90240721Y-87603805D01*
X90516838Y-87631000D01*
X90516845Y-87631000D01*
X90621720Y-87641329D01*
X90726594Y-87631000D01*
X94490928Y-87631000D01*
X94490928Y-87796000D01*
X94503188Y-87920482D01*
X94539498Y-88040180D01*
X94598463Y-88150494D01*
X94677815Y-88247185D01*
X94774506Y-88326537D01*
X94884820Y-88385502D01*
X95004518Y-88421812D01*
X95129000Y-88434072D01*
X96229000Y-88434072D01*
X96244000Y-88432595D01*
X96244000Y-88560248D01*
X96238509Y-88616000D01*
X96250114Y-88733833D01*
X96260423Y-88838498D01*
X96325324Y-89052446D01*
X96430716Y-89249623D01*
X96528032Y-89368203D01*
X96508853Y-89431427D01*
X96467631Y-89849960D01*
X96508853Y-90268493D01*
X96630935Y-90670942D01*
X96829184Y-91041841D01*
X97029125Y-91285470D01*
X97257723Y-91514068D01*
X97324583Y-91595537D01*
X97649679Y-91862337D01*
X98020578Y-92060586D01*
X98423027Y-92182668D01*
X98736678Y-92213560D01*
X98736687Y-92213560D01*
X98841559Y-92223889D01*
X98946431Y-92213560D01*
X108368008Y-92213560D01*
X108472880Y-92223889D01*
X108577752Y-92213560D01*
X108577762Y-92213560D01*
X108891413Y-92182668D01*
X109293862Y-92060586D01*
X109664761Y-91862337D01*
X109989857Y-91595537D01*
X110056717Y-91514068D01*
X111270620Y-90300165D01*
X111569478Y-90329600D01*
X118341608Y-90329600D01*
X118341608Y-90444600D01*
X118353868Y-90569082D01*
X118390178Y-90688780D01*
X118449143Y-90799094D01*
X118528495Y-90895785D01*
X118625186Y-90975137D01*
X118735500Y-91034102D01*
X118855198Y-91070412D01*
X118979680Y-91082672D01*
X122279680Y-91082672D01*
X122404162Y-91070412D01*
X122523860Y-91034102D01*
X122634174Y-90975137D01*
X122730865Y-90895785D01*
X122810217Y-90799094D01*
X122869182Y-90688780D01*
X122905492Y-90569082D01*
X122917752Y-90444600D01*
X122917752Y-88794172D01*
X133769300Y-88794172D01*
X133769300Y-89234428D01*
X133855190Y-89666225D01*
X134023669Y-90072969D01*
X134268262Y-90439029D01*
X134579571Y-90750338D01*
X134945631Y-90994931D01*
X135352375Y-91163410D01*
X135784172Y-91249300D01*
X136224428Y-91249300D01*
X136656225Y-91163410D01*
X137062969Y-90994931D01*
X137429029Y-90750338D01*
X137740338Y-90439029D01*
X137984931Y-90072969D01*
X138153410Y-89666225D01*
X138239300Y-89234428D01*
X138239300Y-88794172D01*
X138153410Y-88362375D01*
X137998778Y-87989059D01*
X141491586Y-87989059D01*
X141707708Y-88355818D01*
X142167585Y-88596498D01*
X142665578Y-88742835D01*
X143182551Y-88789208D01*
X143698639Y-88733833D01*
X144194006Y-88578839D01*
X144611252Y-88355818D01*
X144827374Y-87989059D01*
X143159480Y-86321165D01*
X141491586Y-87989059D01*
X137998778Y-87989059D01*
X137984931Y-87955631D01*
X137740338Y-87589571D01*
X137429029Y-87278262D01*
X137062969Y-87033669D01*
X136656225Y-86865190D01*
X136224428Y-86779300D01*
X135784172Y-86779300D01*
X135352375Y-86865190D01*
X134945631Y-87033669D01*
X134579571Y-87278262D01*
X134268262Y-87589571D01*
X134023669Y-87955631D01*
X133855190Y-88362375D01*
X133769300Y-88794172D01*
X122917752Y-88794172D01*
X122917752Y-86164631D01*
X140511832Y-86164631D01*
X140567207Y-86680719D01*
X140722201Y-87176086D01*
X140945222Y-87593332D01*
X141311981Y-87809454D01*
X142979875Y-86141560D01*
X143339085Y-86141560D01*
X145006979Y-87809454D01*
X145373738Y-87593332D01*
X145614418Y-87133455D01*
X145760755Y-86635462D01*
X145807128Y-86118489D01*
X145751753Y-85602401D01*
X145596759Y-85107034D01*
X145373738Y-84689788D01*
X145006979Y-84473666D01*
X143339085Y-86141560D01*
X142979875Y-86141560D01*
X141311981Y-84473666D01*
X140945222Y-84689788D01*
X140704542Y-85149665D01*
X140558205Y-85647658D01*
X140511832Y-86164631D01*
X122917752Y-86164631D01*
X122917752Y-85944600D01*
X122905492Y-85820118D01*
X122869182Y-85700420D01*
X122810217Y-85590106D01*
X122730865Y-85493415D01*
X122634174Y-85414063D01*
X122523860Y-85355098D01*
X122404162Y-85318788D01*
X122279680Y-85306528D01*
X118979680Y-85306528D01*
X118855198Y-85318788D01*
X118735500Y-85355098D01*
X118625186Y-85414063D01*
X118528495Y-85493415D01*
X118449143Y-85590106D01*
X118390178Y-85700420D01*
X118353868Y-85820118D01*
X118341608Y-85944600D01*
X118341608Y-86059600D01*
X114005032Y-86059600D01*
X114005032Y-85634480D01*
X113992772Y-85509998D01*
X113956462Y-85390300D01*
X113897497Y-85279986D01*
X113818145Y-85183295D01*
X113721454Y-85103943D01*
X113611140Y-85044978D01*
X113491442Y-85008668D01*
X113366960Y-84996408D01*
X112368011Y-84996408D01*
X111985493Y-84880372D01*
X111566960Y-84839151D01*
X111148426Y-84880372D01*
X110765908Y-84996408D01*
X109766960Y-84996408D01*
X109642478Y-85008668D01*
X109522780Y-85044978D01*
X109412466Y-85103943D01*
X109315775Y-85183295D01*
X109236423Y-85279986D01*
X109177458Y-85390300D01*
X109141148Y-85509998D01*
X109128888Y-85634480D01*
X109128888Y-86403206D01*
X107588535Y-87943560D01*
X103647811Y-87943560D01*
X103654812Y-87920482D01*
X103667072Y-87796000D01*
X103664000Y-85781750D01*
X103505250Y-85623000D01*
X102606000Y-85623000D01*
X102606000Y-85643000D01*
X102352000Y-85643000D01*
X102352000Y-85623000D01*
X102332000Y-85623000D01*
X102332000Y-85369000D01*
X102352000Y-85369000D01*
X102352000Y-82719750D01*
X102606000Y-82719750D01*
X102606000Y-85369000D01*
X103505250Y-85369000D01*
X103664000Y-85210250D01*
X103665397Y-84294061D01*
X141491586Y-84294061D01*
X143159480Y-85961955D01*
X144827374Y-84294061D01*
X144611252Y-83927302D01*
X144151375Y-83686622D01*
X143653382Y-83540285D01*
X143136409Y-83493912D01*
X142620321Y-83549287D01*
X142124954Y-83704281D01*
X141707708Y-83927302D01*
X141491586Y-84294061D01*
X103665397Y-84294061D01*
X103667072Y-83196000D01*
X103654812Y-83071518D01*
X103618502Y-82951820D01*
X103559537Y-82841506D01*
X103480185Y-82744815D01*
X103383494Y-82665463D01*
X103273180Y-82606498D01*
X103153482Y-82570188D01*
X103029000Y-82557928D01*
X102764750Y-82561000D01*
X102606000Y-82719750D01*
X102352000Y-82719750D01*
X102193250Y-82561000D01*
X101929000Y-82557928D01*
X101804518Y-82570188D01*
X101684820Y-82606498D01*
X101661138Y-82619156D01*
X101690986Y-82547098D01*
X101730760Y-82347139D01*
X101730760Y-82143261D01*
X101690986Y-81943302D01*
X101612965Y-81754944D01*
X101564440Y-81682321D01*
X104479000Y-81684072D01*
X104603482Y-81671812D01*
X104693187Y-81644600D01*
X118341608Y-81644600D01*
X118353868Y-81769082D01*
X118390178Y-81888780D01*
X118449143Y-81999094D01*
X118528495Y-82095785D01*
X118625186Y-82175137D01*
X118735500Y-82234102D01*
X118855198Y-82270412D01*
X118979680Y-82282672D01*
X120343930Y-82279600D01*
X120502680Y-82120850D01*
X120502680Y-79521600D01*
X120756680Y-79521600D01*
X120756680Y-82120850D01*
X120915430Y-82279600D01*
X122279680Y-82282672D01*
X122404162Y-82270412D01*
X122523860Y-82234102D01*
X122634174Y-82175137D01*
X122730865Y-82095785D01*
X122810217Y-81999094D01*
X122869182Y-81888780D01*
X122905492Y-81769082D01*
X122917752Y-81644600D01*
X122914680Y-79680350D01*
X122755930Y-79521600D01*
X120756680Y-79521600D01*
X120502680Y-79521600D01*
X118503430Y-79521600D01*
X118344680Y-79680350D01*
X118341608Y-81644600D01*
X104693187Y-81644600D01*
X104723180Y-81635502D01*
X104833494Y-81576537D01*
X104930185Y-81497185D01*
X105009537Y-81400494D01*
X105068502Y-81290180D01*
X105104812Y-81170482D01*
X105117072Y-81046000D01*
X105114000Y-76631750D01*
X104955250Y-76473000D01*
X99206000Y-76473000D01*
X99206000Y-81522250D01*
X99364750Y-81681000D01*
X99827777Y-81681278D01*
X99778555Y-81754944D01*
X99700534Y-81943302D01*
X99660760Y-82143261D01*
X99660760Y-82347139D01*
X99700534Y-82547098D01*
X99708253Y-82565733D01*
X99629000Y-82557928D01*
X99364750Y-82561000D01*
X99206000Y-82719750D01*
X99206000Y-85369000D01*
X99226000Y-85369000D01*
X99226000Y-85623000D01*
X99206000Y-85623000D01*
X99206000Y-85643000D01*
X98952000Y-85643000D01*
X98952000Y-85623000D01*
X98932000Y-85623000D01*
X98932000Y-85369000D01*
X98952000Y-85369000D01*
X98952000Y-82719750D01*
X98793250Y-82561000D01*
X98529000Y-82557928D01*
X98404518Y-82570188D01*
X98284820Y-82606498D01*
X98229000Y-82636335D01*
X98173180Y-82606498D01*
X98053482Y-82570188D01*
X97929000Y-82557928D01*
X96829000Y-82557928D01*
X96704518Y-82570188D01*
X96584820Y-82606498D01*
X96529000Y-82636335D01*
X96473180Y-82606498D01*
X96353482Y-82570188D01*
X96229000Y-82557928D01*
X95129000Y-82557928D01*
X95004518Y-82570188D01*
X94884820Y-82606498D01*
X94774506Y-82665463D01*
X94677815Y-82744815D01*
X94598463Y-82841506D01*
X94539498Y-82951820D01*
X94503188Y-83071518D01*
X94490928Y-83196000D01*
X94490928Y-83361000D01*
X93674675Y-83361000D01*
X93672680Y-83197530D01*
X93513930Y-83038780D01*
X92689680Y-83038780D01*
X92689680Y-83058780D01*
X92435680Y-83058780D01*
X92435680Y-83038780D01*
X92415680Y-83038780D01*
X92415680Y-82784780D01*
X92435680Y-82784780D01*
X92435680Y-81898030D01*
X92689680Y-81898030D01*
X92689680Y-82784780D01*
X93513930Y-82784780D01*
X93672680Y-82626030D01*
X93675752Y-82374280D01*
X93663492Y-82249798D01*
X93627182Y-82130100D01*
X93568217Y-82019786D01*
X93488865Y-81923095D01*
X93392174Y-81843743D01*
X93281860Y-81784778D01*
X93162162Y-81748468D01*
X93037680Y-81736208D01*
X92848430Y-81739280D01*
X92689680Y-81898030D01*
X92435680Y-81898030D01*
X92276930Y-81739280D01*
X92087680Y-81736208D01*
X91963198Y-81748468D01*
X91843500Y-81784778D01*
X91733186Y-81843743D01*
X91636495Y-81923095D01*
X91583640Y-81987499D01*
X91583640Y-81046000D01*
X93040928Y-81046000D01*
X93053188Y-81170482D01*
X93089498Y-81290180D01*
X93148463Y-81400494D01*
X93227815Y-81497185D01*
X93324506Y-81576537D01*
X93434820Y-81635502D01*
X93554518Y-81671812D01*
X93679000Y-81684072D01*
X98793250Y-81681000D01*
X98952000Y-81522250D01*
X98952000Y-76473000D01*
X93202750Y-76473000D01*
X93044000Y-76631750D01*
X93040928Y-81046000D01*
X91583640Y-81046000D01*
X91583640Y-73700703D01*
X93041343Y-72243000D01*
X93044000Y-76060250D01*
X93202750Y-76219000D01*
X98952000Y-76219000D01*
X98952000Y-71169750D01*
X99206000Y-71169750D01*
X99206000Y-76219000D01*
X104955250Y-76219000D01*
X105114000Y-76060250D01*
X105117072Y-71646000D01*
X105104812Y-71521518D01*
X105068502Y-71401820D01*
X105009537Y-71291506D01*
X104930185Y-71194815D01*
X104833494Y-71115463D01*
X104723180Y-71056498D01*
X104603482Y-71020188D01*
X104479000Y-71007928D01*
X99364750Y-71011000D01*
X99206000Y-71169750D01*
X98952000Y-71169750D01*
X98793250Y-71011000D01*
X96293037Y-71009498D01*
X96655241Y-70815897D01*
X96980337Y-70549097D01*
X97047197Y-70467628D01*
X100040866Y-67473960D01*
X100114842Y-67473960D01*
X100428493Y-67443068D01*
X100830942Y-67320986D01*
X100923651Y-67271432D01*
X102204800Y-67271432D01*
X102329282Y-67259172D01*
X102362682Y-67249040D01*
X121378091Y-67249040D01*
X121472930Y-67513881D01*
X121617615Y-67755131D01*
X121806586Y-67963519D01*
X122032580Y-68131037D01*
X122286913Y-68251246D01*
X122420961Y-68291904D01*
X122643000Y-68169915D01*
X122643000Y-67027000D01*
X121499376Y-67027000D01*
X121378091Y-67249040D01*
X102362682Y-67249040D01*
X102448980Y-67222862D01*
X102559294Y-67163897D01*
X102655985Y-67084545D01*
X102735337Y-66987854D01*
X102794302Y-66877540D01*
X102830612Y-66757842D01*
X102842872Y-66633360D01*
X102842872Y-66600200D01*
X105205002Y-66600200D01*
X105518653Y-66569308D01*
X105921102Y-66447226D01*
X106292001Y-66248977D01*
X106576605Y-66015408D01*
X106632414Y-65985577D01*
X106729105Y-65906225D01*
X106808457Y-65809534D01*
X106867422Y-65699220D01*
X106878040Y-65664218D01*
X106883897Y-65657081D01*
X106919510Y-65590453D01*
X109322112Y-65590453D01*
X109417876Y-65854854D01*
X109707491Y-65995744D01*
X110019028Y-66077424D01*
X110340515Y-66096758D01*
X110659595Y-66053001D01*
X110964008Y-65947835D01*
X111137964Y-65854854D01*
X111233728Y-65590453D01*
X110277920Y-64634645D01*
X109322112Y-65590453D01*
X106919510Y-65590453D01*
X107082146Y-65286182D01*
X107204228Y-64883733D01*
X107240285Y-64517635D01*
X108636202Y-64517635D01*
X108679959Y-64836715D01*
X108785125Y-65141128D01*
X108878106Y-65315084D01*
X109142507Y-65410848D01*
X110098315Y-64455040D01*
X110457525Y-64455040D01*
X111413333Y-65410848D01*
X111677734Y-65315084D01*
X111818624Y-65025469D01*
X111900304Y-64713932D01*
X111919638Y-64392445D01*
X111875881Y-64073365D01*
X111770715Y-63768952D01*
X111677734Y-63594996D01*
X111413333Y-63499232D01*
X110457525Y-64455040D01*
X110098315Y-64455040D01*
X109142507Y-63499232D01*
X108878106Y-63594996D01*
X108737216Y-63884611D01*
X108655536Y-64196148D01*
X108636202Y-64517635D01*
X107240285Y-64517635D01*
X107245450Y-64465200D01*
X107204228Y-64046667D01*
X107082146Y-63644218D01*
X106908649Y-63319627D01*
X109322112Y-63319627D01*
X110277920Y-64275435D01*
X111233728Y-63319627D01*
X111137964Y-63055226D01*
X110848349Y-62914336D01*
X110536812Y-62832656D01*
X110215325Y-62813322D01*
X109896245Y-62857079D01*
X109591832Y-62962245D01*
X109417876Y-63055226D01*
X109322112Y-63319627D01*
X106908649Y-63319627D01*
X106889612Y-63284012D01*
X106867422Y-63210860D01*
X106808457Y-63100546D01*
X106729105Y-63003855D01*
X106632414Y-62924503D01*
X106522100Y-62865538D01*
X106512971Y-62862769D01*
X106292001Y-62681423D01*
X105921102Y-62483174D01*
X105518653Y-62361092D01*
X105205002Y-62330200D01*
X101404040Y-62330200D01*
X101404040Y-61435214D01*
X101439512Y-61368851D01*
X101490048Y-61202255D01*
X101507112Y-61029001D01*
X101507112Y-60128999D01*
X101506987Y-60127720D01*
X110804068Y-60127720D01*
X110816328Y-60252202D01*
X110852638Y-60371900D01*
X110911603Y-60482214D01*
X110990955Y-60578905D01*
X111087646Y-60658257D01*
X111197960Y-60717222D01*
X111317658Y-60753532D01*
X111442140Y-60765792D01*
X111818890Y-60762720D01*
X111977640Y-60603970D01*
X111977640Y-59354720D01*
X110965890Y-59354720D01*
X110807140Y-59513470D01*
X110804068Y-60127720D01*
X101506987Y-60127720D01*
X101490048Y-59955745D01*
X101439512Y-59789149D01*
X101357445Y-59635613D01*
X101247002Y-59501038D01*
X101112427Y-59390595D01*
X100958891Y-59308528D01*
X100792295Y-59257992D01*
X100619041Y-59240928D01*
X99919039Y-59240928D01*
X99745785Y-59257992D01*
X99579189Y-59308528D01*
X99425653Y-59390595D01*
X99291078Y-59501038D01*
X99269040Y-59527891D01*
X99247002Y-59501038D01*
X99112427Y-59390595D01*
X98958891Y-59308528D01*
X98792295Y-59257992D01*
X98665515Y-59245505D01*
X98683914Y-59235671D01*
X98755497Y-58991702D01*
X97942400Y-58178605D01*
X97129303Y-58991702D01*
X97200886Y-59235671D01*
X97456396Y-59356571D01*
X97478800Y-59362187D01*
X97425653Y-59390595D01*
X97360579Y-59444000D01*
X96054800Y-59444000D01*
X96054800Y-58993901D01*
X96060290Y-58938159D01*
X96054800Y-58882417D01*
X96054800Y-58882408D01*
X96038377Y-58715661D01*
X95973476Y-58501713D01*
X95868084Y-58304537D01*
X95726249Y-58131711D01*
X95682940Y-58096168D01*
X95656284Y-58069512D01*
X96502183Y-58069512D01*
X96543613Y-58349130D01*
X96638797Y-58615292D01*
X96705729Y-58740514D01*
X96949698Y-58812097D01*
X97762795Y-57999000D01*
X98122005Y-57999000D01*
X98935102Y-58812097D01*
X99179071Y-58740514D01*
X99299971Y-58485004D01*
X99339396Y-58327720D01*
X110804068Y-58327720D01*
X110807140Y-58941970D01*
X110965890Y-59100720D01*
X111977640Y-59100720D01*
X111977640Y-57851470D01*
X111818890Y-57692720D01*
X111442140Y-57689648D01*
X111317658Y-57701908D01*
X111197960Y-57738218D01*
X111087646Y-57797183D01*
X110990955Y-57876535D01*
X110911603Y-57973226D01*
X110852638Y-58083540D01*
X110816328Y-58203238D01*
X110804068Y-58327720D01*
X99339396Y-58327720D01*
X99368700Y-58210816D01*
X99382617Y-57928488D01*
X99341187Y-57648870D01*
X99246003Y-57382708D01*
X99179071Y-57257486D01*
X98935102Y-57185903D01*
X98122005Y-57999000D01*
X97762795Y-57999000D01*
X96949698Y-57185903D01*
X96705729Y-57257486D01*
X96584829Y-57512996D01*
X96516100Y-57787184D01*
X96502183Y-58069512D01*
X95656284Y-58069512D01*
X94534916Y-56948145D01*
X94499369Y-56904831D01*
X94326543Y-56762996D01*
X94129367Y-56657604D01*
X93915419Y-56592703D01*
X93748672Y-56576280D01*
X93748671Y-56576280D01*
X93692920Y-56570789D01*
X93637169Y-56576280D01*
X91767892Y-56576280D01*
X89128163Y-53936552D01*
X90539080Y-53936552D01*
X90663562Y-53924292D01*
X90783260Y-53887982D01*
X90893574Y-53829017D01*
X90990265Y-53749665D01*
X91069617Y-53652974D01*
X91128582Y-53542660D01*
X91164892Y-53422962D01*
X91177152Y-53298480D01*
X91177152Y-51298480D01*
X91164892Y-51173998D01*
X91128582Y-51054300D01*
X91069617Y-50943986D01*
X90990265Y-50847295D01*
X90893574Y-50767943D01*
X90783260Y-50708978D01*
X90663562Y-50672668D01*
X90539080Y-50660408D01*
X85239080Y-50660408D01*
X85114598Y-50672668D01*
X84994900Y-50708978D01*
X84884586Y-50767943D01*
X84787895Y-50847295D01*
X84708543Y-50943986D01*
X84649578Y-51054300D01*
X84613268Y-51173998D01*
X84601008Y-51298480D01*
X84601008Y-53298480D01*
X84613268Y-53422962D01*
X84649578Y-53542660D01*
X84708543Y-53652974D01*
X84787895Y-53749665D01*
X84884586Y-53829017D01*
X84994900Y-53887982D01*
X85114598Y-53924292D01*
X85239080Y-53936552D01*
X86754081Y-53936552D01*
X86754081Y-54246839D01*
X86748589Y-54302600D01*
X86770503Y-54525098D01*
X86835404Y-54739046D01*
X86868419Y-54800812D01*
X86940797Y-54936223D01*
X87082632Y-55109049D01*
X87125940Y-55144591D01*
X90455769Y-58474421D01*
X90491311Y-58517729D01*
X90664137Y-58659564D01*
X90861313Y-58764956D01*
X91075261Y-58829857D01*
X91242008Y-58846280D01*
X91242017Y-58846280D01*
X91297759Y-58851770D01*
X91353501Y-58846280D01*
X93222789Y-58846280D01*
X93784800Y-59408292D01*
X93784800Y-59605180D01*
X93711980Y-59598008D01*
X93460230Y-59601080D01*
X93301480Y-59759830D01*
X93301480Y-60584080D01*
X93321480Y-60584080D01*
X93321480Y-60838080D01*
X93301480Y-60838080D01*
X93301480Y-61662330D01*
X93460230Y-61821080D01*
X93711980Y-61824152D01*
X93836462Y-61811892D01*
X93956160Y-61775582D01*
X94066474Y-61716617D01*
X94114374Y-61677306D01*
X94264413Y-61757503D01*
X94428664Y-61807328D01*
X94599480Y-61824152D01*
X94658834Y-61824152D01*
X94676981Y-61829657D01*
X94899480Y-61851571D01*
X95121978Y-61829657D01*
X95140125Y-61824152D01*
X95199480Y-61824152D01*
X95370296Y-61807328D01*
X95534547Y-61757503D01*
X95615936Y-61714000D01*
X97360579Y-61714000D01*
X97425653Y-61767405D01*
X97579189Y-61849472D01*
X97745785Y-61900008D01*
X97919039Y-61917072D01*
X98619041Y-61917072D01*
X98792295Y-61900008D01*
X98958891Y-61849472D01*
X99112427Y-61767405D01*
X99134040Y-61749667D01*
X99134041Y-62695288D01*
X97704800Y-62695288D01*
X97580318Y-62707548D01*
X97460620Y-62743858D01*
X97350306Y-62802823D01*
X97253615Y-62882175D01*
X97174263Y-62978866D01*
X97115298Y-63089180D01*
X97078988Y-63208878D01*
X97066728Y-63333360D01*
X97066728Y-64409406D01*
X94579015Y-66897120D01*
X93983836Y-66897120D01*
X93994302Y-66877540D01*
X94030612Y-66757842D01*
X94042872Y-66633360D01*
X94042872Y-63333360D01*
X94030612Y-63208878D01*
X93994302Y-63089180D01*
X93935337Y-62978866D01*
X93855985Y-62882175D01*
X93759294Y-62802823D01*
X93648980Y-62743858D01*
X93529282Y-62707548D01*
X93404800Y-62695288D01*
X88904800Y-62695288D01*
X88780318Y-62707548D01*
X88660620Y-62743858D01*
X88550306Y-62802823D01*
X88494819Y-62848360D01*
X86480674Y-62848360D01*
X86163853Y-62752253D01*
X85782105Y-62714654D01*
X85497921Y-62596941D01*
X84988845Y-62495680D01*
X84469795Y-62495680D01*
X83960719Y-62596941D01*
X83481179Y-62795573D01*
X83049605Y-63083942D01*
X82826551Y-63306996D01*
X82828756Y-61186080D01*
X91998908Y-61186080D01*
X92011168Y-61310562D01*
X92047478Y-61430260D01*
X92106443Y-61540574D01*
X92185795Y-61637265D01*
X92282486Y-61716617D01*
X92392800Y-61775582D01*
X92512498Y-61811892D01*
X92636980Y-61824152D01*
X92888730Y-61821080D01*
X93047480Y-61662330D01*
X93047480Y-60838080D01*
X92160730Y-60838080D01*
X92001980Y-60996830D01*
X91998908Y-61186080D01*
X82828756Y-61186080D01*
X82829744Y-60236080D01*
X91998908Y-60236080D01*
X92001980Y-60425330D01*
X92160730Y-60584080D01*
X93047480Y-60584080D01*
X93047480Y-59759830D01*
X92888730Y-59601080D01*
X92636980Y-59598008D01*
X92512498Y-59610268D01*
X92392800Y-59646578D01*
X92282486Y-59705543D01*
X92185795Y-59784895D01*
X92106443Y-59881586D01*
X92047478Y-59991900D01*
X92011168Y-60111598D01*
X91998908Y-60236080D01*
X82829744Y-60236080D01*
X82847186Y-43467872D01*
X83490000Y-43467872D01*
X83490000Y-43908128D01*
X83575890Y-44339925D01*
X83744369Y-44746669D01*
X83988962Y-45112729D01*
X84300271Y-45424038D01*
X84666331Y-45668631D01*
X85073075Y-45837110D01*
X85504872Y-45923000D01*
X85945128Y-45923000D01*
X86376925Y-45837110D01*
X86783669Y-45668631D01*
X87149729Y-45424038D01*
X87461038Y-45112729D01*
X87705631Y-44746669D01*
X87874110Y-44339925D01*
X87960000Y-43908128D01*
X87960000Y-43467872D01*
X87874110Y-43036075D01*
X87705631Y-42629331D01*
X87461038Y-42263271D01*
X87149729Y-41951962D01*
X86783669Y-41707369D01*
X86376925Y-41538890D01*
X85945128Y-41453000D01*
X85504872Y-41453000D01*
X85073075Y-41538890D01*
X84666331Y-41707369D01*
X84300271Y-41951962D01*
X83988962Y-42263271D01*
X83744369Y-42629331D01*
X83575890Y-43036075D01*
X83490000Y-43467872D01*
X82847186Y-43467872D01*
X82849315Y-41421793D01*
X82856201Y-40882440D01*
X100830621Y-40854829D01*
X100832380Y-44740000D01*
G37*
%TD.AperFunction*%
D41*
X135995529Y-80308559D02*
X136789279Y-80308559D01*
X136789279Y-80288559D01*
X137043279Y-80288559D01*
X137043279Y-80308559D01*
X137063279Y-80308559D01*
X137063279Y-80515000D01*
X137048061Y-80515000D01*
X136848102Y-80554774D01*
X136789279Y-80579139D01*
X136789279Y-80562559D01*
X135995529Y-80562559D01*
X135836779Y-80721309D01*
X135833707Y-80841959D01*
X135841794Y-80924073D01*
X135800001Y-80882280D01*
X135800001Y-80361006D01*
X135825274Y-80347497D01*
X135921965Y-80268145D01*
X135936907Y-80249937D01*
X135995529Y-80308559D01*
%TA.AperFunction,Conductor*%
D42*
G36*
X135995529Y-80308559D02*
G01*
X136789279Y-80308559D01*
X136789279Y-80288559D01*
X137043279Y-80288559D01*
X137043279Y-80308559D01*
X137063279Y-80308559D01*
X137063279Y-80515000D01*
X137048061Y-80515000D01*
X136848102Y-80554774D01*
X136789279Y-80579139D01*
X136789279Y-80562559D01*
X135995529Y-80562559D01*
X135836779Y-80721309D01*
X135833707Y-80841959D01*
X135841794Y-80924073D01*
X135800001Y-80882280D01*
X135800001Y-80361006D01*
X135825274Y-80347497D01*
X135921965Y-80268145D01*
X135936907Y-80249937D01*
X135995529Y-80308559D01*
G37*
%TD.AperFunction*%
D41*
X133267760Y-75111240D02*
X133287760Y-75111240D01*
X133287760Y-75137990D01*
X133267760Y-75157990D01*
X133267760Y-75331240D01*
X133013760Y-75331240D01*
X133013760Y-75157990D01*
X132993760Y-75137990D01*
X132993760Y-75111240D01*
X133013760Y-75111240D01*
X133013760Y-75037240D01*
X133267760Y-75037240D01*
X133267760Y-75111240D01*
%TA.AperFunction,Conductor*%
D42*
G36*
X133267760Y-75111240D02*
G01*
X133287760Y-75111240D01*
X133287760Y-75137990D01*
X133267760Y-75157990D01*
X133267760Y-75331240D01*
X133013760Y-75331240D01*
X133013760Y-75157990D01*
X132993760Y-75137990D01*
X132993760Y-75111240D01*
X133013760Y-75111240D01*
X133013760Y-75037240D01*
X133267760Y-75037240D01*
X133267760Y-75111240D01*
G37*
%TD.AperFunction*%
D41*
X135571924Y-70140924D02*
X135476604Y-70150312D01*
X135312353Y-70200137D01*
X135160978Y-70281048D01*
X135028297Y-70389937D01*
X134919408Y-70522618D01*
X134838497Y-70673993D01*
X134788672Y-70838244D01*
X134771848Y-71009060D01*
X134771848Y-71344073D01*
X134406006Y-71709916D01*
X134385050Y-71688960D01*
X133629400Y-71688960D01*
X133629400Y-71708960D01*
X133375400Y-71708960D01*
X133375400Y-71688960D01*
X133355400Y-71688960D01*
X133355400Y-71434960D01*
X133375400Y-71434960D01*
X133375400Y-71425549D01*
X133410306Y-71414960D01*
X133629400Y-71414960D01*
X133629400Y-71434960D01*
X134385050Y-71434960D01*
X134543800Y-71276210D01*
X134546872Y-71117460D01*
X134534612Y-70992978D01*
X134498302Y-70873280D01*
X134439337Y-70762966D01*
X134359985Y-70666275D01*
X134340937Y-70650642D01*
X134375050Y-70616529D01*
X134408817Y-70588817D01*
X134489143Y-70490941D01*
X134498624Y-70479388D01*
X134519411Y-70454059D01*
X134601589Y-70300313D01*
X134652195Y-70133490D01*
X134654016Y-70115000D01*
X135558068Y-70115000D01*
X135571924Y-70140924D01*
%TA.AperFunction,Conductor*%
D42*
G36*
X135571924Y-70140924D02*
G01*
X135476604Y-70150312D01*
X135312353Y-70200137D01*
X135160978Y-70281048D01*
X135028297Y-70389937D01*
X134919408Y-70522618D01*
X134838497Y-70673993D01*
X134788672Y-70838244D01*
X134771848Y-71009060D01*
X134771848Y-71344073D01*
X134406006Y-71709916D01*
X134385050Y-71688960D01*
X133629400Y-71688960D01*
X133629400Y-71708960D01*
X133375400Y-71708960D01*
X133375400Y-71688960D01*
X133355400Y-71688960D01*
X133355400Y-71434960D01*
X133375400Y-71434960D01*
X133375400Y-71425549D01*
X133410306Y-71414960D01*
X133629400Y-71414960D01*
X133629400Y-71434960D01*
X134385050Y-71434960D01*
X134543800Y-71276210D01*
X134546872Y-71117460D01*
X134534612Y-70992978D01*
X134498302Y-70873280D01*
X134439337Y-70762966D01*
X134359985Y-70666275D01*
X134340937Y-70650642D01*
X134375050Y-70616529D01*
X134408817Y-70588817D01*
X134489143Y-70490941D01*
X134498624Y-70479388D01*
X134519411Y-70454059D01*
X134601589Y-70300313D01*
X134652195Y-70133490D01*
X134654016Y-70115000D01*
X135558068Y-70115000D01*
X135571924Y-70140924D01*
G37*
%TD.AperFunction*%
D41*
X128251797Y-65991237D02*
X128130615Y-66124870D01*
X127985930Y-66366120D01*
X127891091Y-66630961D01*
X128012376Y-66853001D01*
X129156000Y-66853001D01*
X129156000Y-66833001D01*
X129410000Y-66833001D01*
X129410000Y-66853001D01*
X129430000Y-66853001D01*
X129430000Y-67107001D01*
X129410000Y-67107001D01*
X129410000Y-68249916D01*
X129632039Y-68371905D01*
X129766087Y-68331247D01*
X130020420Y-68211038D01*
X130246414Y-68043520D01*
X130435385Y-67835132D01*
X130546933Y-67649136D01*
X130551320Y-67659728D01*
X130708363Y-67894760D01*
X130908241Y-68094638D01*
X130938001Y-68114523D01*
X130938001Y-68578999D01*
X130896077Y-68657433D01*
X130846252Y-68821684D01*
X130829428Y-68992500D01*
X130829428Y-69467500D01*
X130846252Y-69638316D01*
X130857380Y-69675000D01*
X128766579Y-69675000D01*
X128264093Y-69172515D01*
X128265572Y-69157500D01*
X128265572Y-68682500D01*
X128248748Y-68511684D01*
X128198923Y-68347433D01*
X128118012Y-68196058D01*
X128009123Y-68063377D01*
X127876442Y-67954488D01*
X127725067Y-67873577D01*
X127560816Y-67823752D01*
X127390000Y-67806928D01*
X126890000Y-67806928D01*
X126719184Y-67823752D01*
X126554933Y-67873577D01*
X126445000Y-67932337D01*
X126445000Y-67784284D01*
X126581680Y-67579727D01*
X126685517Y-67329041D01*
X127891091Y-67329041D01*
X127985930Y-67593882D01*
X128130615Y-67835132D01*
X128319586Y-68043520D01*
X128545580Y-68211038D01*
X128799913Y-68331247D01*
X128933961Y-68371905D01*
X129156000Y-68249916D01*
X129156000Y-67107001D01*
X128012376Y-67107001D01*
X127891091Y-67329041D01*
X126685517Y-67329041D01*
X126689853Y-67318574D01*
X126745000Y-67041335D01*
X126745000Y-66758665D01*
X126689853Y-66481426D01*
X126581680Y-66220273D01*
X126424637Y-65985241D01*
X126422527Y-65983131D01*
X128251797Y-65991237D01*
%TA.AperFunction,Conductor*%
D42*
G36*
X128251797Y-65991237D02*
G01*
X128130615Y-66124870D01*
X127985930Y-66366120D01*
X127891091Y-66630961D01*
X128012376Y-66853001D01*
X129156000Y-66853001D01*
X129156000Y-66833001D01*
X129410000Y-66833001D01*
X129410000Y-66853001D01*
X129430000Y-66853001D01*
X129430000Y-67107001D01*
X129410000Y-67107001D01*
X129410000Y-68249916D01*
X129632039Y-68371905D01*
X129766087Y-68331247D01*
X130020420Y-68211038D01*
X130246414Y-68043520D01*
X130435385Y-67835132D01*
X130546933Y-67649136D01*
X130551320Y-67659728D01*
X130708363Y-67894760D01*
X130908241Y-68094638D01*
X130938001Y-68114523D01*
X130938001Y-68578999D01*
X130896077Y-68657433D01*
X130846252Y-68821684D01*
X130829428Y-68992500D01*
X130829428Y-69467500D01*
X130846252Y-69638316D01*
X130857380Y-69675000D01*
X128766579Y-69675000D01*
X128264093Y-69172515D01*
X128265572Y-69157500D01*
X128265572Y-68682500D01*
X128248748Y-68511684D01*
X128198923Y-68347433D01*
X128118012Y-68196058D01*
X128009123Y-68063377D01*
X127876442Y-67954488D01*
X127725067Y-67873577D01*
X127560816Y-67823752D01*
X127390000Y-67806928D01*
X126890000Y-67806928D01*
X126719184Y-67823752D01*
X126554933Y-67873577D01*
X126445000Y-67932337D01*
X126445000Y-67784284D01*
X126581680Y-67579727D01*
X126685517Y-67329041D01*
X127891091Y-67329041D01*
X127985930Y-67593882D01*
X128130615Y-67835132D01*
X128319586Y-68043520D01*
X128545580Y-68211038D01*
X128799913Y-68331247D01*
X128933961Y-68371905D01*
X129156000Y-68249916D01*
X129156000Y-67107001D01*
X128012376Y-67107001D01*
X127891091Y-67329041D01*
X126685517Y-67329041D01*
X126689853Y-67318574D01*
X126745000Y-67041335D01*
X126745000Y-66758665D01*
X126689853Y-66481426D01*
X126581680Y-66220273D01*
X126424637Y-65985241D01*
X126422527Y-65983131D01*
X128251797Y-65991237D01*
G37*
%TD.AperFunction*%
D41*
X134884416Y-66020628D02*
X134753615Y-66164869D01*
X134608930Y-66406119D01*
X134514091Y-66670960D01*
X134635376Y-66893000D01*
X135779000Y-66893000D01*
X135779000Y-66873000D01*
X136033000Y-66873000D01*
X136033000Y-66893000D01*
X136053000Y-66893000D01*
X136053000Y-67147000D01*
X136033000Y-67147000D01*
X136033000Y-67167000D01*
X135779000Y-67167000D01*
X135779000Y-67147000D01*
X134635376Y-67147000D01*
X134514091Y-67369040D01*
X134608930Y-67633881D01*
X134753615Y-67875131D01*
X134942586Y-68083519D01*
X135168580Y-68251037D01*
X135367383Y-68345000D01*
X134614546Y-68345000D01*
X134516442Y-68264488D01*
X134365067Y-68183577D01*
X134200816Y-68133752D01*
X134030000Y-68116928D01*
X133530000Y-68116928D01*
X133359184Y-68133752D01*
X133194933Y-68183577D01*
X133043558Y-68264488D01*
X132910877Y-68373377D01*
X132867500Y-68426232D01*
X132824123Y-68373377D01*
X132708000Y-68278077D01*
X132708000Y-68114522D01*
X132737759Y-68094638D01*
X132937637Y-67894760D01*
X133094680Y-67659728D01*
X133202853Y-67398575D01*
X133258000Y-67121336D01*
X133258000Y-66838666D01*
X133202853Y-66561427D01*
X133094680Y-66300274D01*
X132937637Y-66065242D01*
X132884159Y-66011764D01*
X134884416Y-66020628D01*
%TA.AperFunction,Conductor*%
D42*
G36*
X134884416Y-66020628D02*
G01*
X134753615Y-66164869D01*
X134608930Y-66406119D01*
X134514091Y-66670960D01*
X134635376Y-66893000D01*
X135779000Y-66893000D01*
X135779000Y-66873000D01*
X136033000Y-66873000D01*
X136033000Y-66893000D01*
X136053000Y-66893000D01*
X136053000Y-67147000D01*
X136033000Y-67147000D01*
X136033000Y-67167000D01*
X135779000Y-67167000D01*
X135779000Y-67147000D01*
X134635376Y-67147000D01*
X134514091Y-67369040D01*
X134608930Y-67633881D01*
X134753615Y-67875131D01*
X134942586Y-68083519D01*
X135168580Y-68251037D01*
X135367383Y-68345000D01*
X134614546Y-68345000D01*
X134516442Y-68264488D01*
X134365067Y-68183577D01*
X134200816Y-68133752D01*
X134030000Y-68116928D01*
X133530000Y-68116928D01*
X133359184Y-68133752D01*
X133194933Y-68183577D01*
X133043558Y-68264488D01*
X132910877Y-68373377D01*
X132867500Y-68426232D01*
X132824123Y-68373377D01*
X132708000Y-68278077D01*
X132708000Y-68114522D01*
X132737759Y-68094638D01*
X132937637Y-67894760D01*
X133094680Y-67659728D01*
X133202853Y-67398575D01*
X133258000Y-67121336D01*
X133258000Y-66838666D01*
X133202853Y-66561427D01*
X133094680Y-66300274D01*
X132937637Y-66065242D01*
X132884159Y-66011764D01*
X134884416Y-66020628D01*
G37*
%TD.AperFunction*%
D41*
X94477000Y-49185500D02*
X94497000Y-49185500D01*
X94497000Y-49439500D01*
X94477000Y-49439500D01*
X94477000Y-49459500D01*
X94223000Y-49459500D01*
X94223000Y-49439500D01*
X94203000Y-49439500D01*
X94203000Y-49185500D01*
X94223000Y-49185500D01*
X94223000Y-49165500D01*
X94477000Y-49165500D01*
X94477000Y-49185500D01*
%TA.AperFunction,Conductor*%
D42*
G36*
X94477000Y-49185500D02*
G01*
X94497000Y-49185500D01*
X94497000Y-49439500D01*
X94477000Y-49439500D01*
X94477000Y-49459500D01*
X94223000Y-49459500D01*
X94223000Y-49439500D01*
X94203000Y-49439500D01*
X94203000Y-49185500D01*
X94223000Y-49185500D01*
X94223000Y-49165500D01*
X94477000Y-49165500D01*
X94477000Y-49185500D01*
G37*
%TD.AperFunction*%
D41*
X96515000Y-45034132D02*
X96515000Y-45034664D01*
X96410067Y-44978577D01*
X96245816Y-44928752D01*
X96075000Y-44911928D01*
X95575000Y-44911928D01*
X95404184Y-44928752D01*
X95239933Y-44978577D01*
X95088558Y-45059488D01*
X94990112Y-45140281D01*
X94862950Y-45152805D01*
X94696127Y-45203411D01*
X94625097Y-45241377D01*
X94542381Y-45285589D01*
X94441393Y-45368468D01*
X94441391Y-45368470D01*
X94407623Y-45396183D01*
X94379910Y-45429951D01*
X93754951Y-46054911D01*
X93721184Y-46082623D01*
X93693471Y-46116391D01*
X93693468Y-46116394D01*
X93616239Y-46210498D01*
X93610590Y-46217381D01*
X93528412Y-46371127D01*
X93477805Y-46537950D01*
X93466680Y-46650907D01*
X93384488Y-46751058D01*
X93303577Y-46902433D01*
X93253752Y-47066684D01*
X93236928Y-47237500D01*
X93236928Y-47737500D01*
X93253752Y-47908316D01*
X93303577Y-48072567D01*
X93384488Y-48223942D01*
X93473812Y-48332783D01*
X93423815Y-48373815D01*
X93344463Y-48470506D01*
X93285498Y-48580820D01*
X93249188Y-48700518D01*
X93236928Y-48825000D01*
X93238777Y-48946405D01*
X92327716Y-48035345D01*
X92292169Y-47992031D01*
X92119343Y-47850196D01*
X91922167Y-47744804D01*
X91708219Y-47679903D01*
X91541472Y-47663480D01*
X91541471Y-47663480D01*
X91485720Y-47657989D01*
X91429969Y-47663480D01*
X91161701Y-47663480D01*
X91128582Y-47554300D01*
X91069617Y-47443986D01*
X90990265Y-47347295D01*
X90893574Y-47267943D01*
X90783260Y-47208978D01*
X90663562Y-47172668D01*
X90539080Y-47160408D01*
X89435563Y-47160408D01*
X92565452Y-44030520D01*
X95511389Y-44030520D01*
X96515000Y-45034132D01*
%TA.AperFunction,Conductor*%
D42*
G36*
X96515000Y-45034132D02*
G01*
X96515000Y-45034664D01*
X96410067Y-44978577D01*
X96245816Y-44928752D01*
X96075000Y-44911928D01*
X95575000Y-44911928D01*
X95404184Y-44928752D01*
X95239933Y-44978577D01*
X95088558Y-45059488D01*
X94990112Y-45140281D01*
X94862950Y-45152805D01*
X94696127Y-45203411D01*
X94625097Y-45241377D01*
X94542381Y-45285589D01*
X94441393Y-45368468D01*
X94441391Y-45368470D01*
X94407623Y-45396183D01*
X94379910Y-45429951D01*
X93754951Y-46054911D01*
X93721184Y-46082623D01*
X93693471Y-46116391D01*
X93693468Y-46116394D01*
X93616239Y-46210498D01*
X93610590Y-46217381D01*
X93528412Y-46371127D01*
X93477805Y-46537950D01*
X93466680Y-46650907D01*
X93384488Y-46751058D01*
X93303577Y-46902433D01*
X93253752Y-47066684D01*
X93236928Y-47237500D01*
X93236928Y-47737500D01*
X93253752Y-47908316D01*
X93303577Y-48072567D01*
X93384488Y-48223942D01*
X93473812Y-48332783D01*
X93423815Y-48373815D01*
X93344463Y-48470506D01*
X93285498Y-48580820D01*
X93249188Y-48700518D01*
X93236928Y-48825000D01*
X93238777Y-48946405D01*
X92327716Y-48035345D01*
X92292169Y-47992031D01*
X92119343Y-47850196D01*
X91922167Y-47744804D01*
X91708219Y-47679903D01*
X91541472Y-47663480D01*
X91541471Y-47663480D01*
X91485720Y-47657989D01*
X91429969Y-47663480D01*
X91161701Y-47663480D01*
X91128582Y-47554300D01*
X91069617Y-47443986D01*
X90990265Y-47347295D01*
X90893574Y-47267943D01*
X90783260Y-47208978D01*
X90663562Y-47172668D01*
X90539080Y-47160408D01*
X89435563Y-47160408D01*
X92565452Y-44030520D01*
X95511389Y-44030520D01*
X96515000Y-45034132D01*
G37*
%TD.AperFunction*%
%TD*%
M02*
