M48
; DRILL file {KiCad 5.1.10} date Fri Dec 10 15:48:50 2021
; FORMAT={-:-/ absolute / metric / decimal}
; #@! TF.CreationDate,2021-12-10T15:48:50+01:00
; #@! TF.GenerationSoftware,Kicad,Pcbnew,5.1.10
; #@! TF.FileFunction,Plated,1,2,PTH
FMAT,2
METRIC
T1C0.400
T2C0.800
T3C1.000
T4C3.000
%
G90
G05
T1
X91.806Y-47.447
X92.796Y-47.483
X92.812Y-46.472
X92.812Y-48.417
X94.427Y-78.979
X94.478Y-80.101
X94.605Y-72.578
X94.62Y-73.579
X95.585Y-79.024
X95.585Y-80.101
X95.667Y-73.599
X95.677Y-72.603
X96.667Y-79.04
X96.713Y-80.137
X96.83Y-72.578
X96.891Y-73.599
X97.76Y-80.198
X97.775Y-79.055
X98.064Y-73.645
X98.08Y-72.568
X98.847Y-79.055
X98.857Y-80.228
X99.35Y-72.583
X99.365Y-73.741
X99.934Y-79.07
X99.959Y-80.206
X100.696Y-82.245
X100.808Y-72.547
X100.808Y-73.721
X101.062Y-79.055
X101.138Y-80.198
X102.184Y-79.055
X102.189Y-72.583
X102.22Y-73.675
X102.265Y-80.137
X103.475Y-72.644
X103.49Y-80.198
X103.51Y-73.675
X103.52Y-79.106
X113.249Y-77.003
X117.937Y-79.04
X117.963Y-77.582
X118.003Y-80.315
X118.049Y-81.544
X123.017Y-80.97
X123.083Y-77.5
X123.109Y-79.853
X123.22Y-78.73
X128.7Y-77.97
X128.848Y-76.918
X133.132Y-74.625
X134.485Y-70.68
X134.61Y-77.715
X134.95Y-45.35
X136.071Y-79.756
X136.2Y-49.4
X137.15Y-81.55
X138.1Y-76.55
X139.75Y-52.19
T2
X97.942Y-55.499
X97.942Y-57.999
X122.77Y-59.28
X122.77Y-66.9
X125.31Y-59.28
X125.31Y-66.9
X129.283Y-59.36
X129.283Y-66.98
X131.823Y-59.36
X131.823Y-66.98
X135.906Y-59.4
X135.906Y-67.02
X138.446Y-59.4
X138.446Y-67.02
T3
X105.278Y-64.455
X110.278Y-64.455
X114.593Y-69.865
X119.593Y-69.865
X125.705Y-71.516
X143.01Y-67.02
X143.01Y-69.56
X143.01Y-72.1
T4
X84.729Y-65.131
X84.78Y-73.467
X143.104Y-78.313
X143.159Y-86.142
X143.485Y-48.374
X143.485Y-55.905
T0
M30
