%FSLAX45Y45*%
G04 Gerber Fmt 4.5, Leading zero omitted, Abs format (unit mm)*
G04 Created by KiCad (PCBNEW 5.1.10) date 2021-12-10 15:48:50*
%MOMM*%
%LPD*%
G01*
G04 APERTURE LIST*
%TA.AperFunction,Profile*%
%ADD10C,0.050000*%
%TD*%
%ADD11C,0.200000*%
%ADD12C,0.300000*%
G04 APERTURE END LIST*
D10*
X8220456Y-4022344D02*
X8218932Y-4141724D01*
X14834616Y-4012184D02*
X8220456Y-4022344D01*
X14834108Y-4218432D02*
X14834616Y-4012184D01*
X14828520Y-9301480D02*
X14834108Y-4218432D01*
X8213852Y-9296908D02*
X14828520Y-9301480D01*
X8213852Y-9025636D02*
X8213852Y-9296908D01*
X8218932Y-4141724D02*
X8213852Y-9025636D01*
D11*
X9160576Y-4724720D02*
X9200576Y-4764720D01*
X9200576Y-4724720D02*
X9160576Y-4764720D01*
X9259636Y-4728276D02*
X9299636Y-4768276D01*
X9299636Y-4728276D02*
X9259636Y-4768276D01*
X9261160Y-4627184D02*
X9301160Y-4667184D01*
X9301160Y-4627184D02*
X9261160Y-4667184D01*
X9261160Y-4821748D02*
X9301160Y-4861748D01*
X9301160Y-4821748D02*
X9261160Y-4861748D01*
X9422704Y-7877876D02*
X9462704Y-7917876D01*
X9462704Y-7877876D02*
X9422704Y-7917876D01*
X9427784Y-7990144D02*
X9467784Y-8030144D01*
X9467784Y-7990144D02*
X9427784Y-8030144D01*
X9440484Y-7237796D02*
X9480484Y-7277796D01*
X9480484Y-7237796D02*
X9440484Y-7277796D01*
X9442008Y-7337872D02*
X9482008Y-7377872D01*
X9482008Y-7337872D02*
X9442008Y-7377872D01*
X9538528Y-7882448D02*
X9578528Y-7922448D01*
X9578528Y-7882448D02*
X9538528Y-7922448D01*
X9538528Y-7990144D02*
X9578528Y-8030144D01*
X9578528Y-7990144D02*
X9538528Y-8030144D01*
X9546656Y-7339904D02*
X9586656Y-7379904D01*
X9586656Y-7339904D02*
X9546656Y-7379904D01*
X9547672Y-7240336D02*
X9587672Y-7280336D01*
X9587672Y-7240336D02*
X9547672Y-7280336D01*
X9646732Y-7883972D02*
X9686732Y-7923972D01*
X9686732Y-7883972D02*
X9646732Y-7923972D01*
X9651304Y-7993700D02*
X9691304Y-8033700D01*
X9691304Y-7993700D02*
X9651304Y-8033700D01*
X9662988Y-7237796D02*
X9702988Y-7277796D01*
X9702988Y-7237796D02*
X9662988Y-7277796D01*
X9669084Y-7339904D02*
X9709084Y-7379904D01*
X9709084Y-7339904D02*
X9669084Y-7379904D01*
X9755952Y-7999796D02*
X9795952Y-8039796D01*
X9795952Y-7999796D02*
X9755952Y-8039796D01*
X9757476Y-7885496D02*
X9797476Y-7925496D01*
X9797476Y-7885496D02*
X9757476Y-7925496D01*
X9786432Y-7344476D02*
X9826432Y-7384476D01*
X9826432Y-7344476D02*
X9786432Y-7384476D01*
X9787956Y-7236780D02*
X9827956Y-7276780D01*
X9827956Y-7236780D02*
X9787956Y-7276780D01*
X9864664Y-7885496D02*
X9904664Y-7925496D01*
X9904664Y-7885496D02*
X9864664Y-7925496D01*
X9865680Y-8002844D02*
X9905680Y-8042844D01*
X9905680Y-8002844D02*
X9865680Y-8042844D01*
X9914956Y-7238304D02*
X9954956Y-7278304D01*
X9954956Y-7238304D02*
X9914956Y-7278304D01*
X9916480Y-7354128D02*
X9956480Y-7394128D01*
X9956480Y-7354128D02*
X9916480Y-7394128D01*
X9973376Y-7887020D02*
X10013376Y-7927020D01*
X10013376Y-7887020D02*
X9973376Y-7927020D01*
X9975916Y-8000558D02*
X10015916Y-8040558D01*
X10015916Y-8000558D02*
X9975916Y-8040558D01*
X10049576Y-8204520D02*
X10089576Y-8244520D01*
X10089576Y-8204520D02*
X10049576Y-8244520D01*
X10060752Y-7234748D02*
X10100752Y-7274748D01*
X10100752Y-7234748D02*
X10060752Y-7274748D01*
X10060752Y-7352096D02*
X10100752Y-7392096D01*
X10100752Y-7352096D02*
X10060752Y-7392096D01*
X10086152Y-7885496D02*
X10126152Y-7925496D01*
X10126152Y-7885496D02*
X10086152Y-7925496D01*
X10093772Y-7999796D02*
X10133772Y-8039796D01*
X10133772Y-7999796D02*
X10093772Y-8039796D01*
X10198420Y-7885496D02*
X10238420Y-7925496D01*
X10238420Y-7885496D02*
X10198420Y-7925496D01*
X10198928Y-7238304D02*
X10238928Y-7278304D01*
X10238928Y-7238304D02*
X10198928Y-7278304D01*
X10201976Y-7347524D02*
X10241976Y-7387524D01*
X10241976Y-7347524D02*
X10201976Y-7387524D01*
X10206548Y-7993700D02*
X10246548Y-8033700D01*
X10246548Y-7993700D02*
X10206548Y-8033700D01*
X10327452Y-7244400D02*
X10367452Y-7284400D01*
X10367452Y-7244400D02*
X10327452Y-7284400D01*
X10328976Y-7999796D02*
X10368976Y-8039796D01*
X10368976Y-7999796D02*
X10328976Y-8039796D01*
X10331008Y-7347524D02*
X10371008Y-7387524D01*
X10371008Y-7347524D02*
X10331008Y-7387524D01*
X10332024Y-7890576D02*
X10372024Y-7930576D01*
X10372024Y-7890576D02*
X10332024Y-7930576D01*
X11304862Y-7680282D02*
X11344862Y-7720282D01*
X11344862Y-7680282D02*
X11304862Y-7720282D01*
X11773728Y-7883972D02*
X11813728Y-7923972D01*
X11813728Y-7883972D02*
X11773728Y-7923972D01*
X11776268Y-7738176D02*
X11816268Y-7778176D01*
X11816268Y-7738176D02*
X11776268Y-7778176D01*
X11780332Y-8011480D02*
X11820332Y-8051480D01*
X11820332Y-8011480D02*
X11780332Y-8051480D01*
X11784904Y-8134416D02*
X11824904Y-8174416D01*
X11824904Y-8134416D02*
X11784904Y-8174416D01*
X12281728Y-8077012D02*
X12321728Y-8117012D01*
X12321728Y-8077012D02*
X12281728Y-8117012D01*
X12288332Y-7730048D02*
X12328332Y-7770048D01*
X12328332Y-7730048D02*
X12288332Y-7770048D01*
X12290872Y-7965252D02*
X12330872Y-8005252D01*
X12330872Y-7965252D02*
X12290872Y-8005252D01*
X12302048Y-7852984D02*
X12342048Y-7892984D01*
X12342048Y-7852984D02*
X12302048Y-7892984D01*
X12850000Y-7777000D02*
X12890000Y-7817000D01*
X12890000Y-7777000D02*
X12850000Y-7817000D01*
X12864765Y-7671765D02*
X12904765Y-7711765D01*
X12904765Y-7671765D02*
X12864765Y-7711765D01*
X13293156Y-7442520D02*
X13333156Y-7482520D01*
X13333156Y-7442520D02*
X13293156Y-7482520D01*
X13428456Y-7048000D02*
X13468456Y-7088000D01*
X13468456Y-7048000D02*
X13428456Y-7088000D01*
X13441000Y-7751500D02*
X13481000Y-7791500D01*
X13481000Y-7751500D02*
X13441000Y-7791500D01*
X13475000Y-4515000D02*
X13515000Y-4555000D01*
X13515000Y-4515000D02*
X13475000Y-4555000D01*
X13587078Y-7955600D02*
X13627078Y-7995600D01*
X13627078Y-7955600D02*
X13587078Y-7995600D01*
X13600000Y-4920000D02*
X13640000Y-4960000D01*
X13640000Y-4920000D02*
X13600000Y-4960000D01*
X13695000Y-8135000D02*
X13735000Y-8175000D01*
X13735000Y-8135000D02*
X13695000Y-8175000D01*
X13790000Y-7635000D02*
X13830000Y-7675000D01*
X13830000Y-7635000D02*
X13790000Y-7675000D01*
X13955000Y-5199000D02*
X13995000Y-5239000D01*
X13995000Y-5199000D02*
X13955000Y-5239000D01*
X9834240Y-5549900D02*
G75*
G03*
X9834240Y-5549900I-40000J0D01*
G01*
X9834240Y-5799900D02*
G75*
G03*
X9834240Y-5799900I-40000J0D01*
G01*
X12317000Y-5928000D02*
G75*
G03*
X12317000Y-5928000I-40000J0D01*
G01*
X12317000Y-6690000D02*
G75*
G03*
X12317000Y-6690000I-40000J0D01*
G01*
X12571000Y-5928000D02*
G75*
G03*
X12571000Y-5928000I-40000J0D01*
G01*
X12571000Y-6690000D02*
G75*
G03*
X12571000Y-6690000I-40000J0D01*
G01*
X12968300Y-5936000D02*
G75*
G03*
X12968300Y-5936000I-40000J0D01*
G01*
X12968300Y-6698000D02*
G75*
G03*
X12968300Y-6698000I-40000J0D01*
G01*
X13222300Y-5936000D02*
G75*
G03*
X13222300Y-5936000I-40000J0D01*
G01*
X13222300Y-6698000D02*
G75*
G03*
X13222300Y-6698000I-40000J0D01*
G01*
X13630600Y-5940000D02*
G75*
G03*
X13630600Y-5940000I-40000J0D01*
G01*
X13630600Y-6702000D02*
G75*
G03*
X13630600Y-6702000I-40000J0D01*
G01*
X13884600Y-5940000D02*
G75*
G03*
X13884600Y-5940000I-40000J0D01*
G01*
X13884600Y-6702000D02*
G75*
G03*
X13884600Y-6702000I-40000J0D01*
G01*
X10527792Y-6395504D02*
X10527792Y-6495504D01*
X10477792Y-6445504D02*
X10577792Y-6445504D01*
X11027792Y-6395504D02*
X11027792Y-6495504D01*
X10977792Y-6445504D02*
X11077792Y-6445504D01*
X11459336Y-6936524D02*
X11459336Y-7036524D01*
X11409336Y-6986524D02*
X11509336Y-6986524D01*
X11959336Y-6936524D02*
X11959336Y-7036524D01*
X11909336Y-6986524D02*
X12009336Y-6986524D01*
X12570460Y-7101624D02*
X12570460Y-7201624D01*
X12520460Y-7151624D02*
X12620460Y-7151624D01*
X14301000Y-6652000D02*
X14301000Y-6752000D01*
X14251000Y-6702000D02*
X14351000Y-6702000D01*
X14301000Y-6906000D02*
X14301000Y-7006000D01*
X14251000Y-6956000D02*
X14351000Y-6956000D01*
X14301000Y-7160000D02*
X14301000Y-7260000D01*
X14251000Y-7210000D02*
X14351000Y-7210000D01*
X8578999Y-6619135D02*
X8578999Y-6407001D01*
X8366865Y-6407001D01*
X8366865Y-6619135D01*
X8578999Y-6619135D01*
X8584079Y-7452763D02*
X8584079Y-7240629D01*
X8371945Y-7240629D01*
X8371945Y-7452763D01*
X8584079Y-7452763D01*
X14416427Y-7937395D02*
X14416427Y-7725261D01*
X14204293Y-7725261D01*
X14204293Y-7937395D01*
X14416427Y-7937395D01*
X14422015Y-8720223D02*
X14422015Y-8508089D01*
X14209881Y-8508089D01*
X14209881Y-8720223D01*
X14422015Y-8720223D01*
X14454527Y-4943497D02*
X14454527Y-4731363D01*
X14242393Y-4731363D01*
X14242393Y-4943497D01*
X14454527Y-4943497D01*
X14454527Y-5696607D02*
X14454527Y-5484473D01*
X14242393Y-5484473D01*
X14242393Y-5696607D01*
X14454527Y-5696607D01*
D12*
X8497780Y-9769694D02*
X8497780Y-9469694D01*
X8569209Y-9469694D01*
X8612066Y-9483980D01*
X8640638Y-9512552D01*
X8654923Y-9541123D01*
X8669209Y-9598266D01*
X8669209Y-9641123D01*
X8654923Y-9698266D01*
X8640638Y-9726837D01*
X8612066Y-9755409D01*
X8569209Y-9769694D01*
X8497780Y-9769694D01*
X8797780Y-9769694D02*
X8797780Y-9569694D01*
X8797780Y-9626837D02*
X8812066Y-9598266D01*
X8826352Y-9583980D01*
X8854923Y-9569694D01*
X8883495Y-9569694D01*
X8983495Y-9769694D02*
X8983495Y-9569694D01*
X8983495Y-9469694D02*
X8969209Y-9483980D01*
X8983495Y-9498266D01*
X8997780Y-9483980D01*
X8983495Y-9469694D01*
X8983495Y-9498266D01*
X9169209Y-9769694D02*
X9140638Y-9755409D01*
X9126352Y-9726837D01*
X9126352Y-9469694D01*
X9326352Y-9769694D02*
X9297780Y-9755409D01*
X9283495Y-9726837D01*
X9283495Y-9469694D01*
X9669209Y-9769694D02*
X9669209Y-9469694D01*
X9769209Y-9683980D01*
X9869209Y-9469694D01*
X9869209Y-9769694D01*
X10140638Y-9769694D02*
X10140638Y-9612552D01*
X10126352Y-9583980D01*
X10097780Y-9569694D01*
X10040638Y-9569694D01*
X10012066Y-9583980D01*
X10140638Y-9755409D02*
X10112066Y-9769694D01*
X10040638Y-9769694D01*
X10012066Y-9755409D01*
X9997780Y-9726837D01*
X9997780Y-9698266D01*
X10012066Y-9669694D01*
X10040638Y-9655409D01*
X10112066Y-9655409D01*
X10140638Y-9641123D01*
X10283495Y-9569694D02*
X10283495Y-9869694D01*
X10283495Y-9583980D02*
X10312066Y-9569694D01*
X10369209Y-9569694D01*
X10397780Y-9583980D01*
X10412066Y-9598266D01*
X10426352Y-9626837D01*
X10426352Y-9712552D01*
X10412066Y-9741123D01*
X10397780Y-9755409D01*
X10369209Y-9769694D01*
X10312066Y-9769694D01*
X10283495Y-9755409D01*
X10554923Y-9741123D02*
X10569209Y-9755409D01*
X10554923Y-9769694D01*
X10540638Y-9755409D01*
X10554923Y-9741123D01*
X10554923Y-9769694D01*
X10554923Y-9583980D02*
X10569209Y-9598266D01*
X10554923Y-9612552D01*
X10540638Y-9598266D01*
X10554923Y-9583980D01*
X10554923Y-9612552D01*
X8171352Y-10243980D02*
X8211352Y-10283980D01*
X8211352Y-10243980D02*
X8171352Y-10283980D01*
X8554923Y-10099694D02*
X8583495Y-10099694D01*
X8612066Y-10113980D01*
X8626352Y-10128266D01*
X8640638Y-10156837D01*
X8654923Y-10213980D01*
X8654923Y-10285409D01*
X8640638Y-10342552D01*
X8626352Y-10371123D01*
X8612066Y-10385409D01*
X8583495Y-10399694D01*
X8554923Y-10399694D01*
X8526352Y-10385409D01*
X8512066Y-10371123D01*
X8497780Y-10342552D01*
X8483495Y-10285409D01*
X8483495Y-10213980D01*
X8497780Y-10156837D01*
X8512066Y-10128266D01*
X8526352Y-10113980D01*
X8554923Y-10099694D01*
X8783495Y-10371123D02*
X8797780Y-10385409D01*
X8783495Y-10399694D01*
X8769209Y-10385409D01*
X8783495Y-10371123D01*
X8783495Y-10399694D01*
X9054923Y-10199694D02*
X9054923Y-10399694D01*
X8983495Y-10085409D02*
X8912066Y-10299694D01*
X9097780Y-10299694D01*
X9269209Y-10099694D02*
X9297780Y-10099694D01*
X9326352Y-10113980D01*
X9340638Y-10128266D01*
X9354923Y-10156837D01*
X9369209Y-10213980D01*
X9369209Y-10285409D01*
X9354923Y-10342552D01*
X9340638Y-10371123D01*
X9326352Y-10385409D01*
X9297780Y-10399694D01*
X9269209Y-10399694D01*
X9240638Y-10385409D01*
X9226352Y-10371123D01*
X9212066Y-10342552D01*
X9197780Y-10285409D01*
X9197780Y-10213980D01*
X9212066Y-10156837D01*
X9226352Y-10128266D01*
X9240638Y-10113980D01*
X9269209Y-10099694D01*
X9554923Y-10099694D02*
X9583495Y-10099694D01*
X9612066Y-10113980D01*
X9626352Y-10128266D01*
X9640638Y-10156837D01*
X9654923Y-10213980D01*
X9654923Y-10285409D01*
X9640638Y-10342552D01*
X9626352Y-10371123D01*
X9612066Y-10385409D01*
X9583495Y-10399694D01*
X9554923Y-10399694D01*
X9526352Y-10385409D01*
X9512066Y-10371123D01*
X9497780Y-10342552D01*
X9483495Y-10285409D01*
X9483495Y-10213980D01*
X9497780Y-10156837D01*
X9512066Y-10128266D01*
X9526352Y-10113980D01*
X9554923Y-10099694D01*
X9783495Y-10399694D02*
X9783495Y-10199694D01*
X9783495Y-10228266D02*
X9797780Y-10213980D01*
X9826352Y-10199694D01*
X9869209Y-10199694D01*
X9897780Y-10213980D01*
X9912066Y-10242552D01*
X9912066Y-10399694D01*
X9912066Y-10242552D02*
X9926352Y-10213980D01*
X9954923Y-10199694D01*
X9997780Y-10199694D01*
X10026352Y-10213980D01*
X10040638Y-10242552D01*
X10040638Y-10399694D01*
X10183495Y-10399694D02*
X10183495Y-10199694D01*
X10183495Y-10228266D02*
X10197780Y-10213980D01*
X10226352Y-10199694D01*
X10269209Y-10199694D01*
X10297780Y-10213980D01*
X10312066Y-10242552D01*
X10312066Y-10399694D01*
X10312066Y-10242552D02*
X10326352Y-10213980D01*
X10354923Y-10199694D01*
X10397780Y-10199694D01*
X10426352Y-10213980D01*
X10440638Y-10242552D01*
X10440638Y-10399694D01*
X11026352Y-10085409D02*
X10769209Y-10471123D01*
X11412066Y-10099694D02*
X11440638Y-10099694D01*
X11469209Y-10113980D01*
X11483495Y-10128266D01*
X11497780Y-10156837D01*
X11512066Y-10213980D01*
X11512066Y-10285409D01*
X11497780Y-10342552D01*
X11483495Y-10371123D01*
X11469209Y-10385409D01*
X11440638Y-10399694D01*
X11412066Y-10399694D01*
X11383495Y-10385409D01*
X11369209Y-10371123D01*
X11354923Y-10342552D01*
X11340638Y-10285409D01*
X11340638Y-10213980D01*
X11354923Y-10156837D01*
X11369209Y-10128266D01*
X11383495Y-10113980D01*
X11412066Y-10099694D01*
X11640638Y-10371123D02*
X11654923Y-10385409D01*
X11640638Y-10399694D01*
X11626352Y-10385409D01*
X11640638Y-10371123D01*
X11640638Y-10399694D01*
X11840638Y-10099694D02*
X11869209Y-10099694D01*
X11897780Y-10113980D01*
X11912066Y-10128266D01*
X11926352Y-10156837D01*
X11940638Y-10213980D01*
X11940638Y-10285409D01*
X11926352Y-10342552D01*
X11912066Y-10371123D01*
X11897780Y-10385409D01*
X11869209Y-10399694D01*
X11840638Y-10399694D01*
X11812066Y-10385409D01*
X11797780Y-10371123D01*
X11783495Y-10342552D01*
X11769209Y-10285409D01*
X11769209Y-10213980D01*
X11783495Y-10156837D01*
X11797780Y-10128266D01*
X11812066Y-10113980D01*
X11840638Y-10099694D01*
X12226352Y-10399694D02*
X12054923Y-10399694D01*
X12140638Y-10399694D02*
X12140638Y-10099694D01*
X12112066Y-10142552D01*
X12083495Y-10171123D01*
X12054923Y-10185409D01*
X12497780Y-10099694D02*
X12354923Y-10099694D01*
X12340638Y-10242552D01*
X12354923Y-10228266D01*
X12383495Y-10213980D01*
X12454923Y-10213980D01*
X12483495Y-10228266D01*
X12497780Y-10242552D01*
X12512066Y-10271123D01*
X12512066Y-10342552D01*
X12497780Y-10371123D01*
X12483495Y-10385409D01*
X12454923Y-10399694D01*
X12383495Y-10399694D01*
X12354923Y-10385409D01*
X12340638Y-10371123D01*
X12612066Y-10099694D02*
X12812066Y-10099694D01*
X12683495Y-10399694D01*
X12912066Y-10099694D02*
X12912066Y-10156837D01*
X13026352Y-10099694D02*
X13026352Y-10156837D01*
X13469209Y-10513980D02*
X13454923Y-10499694D01*
X13426352Y-10456837D01*
X13412066Y-10428266D01*
X13397780Y-10385409D01*
X13383495Y-10313980D01*
X13383495Y-10256837D01*
X13397780Y-10185409D01*
X13412066Y-10142552D01*
X13426352Y-10113980D01*
X13454923Y-10071123D01*
X13469209Y-10056837D01*
X13726352Y-10099694D02*
X13583495Y-10099694D01*
X13569209Y-10242552D01*
X13583495Y-10228266D01*
X13612066Y-10213980D01*
X13683495Y-10213980D01*
X13712066Y-10228266D01*
X13726352Y-10242552D01*
X13740638Y-10271123D01*
X13740638Y-10342552D01*
X13726352Y-10371123D01*
X13712066Y-10385409D01*
X13683495Y-10399694D01*
X13612066Y-10399694D01*
X13583495Y-10385409D01*
X13569209Y-10371123D01*
X13883495Y-10399694D02*
X13940638Y-10399694D01*
X13969209Y-10385409D01*
X13983495Y-10371123D01*
X14012066Y-10328266D01*
X14026352Y-10271123D01*
X14026352Y-10156837D01*
X14012066Y-10128266D01*
X13997780Y-10113980D01*
X13969209Y-10099694D01*
X13912066Y-10099694D01*
X13883495Y-10113980D01*
X13869209Y-10128266D01*
X13854923Y-10156837D01*
X13854923Y-10228266D01*
X13869209Y-10256837D01*
X13883495Y-10271123D01*
X13912066Y-10285409D01*
X13969209Y-10285409D01*
X13997780Y-10271123D01*
X14012066Y-10256837D01*
X14026352Y-10228266D01*
X14383495Y-10399694D02*
X14383495Y-10099694D01*
X14512066Y-10399694D02*
X14512066Y-10242552D01*
X14497780Y-10213980D01*
X14469209Y-10199694D01*
X14426352Y-10199694D01*
X14397780Y-10213980D01*
X14383495Y-10228266D01*
X14697780Y-10399694D02*
X14669209Y-10385409D01*
X14654923Y-10371123D01*
X14640638Y-10342552D01*
X14640638Y-10256837D01*
X14654923Y-10228266D01*
X14669209Y-10213980D01*
X14697780Y-10199694D01*
X14740638Y-10199694D01*
X14769209Y-10213980D01*
X14783495Y-10228266D01*
X14797780Y-10256837D01*
X14797780Y-10342552D01*
X14783495Y-10371123D01*
X14769209Y-10385409D01*
X14740638Y-10399694D01*
X14697780Y-10399694D01*
X14969209Y-10399694D02*
X14940638Y-10385409D01*
X14926352Y-10356837D01*
X14926352Y-10099694D01*
X15197780Y-10385409D02*
X15169209Y-10399694D01*
X15112066Y-10399694D01*
X15083495Y-10385409D01*
X15069209Y-10356837D01*
X15069209Y-10242552D01*
X15083495Y-10213980D01*
X15112066Y-10199694D01*
X15169209Y-10199694D01*
X15197780Y-10213980D01*
X15212066Y-10242552D01*
X15212066Y-10271123D01*
X15069209Y-10299694D01*
X15326352Y-10385409D02*
X15354923Y-10399694D01*
X15412066Y-10399694D01*
X15440638Y-10385409D01*
X15454923Y-10356837D01*
X15454923Y-10342552D01*
X15440638Y-10313980D01*
X15412066Y-10299694D01*
X15369209Y-10299694D01*
X15340638Y-10285409D01*
X15326352Y-10256837D01*
X15326352Y-10242552D01*
X15340638Y-10213980D01*
X15369209Y-10199694D01*
X15412066Y-10199694D01*
X15440638Y-10213980D01*
X15554923Y-10513980D02*
X15569209Y-10499694D01*
X15597780Y-10456837D01*
X15612066Y-10428266D01*
X15626352Y-10385409D01*
X15640638Y-10313980D01*
X15640638Y-10256837D01*
X15626352Y-10185409D01*
X15612066Y-10142552D01*
X15597780Y-10113980D01*
X15569209Y-10071123D01*
X15554923Y-10056837D01*
X8211352Y-10659980D02*
G75*
G03*
X8211352Y-10659980I-40000J0D01*
G01*
X8554923Y-10495694D02*
X8583495Y-10495694D01*
X8612066Y-10509980D01*
X8626352Y-10524266D01*
X8640638Y-10552837D01*
X8654923Y-10609980D01*
X8654923Y-10681409D01*
X8640638Y-10738552D01*
X8626352Y-10767123D01*
X8612066Y-10781409D01*
X8583495Y-10795694D01*
X8554923Y-10795694D01*
X8526352Y-10781409D01*
X8512066Y-10767123D01*
X8497780Y-10738552D01*
X8483495Y-10681409D01*
X8483495Y-10609980D01*
X8497780Y-10552837D01*
X8512066Y-10524266D01*
X8526352Y-10509980D01*
X8554923Y-10495694D01*
X8783495Y-10767123D02*
X8797780Y-10781409D01*
X8783495Y-10795694D01*
X8769209Y-10781409D01*
X8783495Y-10767123D01*
X8783495Y-10795694D01*
X8969209Y-10624266D02*
X8940638Y-10609980D01*
X8926352Y-10595694D01*
X8912066Y-10567123D01*
X8912066Y-10552837D01*
X8926352Y-10524266D01*
X8940638Y-10509980D01*
X8969209Y-10495694D01*
X9026352Y-10495694D01*
X9054923Y-10509980D01*
X9069209Y-10524266D01*
X9083495Y-10552837D01*
X9083495Y-10567123D01*
X9069209Y-10595694D01*
X9054923Y-10609980D01*
X9026352Y-10624266D01*
X8969209Y-10624266D01*
X8940638Y-10638552D01*
X8926352Y-10652837D01*
X8912066Y-10681409D01*
X8912066Y-10738552D01*
X8926352Y-10767123D01*
X8940638Y-10781409D01*
X8969209Y-10795694D01*
X9026352Y-10795694D01*
X9054923Y-10781409D01*
X9069209Y-10767123D01*
X9083495Y-10738552D01*
X9083495Y-10681409D01*
X9069209Y-10652837D01*
X9054923Y-10638552D01*
X9026352Y-10624266D01*
X9269209Y-10495694D02*
X9297780Y-10495694D01*
X9326352Y-10509980D01*
X9340638Y-10524266D01*
X9354923Y-10552837D01*
X9369209Y-10609980D01*
X9369209Y-10681409D01*
X9354923Y-10738552D01*
X9340638Y-10767123D01*
X9326352Y-10781409D01*
X9297780Y-10795694D01*
X9269209Y-10795694D01*
X9240638Y-10781409D01*
X9226352Y-10767123D01*
X9212066Y-10738552D01*
X9197780Y-10681409D01*
X9197780Y-10609980D01*
X9212066Y-10552837D01*
X9226352Y-10524266D01*
X9240638Y-10509980D01*
X9269209Y-10495694D01*
X9554923Y-10495694D02*
X9583495Y-10495694D01*
X9612066Y-10509980D01*
X9626352Y-10524266D01*
X9640638Y-10552837D01*
X9654923Y-10609980D01*
X9654923Y-10681409D01*
X9640638Y-10738552D01*
X9626352Y-10767123D01*
X9612066Y-10781409D01*
X9583495Y-10795694D01*
X9554923Y-10795694D01*
X9526352Y-10781409D01*
X9512066Y-10767123D01*
X9497780Y-10738552D01*
X9483495Y-10681409D01*
X9483495Y-10609980D01*
X9497780Y-10552837D01*
X9512066Y-10524266D01*
X9526352Y-10509980D01*
X9554923Y-10495694D01*
X9783495Y-10795694D02*
X9783495Y-10595694D01*
X9783495Y-10624266D02*
X9797780Y-10609980D01*
X9826352Y-10595694D01*
X9869209Y-10595694D01*
X9897780Y-10609980D01*
X9912066Y-10638552D01*
X9912066Y-10795694D01*
X9912066Y-10638552D02*
X9926352Y-10609980D01*
X9954923Y-10595694D01*
X9997780Y-10595694D01*
X10026352Y-10609980D01*
X10040638Y-10638552D01*
X10040638Y-10795694D01*
X10183495Y-10795694D02*
X10183495Y-10595694D01*
X10183495Y-10624266D02*
X10197780Y-10609980D01*
X10226352Y-10595694D01*
X10269209Y-10595694D01*
X10297780Y-10609980D01*
X10312066Y-10638552D01*
X10312066Y-10795694D01*
X10312066Y-10638552D02*
X10326352Y-10609980D01*
X10354923Y-10595694D01*
X10397780Y-10595694D01*
X10426352Y-10609980D01*
X10440638Y-10638552D01*
X10440638Y-10795694D01*
X11026352Y-10481409D02*
X10769209Y-10867123D01*
X11412066Y-10495694D02*
X11440638Y-10495694D01*
X11469209Y-10509980D01*
X11483495Y-10524266D01*
X11497780Y-10552837D01*
X11512066Y-10609980D01*
X11512066Y-10681409D01*
X11497780Y-10738552D01*
X11483495Y-10767123D01*
X11469209Y-10781409D01*
X11440638Y-10795694D01*
X11412066Y-10795694D01*
X11383495Y-10781409D01*
X11369209Y-10767123D01*
X11354923Y-10738552D01*
X11340638Y-10681409D01*
X11340638Y-10609980D01*
X11354923Y-10552837D01*
X11369209Y-10524266D01*
X11383495Y-10509980D01*
X11412066Y-10495694D01*
X11640638Y-10767123D02*
X11654923Y-10781409D01*
X11640638Y-10795694D01*
X11626352Y-10781409D01*
X11640638Y-10767123D01*
X11640638Y-10795694D01*
X11840638Y-10495694D02*
X11869209Y-10495694D01*
X11897780Y-10509980D01*
X11912066Y-10524266D01*
X11926352Y-10552837D01*
X11940638Y-10609980D01*
X11940638Y-10681409D01*
X11926352Y-10738552D01*
X11912066Y-10767123D01*
X11897780Y-10781409D01*
X11869209Y-10795694D01*
X11840638Y-10795694D01*
X11812066Y-10781409D01*
X11797780Y-10767123D01*
X11783495Y-10738552D01*
X11769209Y-10681409D01*
X11769209Y-10609980D01*
X11783495Y-10552837D01*
X11797780Y-10524266D01*
X11812066Y-10509980D01*
X11840638Y-10495694D01*
X12040638Y-10495694D02*
X12226352Y-10495694D01*
X12126352Y-10609980D01*
X12169209Y-10609980D01*
X12197780Y-10624266D01*
X12212066Y-10638552D01*
X12226352Y-10667123D01*
X12226352Y-10738552D01*
X12212066Y-10767123D01*
X12197780Y-10781409D01*
X12169209Y-10795694D01*
X12083495Y-10795694D01*
X12054923Y-10781409D01*
X12040638Y-10767123D01*
X12512066Y-10795694D02*
X12340638Y-10795694D01*
X12426352Y-10795694D02*
X12426352Y-10495694D01*
X12397780Y-10538552D01*
X12369209Y-10567123D01*
X12340638Y-10581409D01*
X12783495Y-10495694D02*
X12640638Y-10495694D01*
X12626352Y-10638552D01*
X12640638Y-10624266D01*
X12669209Y-10609980D01*
X12740638Y-10609980D01*
X12769209Y-10624266D01*
X12783495Y-10638552D01*
X12797780Y-10667123D01*
X12797780Y-10738552D01*
X12783495Y-10767123D01*
X12769209Y-10781409D01*
X12740638Y-10795694D01*
X12669209Y-10795694D01*
X12640638Y-10781409D01*
X12626352Y-10767123D01*
X12912066Y-10495694D02*
X12912066Y-10552837D01*
X13026352Y-10495694D02*
X13026352Y-10552837D01*
X13469209Y-10909980D02*
X13454923Y-10895694D01*
X13426352Y-10852837D01*
X13412066Y-10824266D01*
X13397780Y-10781409D01*
X13383495Y-10709980D01*
X13383495Y-10652837D01*
X13397780Y-10581409D01*
X13412066Y-10538552D01*
X13426352Y-10509980D01*
X13454923Y-10467123D01*
X13469209Y-10452837D01*
X13740638Y-10795694D02*
X13569209Y-10795694D01*
X13654923Y-10795694D02*
X13654923Y-10495694D01*
X13626352Y-10538552D01*
X13597780Y-10567123D01*
X13569209Y-10581409D01*
X13997780Y-10595694D02*
X13997780Y-10795694D01*
X13926352Y-10481409D02*
X13854923Y-10695694D01*
X14040638Y-10695694D01*
X14383495Y-10795694D02*
X14383495Y-10495694D01*
X14512066Y-10795694D02*
X14512066Y-10638552D01*
X14497780Y-10609980D01*
X14469209Y-10595694D01*
X14426352Y-10595694D01*
X14397780Y-10609980D01*
X14383495Y-10624266D01*
X14697780Y-10795694D02*
X14669209Y-10781409D01*
X14654923Y-10767123D01*
X14640638Y-10738552D01*
X14640638Y-10652837D01*
X14654923Y-10624266D01*
X14669209Y-10609980D01*
X14697780Y-10595694D01*
X14740638Y-10595694D01*
X14769209Y-10609980D01*
X14783495Y-10624266D01*
X14797780Y-10652837D01*
X14797780Y-10738552D01*
X14783495Y-10767123D01*
X14769209Y-10781409D01*
X14740638Y-10795694D01*
X14697780Y-10795694D01*
X14969209Y-10795694D02*
X14940638Y-10781409D01*
X14926352Y-10752837D01*
X14926352Y-10495694D01*
X15197780Y-10781409D02*
X15169209Y-10795694D01*
X15112066Y-10795694D01*
X15083495Y-10781409D01*
X15069209Y-10752837D01*
X15069209Y-10638552D01*
X15083495Y-10609980D01*
X15112066Y-10595694D01*
X15169209Y-10595694D01*
X15197780Y-10609980D01*
X15212066Y-10638552D01*
X15212066Y-10667123D01*
X15069209Y-10695694D01*
X15326352Y-10781409D02*
X15354923Y-10795694D01*
X15412066Y-10795694D01*
X15440638Y-10781409D01*
X15454923Y-10752837D01*
X15454923Y-10738552D01*
X15440638Y-10709980D01*
X15412066Y-10695694D01*
X15369209Y-10695694D01*
X15340638Y-10681409D01*
X15326352Y-10652837D01*
X15326352Y-10638552D01*
X15340638Y-10609980D01*
X15369209Y-10595694D01*
X15412066Y-10595694D01*
X15440638Y-10609980D01*
X15554923Y-10909980D02*
X15569209Y-10895694D01*
X15597780Y-10852837D01*
X15612066Y-10824266D01*
X15626352Y-10781409D01*
X15640638Y-10709980D01*
X15640638Y-10652837D01*
X15626352Y-10581409D01*
X15612066Y-10538552D01*
X15597780Y-10509980D01*
X15569209Y-10467123D01*
X15554923Y-10452837D01*
X8161352Y-11005980D02*
X8161352Y-11105980D01*
X8111352Y-11055980D02*
X8211352Y-11055980D01*
X8654923Y-11191694D02*
X8483495Y-11191694D01*
X8569209Y-11191694D02*
X8569209Y-10891694D01*
X8540638Y-10934552D01*
X8512066Y-10963123D01*
X8483495Y-10977409D01*
X8783495Y-11163123D02*
X8797780Y-11177409D01*
X8783495Y-11191694D01*
X8769209Y-11177409D01*
X8783495Y-11163123D01*
X8783495Y-11191694D01*
X8983495Y-10891694D02*
X9012066Y-10891694D01*
X9040638Y-10905980D01*
X9054923Y-10920266D01*
X9069209Y-10948837D01*
X9083495Y-11005980D01*
X9083495Y-11077409D01*
X9069209Y-11134552D01*
X9054923Y-11163123D01*
X9040638Y-11177409D01*
X9012066Y-11191694D01*
X8983495Y-11191694D01*
X8954923Y-11177409D01*
X8940638Y-11163123D01*
X8926352Y-11134552D01*
X8912066Y-11077409D01*
X8912066Y-11005980D01*
X8926352Y-10948837D01*
X8940638Y-10920266D01*
X8954923Y-10905980D01*
X8983495Y-10891694D01*
X9269209Y-10891694D02*
X9297780Y-10891694D01*
X9326352Y-10905980D01*
X9340638Y-10920266D01*
X9354923Y-10948837D01*
X9369209Y-11005980D01*
X9369209Y-11077409D01*
X9354923Y-11134552D01*
X9340638Y-11163123D01*
X9326352Y-11177409D01*
X9297780Y-11191694D01*
X9269209Y-11191694D01*
X9240638Y-11177409D01*
X9226352Y-11163123D01*
X9212066Y-11134552D01*
X9197780Y-11077409D01*
X9197780Y-11005980D01*
X9212066Y-10948837D01*
X9226352Y-10920266D01*
X9240638Y-10905980D01*
X9269209Y-10891694D01*
X9554923Y-10891694D02*
X9583495Y-10891694D01*
X9612066Y-10905980D01*
X9626352Y-10920266D01*
X9640638Y-10948837D01*
X9654923Y-11005980D01*
X9654923Y-11077409D01*
X9640638Y-11134552D01*
X9626352Y-11163123D01*
X9612066Y-11177409D01*
X9583495Y-11191694D01*
X9554923Y-11191694D01*
X9526352Y-11177409D01*
X9512066Y-11163123D01*
X9497780Y-11134552D01*
X9483495Y-11077409D01*
X9483495Y-11005980D01*
X9497780Y-10948837D01*
X9512066Y-10920266D01*
X9526352Y-10905980D01*
X9554923Y-10891694D01*
X9783495Y-11191694D02*
X9783495Y-10991694D01*
X9783495Y-11020266D02*
X9797780Y-11005980D01*
X9826352Y-10991694D01*
X9869209Y-10991694D01*
X9897780Y-11005980D01*
X9912066Y-11034552D01*
X9912066Y-11191694D01*
X9912066Y-11034552D02*
X9926352Y-11005980D01*
X9954923Y-10991694D01*
X9997780Y-10991694D01*
X10026352Y-11005980D01*
X10040638Y-11034552D01*
X10040638Y-11191694D01*
X10183495Y-11191694D02*
X10183495Y-10991694D01*
X10183495Y-11020266D02*
X10197780Y-11005980D01*
X10226352Y-10991694D01*
X10269209Y-10991694D01*
X10297780Y-11005980D01*
X10312066Y-11034552D01*
X10312066Y-11191694D01*
X10312066Y-11034552D02*
X10326352Y-11005980D01*
X10354923Y-10991694D01*
X10397780Y-10991694D01*
X10426352Y-11005980D01*
X10440638Y-11034552D01*
X10440638Y-11191694D01*
X11026352Y-10877409D02*
X10769209Y-11263123D01*
X11412066Y-10891694D02*
X11440638Y-10891694D01*
X11469209Y-10905980D01*
X11483495Y-10920266D01*
X11497780Y-10948837D01*
X11512066Y-11005980D01*
X11512066Y-11077409D01*
X11497780Y-11134552D01*
X11483495Y-11163123D01*
X11469209Y-11177409D01*
X11440638Y-11191694D01*
X11412066Y-11191694D01*
X11383495Y-11177409D01*
X11369209Y-11163123D01*
X11354923Y-11134552D01*
X11340638Y-11077409D01*
X11340638Y-11005980D01*
X11354923Y-10948837D01*
X11369209Y-10920266D01*
X11383495Y-10905980D01*
X11412066Y-10891694D01*
X11640638Y-11163123D02*
X11654923Y-11177409D01*
X11640638Y-11191694D01*
X11626352Y-11177409D01*
X11640638Y-11163123D01*
X11640638Y-11191694D01*
X11840638Y-10891694D02*
X11869209Y-10891694D01*
X11897780Y-10905980D01*
X11912066Y-10920266D01*
X11926352Y-10948837D01*
X11940638Y-11005980D01*
X11940638Y-11077409D01*
X11926352Y-11134552D01*
X11912066Y-11163123D01*
X11897780Y-11177409D01*
X11869209Y-11191694D01*
X11840638Y-11191694D01*
X11812066Y-11177409D01*
X11797780Y-11163123D01*
X11783495Y-11134552D01*
X11769209Y-11077409D01*
X11769209Y-11005980D01*
X11783495Y-10948837D01*
X11797780Y-10920266D01*
X11812066Y-10905980D01*
X11840638Y-10891694D01*
X12040638Y-10891694D02*
X12226352Y-10891694D01*
X12126352Y-11005980D01*
X12169209Y-11005980D01*
X12197780Y-11020266D01*
X12212066Y-11034552D01*
X12226352Y-11063123D01*
X12226352Y-11134552D01*
X12212066Y-11163123D01*
X12197780Y-11177409D01*
X12169209Y-11191694D01*
X12083495Y-11191694D01*
X12054923Y-11177409D01*
X12040638Y-11163123D01*
X12369209Y-11191694D02*
X12426352Y-11191694D01*
X12454923Y-11177409D01*
X12469209Y-11163123D01*
X12497780Y-11120266D01*
X12512066Y-11063123D01*
X12512066Y-10948837D01*
X12497780Y-10920266D01*
X12483495Y-10905980D01*
X12454923Y-10891694D01*
X12397780Y-10891694D01*
X12369209Y-10905980D01*
X12354923Y-10920266D01*
X12340638Y-10948837D01*
X12340638Y-11020266D01*
X12354923Y-11048837D01*
X12369209Y-11063123D01*
X12397780Y-11077409D01*
X12454923Y-11077409D01*
X12483495Y-11063123D01*
X12497780Y-11048837D01*
X12512066Y-11020266D01*
X12769209Y-10991694D02*
X12769209Y-11191694D01*
X12697780Y-10877409D02*
X12626352Y-11091694D01*
X12812066Y-11091694D01*
X12912066Y-10891694D02*
X12912066Y-10948837D01*
X13026352Y-10891694D02*
X13026352Y-10948837D01*
X13469209Y-11305980D02*
X13454923Y-11291694D01*
X13426352Y-11248837D01*
X13412066Y-11220266D01*
X13397780Y-11177409D01*
X13383495Y-11105980D01*
X13383495Y-11048837D01*
X13397780Y-10977409D01*
X13412066Y-10934552D01*
X13426352Y-10905980D01*
X13454923Y-10863123D01*
X13469209Y-10848837D01*
X13626352Y-11020266D02*
X13597780Y-11005980D01*
X13583495Y-10991694D01*
X13569209Y-10963123D01*
X13569209Y-10948837D01*
X13583495Y-10920266D01*
X13597780Y-10905980D01*
X13626352Y-10891694D01*
X13683495Y-10891694D01*
X13712066Y-10905980D01*
X13726352Y-10920266D01*
X13740638Y-10948837D01*
X13740638Y-10963123D01*
X13726352Y-10991694D01*
X13712066Y-11005980D01*
X13683495Y-11020266D01*
X13626352Y-11020266D01*
X13597780Y-11034552D01*
X13583495Y-11048837D01*
X13569209Y-11077409D01*
X13569209Y-11134552D01*
X13583495Y-11163123D01*
X13597780Y-11177409D01*
X13626352Y-11191694D01*
X13683495Y-11191694D01*
X13712066Y-11177409D01*
X13726352Y-11163123D01*
X13740638Y-11134552D01*
X13740638Y-11077409D01*
X13726352Y-11048837D01*
X13712066Y-11034552D01*
X13683495Y-11020266D01*
X14097780Y-11191694D02*
X14097780Y-10891694D01*
X14226352Y-11191694D02*
X14226352Y-11034552D01*
X14212066Y-11005980D01*
X14183495Y-10991694D01*
X14140638Y-10991694D01*
X14112066Y-11005980D01*
X14097780Y-11020266D01*
X14412066Y-11191694D02*
X14383495Y-11177409D01*
X14369209Y-11163123D01*
X14354923Y-11134552D01*
X14354923Y-11048837D01*
X14369209Y-11020266D01*
X14383495Y-11005980D01*
X14412066Y-10991694D01*
X14454923Y-10991694D01*
X14483495Y-11005980D01*
X14497780Y-11020266D01*
X14512066Y-11048837D01*
X14512066Y-11134552D01*
X14497780Y-11163123D01*
X14483495Y-11177409D01*
X14454923Y-11191694D01*
X14412066Y-11191694D01*
X14683495Y-11191694D02*
X14654923Y-11177409D01*
X14640638Y-11148837D01*
X14640638Y-10891694D01*
X14912066Y-11177409D02*
X14883495Y-11191694D01*
X14826352Y-11191694D01*
X14797780Y-11177409D01*
X14783495Y-11148837D01*
X14783495Y-11034552D01*
X14797780Y-11005980D01*
X14826352Y-10991694D01*
X14883495Y-10991694D01*
X14912066Y-11005980D01*
X14926352Y-11034552D01*
X14926352Y-11063123D01*
X14783495Y-11091694D01*
X15040638Y-11177409D02*
X15069209Y-11191694D01*
X15126352Y-11191694D01*
X15154923Y-11177409D01*
X15169209Y-11148837D01*
X15169209Y-11134552D01*
X15154923Y-11105980D01*
X15126352Y-11091694D01*
X15083495Y-11091694D01*
X15054923Y-11077409D01*
X15040638Y-11048837D01*
X15040638Y-11034552D01*
X15054923Y-11005980D01*
X15083495Y-10991694D01*
X15126352Y-10991694D01*
X15154923Y-11005980D01*
X15269209Y-11305980D02*
X15283495Y-11291694D01*
X15312066Y-11248837D01*
X15326352Y-11220266D01*
X15340638Y-11177409D01*
X15354923Y-11105980D01*
X15354923Y-11048837D01*
X15340638Y-10977409D01*
X15326352Y-10934552D01*
X15312066Y-10905980D01*
X15283495Y-10863123D01*
X15269209Y-10848837D01*
X8167419Y-11558047D02*
X8167419Y-11345913D01*
X7955285Y-11345913D01*
X7955285Y-11558047D01*
X8167419Y-11558047D01*
X8469209Y-11287694D02*
X8654923Y-11287694D01*
X8554923Y-11401980D01*
X8597780Y-11401980D01*
X8626352Y-11416266D01*
X8640638Y-11430551D01*
X8654923Y-11459123D01*
X8654923Y-11530551D01*
X8640638Y-11559123D01*
X8626352Y-11573409D01*
X8597780Y-11587694D01*
X8512066Y-11587694D01*
X8483495Y-11573409D01*
X8469209Y-11559123D01*
X8783495Y-11559123D02*
X8797780Y-11573409D01*
X8783495Y-11587694D01*
X8769209Y-11573409D01*
X8783495Y-11559123D01*
X8783495Y-11587694D01*
X8983495Y-11287694D02*
X9012066Y-11287694D01*
X9040638Y-11301980D01*
X9054923Y-11316266D01*
X9069209Y-11344837D01*
X9083495Y-11401980D01*
X9083495Y-11473409D01*
X9069209Y-11530551D01*
X9054923Y-11559123D01*
X9040638Y-11573409D01*
X9012066Y-11587694D01*
X8983495Y-11587694D01*
X8954923Y-11573409D01*
X8940638Y-11559123D01*
X8926352Y-11530551D01*
X8912066Y-11473409D01*
X8912066Y-11401980D01*
X8926352Y-11344837D01*
X8940638Y-11316266D01*
X8954923Y-11301980D01*
X8983495Y-11287694D01*
X9269209Y-11287694D02*
X9297780Y-11287694D01*
X9326352Y-11301980D01*
X9340638Y-11316266D01*
X9354923Y-11344837D01*
X9369209Y-11401980D01*
X9369209Y-11473409D01*
X9354923Y-11530551D01*
X9340638Y-11559123D01*
X9326352Y-11573409D01*
X9297780Y-11587694D01*
X9269209Y-11587694D01*
X9240638Y-11573409D01*
X9226352Y-11559123D01*
X9212066Y-11530551D01*
X9197780Y-11473409D01*
X9197780Y-11401980D01*
X9212066Y-11344837D01*
X9226352Y-11316266D01*
X9240638Y-11301980D01*
X9269209Y-11287694D01*
X9554923Y-11287694D02*
X9583495Y-11287694D01*
X9612066Y-11301980D01*
X9626352Y-11316266D01*
X9640638Y-11344837D01*
X9654923Y-11401980D01*
X9654923Y-11473409D01*
X9640638Y-11530551D01*
X9626352Y-11559123D01*
X9612066Y-11573409D01*
X9583495Y-11587694D01*
X9554923Y-11587694D01*
X9526352Y-11573409D01*
X9512066Y-11559123D01*
X9497780Y-11530551D01*
X9483495Y-11473409D01*
X9483495Y-11401980D01*
X9497780Y-11344837D01*
X9512066Y-11316266D01*
X9526352Y-11301980D01*
X9554923Y-11287694D01*
X9783495Y-11587694D02*
X9783495Y-11387694D01*
X9783495Y-11416266D02*
X9797780Y-11401980D01*
X9826352Y-11387694D01*
X9869209Y-11387694D01*
X9897780Y-11401980D01*
X9912066Y-11430551D01*
X9912066Y-11587694D01*
X9912066Y-11430551D02*
X9926352Y-11401980D01*
X9954923Y-11387694D01*
X9997780Y-11387694D01*
X10026352Y-11401980D01*
X10040638Y-11430551D01*
X10040638Y-11587694D01*
X10183495Y-11587694D02*
X10183495Y-11387694D01*
X10183495Y-11416266D02*
X10197780Y-11401980D01*
X10226352Y-11387694D01*
X10269209Y-11387694D01*
X10297780Y-11401980D01*
X10312066Y-11430551D01*
X10312066Y-11587694D01*
X10312066Y-11430551D02*
X10326352Y-11401980D01*
X10354923Y-11387694D01*
X10397780Y-11387694D01*
X10426352Y-11401980D01*
X10440638Y-11430551D01*
X10440638Y-11587694D01*
X11026352Y-11273409D02*
X10769209Y-11659123D01*
X11412066Y-11287694D02*
X11440638Y-11287694D01*
X11469209Y-11301980D01*
X11483495Y-11316266D01*
X11497780Y-11344837D01*
X11512066Y-11401980D01*
X11512066Y-11473409D01*
X11497780Y-11530551D01*
X11483495Y-11559123D01*
X11469209Y-11573409D01*
X11440638Y-11587694D01*
X11412066Y-11587694D01*
X11383495Y-11573409D01*
X11369209Y-11559123D01*
X11354923Y-11530551D01*
X11340638Y-11473409D01*
X11340638Y-11401980D01*
X11354923Y-11344837D01*
X11369209Y-11316266D01*
X11383495Y-11301980D01*
X11412066Y-11287694D01*
X11640638Y-11559123D02*
X11654923Y-11573409D01*
X11640638Y-11587694D01*
X11626352Y-11573409D01*
X11640638Y-11559123D01*
X11640638Y-11587694D01*
X11940638Y-11587694D02*
X11769209Y-11587694D01*
X11854923Y-11587694D02*
X11854923Y-11287694D01*
X11826352Y-11330551D01*
X11797780Y-11359123D01*
X11769209Y-11373409D01*
X12226352Y-11587694D02*
X12054923Y-11587694D01*
X12140638Y-11587694D02*
X12140638Y-11287694D01*
X12112066Y-11330551D01*
X12083495Y-11359123D01*
X12054923Y-11373409D01*
X12397780Y-11416266D02*
X12369209Y-11401980D01*
X12354923Y-11387694D01*
X12340638Y-11359123D01*
X12340638Y-11344837D01*
X12354923Y-11316266D01*
X12369209Y-11301980D01*
X12397780Y-11287694D01*
X12454923Y-11287694D01*
X12483495Y-11301980D01*
X12497780Y-11316266D01*
X12512066Y-11344837D01*
X12512066Y-11359123D01*
X12497780Y-11387694D01*
X12483495Y-11401980D01*
X12454923Y-11416266D01*
X12397780Y-11416266D01*
X12369209Y-11430551D01*
X12354923Y-11444837D01*
X12340638Y-11473409D01*
X12340638Y-11530551D01*
X12354923Y-11559123D01*
X12369209Y-11573409D01*
X12397780Y-11587694D01*
X12454923Y-11587694D01*
X12483495Y-11573409D01*
X12497780Y-11559123D01*
X12512066Y-11530551D01*
X12512066Y-11473409D01*
X12497780Y-11444837D01*
X12483495Y-11430551D01*
X12454923Y-11416266D01*
X12797780Y-11587694D02*
X12626352Y-11587694D01*
X12712066Y-11587694D02*
X12712066Y-11287694D01*
X12683495Y-11330551D01*
X12654923Y-11359123D01*
X12626352Y-11373409D01*
X12912066Y-11287694D02*
X12912066Y-11344837D01*
X13026352Y-11287694D02*
X13026352Y-11344837D01*
X13469209Y-11701980D02*
X13454923Y-11687694D01*
X13426352Y-11644837D01*
X13412066Y-11616266D01*
X13397780Y-11573409D01*
X13383495Y-11501980D01*
X13383495Y-11444837D01*
X13397780Y-11373409D01*
X13412066Y-11330551D01*
X13426352Y-11301980D01*
X13454923Y-11259123D01*
X13469209Y-11244837D01*
X13712066Y-11287694D02*
X13654923Y-11287694D01*
X13626352Y-11301980D01*
X13612066Y-11316266D01*
X13583495Y-11359123D01*
X13569209Y-11416266D01*
X13569209Y-11530551D01*
X13583495Y-11559123D01*
X13597780Y-11573409D01*
X13626352Y-11587694D01*
X13683495Y-11587694D01*
X13712066Y-11573409D01*
X13726352Y-11559123D01*
X13740638Y-11530551D01*
X13740638Y-11459123D01*
X13726352Y-11430551D01*
X13712066Y-11416266D01*
X13683495Y-11401980D01*
X13626352Y-11401980D01*
X13597780Y-11416266D01*
X13583495Y-11430551D01*
X13569209Y-11459123D01*
X14097780Y-11587694D02*
X14097780Y-11287694D01*
X14226352Y-11587694D02*
X14226352Y-11430551D01*
X14212066Y-11401980D01*
X14183495Y-11387694D01*
X14140638Y-11387694D01*
X14112066Y-11401980D01*
X14097780Y-11416266D01*
X14412066Y-11587694D02*
X14383495Y-11573409D01*
X14369209Y-11559123D01*
X14354923Y-11530551D01*
X14354923Y-11444837D01*
X14369209Y-11416266D01*
X14383495Y-11401980D01*
X14412066Y-11387694D01*
X14454923Y-11387694D01*
X14483495Y-11401980D01*
X14497780Y-11416266D01*
X14512066Y-11444837D01*
X14512066Y-11530551D01*
X14497780Y-11559123D01*
X14483495Y-11573409D01*
X14454923Y-11587694D01*
X14412066Y-11587694D01*
X14683495Y-11587694D02*
X14654923Y-11573409D01*
X14640638Y-11544837D01*
X14640638Y-11287694D01*
X14912066Y-11573409D02*
X14883495Y-11587694D01*
X14826352Y-11587694D01*
X14797780Y-11573409D01*
X14783495Y-11544837D01*
X14783495Y-11430551D01*
X14797780Y-11401980D01*
X14826352Y-11387694D01*
X14883495Y-11387694D01*
X14912066Y-11401980D01*
X14926352Y-11430551D01*
X14926352Y-11459123D01*
X14783495Y-11487694D01*
X15040638Y-11573409D02*
X15069209Y-11587694D01*
X15126352Y-11587694D01*
X15154923Y-11573409D01*
X15169209Y-11544837D01*
X15169209Y-11530551D01*
X15154923Y-11501980D01*
X15126352Y-11487694D01*
X15083495Y-11487694D01*
X15054923Y-11473409D01*
X15040638Y-11444837D01*
X15040638Y-11430551D01*
X15054923Y-11401980D01*
X15083495Y-11387694D01*
X15126352Y-11387694D01*
X15154923Y-11401980D01*
X15269209Y-11701980D02*
X15283495Y-11687694D01*
X15312066Y-11644837D01*
X15326352Y-11616266D01*
X15340638Y-11573409D01*
X15354923Y-11501980D01*
X15354923Y-11444837D01*
X15340638Y-11373409D01*
X15326352Y-11330551D01*
X15312066Y-11301980D01*
X15283495Y-11259123D01*
X15269209Y-11244837D01*
M02*
