%FSLAX45Y45*%
G04 Gerber Fmt 4.5, Leading zero omitted, Abs format (unit mm)*
G04 Created by KiCad (PCBNEW 5.1.10) date 2021-12-10 15:48:50*
%MOMM*%
%LPD*%
G01*
G04 APERTURE LIST*
%TA.AperFunction,Profile*%
%ADD10C,0.050000*%
%TD*%
%ADD11C,0.200000*%
%ADD12C,0.300000*%
G04 APERTURE END LIST*
D10*
X8220456Y-4022344D02*
X8218932Y-4141724D01*
X14834616Y-4012184D02*
X8220456Y-4022344D01*
X14834108Y-4218432D02*
X14834616Y-4012184D01*
X14828520Y-9301480D02*
X14834108Y-4218432D01*
X8213852Y-9296908D02*
X14828520Y-9301480D01*
X8213852Y-9025636D02*
X8213852Y-9296908D01*
X8218932Y-4141724D02*
X8213852Y-9025636D01*
D11*
X8407420Y-8783340D02*
X8727420Y-9103340D01*
X8727420Y-8783340D02*
X8407420Y-9103340D01*
X8412500Y-4208800D02*
X8732500Y-4528800D01*
X8732500Y-4208800D02*
X8412500Y-4528800D01*
X13440430Y-8741430D02*
X13760430Y-9061430D01*
X13760430Y-8741430D02*
X13440430Y-9061430D01*
X14321810Y-4178320D02*
X14641810Y-4498320D01*
X14641810Y-4178320D02*
X14321810Y-4498320D01*
D12*
X8497780Y-9769694D02*
X8497780Y-9469694D01*
X8569209Y-9469694D01*
X8612066Y-9483980D01*
X8640638Y-9512552D01*
X8654923Y-9541123D01*
X8669209Y-9598266D01*
X8669209Y-9641123D01*
X8654923Y-9698266D01*
X8640638Y-9726837D01*
X8612066Y-9755409D01*
X8569209Y-9769694D01*
X8497780Y-9769694D01*
X8797780Y-9769694D02*
X8797780Y-9569694D01*
X8797780Y-9626837D02*
X8812066Y-9598266D01*
X8826352Y-9583980D01*
X8854923Y-9569694D01*
X8883495Y-9569694D01*
X8983495Y-9769694D02*
X8983495Y-9569694D01*
X8983495Y-9469694D02*
X8969209Y-9483980D01*
X8983495Y-9498266D01*
X8997780Y-9483980D01*
X8983495Y-9469694D01*
X8983495Y-9498266D01*
X9169209Y-9769694D02*
X9140638Y-9755409D01*
X9126352Y-9726837D01*
X9126352Y-9469694D01*
X9326352Y-9769694D02*
X9297780Y-9755409D01*
X9283495Y-9726837D01*
X9283495Y-9469694D01*
X9669209Y-9769694D02*
X9669209Y-9469694D01*
X9769209Y-9683980D01*
X9869209Y-9469694D01*
X9869209Y-9769694D01*
X10140638Y-9769694D02*
X10140638Y-9612552D01*
X10126352Y-9583980D01*
X10097780Y-9569694D01*
X10040638Y-9569694D01*
X10012066Y-9583980D01*
X10140638Y-9755409D02*
X10112066Y-9769694D01*
X10040638Y-9769694D01*
X10012066Y-9755409D01*
X9997780Y-9726837D01*
X9997780Y-9698266D01*
X10012066Y-9669694D01*
X10040638Y-9655409D01*
X10112066Y-9655409D01*
X10140638Y-9641123D01*
X10283495Y-9569694D02*
X10283495Y-9869694D01*
X10283495Y-9583980D02*
X10312066Y-9569694D01*
X10369209Y-9569694D01*
X10397780Y-9583980D01*
X10412066Y-9598266D01*
X10426352Y-9626837D01*
X10426352Y-9712552D01*
X10412066Y-9741123D01*
X10397780Y-9755409D01*
X10369209Y-9769694D01*
X10312066Y-9769694D01*
X10283495Y-9755409D01*
X10554923Y-9741123D02*
X10569209Y-9755409D01*
X10554923Y-9769694D01*
X10540638Y-9755409D01*
X10554923Y-9741123D01*
X10554923Y-9769694D01*
X10554923Y-9583980D02*
X10569209Y-9598266D01*
X10554923Y-9612552D01*
X10540638Y-9598266D01*
X10554923Y-9583980D01*
X10554923Y-9612552D01*
X7891352Y-10103980D02*
X8211352Y-10423980D01*
X8211352Y-10103980D02*
X7891352Y-10423980D01*
X8469209Y-10099694D02*
X8654923Y-10099694D01*
X8554923Y-10213980D01*
X8597780Y-10213980D01*
X8626352Y-10228266D01*
X8640638Y-10242552D01*
X8654923Y-10271123D01*
X8654923Y-10342552D01*
X8640638Y-10371123D01*
X8626352Y-10385409D01*
X8597780Y-10399694D01*
X8512066Y-10399694D01*
X8483495Y-10385409D01*
X8469209Y-10371123D01*
X8783495Y-10371123D02*
X8797780Y-10385409D01*
X8783495Y-10399694D01*
X8769209Y-10385409D01*
X8783495Y-10371123D01*
X8783495Y-10399694D01*
X8912066Y-10128266D02*
X8926352Y-10113980D01*
X8954923Y-10099694D01*
X9026352Y-10099694D01*
X9054923Y-10113980D01*
X9069209Y-10128266D01*
X9083495Y-10156837D01*
X9083495Y-10185409D01*
X9069209Y-10228266D01*
X8897780Y-10399694D01*
X9083495Y-10399694D01*
X9269209Y-10099694D02*
X9297780Y-10099694D01*
X9326352Y-10113980D01*
X9340638Y-10128266D01*
X9354923Y-10156837D01*
X9369209Y-10213980D01*
X9369209Y-10285409D01*
X9354923Y-10342552D01*
X9340638Y-10371123D01*
X9326352Y-10385409D01*
X9297780Y-10399694D01*
X9269209Y-10399694D01*
X9240638Y-10385409D01*
X9226352Y-10371123D01*
X9212066Y-10342552D01*
X9197780Y-10285409D01*
X9197780Y-10213980D01*
X9212066Y-10156837D01*
X9226352Y-10128266D01*
X9240638Y-10113980D01*
X9269209Y-10099694D01*
X9554923Y-10099694D02*
X9583495Y-10099694D01*
X9612066Y-10113980D01*
X9626352Y-10128266D01*
X9640638Y-10156837D01*
X9654923Y-10213980D01*
X9654923Y-10285409D01*
X9640638Y-10342552D01*
X9626352Y-10371123D01*
X9612066Y-10385409D01*
X9583495Y-10399694D01*
X9554923Y-10399694D01*
X9526352Y-10385409D01*
X9512066Y-10371123D01*
X9497780Y-10342552D01*
X9483495Y-10285409D01*
X9483495Y-10213980D01*
X9497780Y-10156837D01*
X9512066Y-10128266D01*
X9526352Y-10113980D01*
X9554923Y-10099694D01*
X9783495Y-10399694D02*
X9783495Y-10199694D01*
X9783495Y-10228266D02*
X9797780Y-10213980D01*
X9826352Y-10199694D01*
X9869209Y-10199694D01*
X9897780Y-10213980D01*
X9912066Y-10242552D01*
X9912066Y-10399694D01*
X9912066Y-10242552D02*
X9926352Y-10213980D01*
X9954923Y-10199694D01*
X9997780Y-10199694D01*
X10026352Y-10213980D01*
X10040638Y-10242552D01*
X10040638Y-10399694D01*
X10183495Y-10399694D02*
X10183495Y-10199694D01*
X10183495Y-10228266D02*
X10197780Y-10213980D01*
X10226352Y-10199694D01*
X10269209Y-10199694D01*
X10297780Y-10213980D01*
X10312066Y-10242552D01*
X10312066Y-10399694D01*
X10312066Y-10242552D02*
X10326352Y-10213980D01*
X10354923Y-10199694D01*
X10397780Y-10199694D01*
X10426352Y-10213980D01*
X10440638Y-10242552D01*
X10440638Y-10399694D01*
X11026352Y-10085409D02*
X10769209Y-10471123D01*
X11412066Y-10099694D02*
X11440638Y-10099694D01*
X11469209Y-10113980D01*
X11483495Y-10128266D01*
X11497780Y-10156837D01*
X11512066Y-10213980D01*
X11512066Y-10285409D01*
X11497780Y-10342552D01*
X11483495Y-10371123D01*
X11469209Y-10385409D01*
X11440638Y-10399694D01*
X11412066Y-10399694D01*
X11383495Y-10385409D01*
X11369209Y-10371123D01*
X11354923Y-10342552D01*
X11340638Y-10285409D01*
X11340638Y-10213980D01*
X11354923Y-10156837D01*
X11369209Y-10128266D01*
X11383495Y-10113980D01*
X11412066Y-10099694D01*
X11640638Y-10371123D02*
X11654923Y-10385409D01*
X11640638Y-10399694D01*
X11626352Y-10385409D01*
X11640638Y-10371123D01*
X11640638Y-10399694D01*
X11940638Y-10399694D02*
X11769209Y-10399694D01*
X11854923Y-10399694D02*
X11854923Y-10099694D01*
X11826352Y-10142552D01*
X11797780Y-10171123D01*
X11769209Y-10185409D01*
X12054923Y-10128266D02*
X12069209Y-10113980D01*
X12097780Y-10099694D01*
X12169209Y-10099694D01*
X12197780Y-10113980D01*
X12212066Y-10128266D01*
X12226352Y-10156837D01*
X12226352Y-10185409D01*
X12212066Y-10228266D01*
X12040638Y-10399694D01*
X12226352Y-10399694D01*
X12483495Y-10099694D02*
X12426352Y-10099694D01*
X12397780Y-10113980D01*
X12383495Y-10128266D01*
X12354923Y-10171123D01*
X12340638Y-10228266D01*
X12340638Y-10342552D01*
X12354923Y-10371123D01*
X12369209Y-10385409D01*
X12397780Y-10399694D01*
X12454923Y-10399694D01*
X12483495Y-10385409D01*
X12497780Y-10371123D01*
X12512066Y-10342552D01*
X12512066Y-10271123D01*
X12497780Y-10242552D01*
X12483495Y-10228266D01*
X12454923Y-10213980D01*
X12397780Y-10213980D01*
X12369209Y-10228266D01*
X12354923Y-10242552D01*
X12340638Y-10271123D01*
X12697780Y-10099694D02*
X12726352Y-10099694D01*
X12754923Y-10113980D01*
X12769209Y-10128266D01*
X12783495Y-10156837D01*
X12797780Y-10213980D01*
X12797780Y-10285409D01*
X12783495Y-10342552D01*
X12769209Y-10371123D01*
X12754923Y-10385409D01*
X12726352Y-10399694D01*
X12697780Y-10399694D01*
X12669209Y-10385409D01*
X12654923Y-10371123D01*
X12640638Y-10342552D01*
X12626352Y-10285409D01*
X12626352Y-10213980D01*
X12640638Y-10156837D01*
X12654923Y-10128266D01*
X12669209Y-10113980D01*
X12697780Y-10099694D01*
X12912066Y-10099694D02*
X12912066Y-10156837D01*
X13026352Y-10099694D02*
X13026352Y-10156837D01*
X13469209Y-10513980D02*
X13454923Y-10499694D01*
X13426352Y-10456837D01*
X13412066Y-10428266D01*
X13397780Y-10385409D01*
X13383495Y-10313980D01*
X13383495Y-10256837D01*
X13397780Y-10185409D01*
X13412066Y-10142552D01*
X13426352Y-10113980D01*
X13454923Y-10071123D01*
X13469209Y-10056837D01*
X13712066Y-10199694D02*
X13712066Y-10399694D01*
X13640638Y-10085409D02*
X13569209Y-10299694D01*
X13754923Y-10299694D01*
X14097780Y-10399694D02*
X14097780Y-10099694D01*
X14226352Y-10399694D02*
X14226352Y-10242552D01*
X14212066Y-10213980D01*
X14183495Y-10199694D01*
X14140638Y-10199694D01*
X14112066Y-10213980D01*
X14097780Y-10228266D01*
X14412066Y-10399694D02*
X14383495Y-10385409D01*
X14369209Y-10371123D01*
X14354923Y-10342552D01*
X14354923Y-10256837D01*
X14369209Y-10228266D01*
X14383495Y-10213980D01*
X14412066Y-10199694D01*
X14454923Y-10199694D01*
X14483495Y-10213980D01*
X14497780Y-10228266D01*
X14512066Y-10256837D01*
X14512066Y-10342552D01*
X14497780Y-10371123D01*
X14483495Y-10385409D01*
X14454923Y-10399694D01*
X14412066Y-10399694D01*
X14683495Y-10399694D02*
X14654923Y-10385409D01*
X14640638Y-10356837D01*
X14640638Y-10099694D01*
X14912066Y-10385409D02*
X14883495Y-10399694D01*
X14826352Y-10399694D01*
X14797780Y-10385409D01*
X14783495Y-10356837D01*
X14783495Y-10242552D01*
X14797780Y-10213980D01*
X14826352Y-10199694D01*
X14883495Y-10199694D01*
X14912066Y-10213980D01*
X14926352Y-10242552D01*
X14926352Y-10271123D01*
X14783495Y-10299694D01*
X15040638Y-10385409D02*
X15069209Y-10399694D01*
X15126352Y-10399694D01*
X15154923Y-10385409D01*
X15169209Y-10356837D01*
X15169209Y-10342552D01*
X15154923Y-10313980D01*
X15126352Y-10299694D01*
X15083495Y-10299694D01*
X15054923Y-10285409D01*
X15040638Y-10256837D01*
X15040638Y-10242552D01*
X15054923Y-10213980D01*
X15083495Y-10199694D01*
X15126352Y-10199694D01*
X15154923Y-10213980D01*
X15269209Y-10513980D02*
X15283495Y-10499694D01*
X15312066Y-10456837D01*
X15326352Y-10428266D01*
X15340638Y-10385409D01*
X15354923Y-10313980D01*
X15354923Y-10256837D01*
X15340638Y-10185409D01*
X15326352Y-10142552D01*
X15312066Y-10113980D01*
X15283495Y-10071123D01*
X15269209Y-10056837D01*
X15812066Y-10513980D02*
X15797780Y-10499694D01*
X15769209Y-10456837D01*
X15754923Y-10428266D01*
X15740638Y-10385409D01*
X15726352Y-10313980D01*
X15726352Y-10256837D01*
X15740638Y-10185409D01*
X15754923Y-10142552D01*
X15769209Y-10113980D01*
X15797780Y-10071123D01*
X15812066Y-10056837D01*
X15926352Y-10199694D02*
X15926352Y-10399694D01*
X15926352Y-10228266D02*
X15940638Y-10213980D01*
X15969209Y-10199694D01*
X16012066Y-10199694D01*
X16040638Y-10213980D01*
X16054923Y-10242552D01*
X16054923Y-10399694D01*
X16240638Y-10399694D02*
X16212066Y-10385409D01*
X16197780Y-10371123D01*
X16183495Y-10342552D01*
X16183495Y-10256837D01*
X16197780Y-10228266D01*
X16212066Y-10213980D01*
X16240638Y-10199694D01*
X16283495Y-10199694D01*
X16312066Y-10213980D01*
X16326352Y-10228266D01*
X16340638Y-10256837D01*
X16340638Y-10342552D01*
X16326352Y-10371123D01*
X16312066Y-10385409D01*
X16283495Y-10399694D01*
X16240638Y-10399694D01*
X16426352Y-10199694D02*
X16540638Y-10199694D01*
X16469209Y-10099694D02*
X16469209Y-10356837D01*
X16483495Y-10385409D01*
X16512066Y-10399694D01*
X16540638Y-10399694D01*
X16869209Y-10199694D02*
X16869209Y-10499694D01*
X16869209Y-10213980D02*
X16897780Y-10199694D01*
X16954923Y-10199694D01*
X16983495Y-10213980D01*
X16997780Y-10228266D01*
X17012066Y-10256837D01*
X17012066Y-10342552D01*
X16997780Y-10371123D01*
X16983495Y-10385409D01*
X16954923Y-10399694D01*
X16897780Y-10399694D01*
X16869209Y-10385409D01*
X17183495Y-10399694D02*
X17154923Y-10385409D01*
X17140638Y-10356837D01*
X17140638Y-10099694D01*
X17426352Y-10399694D02*
X17426352Y-10242552D01*
X17412066Y-10213980D01*
X17383495Y-10199694D01*
X17326352Y-10199694D01*
X17297780Y-10213980D01*
X17426352Y-10385409D02*
X17397780Y-10399694D01*
X17326352Y-10399694D01*
X17297780Y-10385409D01*
X17283495Y-10356837D01*
X17283495Y-10328266D01*
X17297780Y-10299694D01*
X17326352Y-10285409D01*
X17397780Y-10285409D01*
X17426352Y-10271123D01*
X17526352Y-10199694D02*
X17640638Y-10199694D01*
X17569209Y-10099694D02*
X17569209Y-10356837D01*
X17583495Y-10385409D01*
X17612066Y-10399694D01*
X17640638Y-10399694D01*
X17854923Y-10385409D02*
X17826352Y-10399694D01*
X17769209Y-10399694D01*
X17740638Y-10385409D01*
X17726352Y-10356837D01*
X17726352Y-10242552D01*
X17740638Y-10213980D01*
X17769209Y-10199694D01*
X17826352Y-10199694D01*
X17854923Y-10213980D01*
X17869209Y-10242552D01*
X17869209Y-10271123D01*
X17726352Y-10299694D01*
X18126352Y-10399694D02*
X18126352Y-10099694D01*
X18126352Y-10385409D02*
X18097780Y-10399694D01*
X18040638Y-10399694D01*
X18012066Y-10385409D01*
X17997780Y-10371123D01*
X17983495Y-10342552D01*
X17983495Y-10256837D01*
X17997780Y-10228266D01*
X18012066Y-10213980D01*
X18040638Y-10199694D01*
X18097780Y-10199694D01*
X18126352Y-10213980D01*
X18240638Y-10513980D02*
X18254923Y-10499694D01*
X18283495Y-10456837D01*
X18297780Y-10428266D01*
X18312066Y-10385409D01*
X18326352Y-10313980D01*
X18326352Y-10256837D01*
X18312066Y-10185409D01*
X18297780Y-10142552D01*
X18283495Y-10113980D01*
X18254923Y-10071123D01*
X18240638Y-10056837D01*
M02*
